<svg width="321" height="246" viewBox="0 0 321 246" fill="none" xmlns="http://www.w3.org/2000/svg">
<path fill-rule="evenodd" clip-rule="evenodd" d="M578.089 103.048L586.238 131.242L586.673 131.793L558.549 123.22L549.61 132.482L579.339 191.414L578.704 191.045L535.885 187.165L533.588 164.836L533.504 164.787L533.54 164.713L506.772 124.711L473.215 172.656L494.956 191.801L464.065 185.732L436.834 224.639L355.072 181.068L355.076 181.08L354.646 180.842L329.468 194.256L329.699 207.255L341.496 240.928L342.352 241.524L293.653 231.87L273.106 241.896L292.551 288.637L292.658 288.891L231.808 303.148L234.104 355.678L233.797 355.498L134.2 362.243L133.984 362.259L125.664 305.903L34.7829 315.825L34.509 391.181L-54.9932 353.256L-74.2883 399.603L-116.186 356.228L-143.26 404.516L-143.198 405.784L-143.63 404.746L-218.945 427.931L-209.345 334.334L-261.578 361.145L-261.605 360.86L-293.459 312.559L-361.386 341.527L-362.052 341.945L-361.732 341.274L-365.409 289.365L-397.315 282.657L-346.742 265.114L-342.765 236.036L-342.942 235.356L-320.703 254.59L-308.656 249.695L-281.487 226.571L-281.24 225.558L-272.75 274.291L-170.886 245.859L-170.456 245.613L-170.557 246.073L-157.856 298.66L-111.627 284.709L-111.812 284.6L-111.267 284.561L-111.236 284.145L-110.961 284.508L-110.565 284.388L-110.634 284.514L-82.4855 282.476L-77.4302 270.499L-74.5699 234.934L-75.1115 234.042L-34.5001 262.602L-7.81934 261.622L21.3911 150.722L21.1978 150.252L21.4799 150.38L21.8295 149.058L21.8657 150.555L77.6808 175.803L137.356 177.975L137.211 178.2L163.665 224.57L208.79 211.217L208.775 211.069L238.713 219.354L258.573 207.418L236.823 153.072L236.641 152.62L310.567 175.172L294.182 125.926L254.715 95.4984L296.84 75.8942L271.01 46.8431L270.324 46.7213L318.915 25.6133L322.968 55.5146L335.396 57.7023L335.005 56.9236L335.818 57.6953L454.271 -48.0474L454.627 -48.3654L461.496 49.868L521.045 31.5361L520.187 87.6455L558.622 96.614L585.052 73.4016L585.098 73.3616L617.217 66.5165L578.089 103.048ZM578.21 102.296L615.668 67.3245L585.398 73.7753L578.21 102.296ZM294.581 125.644L313.156 139.965L330.186 113.71L289.478 110.309L294.581 125.644ZM-364.541 288.726L-331.972 278.527L-346.545 265.73L-364.541 288.726ZM-285.477 308.649L-267.896 301.151L-290.484 293.24L-299.36 302.503L-285.477 308.649ZM-299.127 303.118L-293.284 311.978L-286.065 308.899L-299.127 303.118ZM-89.6376 338.761L-115.873 355.88L-74.8047 398.397L-89.6376 338.761ZM277.73 197.2L282.865 208.147L286.813 203.509L277.73 197.2ZM287.113 203.155L309.783 176.516L277.58 196.533L287.113 203.155ZM283.083 208.612L286.771 216.474L297.356 210.835L287.197 203.777L283.083 208.612ZM282.75 209.002L267.784 226.59L286.358 216.694L282.75 209.002ZM286.97 216.897L293.716 231.28L310.443 219.926L297.788 211.133L286.97 216.897ZM286.557 217.118L267.529 227.25L293.223 231.326L286.557 217.118ZM266.164 228.209L216.939 268.778L256.173 249.637L266.164 228.209ZM256.841 249.311L272.505 241.668L266.799 227.953L256.841 249.311ZM215.95 269.78L243.622 276.556L255.859 250.309L215.95 269.78ZM214.686 270.029L150.091 263.514L202.42 288.685L214.593 270.442L213.594 270.929L214.686 270.029ZM-115.913 354.641L-109.82 342.074L-115.061 342.964L-115.913 354.641ZM-115.536 343.044L-130.11 345.517L-116.438 355.404L-115.536 343.044ZM-89.7479 338.193L-93.299 309.075L-109.003 341.461L-89.7479 338.193ZM-109.254 341.977L-115.659 355.183L-90.5576 338.804L-109.254 341.977ZM-109.57 341.558L-93.4575 308.331L-110.861 285.413L-115.028 342.484L-109.57 341.558ZM-89.348 337.612L-73.5287 307.371L-92.8824 308.624L-89.348 337.612ZM-88.9621 337.88L-58.3114 323.512L-73.0773 307.513L-88.9621 337.88ZM-9.2215 334.153L-33.6812 302.066L-43.8426 326.472L-9.2215 334.153ZM-44.0242 326.911L-54.7318 352.627L-9.43842 334.584L-44.0242 326.911ZM-8.57056 334.237L9.75946 326.935L1.90472 309.155L-33.1776 301.956L-8.57056 334.237ZM-34.1144 301.891L-72.6561 307.28L-57.801 323.375L-44.3056 326.369L-34.1144 301.891ZM-34.1263 301.422L-40.1584 291.503L-71.6802 306.671L-34.1263 301.422ZM-33.9952 300.739L-34.2528 288.661L-39.7363 291.3L-33.9952 300.739ZM-33.5126 301.411L1.67371 308.631L-11.8994 277.906L-33.7897 288.439L-33.5126 301.411ZM179.525 323.001L192.069 304.2L170.235 304.753L179.525 323.001ZM231.058 302.461L215.237 270.321L202.847 288.89L231.058 302.461ZM202.585 289.283L192.958 303.71L230.593 302.756L202.585 289.283ZM192.64 304.186L180.106 322.972L230.251 303.231L192.64 304.186ZM169.718 304.768L127.204 305.846L179.031 323.063L169.718 304.768ZM169.483 304.306L148.785 263.651L126.258 305.403L169.483 304.306ZM112.163 248.264L103.218 244.567L98.2453 268.745L98.1979 268.973L98.0719 268.948L84.1832 279.215L125.504 305.146L112.163 248.264ZM87.6778 237.641L102.873 243.921L106.638 225.617L87.6778 237.641ZM106.223 225.328L52.3795 223.054L87.1503 237.423L106.223 225.328ZM103.313 244.101L112.033 247.704L106.992 226.212L103.313 244.101ZM97.4525 268.824L53.7516 260.117L83.7571 278.948L97.4525 268.824ZM52.6834 259.997L34.9949 314.996L83.3546 279.247L52.6834 259.997ZM2.23376 308.746L33.6719 315.197L-11.1738 278.392L2.23376 308.746ZM-12.9907 277.912L-33.9833 279.432L-33.8011 287.925L-12.9907 277.912ZM-11.2932 277.691L34.4326 315.217L52.1968 259.982L-11.2932 277.691ZM53.5572 259.602L97.8344 268.424L102.777 244.385L87.196 237.947L53.407 259.375L54.5186 259.334L53.5572 259.602ZM86.6685 237.729L51.3171 223.119L52.7698 259.227L86.6685 237.729ZM106.555 224.874L94.8132 205.236L52.1514 222.577L106.555 224.874ZM112.565 247.924L147.646 262.422L107.376 225.804L112.565 247.924ZM112.696 248.484L125.95 304.994L148.463 263.265L112.696 248.484ZM149.313 263.657L169.999 304.293L192.387 303.726L202.159 289.079L149.313 263.657ZM215.699 270.199L231.56 302.425L243.421 276.989L215.699 270.199ZM231.981 302.627L291.334 288.722L243.883 277.102L231.981 302.627ZM180.03 323.505L200.299 335.362L230.664 303.57L180.03 323.505ZM180.039 324.051L190.438 345.687L199.968 335.708L180.039 324.051ZM179.418 323.836L135.152 361.493L190.043 345.943L179.418 323.836ZM179.031 323.554L126.148 305.988L134.353 361.56L179.031 323.554ZM125.082 305.433L83.7794 279.513L35.384 315.289L124.771 305.53L124.52 305.447L125.082 305.433ZM2.4649 309.27L10.3824 327.19L-8.27582 334.623L34.0462 390.14L34.3163 315.806L2.4649 309.27ZM-8.72632 334.802L-54.4033 353L33.5576 390.269L-8.72632 334.802ZM-44.4884 326.808L-57.8946 323.834L-88.9153 338.375L-55.2435 352.642L-44.4884 326.808ZM-130.756 345.626L-145.068 348.057L-117.384 355.297L-130.756 345.626ZM-146.853 347.617L-183.32 307.938L-168.892 342.684L-146.853 347.617ZM-168.674 343.211L-162.678 357.654L-146.798 348.108L-168.674 343.211ZM-184.118 307.233L-208.622 333.79L-169.451 342.559L-184.118 307.233ZM-146.616 347.184L-150.428 331.402L-182.307 308.349L-146.616 347.184ZM-162.497 358.09L-160.36 363.238L-147.407 349.018L-162.497 358.09ZM-162.901 358.334L-186.031 372.237L-217.356 425.806L-160.706 363.62L-162.901 358.334ZM-186.122 371.747L-163.082 357.897L-169.232 343.085L-208.276 334.346L-207.462 335.102L-208.413 334.565L-186.122 371.747ZM-209.08 333.599L-184.545 307.006L-241.912 303.092L-209.08 333.599ZM-267.624 300.505L-273.071 275.064L-283.928 286.397L-267.624 300.505ZM-284.252 286.734L-290.13 292.87L-268.334 300.503L-284.252 286.734ZM-267.091 300.768L-253.466 292.992L-272.551 275.259L-267.091 300.768ZM-266.468 300.949L-243.196 302.537L-253.11 293.325L-266.468 300.949ZM-242.309 303.361L-242.918 314.58L-210.675 332.756L-242.309 303.361ZM-242.758 303.034L-266.24 301.432L-243.373 314.324L-242.758 303.034ZM-266.977 301.547L-265.403 317.536L-244.06 326.984L-243.401 314.841L-266.977 301.547ZM-267.453 301.469L-284.895 308.907L-265.893 317.319L-267.453 301.469ZM-331.09 279.303L-331.313 279.107L-333.685 307.444L-300.344 302.434L-331.113 279.216L-331.09 279.303ZM-299.904 302.182L-297.156 290.904L-330.172 279.341L-299.904 302.182ZM-299.328 301.793L-290.971 293.07L-296.713 291.059L-299.328 301.793ZM-333.907 307.949L-333.99 307.961L-342.783 302.743L-360.936 340.693L-300.834 302.98L-333.907 307.949ZM-334.145 307.328L-331.845 279.876L-342.58 302.32L-334.145 307.328ZM-331.948 279.009L-364.618 289.239L-342.984 302.081L-331.948 279.009ZM-331.922 277.949L-336.205 261.394L-346.164 265.442L-331.922 277.949ZM-331.44 277.948L-331.167 277.376L-331.258 278.465L-297.046 290.448L-294.072 278.242L-320.792 255.131L-335.769 261.217L-331.44 277.948ZM-296.602 290.603L-290.614 292.699L-284.606 286.428L-293.674 278.585L-296.602 290.603ZM-284.282 286.091L-273.422 274.755L-274.093 274.666L-273.476 274.494L-289.904 263.102L-293.55 278.075L-284.282 286.091ZM-253.043 292.75L-231.385 280.388L-272.238 274.914L-253.043 292.75ZM-252.685 293.082L-242.505 302.541L-208.848 283.409L-230.623 280.49L-252.685 293.082ZM-208.167 283.559L-241.73 302.637L-184.66 306.53L-208.167 283.559ZM-150.597 330.703L-158.194 299.25L-183.523 306.894L-150.597 330.703ZM-146.09 347.371L-141.004 338.216L-149.846 331.822L-146.09 347.371ZM-145.745 347.697L-131.286 345.243L-140.628 338.489L-145.745 347.697ZM-130.643 345.134L-115.502 342.564L-111.36 285.817L-140.4 338.078L-130.643 345.134ZM-93.2109 307.882L-89.043 298.01L-110.145 285.581L-93.2109 307.882ZM-92.8165 308.152L-73.9022 306.927L-88.6355 298.249L-92.8165 308.152ZM-73.1183 306.845L-40.4022 291.103L-46.9317 280.37L-82.1669 282.921L-88.4532 297.815L-73.1183 306.845ZM-39.9793 290.899L-34.2638 288.148L-34.4489 279.465L-46.4078 280.332L-39.9793 290.899ZM-34.4593 278.998L-34.7991 263.117L-54.6892 266.717L-46.6801 279.883L-34.4593 278.998ZM-34.3274 263.274L-33.9913 278.965L-12.4877 277.412L-34.3274 263.274ZM-10.8519 277.088L50.588 259.947L6.96393 261.548L-10.8519 277.088ZM6.2215 261.575L-7.45569 262.077L-11.3633 276.915L6.2215 261.575ZM52.1015 259.423L35.3837 236.757L7.52307 261.059L52.1015 259.423ZM52.2882 258.89L50.855 223.261L35.7368 236.448L52.2882 258.89ZM50.5062 222.945L23.8538 220.34L35.4576 236.072L50.5062 222.945ZM94.5707 204.83L77.6316 176.498L51.6035 222.295L94.5707 204.83ZM95.0094 204.652L110.17 198.489L78.371 176.824L95.0094 204.652ZM110.652 198.798L95.2513 205.058L106.984 224.681L120.41 203.65L110.652 198.798ZM107.404 224.89L162.57 224.617L120.83 203.86L107.404 224.89ZM107.579 225.355L148.697 262.745L163.214 225.081L107.579 225.355ZM149.12 262.946L214.561 269.548L163.652 225.241L149.12 262.946ZM266.321 227.48L238.781 219.857L226.919 226.988L215.68 269.21L266.321 227.48ZM282.533 208.538L277.053 196.856L259.155 207.613L266.885 226.927L282.533 208.538ZM277.191 196.225L310.372 175.6L237.795 153.46L277.191 196.225ZM311.011 175.795L287.499 203.424L297.816 210.589L328.996 193.978L328.708 177.816L311.269 175.802L311.296 175.882L311.011 175.795ZM524.212 112.753L512.489 109.179L507.139 123.98L507.309 123.943L507.174 124.135L526.945 127.918L524.212 112.753ZM533.91 163.943L548.985 132.612L527.523 128.504L533.91 163.943ZM515.6 100.571L512.648 108.74L524.12 112.237L521.926 100.062L515.6 100.571ZM521.844 99.5998L519.882 88.7188L515.775 100.088L521.844 99.5998ZM397.448 55.7275L372.392 92.4595L384.211 103.695L423.45 95.8628L422.398 95.5012L423.876 95.6438L397.448 55.7275ZM361.345 108.881L360.38 119.585L410.242 130.154L361.345 108.881ZM360.864 109.001L348.648 117.098L359.919 119.487L360.864 109.001ZM348.102 117.46L335.302 125.944L354.509 179.501L359.877 119.956L348.102 117.46ZM347.462 117.324L330.956 113.825L335.141 125.492L347.462 117.324ZM348.01 116.962L360.104 108.945L331.863 113.54L348.01 116.962ZM361.005 120.195L391.493 148.58L411.942 130.992L361.005 120.195ZM411.334 130.119L384.065 104.2L361.917 108.62L411.334 130.119ZM412.349 130.44L423.99 96.2306L384.626 104.088L412.349 130.44ZM435.671 122.161L424.369 96.5652L412.831 130.475L435.671 122.161ZM413.007 130.908L448.409 151.008L435.86 122.589L413.007 130.908ZM436.111 122L466.863 110.806L424.77 96.318L436.111 122ZM467.561 110.552L489.777 102.465L426.285 96.3454L467.561 110.552ZM506.707 123.802L512.041 109.044L491.42 102.753L506.707 123.802ZM490.879 102.803L490.509 103.676L490.549 103.017L480.377 114.963L506.153 123.835L490.879 102.803ZM490.074 102.853L468.262 110.794L479.902 114.8L490.074 102.853ZM467.566 111.048L436.301 122.428L448.971 151.126L479.577 115.182L467.566 111.048ZM412.48 131.145L391.836 148.899L407.968 163.918L448.322 151.495L412.48 131.145ZM391.48 149.207L355.648 180.024L407.453 164.077L391.48 149.207ZM391.137 148.886L360.324 120.199L354.932 180.024L391.137 148.886ZM334.9 126.211L330.288 129.268L329.021 166.175L354.218 180.074L334.9 126.211ZM328.574 165.559L329.809 129.585L313.528 140.377L328.574 165.559ZM329.83 129.012L330.333 114.343L314.022 139.489L329.83 129.012ZM330.308 128.695L334.738 125.758L330.785 114.736L330.308 128.695ZM330.855 113.231L360.79 108.357L335.969 58.8459L330.855 113.231ZM361.172 108.078L371.782 92.5242L336.621 59.1029L361.172 108.078ZM361.656 108.197L383.65 103.806L372.125 92.8502L361.656 108.197ZM457.304 73.4727L470.646 67.1767L461.251 50.5913L448.967 65.8016L457.304 73.4727ZM448.672 66.1651L425.499 94.8615L456.886 73.7224L448.672 66.1651ZM457.38 73.9539L425.012 95.7536L490.405 102.061L470.875 67.5844L457.38 73.9539ZM512.201 108.603L515.088 100.613L492.067 102.466L512.201 108.603ZM480.052 115.345L450.296 150.29L478.833 130.072L478.873 130.046L505.907 124.243L480.052 115.345ZM449.284 151.58L472.732 172.229L478.66 130.768L449.284 151.58ZM448.915 151.876L422.393 177.069L463.856 185.215L472.595 172.73L448.915 151.876ZM448.025 152.076L408.362 164.285L421.903 176.891L448.025 152.076ZM421.7 177.34L407.848 164.444L355.253 180.635L436.366 223.861L421.7 177.34ZM328.977 166.684L329.167 177.398L353.496 180.208L328.977 166.684ZM328.508 166.596L311.712 175.381L328.699 177.345L328.508 166.596ZM328.377 166.138L313.4 141.069L311.192 175.127L328.377 166.138ZM330.261 112.782L323.638 63.937L297.606 76.0532L330.261 112.782ZM330.553 111.461L335.543 58.3968L324.083 63.7311L330.553 111.461ZM372.048 92.1338L396.995 55.5626L336.372 58.223L372.048 92.1338ZM397.44 55.0754L397.572 55.0698L423.805 94.6895L407.986 28.879L337.151 57.7204L397.44 55.0754ZM424.458 95.4073L448.329 65.8485L408.557 29.2513L424.458 95.4073ZM448.623 65.4846L460.86 50.3314L460.329 50.2273L460.59 50.1473L409.259 29.2639L448.623 65.4846ZM471.069 66.9763L492.938 56.6554L461.738 50.5048L471.069 66.9763ZM471.299 67.3849L490.642 101.532L493.422 56.9441L471.299 67.3849ZM491.143 100.988L504.439 69.732L493.877 57.1612L491.143 100.988ZM491.193 102.068L515.263 100.13L519.691 87.8779L504.778 70.1328L491.193 102.068ZM519.731 87.201L520.554 33.0427L504.981 69.6501L519.731 87.201ZM522.306 99.5627L557.175 96.7563L520.248 88.1387L522.306 99.5627ZM558.581 97.1115L522.391 100.025L524.619 112.389L558.413 122.689L569.638 111.056L558.581 97.1115ZM569.965 110.717L577.43 102.982L559.341 97.3183L569.965 110.717ZM577.699 103.375L570.257 111.087L585.474 130.277L577.699 103.375ZM585.377 130.909L569.929 111.425L558.913 122.842L585.377 130.909ZM558.047 123.067L524.713 112.905L527.434 128.012L549.247 132.187L558.047 123.067ZM549.331 132.968L534.112 164.6L578.213 190.22L549.331 132.968ZM577.746 190.49L534.128 165.15L534.237 165.753L534.136 165.604L536.312 186.735L577.746 190.49ZM533.38 163.633L527.035 128.41L507.282 124.631L533.38 163.633ZM479.177 130.457L473.271 171.763L506.245 124.65L479.177 130.457ZM493.352 191.01L472.947 173.041L464.358 185.314L493.352 191.01ZM422.246 177.516L436.842 223.814L463.563 185.633L422.246 177.516ZM353.876 180.723L329.176 177.87L329.459 193.732L353.876 180.723ZM298.248 210.889L310.856 219.646L329.231 207.175L329.005 194.504L298.248 210.889ZM329.347 207.66L311.266 219.932L340.841 240.474L329.347 207.66ZM340.249 240.631L310.855 220.211L294.215 231.505L340.249 240.631ZM292.854 231.742L267.188 227.668L272.926 241.464L292.854 231.742ZM256.526 249.984L244.084 276.669L291.943 288.39L272.685 242.1L256.526 249.984ZM231.357 303.521L200.714 335.604L233.6 354.842L231.357 303.521ZM200.382 335.951L190.309 346.497L190.249 346.369L136.395 361.628L233.079 355.079L200.382 335.951ZM-89.1508 338.783L-74.3115 398.443L-55.4241 353.074L-89.1508 338.783ZM-116.588 355.989L-145.928 348.314L-143.302 403.635L-116.588 355.989ZM-143.792 403.137L-146.383 348.581L-160.163 363.709L-143.792 403.137ZM-160.51 364.09L-217.929 427.129L-143.811 404.313L-160.51 364.09ZM-218.335 426.556L-186.474 372.07L-208.907 334.651L-218.335 426.556ZM-209.56 333.92L-242.946 315.097L-243.629 327.685L-265.349 318.07L-261.18 360.416L-209.56 333.92ZM-261.703 359.864L-265.84 317.853L-285.483 309.158L-293.023 312.374L-261.703 359.864ZM-293.721 312.164L-299.828 302.901L-358.86 339.943L-293.721 312.164ZM-343.185 302.503L-364.925 289.601L-361.324 340.421L-343.185 302.503ZM-365.283 288.914L-347.156 265.753L-395.571 282.546L-365.283 288.914ZM-346.25 264.972L-336.322 260.937L-342.456 237.229L-346.25 264.972ZM-342.114 236.689L-335.887 260.761L-321.19 254.788L-342.114 236.689ZM-293.947 277.731L-290.314 262.817L-308.564 250.162L-320.306 254.934L-293.947 277.731ZM-308.152 249.88L-290.196 262.331L-281.674 227.344L-308.152 249.88ZM-289.785 262.615L-273.26 274.075L-281.315 227.842L-289.785 262.615ZM-271.777 274.504L-230.717 280.007L-172.551 246.808L-271.777 274.504ZM-229.955 280.109L-208.176 283.027L-208.092 282.98L-184.182 306.345L-171.136 246.539L-229.955 280.109ZM-170.785 247.118L-183.728 306.467L-158.304 298.795L-170.785 247.118ZM-157.746 299.115L-150.015 331.125L-140.776 337.805L-111.532 285.169L-157.746 299.115ZM-110.284 284.958L-88.8591 297.575L-82.6895 282.959L-110.284 284.958ZM-47.2049 279.921L-55.1824 266.807L-77.0337 270.762L-81.9631 282.439L-47.2049 279.921ZM-76.9427 270.272L-55.4424 266.379L-74.155 235.614L-76.9427 270.272ZM-73.549 235.712L-54.949 266.289L-35.1616 262.707L-73.549 235.712ZM-33.8228 263.044L-11.9277 277.218L-7.94391 262.094L-33.8228 263.044ZM-7.33112 261.604L6.78076 261.087L35.1053 236.38L23.1239 220.135L21.443 152.356L-7.33112 261.604ZM23.5832 219.844L50.7056 222.495L21.9008 151.974L23.5832 219.844ZM22.0746 151.161L51.1034 222.231L77.298 176.142L22.0746 151.161ZM78.428 176.297L110.78 198.34L120.664 203.254L136.522 178.412L78.428 176.297ZM121.083 203.464L162.971 224.295L136.926 178.645L121.083 203.464ZM164.19 224.901L164.538 225.075L164.175 225.076L214.972 269.287L208.841 211.688L164.19 224.901ZM209.312 211.702L215.367 268.575L226.517 226.685L238.162 219.686L209.312 211.702ZM239.334 219.526L266.419 227.021L258.75 207.857L239.334 219.526ZM276.788 196.47L237.729 154.078L258.978 207.175L276.788 196.47ZM310.776 174.32L312.973 140.414L294.844 126.437L310.776 174.32ZM255.609 95.5974L293.918 125.133L288.812 109.785L330.031 113.229L297.163 76.2587L255.609 95.5974ZM297.282 75.6878L323.573 63.4526L322.551 55.9158L271.752 46.9719L297.282 75.6878ZM318.535 26.2878L271.936 46.5307L322.485 55.4296L318.535 26.2878ZM323.033 56.0004L324.015 63.2457L334.648 58.2978L334.476 58.3057L334.975 58.1025L323.033 56.0004ZM336.978 57.2867L407.876 28.4197L407.816 28.1719L408.053 28.2682L453.421 -46.6616L336.978 57.2867ZM408.491 28.4466L461.024 49.8205L454.245 -47.1228L408.491 28.4466ZM493.462 56.2836L493.482 55.9665L493.805 56.3509L494.421 56.4728L494.053 56.6466L504.645 69.249L520.395 32.2255L462.239 50.1283L493.462 56.2836ZM577.66 102.565L584.797 74.2472L559.153 96.7703L577.66 102.565Z" fill="white" fill-opacity="0.4"/>
<path d="M253.078 96.1891C253.433 97.3401 254.652 97.9854 255.803 97.6311C256.954 97.2769 257.599 96.0571 257.245 94.9066C256.891 93.7556 255.671 93.1103 254.52 93.4645C253.369 93.8188 252.724 95.0381 253.078 96.1891Z" fill="white" fill-opacity="0.4"/>
<path d="M292.31 234.103C293.68 234.827 295.374 234.305 296.098 232.937C296.823 231.57 296.301 229.873 294.932 229.149C293.564 228.425 291.868 228.946 291.144 230.314C290.42 231.683 290.942 233.379 292.31 234.103V234.103Z" fill="white" fill-opacity="0.4"/>
<path d="M276.134 198.45C277.198 199.013 278.518 198.605 279.08 197.543C279.644 196.478 279.238 195.158 278.173 194.596C277.109 194.032 275.79 194.44 275.227 195.502C274.663 196.567 275.07 197.886 276.134 198.45Z" fill="white" fill-opacity="0.4"/>
<path d="M317.704 27.8771C318.769 28.4401 320.088 28.0343 320.65 26.9702C321.214 25.907 320.808 24.5873 319.743 24.0244C318.679 23.4609 317.361 23.8668 316.797 24.9313C316.234 25.9954 316.64 27.3137 317.704 27.8771Z" fill="white" fill-opacity="0.4"/>
<path d="M208.025 213.311C209.089 213.875 210.408 213.467 210.971 212.404C211.534 211.341 211.129 210.021 210.064 209.458C208.999 208.894 207.681 209.301 207.117 210.365C206.555 211.428 206.96 212.748 208.025 213.311Z" fill="white" fill-opacity="0.4"/>
<path d="M162.533 226.772C163.599 227.334 164.917 226.928 165.48 225.864C166.042 224.801 165.638 223.481 164.574 222.918C163.509 222.355 162.19 222.762 161.626 223.826C161.064 224.889 161.469 226.208 162.533 226.772H162.533Z" fill="white" fill-opacity="0.4"/>
<path d="M312.195 142.231C313.259 142.794 314.578 142.388 315.14 141.324C315.704 140.26 315.298 138.942 314.234 138.378C313.169 137.814 311.852 138.222 311.288 139.285C310.724 140.35 311.13 141.668 312.195 142.231Z" fill="white" fill-opacity="0.4"/>
<path d="M310.203 176.903C310.963 177.305 311.905 177.014 312.307 176.255C312.709 175.495 312.419 174.552 311.659 174.15C310.899 173.749 309.957 174.039 309.555 174.798C309.154 175.558 309.444 176.5 310.203 176.903Z" fill="white" fill-opacity="0.4"/>
<path d="M236.312 154.361C237.072 154.763 238.014 154.473 238.417 153.713C238.819 152.954 238.528 152.011 237.769 151.609C237.008 151.207 236.065 151.497 235.664 152.257C235.262 153.017 235.551 153.959 236.312 154.361Z" fill="white" fill-opacity="0.4"/>
<path d="M288.417 111.423C289.178 111.825 290.119 111.536 290.521 110.775C290.924 110.016 290.634 109.073 289.874 108.671C289.114 108.269 288.171 108.559 287.769 109.319C287.368 110.079 287.658 111.021 288.417 111.423H288.417Z" fill="white" fill-opacity="0.4"/>
<path d="M293.611 127.006C294.371 127.408 295.314 127.118 295.716 126.358C296.117 125.599 295.828 124.656 295.068 124.254C294.307 123.851 293.365 124.142 292.963 124.902C292.562 125.661 292.852 126.604 293.611 127.006Z" fill="white" fill-opacity="0.4"/>
<path d="M270.403 48.0022C271.163 48.4043 272.106 48.1142 272.507 47.3542C272.91 46.5955 272.62 45.6523 271.86 45.2502C271.099 44.8481 270.158 45.1386 269.755 45.8978C269.353 46.6583 269.643 47.601 270.403 48.0022Z" fill="white" fill-opacity="0.4"/>
<path d="M296.478 77.3592C297.238 77.7613 298.18 77.4717 298.583 76.7117C298.985 75.9521 298.694 75.0098 297.935 74.6072C297.174 74.2051 296.233 74.4952 295.83 75.2548C295.428 76.0153 295.718 76.9575 296.478 77.3592H296.478Z" fill="white" fill-opacity="0.4"/>
<path d="M321.994 57.0551C322.755 57.4577 323.696 57.1676 324.099 56.408C324.501 55.648 324.211 54.7057 323.452 54.3036C322.691 53.901 321.749 54.1916 321.347 54.9511C320.944 55.7112 321.234 56.6539 321.994 57.0551V57.0551Z" fill="white" fill-opacity="0.4"/>
<path d="M266.084 228.749C266.844 229.151 267.786 228.861 268.188 228.102C268.59 227.341 268.3 226.399 267.54 225.997C266.78 225.595 265.837 225.885 265.436 226.645C265.033 227.405 265.323 228.347 266.084 228.749H266.084Z" fill="white" fill-opacity="0.4"/>
<path d="M258.115 208.913C258.875 209.315 259.817 209.026 260.219 208.265C260.621 207.505 260.331 206.563 259.572 206.161C258.811 205.759 257.868 206.049 257.468 206.809C257.065 207.568 257.355 208.511 258.115 208.913Z" fill="white" fill-opacity="0.4"/>
<path d="M225.989 228.212C226.749 228.614 227.692 228.324 228.094 227.564C228.497 226.804 228.207 225.861 227.446 225.459C226.686 225.057 225.744 225.348 225.341 226.108C224.939 226.868 225.228 227.809 225.989 228.212Z" fill="white" fill-opacity="0.4"/>
<path d="M238.025 220.983C238.785 221.385 239.728 221.094 240.13 220.334C240.533 219.574 240.243 218.633 239.482 218.23C238.723 217.828 237.78 218.118 237.377 218.878C236.976 219.639 237.266 220.58 238.025 220.983Z" fill="white" fill-opacity="0.4"/>
<path d="M108.691 223.777C107.946 222.83 106.575 222.667 105.631 223.411C104.684 224.156 104.52 225.526 105.266 226.472C106.01 227.419 107.381 227.582 108.326 226.838C109.273 226.093 109.436 224.722 108.691 223.777H108.691Z" fill="white" fill-opacity="0.4"/>
<path d="M52.2931 221.803C51.7617 221.126 50.7813 221.01 50.1059 221.541C49.43 222.074 49.3137 223.052 49.8447 223.728C50.3778 224.404 51.3564 224.52 52.0327 223.988C52.7086 223.456 52.8253 222.478 52.2931 221.803Z" fill="white" fill-opacity="0.4"/>
<path d="M24.5798 219.093C24.0484 218.417 23.0685 218.301 22.3931 218.833C21.7167 219.364 21.6009 220.342 22.1318 221.018C22.665 221.694 23.6435 221.811 24.3204 221.279C24.9958 220.747 25.1125 219.769 24.5798 219.093Z" fill="white" fill-opacity="0.4"/>
<path d="M36.6238 235.453C36.0929 234.777 35.1125 234.661 34.4366 235.193C33.7611 235.725 33.6445 236.703 34.1758 237.379C34.709 238.054 35.6875 238.172 36.3639 237.64C37.0403 237.107 37.1561 236.129 36.6238 235.453Z" fill="white" fill-opacity="0.4"/>
<path d="M22.8615 149.744C22.3283 149.067 21.3497 148.951 20.6729 149.483C19.9979 150.015 19.8808 150.993 20.413 151.669C20.9448 152.345 21.9243 152.461 22.5993 151.93C23.2761 151.398 23.3923 150.419 22.8615 149.744Z" fill="white" fill-opacity="0.4"/>
<path d="M78.8534 175.071C78.3202 174.396 77.3412 174.279 76.6653 174.811C75.9899 175.343 75.8727 176.321 76.4055 176.997C76.9368 177.672 77.9172 177.789 78.5917 177.257C79.2681 176.725 79.3848 175.747 78.8534 175.071V175.071Z" fill="white" fill-opacity="0.4"/>
<path d="M138.164 177.231C137.632 176.555 136.652 176.438 135.977 176.97C135.3 177.502 135.185 178.48 135.716 179.156C136.249 179.832 137.227 179.949 137.904 179.416C138.58 178.885 138.696 177.906 138.164 177.231Z" fill="white" fill-opacity="0.4"/>
<path d="M111.886 197.578C111.354 196.902 110.375 196.785 109.699 197.318C109.024 197.849 108.906 198.828 109.438 199.503C109.97 200.18 110.95 200.296 111.625 199.765C112.301 199.232 112.418 198.254 111.886 197.578Z" fill="white" fill-opacity="0.4"/>
<path d="M121.961 202.6C121.428 201.924 120.449 201.807 119.773 202.339C119.098 202.871 118.98 203.849 119.513 204.525C120.044 205.201 121.024 205.318 121.701 204.785C122.376 204.254 122.492 203.275 121.961 202.6Z" fill="white" fill-opacity="0.4"/>
<path d="M96.0905 203.938C95.5583 203.262 94.5788 203.145 93.9029 203.677C93.2279 204.209 93.1103 205.188 93.643 205.863C94.1744 206.54 95.1543 206.656 95.8302 206.124C96.5061 205.592 96.6214 204.614 96.0905 203.938H96.0905Z" fill="white" fill-opacity="0.4"/>
<path d="M88.4 236.725C87.8668 236.049 86.8883 235.932 86.2119 236.464C85.5374 236.996 85.4193 237.975 85.9516 238.65C86.4829 239.327 87.4638 239.443 88.1392 238.911C88.8147 238.379 88.9318 237.401 88.4 236.725H88.4Z" fill="white" fill-opacity="0.4"/>
</svg>
