<svg width="610" height="590" viewBox="0 0 610 590" fill="none" xmlns="http://www.w3.org/2000/svg">
<path fill-rule="evenodd" clip-rule="evenodd" d="M1199.95 188.182L1209.96 222.837L1210.5 223.513L1175.93 212.976L1164.94 224.361L1201.48 296.796L1200.7 296.343L1148.07 291.574L1145.25 264.128L1145.14 264.068L1145.19 263.977L1112.29 214.809L1071.04 273.74L1097.76 297.271L1059.79 289.812L1026.32 337.634L925.827 284.079L925.833 284.095L925.304 283.801L894.358 300.289L894.641 316.267L909.141 357.655L910.193 358.387L850.335 346.522L825.081 358.845L848.982 416.296L849.113 416.608L774.32 434.131L777.143 498.698L776.765 498.476L654.348 506.767L654.082 506.787L643.855 437.517L532.151 449.713L531.814 542.335L421.804 495.721L398.088 552.687L346.59 499.373L313.313 558.726L313.388 560.285L312.857 559.009L220.285 587.506L232.086 472.463L167.885 505.417L167.851 505.068L128.698 445.699L45.2069 481.305L44.3881 481.818L44.7819 480.993L40.2622 417.19L1.04565 408.945L63.2063 387.383L68.0946 351.642L67.8774 350.806L95.212 374.448L110.019 368.431L143.414 340.008L143.717 338.763L154.153 398.662L279.357 363.715L279.885 363.413L279.762 363.979L295.373 428.615L352.193 411.468L351.966 411.333L352.636 411.285L352.674 410.775L353.013 411.22L353.499 411.073L353.414 411.228L388.012 408.723L394.226 394.002L397.742 350.288L397.076 349.192L446.993 384.295L479.787 383.091L515.69 246.78L515.453 246.203L515.799 246.36L516.229 244.735L516.274 246.575L584.878 277.608L658.226 280.277L658.048 280.554L690.564 337.549L746.028 321.136L746.01 320.954L782.807 331.138L807.218 316.467L780.484 249.669L780.261 249.113L871.126 276.832L850.986 216.303L802.476 178.903L854.253 154.807L822.504 119.099L821.662 118.95L881.386 93.0051L886.368 129.758L901.644 132.447L901.163 131.49L902.162 132.438L1047.76 2.46648L1048.19 2.07568L1056.64 122.817L1129.83 100.285L1128.78 169.251L1176.02 180.274L1208.5 151.743L1208.56 151.694L1248.04 143.281L1199.95 188.182ZM1200.09 187.258L1246.13 144.274L1208.93 152.203L1200.09 187.258ZM851.477 215.956L874.307 233.559L895.24 201.288L845.205 197.107L851.477 215.956ZM41.3295 416.405L81.3618 403.869L63.4491 388.139L41.3295 416.405ZM138.509 440.893L160.118 431.677L132.354 421.954L121.446 433.339L138.509 440.893ZM121.732 434.095L128.914 444.985L137.786 441.201L121.732 434.095ZM379.222 477.904L346.975 498.946L397.454 551.205L379.222 477.904ZM830.764 303.908L837.076 317.362L841.928 311.662L830.764 303.908ZM842.297 311.227L870.162 278.484L830.58 303.088L842.297 311.227ZM837.345 317.934L841.877 327.597L854.888 320.667L842.401 311.991L837.345 317.934ZM836.935 318.414L818.54 340.032L841.37 327.868L836.935 318.414ZM842.121 328.118L850.414 345.796L870.974 331.841L855.418 321.034L842.121 328.118ZM841.613 328.389L818.225 340.843L849.807 345.852L841.613 328.389ZM816.548 342.021L756.045 391.887L804.268 368.36L816.548 342.021ZM805.088 367.959L824.342 358.564L817.328 341.707L805.088 367.959ZM754.829 393.118L788.841 401.447L803.882 369.186L754.829 393.118ZM753.275 393.423L673.879 385.416L738.199 416.355L753.161 393.931L751.933 394.53L753.275 393.423ZM346.925 497.423L354.414 481.977L347.973 483.07L346.925 497.423ZM347.39 483.169L329.476 486.209L346.28 498.361L347.39 483.169ZM379.086 477.207L374.721 441.416L355.419 481.223L379.086 477.207ZM355.11 481.857L347.238 498.089L378.09 477.957L355.11 481.857ZM354.723 481.342L374.527 440.502L353.135 412.333L348.014 482.481L354.723 481.342ZM379.577 476.492L399.021 439.322L375.233 440.862L379.577 476.492ZM380.052 476.822L417.726 459.162L399.577 439.496L380.052 476.822ZM478.063 472.24L447.999 432.802L435.51 462.799L478.063 472.24ZM435.286 463.339L422.125 494.948L477.797 472.77L435.286 463.339ZM478.863 472.344L501.393 463.369L491.739 441.515L448.618 432.667L478.863 472.344ZM447.467 432.586L400.094 439.211L418.353 458.994L434.941 462.673L447.467 432.586ZM447.453 432.01L440.038 419.819L401.294 438.462L447.453 432.01ZM447.614 431.171L447.297 416.325L440.557 419.569L447.614 431.171ZM448.206 431.997L491.455 440.871L474.772 403.105L447.866 416.052L448.206 431.997ZM710.058 458.534L725.476 435.425L698.639 436.105L710.058 458.534ZM773.398 433.287L753.953 393.783L738.723 416.607L773.398 433.287ZM738.401 417.089L726.567 434.822L772.827 433.65L738.401 417.089ZM726.178 435.408L710.771 458.498L772.406 434.234L726.178 435.408ZM698.003 436.123L645.748 437.448L709.45 458.61L698.003 436.123ZM697.715 435.555L672.274 385.584L644.586 436.903L697.715 435.555ZM627.261 366.672L616.266 362.128L610.154 391.846L610.096 392.126L609.941 392.095L592.87 404.715L643.659 436.588L627.261 366.672ZM597.166 353.615L615.842 361.333L620.47 338.836L597.166 353.615ZM619.96 338.48L553.779 335.686L596.517 353.347L619.96 338.48ZM616.383 361.556L627.101 365.984L620.905 339.567L616.383 361.556ZM609.18 391.943L555.466 381.241L592.347 404.387L609.18 391.943ZM554.153 381.094L532.412 448.694L591.852 404.754L554.153 381.094ZM492.143 441.012L530.785 448.941L475.664 403.704L492.143 441.012ZM473.431 403.114L447.628 404.982L447.852 415.421L473.431 403.114ZM475.517 402.842L531.72 448.966L553.555 381.075L475.517 402.842ZM555.226 380.608L609.649 391.452L615.724 361.905L596.573 353.991L555.042 380.329L556.408 380.279L555.226 380.608ZM595.925 353.723L552.473 335.766L554.259 380.146L595.925 353.723ZM620.368 337.922L605.935 313.785L553.498 335.1L620.368 337.922ZM627.755 366.255L670.874 384.074L621.377 339.066L627.755 366.255ZM627.916 366.942L644.206 436.401L671.878 385.11L627.916 366.942ZM672.923 385.592L698.35 435.539L725.867 434.842L737.878 416.839L672.923 385.592ZM754.52 393.633L774.016 433.243L788.594 401.978L754.52 393.633ZM774.533 433.491L847.485 416.4L789.162 402.117L774.533 433.491ZM710.679 459.152L735.592 473.727L772.915 434.651L710.679 459.152ZM710.689 459.824L723.47 486.417L735.184 474.152L710.689 459.824ZM709.926 459.56L655.518 505.845L722.985 486.732L709.926 459.56ZM709.45 459.214L644.451 437.622L654.535 505.928L709.45 459.214ZM643.14 436.94L592.374 405.081L532.89 449.054L642.759 437.06L642.45 436.957L643.14 436.94ZM492.428 441.656L502.16 463.682L479.226 472.819L531.246 541.056L531.578 449.69L492.428 441.656ZM478.672 473.038L422.529 495.406L530.644 541.214L478.672 473.038ZM434.715 463.213L418.237 459.557L380.109 477.43L421.496 494.966L434.715 463.213ZM328.681 486.343L311.09 489.33L345.118 498.23L328.681 486.343ZM308.896 488.79L264.073 440.019L281.807 482.726L308.896 488.79ZM282.076 483.374L289.446 501.126L308.964 489.393L282.076 483.374ZM263.093 439.152L232.975 471.795L281.121 482.573L263.093 439.152ZM309.187 488.257L304.502 468.859L265.318 440.524L309.187 488.257ZM289.668 501.662L292.295 507.99L308.216 490.512L289.668 501.662ZM289.172 501.962L260.742 519.052L222.24 584.895L291.87 508.459L289.172 501.962ZM260.629 518.449L288.949 501.425L281.39 483.22L233.399 472.478L234.4 473.408L233.231 472.748L260.629 518.449ZM232.411 471.56L262.569 438.874L192.057 434.063L232.411 471.56ZM160.453 430.882L153.758 399.612L140.413 413.542L160.453 430.882ZM140.015 413.957L132.79 421.498L159.58 430.881L140.015 413.957ZM161.107 431.206L177.854 421.648L154.397 399.853L161.107 431.206ZM161.873 431.429L190.478 433.38L178.292 422.058L161.873 431.429ZM191.568 434.394L190.82 448.183L230.451 470.523L191.568 434.394ZM191.017 433.992L162.155 432.022L190.262 447.868L191.017 433.992ZM161.248 432.164L163.184 451.816L189.417 463.429L190.227 448.504L161.248 432.164ZM160.663 432.068L139.224 441.21L162.581 451.549L160.663 432.068ZM82.4457 404.822L82.1715 404.583L79.2551 439.411L120.235 433.254L82.4172 404.716L82.4457 404.822ZM120.778 432.944L124.155 419.082L83.5745 404.869L120.778 432.944ZM121.485 432.466L131.757 421.745L124.699 419.273L121.485 432.466ZM78.9825 440.033L78.8809 440.048L68.0721 433.634L45.7604 480.28L119.634 433.925L78.9825 440.033ZM78.6909 439.269L81.517 405.528L68.3228 433.114L78.6909 439.269ZM81.3909 404.462L41.2351 417.036L67.8264 432.82L81.3909 404.462ZM81.4229 403.159L76.1582 382.811L63.917 387.786L81.4229 403.159ZM82.0149 403.158L82.3503 402.455L82.2384 403.793L124.29 418.522L127.946 403.519L95.1023 375.112L76.6937 382.592L82.0149 403.158ZM124.835 418.712L132.195 421.289L139.58 413.581L128.434 403.94L124.835 418.712ZM139.978 413.166L153.326 399.233L152.502 399.123L153.261 398.912L133.068 384.91L128.586 403.314L139.978 413.166ZM178.375 421.351L204.996 406.157L154.782 399.428L178.375 421.351ZM178.815 421.759L191.327 433.386L232.696 409.869L205.932 406.282L178.815 421.759ZM233.533 410.054L192.281 433.503L262.427 438.289L233.533 410.054ZM304.295 468.001L294.956 429.34L263.824 438.735L304.295 468.001ZM309.835 488.487L316.085 477.235L305.218 469.376L309.835 488.487ZM310.258 488.888L328.03 485.872L316.548 477.57L310.258 488.888ZM328.821 485.737L347.43 482.579L352.522 412.83L316.828 477.065L328.821 485.737ZM374.829 439.951L379.952 427.816L354.015 412.539L374.829 439.951ZM375.314 440.283L398.562 438.777L380.453 428.109L375.314 440.283ZM399.526 438.676L439.738 419.327L431.713 406.134L388.404 409.27L380.677 427.576L399.526 438.676ZM440.258 419.076L447.283 415.695L447.056 405.022L432.357 406.088L440.258 419.076ZM447.043 404.448L446.625 384.928L422.178 389.354L432.022 405.536L447.043 404.448ZM447.205 385.121L447.618 404.407L474.048 402.498L447.205 385.121ZM476.059 402.1L551.577 381.032L497.957 382.999L476.059 402.1ZM497.045 383.032L480.234 383.65L475.431 401.887L497.045 383.032ZM553.438 380.388L532.889 352.528L498.645 382.399L553.438 380.388ZM553.667 379.732L551.905 335.94L533.323 352.149L553.667 379.732ZM551.477 335.551L518.718 332.35L532.98 351.686L551.477 335.551ZM605.638 313.286L584.817 278.463L552.825 334.753L605.638 313.286ZM606.177 313.067L624.812 305.492L585.726 278.863L606.177 313.067ZM625.403 305.872L606.474 313.566L620.894 337.685L637.398 311.836L625.403 305.872ZM621.411 337.942L689.218 337.607L637.914 312.093L621.411 337.942ZM621.626 338.514L672.166 384.471L690.008 338.177L621.626 338.514ZM672.686 384.717L753.121 392.832L690.547 338.373L672.686 384.717ZM816.741 341.126L782.891 331.756L768.311 340.521L754.497 392.417L816.741 341.126ZM836.668 317.844L829.932 303.484L807.932 316.707L817.434 340.446L836.668 317.844ZM830.102 302.71L870.885 277.359L781.678 250.145L830.102 302.71ZM871.671 277.599L842.772 311.557L855.453 320.364L893.777 299.947L893.423 280.082L871.988 277.606L872.022 277.705L871.671 277.599ZM1133.72 200.111L1119.31 195.719L1112.74 213.911L1112.95 213.866L1112.78 214.101L1137.08 218.751L1133.72 200.111ZM1145.64 263.031L1164.17 224.521L1137.79 219.472L1145.64 263.031ZM1123.14 185.138L1119.51 195.179L1133.61 199.477L1130.91 184.512L1123.14 185.138ZM1130.81 183.944L1128.4 170.57L1123.35 184.545L1130.81 183.944ZM977.914 130.019L947.116 175.168L961.644 188.978L1009.87 179.351L1008.58 178.906L1010.4 179.082L977.914 130.019ZM933.537 195.352L932.352 208.508L993.639 221.5L933.537 195.352ZM932.948 195.499L917.933 205.451L931.786 208.388L932.948 195.499ZM917.262 205.897L901.529 216.325L925.137 282.154L931.735 208.964L917.262 205.897ZM916.474 205.73L896.186 201.429L901.33 215.769L916.474 205.73ZM917.147 205.285L932.012 195.431L897.3 201.079L917.147 205.285ZM933.121 209.259L970.594 244.147L995.73 222.529L933.121 209.259ZM994.981 221.457L961.464 189.598L934.242 195.032L994.981 221.457ZM996.229 221.851L1010.54 179.803L962.154 189.461L996.229 221.851ZM1024.89 211.674L1011 180.214L996.822 221.894L1024.89 211.674ZM997.038 222.426L1040.55 247.132L1025.13 212.201L997.038 222.426ZM1025.44 211.477L1063.23 197.719L1011.5 179.91L1025.44 211.477ZM1064.09 197.406L1091.4 187.466L1013.36 179.944L1064.09 197.406ZM1112.21 213.692L1118.76 195.552L1093.42 187.819L1112.21 213.692ZM1092.75 187.881L1092.3 188.954L1092.35 188.144L1079.84 202.828L1111.53 213.732L1092.75 187.881ZM1091.76 187.943L1064.95 197.704L1079.26 202.627L1091.76 187.943ZM1064.1 198.015L1025.67 212.004L1041.24 247.276L1078.86 203.096L1064.1 198.015ZM996.39 222.718L971.016 244.54L990.844 263L1040.44 247.731L996.39 222.718ZM970.578 244.918L926.536 282.797L990.211 263.195L970.578 244.918ZM970.157 244.524L932.284 209.263L925.656 282.796L970.157 244.524ZM901.035 216.653L895.366 220.411L893.808 265.774L924.778 282.858L901.035 216.653ZM893.26 265.017L894.777 220.8L874.766 234.064L893.26 265.017ZM894.801 220.096L895.42 202.066L875.371 232.974L894.801 220.096ZM895.389 219.706L900.835 216.096L895.977 202.549L895.389 219.706ZM896.062 200.698L932.857 194.708L902.348 133.852L896.062 200.698ZM933.326 194.364L946.367 175.247L903.149 134.168L933.326 194.364ZM933.921 194.511L960.954 189.115L946.787 175.648L933.921 194.511ZM1051.48 151.831L1067.88 144.092L1056.34 123.706L1041.24 142.402L1051.48 151.831ZM1040.88 142.849L1012.39 178.12L1050.97 152.137L1040.88 142.849ZM1051.58 152.422L1011.79 179.217L1092.17 186.969L1068.17 144.593L1051.58 152.422ZM1118.96 195.01L1122.51 185.19L1094.21 187.467L1118.96 195.01ZM1079.44 203.297L1042.87 246.249L1077.95 221.399L1078 221.366L1111.22 214.234L1079.44 203.297ZM1041.63 247.835L1070.45 273.216L1077.73 222.255L1041.63 247.835ZM1041.17 248.198L1008.57 279.164L1059.54 289.176L1070.28 273.831L1041.17 248.198ZM1040.08 248.445L991.329 263.451L1007.97 278.945L1040.08 248.445ZM1007.72 279.497L990.696 263.647L926.051 283.547L1025.75 336.678L1007.72 279.497ZM893.754 266.4L893.988 279.568L923.891 283.023L893.754 266.4ZM893.178 266.292L872.533 277.09L893.413 279.503L893.178 266.292ZM893.015 265.728L874.607 234.915L871.892 276.778L893.015 265.728ZM895.332 200.147L887.192 140.11L855.194 155.002L895.332 200.147ZM895.69 198.524L901.824 133.3L887.738 139.857L895.69 198.524ZM946.694 174.767L977.357 129.817L902.844 133.087L946.694 174.767ZM977.905 129.218L978.066 129.211L1010.31 177.909L990.866 97.019L903.8 132.469L977.905 129.218ZM1011.11 178.791L1040.45 142.459L991.567 97.4768L1011.11 178.791ZM1040.81 142.012L1055.86 123.387L1055.2 123.259L1055.52 123.161L992.431 97.4922L1040.81 142.012ZM1068.4 143.846L1095.28 131.16L1056.93 123.6L1068.4 143.846ZM1068.69 144.348L1092.46 186.319L1095.88 131.515L1068.69 144.348ZM1093.08 185.65L1109.42 147.233L1096.44 131.782L1093.08 185.65ZM1093.14 186.978L1122.72 184.596L1128.17 169.536L1109.83 147.725L1093.14 186.978ZM1128.22 168.705L1129.23 102.137L1110.09 147.132L1128.22 168.705ZM1131.38 183.899L1174.24 180.449L1128.85 169.857L1131.38 183.899ZM1175.97 180.886L1131.48 184.467L1134.22 199.664L1175.76 212.324L1189.56 198.025L1175.97 180.886ZM1189.96 197.609L1199.13 188.102L1176.9 181.14L1189.96 197.609ZM1199.47 188.585L1190.32 198.063L1209.02 221.651L1199.47 188.585ZM1208.9 222.427L1189.92 198.479L1176.38 212.512L1208.9 222.427ZM1175.31 212.789L1134.34 200.298L1137.68 218.867L1164.49 223.998L1175.31 212.789ZM1164.6 224.958L1145.89 263.838L1200.1 295.328L1164.6 224.958ZM1199.52 295.66L1145.91 264.514L1146.05 265.256L1145.92 265.072L1148.6 291.044L1199.52 295.66ZM1144.99 262.649L1137.19 219.356L1112.91 214.711L1144.99 262.649ZM1078.37 221.872L1071.11 272.643L1111.64 214.735L1078.37 221.872ZM1095.79 296.299L1070.71 274.213L1060.15 289.298L1095.79 296.299ZM1008.39 279.714L1026.33 336.62L1059.18 289.691L1008.39 279.714ZM924.358 283.655L893.999 280.149L894.346 299.645L924.358 283.655ZM855.984 320.734L871.48 331.497L894.066 316.168L893.788 300.594L855.984 320.734ZM894.209 316.765L871.985 331.848L908.336 357.098L894.209 316.765ZM907.608 357.29L871.479 332.191L851.026 346.073L907.608 357.29ZM849.354 346.364L817.806 341.357L824.86 358.314L849.354 346.364ZM804.702 368.786L789.409 401.586L848.234 415.992L824.563 359.095L804.702 368.786ZM773.766 434.591L736.102 474.025L776.522 497.671L773.766 434.591ZM735.693 474.451L723.312 487.413L723.238 487.256L657.045 506.012L775.882 497.962L735.693 474.451ZM379.82 477.931L398.059 551.261L421.274 495.497L379.82 477.931ZM346.096 499.08L310.033 489.646L313.261 557.643L346.096 499.08ZM312.658 557.031L309.474 489.974L292.536 508.569L312.658 557.031ZM292.11 509.037L221.535 586.521L312.635 558.477L292.11 509.037ZM221.036 585.816L260.197 518.846L232.624 472.853L221.036 585.816ZM231.821 471.954L190.786 448.818L189.946 464.291L163.249 452.472L168.373 504.522L231.821 471.954ZM167.73 503.843L162.645 452.206L138.501 441.519L129.234 445.471L167.73 503.843ZM128.376 445.213L120.87 433.828L48.3112 479.357L128.376 445.213ZM67.578 433.339L40.8575 417.481L45.2834 479.945L67.578 433.339ZM40.4171 416.636L62.6974 388.168L3.1897 408.809L40.4171 416.636ZM63.8103 387.208L76.0132 382.249L68.4739 353.108L63.8103 387.208ZM68.8955 352.445L76.5492 382.032L94.6138 374.691L68.8955 352.445ZM128.098 402.891L132.563 384.559L110.132 369.005L95.7 374.87L128.098 402.891ZM110.638 368.658L132.708 383.962L143.183 340.959L110.638 368.658ZM133.214 384.312L153.525 398.397L143.625 341.571L133.214 384.312ZM155.348 398.924L205.817 405.688L277.31 364.882L155.348 398.924ZM206.753 405.814L233.522 409.4L233.626 409.343L263.015 438.061L279.05 364.551L206.753 405.814ZM279.481 365.264L263.572 438.211L294.822 428.781L279.481 365.264ZM295.508 429.174L305.011 468.518L316.366 476.73L352.31 412.033L295.508 429.174ZM353.844 411.773L380.178 427.282L387.761 409.317L353.844 411.773ZM431.377 405.583L421.572 389.463L394.714 394.325L388.655 408.677L431.377 405.583ZM394.825 393.722L421.252 388.938L398.251 351.124L394.825 393.722ZM398.996 351.244L421.858 388.827L446.18 384.425L398.996 351.244ZM447.826 384.839L474.738 402.26L479.634 383.671L447.826 384.839ZM480.387 383.069L497.732 382.433L532.547 352.064L517.82 332.098L515.754 248.789L480.387 383.069ZM518.384 331.74L551.721 334.999L516.317 248.318L518.384 331.74ZM516.53 247.32L552.211 334.675L584.407 278.024L516.53 247.32ZM585.796 278.216L625.561 305.309L637.709 311.349L657.201 280.815L585.796 278.216ZM638.224 311.606L689.711 337.211L657.699 281.101L638.224 311.606ZM691.209 337.956L691.637 338.169L691.19 338.171L753.627 392.512L746.09 321.716L691.209 337.956ZM746.67 321.732L754.111 391.637L767.816 340.148L782.129 331.546L746.67 321.732ZM783.57 331.349L816.862 340.562L807.435 317.006L783.57 331.349ZM829.607 303.01L781.598 250.905L807.716 316.168L829.607 303.01ZM871.382 275.785L874.083 234.11L851.8 216.931L871.382 275.785ZM803.574 179.025L850.662 215.328L844.385 196.463L895.049 200.696L854.65 155.255L803.574 179.025ZM854.796 154.553L887.111 139.515L885.855 130.251L823.417 119.258L854.796 154.553ZM880.919 93.8342L823.643 118.715L885.775 129.653L880.919 93.8342ZM886.448 130.355L887.655 139.26L900.724 133.179L900.513 133.188L901.126 132.939L886.448 130.355ZM903.588 131.936L990.731 96.4545L990.657 96.15L990.948 96.2683L1046.71 4.1698L903.588 131.936ZM991.487 96.4877L1056.06 122.759L1047.72 3.60296L991.487 96.4877ZM1095.93 130.703L1095.95 130.313L1096.35 130.786L1097.11 130.935L1096.65 131.149L1109.67 146.639L1129.03 101.132L1057.55 123.137L1095.93 130.703ZM1199.42 187.589L1208.19 152.783L1176.67 180.466L1199.42 187.589Z" fill="#45C53B" fill-opacity="0.3"/>
<path d="M157.345 399.432C157.571 397.542 156.22 395.829 154.333 395.604C152.443 395.379 150.73 396.728 150.505 398.617C150.28 400.505 151.628 402.22 153.517 402.445C155.405 402.67 157.121 401.321 157.346 399.432H157.345Z" fill="#45C53B" fill-opacity="0.3"/>
<path d="M235.846 472.374C236.072 470.484 234.722 468.77 232.834 468.545C230.944 468.32 229.23 469.669 229.004 471.559C228.78 473.448 230.126 475.162 232.017 475.387C233.907 475.612 235.621 474.263 235.846 472.374V472.374Z" fill="#45C53B" fill-opacity="0.3"/>
<path d="M123.615 433.754C123.79 432.284 122.74 430.952 121.271 430.777C119.802 430.602 118.469 431.65 118.294 433.12C118.119 434.59 119.169 435.922 120.638 436.097C122.107 436.272 123.44 435.224 123.615 433.754Z" fill="#45C53B" fill-opacity="0.3"/>
<path d="M170.788 505.287C170.962 503.818 169.915 502.485 168.445 502.31C166.977 502.135 165.643 503.184 165.467 504.653C165.292 506.123 166.342 507.455 167.811 507.63C169.281 507.805 170.613 506.757 170.788 505.287L170.788 505.287Z" fill="#45C53B" fill-opacity="0.3"/>
<path d="M71.0471 351.942C71.2236 350.472 70.1728 349.139 68.7032 348.964C67.2354 348.789 65.9018 349.837 65.7264 351.307C65.5515 352.777 66.6005 354.11 68.0701 354.285C69.5397 354.46 70.8716 353.412 71.0471 351.942V351.942Z" fill="#45C53B" fill-opacity="0.3"/>
<path d="M112.828 368.998C113.002 367.528 111.954 366.195 110.484 366.021C109.016 365.846 107.683 366.894 107.508 368.363C107.332 369.833 108.382 371.167 109.851 371.342C111.319 371.517 112.653 370.468 112.828 368.998Z" fill="#45C53B" fill-opacity="0.3"/>
<path d="M312.386 489.586C312.562 488.116 311.513 486.783 310.043 486.609C308.576 486.433 307.243 487.482 307.067 488.952C306.891 490.422 307.942 491.755 309.41 491.928C310.879 492.105 312.212 491.056 312.386 489.586V489.586Z" fill="#45C53B" fill-opacity="0.3"/>
<path d="M315.683 558.974C315.859 557.504 314.81 556.172 313.34 555.997C311.871 555.823 310.538 556.872 310.363 558.341C310.188 559.811 311.238 561.143 312.706 561.319C314.176 561.494 315.508 560.445 315.683 558.974H315.683Z" fill="#45C53B" fill-opacity="0.3"/>
<path d="M223.276 587.421C223.452 585.952 222.401 584.62 220.932 584.444C219.464 584.27 218.13 585.318 217.956 586.788C217.78 588.257 218.83 589.591 220.299 589.765C221.769 589.94 223.101 588.892 223.276 587.421H223.276Z" fill="#45C53B" fill-opacity="0.3"/>
<path d="M43.1939 417.272C43.3687 415.802 42.3191 414.469 40.8501 414.294C39.3805 414.12 38.0486 415.168 37.8721 416.638C37.6972 418.107 38.7469 419.44 40.2176 419.615C41.6854 419.791 43.019 418.741 43.1939 417.272L43.1939 417.272Z" fill="#45C53B" fill-opacity="0.3"/>
<path d="M83.8362 404.217C83.9602 403.168 83.2117 402.215 82.1609 402.09C81.1124 401.966 80.1605 402.715 80.0348 403.765C79.9103 404.813 80.6587 405.766 81.7089 405.891C82.758 406.016 83.7105 405.267 83.8362 404.217H83.8362Z" fill="#45C53B" fill-opacity="0.3"/>
<path d="M130.202 403.596C130.328 402.547 129.578 401.595 128.53 401.469C127.478 401.345 126.526 402.095 126.402 403.144C126.276 404.193 127.026 405.145 128.075 405.27C129.125 405.395 130.077 404.646 130.202 403.596V403.596Z" fill="#45C53B" fill-opacity="0.3"/>
<path d="M141.377 413.687C141.471 412.906 140.911 412.196 140.13 412.102C139.348 412.01 138.638 412.568 138.545 413.35C138.452 414.132 139.011 414.841 139.793 414.934C140.574 415.028 141.284 414.469 141.377 413.687Z" fill="#45C53B" fill-opacity="0.3"/>
<path d="M125.941 419.079C126.036 418.298 125.476 417.588 124.694 417.494C123.912 417.402 123.203 417.961 123.109 418.742C123.017 419.525 123.574 420.234 124.357 420.327C125.138 420.42 125.849 419.862 125.941 419.079L125.941 419.079Z" fill="#45C53B" fill-opacity="0.3"/>
<path d="M80.3552 439.918C80.4478 439.136 79.8896 438.426 79.1073 438.332C78.3257 438.24 77.6155 438.799 77.5235 439.58C77.4292 440.363 77.9886 441.072 78.7702 441.164C79.5519 441.258 80.261 440.701 80.3552 439.918L80.3552 439.918Z" fill="#45C53B" fill-opacity="0.3"/>
<path d="M130.22 445.495C130.313 444.714 129.755 444.004 128.974 443.91C128.191 443.818 127.482 444.377 127.388 445.158C127.295 445.941 127.853 446.65 128.636 446.743C129.417 446.836 130.128 446.278 130.22 445.495Z" fill="#45C53B" fill-opacity="0.3"/>
<path d="M69.3422 433.325C69.4365 432.543 68.8776 431.833 68.0965 431.739C67.3137 431.647 66.6052 432.206 66.5104 432.987C66.4196 433.769 66.9761 434.479 67.7594 434.572C68.5399 434.665 69.2507 434.107 69.3422 433.325H69.3422Z" fill="#45C53B" fill-opacity="0.3"/>
<path d="M134.771 384.618C134.898 383.569 134.147 382.616 133.098 382.491C132.047 382.367 131.095 383.116 130.971 384.166C130.845 385.215 131.595 386.167 132.644 386.292C133.694 386.417 134.647 385.668 134.771 384.618H134.771Z" fill="#45C53B" fill-opacity="0.3"/>
<path d="M46.9734 481.275C47.0997 480.226 46.3495 479.273 45.3004 479.148C44.2503 479.024 43.2978 479.773 43.1738 480.823C43.0481 481.872 43.7977 482.824 44.8468 482.949C45.897 483.073 46.8483 482.325 46.9734 481.275H46.9734Z" fill="#45C53B" fill-opacity="0.3"/>
<path d="M4.01871 409.103C4.14328 408.053 3.39307 407.102 2.34398 406.976C1.29553 406.851 0.343052 407.601 0.216806 408.65C0.0933547 409.7 0.841887 410.652 1.89201 410.777C2.94054 410.902 3.89358 410.153 4.01871 409.103Z" fill="#45C53B" fill-opacity="0.3"/>
<path d="M65.2248 387.872C65.3493 386.823 64.5991 385.871 63.5507 385.746C62.501 385.621 61.5491 386.369 61.424 387.42C61.2988 388.469 62.0485 389.421 63.0981 389.546C64.1466 389.67 65.0985 388.922 65.2248 387.872L65.2248 387.872Z" fill="#45C53B" fill-opacity="0.3"/>
<path d="M97.0313 375.005C97.1564 373.955 96.4062 373.004 95.3566 372.878C94.3076 372.753 93.3556 373.502 93.2293 374.552C93.1059 375.602 93.8556 376.554 94.9052 376.679C95.9531 376.803 96.9056 376.054 97.0313 375.005H97.0313Z" fill="#45C53B" fill-opacity="0.3"/>
<path d="M145.57 340.393C145.696 339.343 144.947 338.391 143.897 338.266C142.849 338.14 141.895 338.891 141.77 339.94C141.644 340.99 142.394 341.942 143.444 342.067C144.493 342.191 145.447 341.443 145.57 340.393Z" fill="#45C53B" fill-opacity="0.3"/>
<path d="M162.81 431.877C162.934 430.828 162.183 429.876 161.135 429.75C160.087 429.625 159.134 430.374 159.008 431.425C158.884 432.474 159.634 433.426 160.682 433.551C161.732 433.676 162.684 432.926 162.81 431.877Z" fill="#45C53B" fill-opacity="0.3"/>
<path d="M193.217 433.947C193.342 432.898 192.592 431.946 191.543 431.821C190.493 431.696 189.542 432.445 189.415 433.496C189.292 434.544 190.041 435.496 191.09 435.621C192.139 435.747 193.091 434.998 193.217 433.947L193.217 433.947Z" fill="#45C53B" fill-opacity="0.3"/>
<path d="M164.804 452.222C164.928 451.173 164.178 450.221 163.129 450.096C162.08 449.971 161.128 450.72 161.002 451.77C160.877 452.819 161.627 453.772 162.676 453.896C163.726 454.021 164.677 453.273 164.804 452.222Z" fill="#45C53B" fill-opacity="0.3"/>
<path d="M191.581 464.085C191.706 463.037 190.956 462.083 189.906 461.959C188.858 461.834 187.906 462.583 187.78 463.633C187.655 464.682 188.405 465.635 189.455 465.759C190.504 465.884 191.456 465.135 191.581 464.085L191.581 464.085Z" fill="#45C53B" fill-opacity="0.3"/>
<path d="M191.974 448.43C192.074 447.607 191.486 446.862 190.664 446.765C189.843 446.666 189.097 447.253 189 448.075C188.902 448.896 189.488 449.642 190.311 449.739C191.132 449.838 191.877 449.251 191.974 448.43V448.43Z" fill="#45C53B" fill-opacity="0.3"/>
<path d="M262.432 519.069C262.557 518.021 261.807 517.068 260.758 516.944C259.71 516.818 258.757 517.568 258.631 518.617C258.507 519.667 259.257 520.62 260.305 520.744C261.355 520.868 262.307 520.12 262.432 519.069V519.069Z" fill="#45C53B" fill-opacity="0.3"/>
<path d="M294.11 508.733C294.236 507.684 293.486 506.732 292.438 506.607C291.388 506.481 290.436 507.23 290.311 508.281C290.186 509.329 290.935 510.282 291.985 510.406C293.033 510.531 293.986 509.783 294.11 508.733Z" fill="#45C53B" fill-opacity="0.3"/>
<path d="M283.465 483.189C283.589 482.14 282.841 481.188 281.791 481.064C280.742 480.937 279.791 481.687 279.664 482.736C279.539 483.785 280.29 484.739 281.339 484.863C282.387 484.987 283.339 484.239 283.465 483.189L283.465 483.189Z" fill="#45C53B" fill-opacity="0.3"/>
<path d="M306.305 468.794C306.408 467.924 305.787 467.134 304.916 467.031C304.045 466.926 303.254 467.548 303.151 468.42C303.048 469.289 303.671 470.081 304.54 470.183C305.41 470.287 306.201 469.666 306.305 468.794Z" fill="#45C53B" fill-opacity="0.3"/>
<path d="M318.018 477.303C318.122 476.432 317.501 475.643 316.629 475.539C315.759 475.435 314.968 476.056 314.865 476.928C314.761 477.799 315.383 478.589 316.254 478.693C317.125 478.797 317.914 478.174 318.018 477.303Z" fill="#45C53B" fill-opacity="0.3"/>
<path d="M330.34 486.203C330.444 485.333 329.823 484.542 328.952 484.439C328.082 484.335 327.29 484.957 327.187 485.829C327.084 486.699 327.706 487.49 328.576 487.594C329.447 487.697 330.238 487.075 330.34 486.203L330.34 486.203Z" fill="#45C53B" fill-opacity="0.3"/>
<path d="M349.274 483.029C349.377 482.157 348.756 481.367 347.887 481.264C347.016 481.16 346.225 481.783 346.121 482.654C346.018 483.524 346.639 484.315 347.51 484.418C348.38 484.523 349.171 483.9 349.274 483.029L349.274 483.029Z" fill="#45C53B" fill-opacity="0.3"/>
<path d="M235.481 409.924C235.606 408.875 234.855 407.922 233.806 407.798C232.757 407.673 231.805 408.422 231.679 409.472C231.555 410.521 232.305 411.473 233.354 411.598C234.403 411.723 235.355 410.974 235.481 409.924H235.481Z" fill="#45C53B" fill-opacity="0.3"/>
<path d="M207.783 406.207C207.909 405.158 207.159 404.206 206.11 404.081C205.061 403.955 204.11 404.704 203.983 405.755C203.859 406.804 204.607 407.757 205.657 407.881C206.706 408.006 207.659 407.257 207.783 406.207H207.783Z" fill="#45C53B" fill-opacity="0.3"/>
<path d="M265.086 438.854C265.212 437.805 264.462 436.852 263.413 436.728C262.363 436.602 261.411 437.352 261.286 438.402C261.159 439.451 261.909 440.403 262.959 440.528C264.008 440.653 264.961 439.904 265.086 438.854V438.854Z" fill="#45C53B" fill-opacity="0.3"/>
<path d="M297.076 429.178C297.202 428.129 296.452 427.176 295.403 427.051C294.353 426.927 293.4 427.676 293.275 428.726C293.15 429.775 293.899 430.727 294.949 430.851C295.998 430.977 296.952 430.227 297.076 429.178Z" fill="#45C53B" fill-opacity="0.3"/>
<path d="M281.367 364.209C281.492 363.159 280.742 362.208 279.693 362.083C278.643 361.958 277.692 362.706 277.568 363.756C277.441 364.806 278.192 365.758 279.241 365.883C280.289 366.008 281.242 365.259 281.367 364.209H281.367Z" fill="#45C53B" fill-opacity="0.3"/>
<path d="M449.611 382.454C448.435 380.959 446.271 380.701 444.776 381.878C443.279 383.054 443.022 385.221 444.198 386.716C445.375 388.21 447.54 388.469 449.035 387.292C450.53 386.116 450.788 383.949 449.611 382.454V382.454Z" fill="#45C53B" fill-opacity="0.3"/>
<path d="M556.697 378.525C555.521 377.03 553.355 376.773 551.86 377.948C550.366 379.126 550.108 381.291 551.283 382.786C552.461 384.281 554.627 384.538 556.121 383.361C557.617 382.185 557.874 380.02 556.697 378.525Z" fill="#45C53B" fill-opacity="0.3"/>
<path d="M450.031 430.575C449.115 429.411 447.431 429.212 446.268 430.127C445.106 431.041 444.906 432.726 445.82 433.89C446.735 435.053 448.42 435.252 449.583 434.338C450.745 433.423 450.947 431.738 450.031 430.575V430.575Z" fill="#45C53B" fill-opacity="0.3"/>
<path d="M400.097 550.517C399.182 549.353 397.496 549.154 396.334 550.07C395.172 550.983 394.971 552.667 395.887 553.831C396.802 554.995 398.487 555.194 399.649 554.28C400.811 553.365 401.014 551.68 400.097 550.517V550.517Z" fill="#45C53B" fill-opacity="0.3"/>
<path d="M533.969 447.8C533.053 446.636 531.369 446.435 530.207 447.35C529.045 448.266 528.843 449.95 529.759 451.112C530.674 452.276 532.359 452.475 533.523 451.563C534.684 450.645 534.885 448.962 533.969 447.8H533.969Z" fill="#45C53B" fill-opacity="0.3"/>
<path d="M533.636 540.245C532.719 539.083 531.036 538.881 529.872 539.797C528.711 540.712 528.509 542.398 529.423 543.56C530.338 544.723 532.024 544.922 533.188 544.009C534.348 543.093 534.55 541.408 533.636 540.245Z" fill="#45C53B" fill-opacity="0.3"/>
<path d="M355.011 409.896C354.095 408.733 352.412 408.533 351.249 409.448C350.085 410.363 349.886 412.048 350.801 413.211C351.716 414.374 353.401 414.574 354.563 413.659C355.725 412.744 355.926 411.06 355.011 409.896H355.011Z" fill="#45C53B" fill-opacity="0.3"/>
<path d="M396.613 392.413C395.698 391.25 394.013 391.049 392.852 391.965C391.688 392.88 391.487 394.564 392.404 395.727C393.319 396.89 395.003 397.091 396.165 396.175C397.327 395.26 397.53 393.576 396.613 392.413Z" fill="#45C53B" fill-opacity="0.3"/>
<path d="M381.51 475.786C380.593 474.624 378.908 474.423 377.747 475.338C376.585 476.254 376.384 477.938 377.299 479.1C378.214 480.264 379.899 480.463 381.061 479.549C382.224 478.634 382.426 476.95 381.51 475.786V475.786Z" fill="#45C53B" fill-opacity="0.3"/>
<path d="M423.844 493.62C422.927 492.457 421.243 492.257 420.082 493.172C418.919 494.087 418.717 495.771 419.633 496.935C420.548 498.097 422.231 498.298 423.396 497.384C424.558 496.467 424.759 494.783 423.844 493.62V493.62Z" fill="#45C53B" fill-opacity="0.3"/>
<path d="M401.018 437.819C400.363 436.988 399.159 436.846 398.329 437.497C397.499 438.153 397.356 439.355 398.008 440.186C398.663 441.016 399.865 441.159 400.697 440.506C401.527 439.852 401.67 438.648 401.018 437.819V437.819Z" fill="#45C53B" fill-opacity="0.3"/>
<path d="M348.033 497.714C347.379 496.882 346.175 496.738 345.345 497.393C344.515 498.045 344.371 499.248 345.024 500.081C345.678 500.91 346.882 501.053 347.713 500.399C348.542 499.746 348.686 498.543 348.033 497.714L348.033 497.714Z" fill="#45C53B" fill-opacity="0.3"/>
<path d="M376.3 439.421C375.646 438.59 374.441 438.446 373.612 439.1C372.781 439.753 372.637 440.956 373.291 441.787C373.946 442.619 375.149 442.762 375.979 442.109C376.81 441.453 376.954 440.251 376.3 439.421Z" fill="#45C53B" fill-opacity="0.3"/>
<path d="M399.539 349.035C398.887 348.204 397.683 348.06 396.852 348.714C396.022 349.368 395.878 350.571 396.533 351.401C397.186 352.232 398.391 352.374 399.22 351.722C400.05 351.068 400.195 349.865 399.539 349.035Z" fill="#45C53B" fill-opacity="0.3"/>
<path d="M389.76 407.762C389.108 406.932 387.903 406.789 387.073 407.442C386.243 408.096 386.099 409.298 386.752 410.13C387.405 410.961 388.611 411.103 389.44 410.45C390.27 409.796 390.413 408.593 389.76 407.762V407.762Z" fill="#45C53B" fill-opacity="0.3"/>
<path d="M448.539 403.715C448 403.026 447 402.907 446.312 403.449C445.626 403.991 445.506 404.988 446.048 405.677C446.589 406.365 447.587 406.484 448.275 405.942C448.964 405.4 449.082 404.403 448.539 403.715Z" fill="#45C53B" fill-opacity="0.3"/>
<path d="M433.108 404.811C432.568 404.122 431.569 404.003 430.881 404.546C430.194 405.087 430.074 406.083 430.617 406.772C431.157 407.461 432.155 407.58 432.843 407.037C433.531 406.496 433.651 405.499 433.108 404.811Z" fill="#45C53B" fill-opacity="0.3"/>
<path d="M422.927 388.105C422.385 387.417 421.388 387.298 420.7 387.839C420.012 388.381 419.891 389.378 420.434 390.067C420.976 390.756 421.974 390.874 422.662 390.332C423.349 389.791 423.469 388.794 422.927 388.105Z" fill="#45C53B" fill-opacity="0.3"/>
<path d="M476.418 401.534C475.764 400.703 474.561 400.56 473.73 401.214C472.901 401.867 472.756 403.071 473.41 403.901C474.063 404.732 475.267 404.875 476.099 404.222C476.928 403.569 477.072 402.365 476.418 401.534V401.534Z" fill="#45C53B" fill-opacity="0.3"/>
<path d="M503.279 462.341C502.627 461.511 501.423 461.368 500.593 462.021C499.762 462.675 499.617 463.878 500.273 464.709C500.926 465.539 502.129 465.683 502.96 465.029C503.791 464.376 503.935 463.173 503.279 462.341L503.279 462.341Z" fill="#45C53B" fill-opacity="0.3"/>
<path d="M493.444 440.027C492.791 439.197 491.587 439.053 490.757 439.707C489.927 440.36 489.782 441.564 490.437 442.395C491.09 443.224 492.293 443.37 493.125 442.715C493.955 442.061 494.099 440.858 493.444 440.027Z" fill="#45C53B" fill-opacity="0.3"/>
<path d="M480.191 471.452C479.538 470.621 478.334 470.479 477.504 471.132C476.674 471.786 476.529 472.99 477.183 473.819C477.837 474.651 479.04 474.794 479.872 474.14C480.701 473.487 480.846 472.284 480.191 471.452Z" fill="#45C53B" fill-opacity="0.3"/>
<path d="M419.708 458.071C419.052 457.241 417.85 457.098 417.02 457.752C416.189 458.404 416.045 459.608 416.699 460.44C417.353 461.269 418.555 461.413 419.387 460.758C420.217 460.105 420.361 458.902 419.708 458.071Z" fill="#45C53B" fill-opacity="0.3"/>
<path d="M436.348 461.981C435.804 461.289 434.803 461.17 434.112 461.715C433.42 462.258 433.301 463.259 433.845 463.95C434.389 464.641 435.389 464.761 436.082 464.217C436.773 463.675 436.893 462.672 436.348 461.981Z" fill="#45C53B" fill-opacity="0.3"/>
<path d="M553.673 334.147C553.019 333.316 551.814 333.173 550.984 333.826C550.153 334.481 550.011 335.683 550.663 336.514C551.319 337.345 552.521 337.488 553.353 336.834C554.183 336.18 554.327 334.978 553.673 334.147Z" fill="#45C53B" fill-opacity="0.3"/>
<path d="M519.609 330.817C518.956 329.987 517.751 329.843 516.921 330.497C516.09 331.15 515.947 332.353 516.6 333.183C517.255 334.014 518.458 334.158 519.29 333.503C520.12 332.85 520.263 331.648 519.609 330.817Z" fill="#45C53B" fill-opacity="0.3"/>
<path d="M534.412 350.926C533.76 350.095 532.555 349.952 531.724 350.606C530.894 351.26 530.75 352.462 531.404 353.293C532.059 354.123 533.262 354.267 534.093 353.614C534.924 352.959 535.067 351.757 534.412 350.926Z" fill="#45C53B" fill-opacity="0.3"/>
<path d="M499.337 381.514C498.681 380.684 497.479 380.54 496.647 381.194C495.817 381.848 495.673 383.05 496.327 383.881C496.98 384.712 498.186 384.855 499.016 384.201C499.846 383.547 499.99 382.345 499.337 381.514L499.337 381.514Z" fill="#45C53B" fill-opacity="0.3"/>
<path d="M481.523 382.192C480.869 381.361 479.665 381.218 478.834 381.872C478.005 382.525 477.86 383.728 478.515 384.558C479.168 385.39 480.373 385.533 481.203 384.88C482.035 384.225 482.177 383.023 481.523 382.192Z" fill="#45C53B" fill-opacity="0.3"/>
<path d="M517.497 245.578C516.842 244.746 515.639 244.603 514.807 245.257C513.977 245.911 513.833 247.113 514.488 247.944C515.141 248.775 516.345 248.918 517.175 248.265C518.007 247.611 518.15 246.408 517.497 245.578Z" fill="#45C53B" fill-opacity="0.3"/>
<path d="M586.318 276.709C585.663 275.878 584.459 275.735 583.629 276.389C582.798 277.042 582.654 278.245 583.309 279.075C583.962 279.906 585.167 280.049 585.996 279.396C586.828 278.742 586.971 277.54 586.318 276.709V276.709Z" fill="#45C53B" fill-opacity="0.3"/>
<path d="M607.504 312.19C606.85 311.359 605.646 311.215 604.816 311.869C603.986 312.523 603.841 313.726 604.496 314.556C605.149 315.387 606.354 315.53 607.184 314.877C608.015 314.222 608.157 313.021 607.504 312.19H607.504Z" fill="#45C53B" fill-opacity="0.3"/>
<path d="M611.378 390.605C610.724 389.773 609.519 389.629 608.689 390.284C607.858 390.938 607.715 392.141 608.368 392.971C609.023 393.801 610.226 393.945 611.057 393.291C611.889 392.637 612.032 391.434 611.378 390.605H611.378Z" fill="#45C53B" fill-opacity="0.3"/>
<path d="M598.052 352.489C597.397 351.658 596.194 351.514 595.363 352.169C594.534 352.823 594.388 354.026 595.043 354.855C595.696 355.687 596.901 355.83 597.732 355.177C598.562 354.522 598.706 353.32 598.052 352.489H598.052Z" fill="#45C53B" fill-opacity="0.3"/>
<path d="M593.865 403.557C593.212 402.727 592.007 402.583 591.178 403.237C590.346 403.89 590.203 405.093 590.857 405.923C591.51 406.754 592.715 406.898 593.545 406.244C594.377 405.59 594.52 404.386 593.865 403.557H593.865Z" fill="#45C53B" fill-opacity="0.3"/>
<rect x="427" y="232" width="16" height="16" fill="white"/>
<line x1="430.354" y1="235.546" x2="439.354" y2="244.546" stroke="#9F9F9F"/>
<line x1="439.354" y1="235.354" x2="430.354" y2="244.354" stroke="#9F9F9F"/>
</svg>
