<svg width="540" height="324" viewBox="0 0 540 324" fill="none" xmlns="http://www.w3.org/2000/svg">
<path fill-rule="evenodd" clip-rule="evenodd" d="M801.742 188.182L811.758 222.837L812.293 223.513L777.724 212.976L766.738 224.361L803.278 296.796L802.498 296.343L749.868 291.574L747.044 264.128L746.941 264.068L746.985 263.977L714.084 214.809L672.838 273.74L699.56 297.271L661.592 289.812L628.121 337.634L527.624 284.079L527.63 284.095L527.101 283.801L496.155 300.289L496.438 316.267L510.938 357.655L511.99 358.387L452.132 346.522L426.877 358.845L450.779 416.296L450.91 416.608L376.117 434.131L378.94 498.698L378.562 498.476L256.144 506.767L255.879 506.787L245.652 437.517L133.948 449.713L133.611 542.335L23.601 495.721L-0.115234 552.687L-51.6134 499.373L-84.8904 558.726L-84.8149 560.285L-85.3458 559.009L-177.918 587.506L-166.117 472.463L-230.318 505.417L-230.352 505.068L-269.505 445.699L-352.996 481.305L-353.815 481.818L-353.421 480.993L-357.941 417.19L-397.157 408.945L-334.997 387.383L-330.109 351.642L-330.326 350.806L-302.991 374.448L-288.184 368.431L-254.789 340.008L-254.486 338.763L-244.05 398.662L-118.846 363.715L-118.318 363.413L-118.442 363.979L-102.83 428.615L-46.0099 411.468L-46.2367 411.333L-45.567 411.285L-45.5293 410.775L-45.1904 411.22L-44.7037 411.073L-44.7888 411.228L-10.1908 408.723L-3.97705 394.002L-0.461426 350.288L-1.12708 349.192L48.7896 384.295L81.5837 383.091L117.487 246.78L117.25 246.203L117.596 246.36L118.026 244.735L118.071 246.575L186.675 277.608L260.023 280.277L259.845 280.554L292.36 337.549L347.825 321.136L347.807 320.954L384.604 331.138L409.015 316.467L382.281 249.669L382.058 249.113L472.922 276.832L452.782 216.303L404.273 178.903L456.05 154.807L424.301 119.099L423.459 118.95L483.183 93.0051L488.165 129.758L503.441 132.447L502.96 131.49L503.959 132.438L649.554 2.46648L649.991 2.07568L658.434 122.817L731.627 100.285L730.573 169.251L777.815 180.274L810.3 151.743L810.357 151.694L849.835 143.281L801.742 188.182ZM801.89 187.258L847.931 144.274L810.724 152.203L801.89 187.258ZM453.274 215.956L476.104 233.559L497.037 201.288L447.002 197.107L453.274 215.956ZM-356.874 416.405L-316.841 403.869L-334.754 388.139L-356.874 416.405ZM-259.694 440.893L-238.085 431.677L-265.849 421.954L-276.758 433.339L-259.694 440.893ZM-276.471 434.095L-269.289 444.985L-260.417 441.201L-276.471 434.095ZM-18.981 477.904L-51.2278 498.946L-0.749512 551.205L-18.981 477.904ZM432.561 303.908L438.873 317.362L443.725 311.662L432.561 303.908ZM444.094 311.227L471.958 278.484L432.376 303.088L444.094 311.227ZM439.141 317.934L443.674 327.597L456.685 320.667L444.198 311.991L439.141 317.934ZM438.732 318.414L420.337 340.032L443.167 327.868L438.732 318.414ZM443.918 328.118L452.211 345.796L472.77 331.841L457.215 321.034L443.918 328.118ZM443.41 328.389L420.023 340.843L451.604 345.852L443.41 328.389ZM418.345 342.021L357.842 391.887L406.065 368.36L418.345 342.021ZM406.885 367.959L426.139 358.564L419.125 341.707L406.885 367.959ZM356.626 393.118L390.638 401.447L405.679 369.186L356.626 393.118ZM355.072 393.424L275.676 385.416L339.996 416.355L354.958 393.932L353.73 394.53L355.072 393.424ZM-51.2776 497.423L-43.7891 481.977L-50.2303 483.07L-51.2776 497.423ZM-50.813 483.169L-68.7274 486.209L-51.9227 498.361L-50.813 483.169ZM-19.1176 477.207L-23.4823 441.416L-42.7845 481.223L-19.1176 477.207ZM-43.0936 481.857L-50.9654 498.089L-20.1127 477.957L-43.0936 481.857ZM-43.4805 481.342L-23.6766 440.502L-45.0677 412.333L-50.189 482.481L-43.4805 481.342ZM-18.6261 476.492L0.817871 439.322L-22.9703 440.862L-18.6261 476.492ZM-18.1508 476.822L19.5229 459.162L1.37372 439.496L-18.1508 476.822ZM79.8604 472.24L49.7962 432.802L37.3065 462.799L79.8604 472.24ZM37.0832 463.339L23.9221 494.948L79.5936 472.77L37.0832 463.339ZM80.6603 472.344L103.19 463.369L93.5357 441.515L50.415 432.667L80.6603 472.344ZM49.2638 432.586L1.89099 439.211L20.1499 458.994L36.7375 462.673L49.2638 432.586ZM49.2494 432.01L41.8352 419.819L3.09076 438.462L49.2494 432.01ZM49.4105 431.171L49.0939 416.325L42.3539 419.569L49.4105 431.171ZM50.0031 431.997L93.2517 440.871L76.5687 403.105L49.6625 416.052L50.0031 431.997ZM311.855 458.534L327.273 435.425L300.436 436.105L311.855 458.534ZM375.195 433.287L355.749 393.783L340.52 416.607L375.195 433.287ZM340.198 417.089L328.365 434.822L374.624 433.65L340.198 417.089ZM327.975 435.408L312.568 458.498L374.203 434.234L327.975 435.408ZM299.8 436.123L247.545 437.448L311.247 458.61L299.8 436.123ZM299.512 435.555L274.071 385.584L246.383 436.903L299.512 435.555ZM229.058 366.672L218.063 362.128L211.951 391.846L211.893 392.126L211.738 392.095L194.667 404.715L245.456 436.588L229.058 366.672ZM198.963 353.615L217.639 361.333L222.267 338.836L198.963 353.615ZM221.757 338.48L155.576 335.686L198.314 353.347L221.757 338.48ZM218.18 361.556L228.898 365.984L222.702 339.567L218.18 361.556ZM210.977 391.943L157.263 381.241L194.143 404.387L210.977 391.943ZM155.95 381.094L134.208 448.694L193.649 404.754L155.95 381.094ZM93.9402 441.012L132.582 448.941L77.4605 403.704L93.9402 441.012ZM75.228 403.114L49.4252 404.982L49.6492 415.421L75.228 403.114ZM77.3143 402.842L133.517 448.966L155.352 381.075L77.3143 402.842ZM157.023 380.608L211.446 391.452L217.521 361.905L198.37 353.991L156.839 380.329L158.205 380.279L157.023 380.608ZM197.722 353.723L154.27 335.766L156.056 380.146L197.722 353.723ZM222.165 337.922L207.732 313.785L155.295 335.1L222.165 337.922ZM229.551 366.255L272.671 384.074L223.174 339.066L229.551 366.255ZM229.713 366.942L246.003 436.401L273.675 385.11L229.713 366.942ZM274.72 385.592L300.146 435.539L327.663 434.842L339.675 416.839L274.72 385.592ZM356.317 393.633L375.813 433.243L390.391 401.978L356.317 393.633ZM376.33 433.491L449.282 416.4L390.958 402.117L376.33 433.491ZM312.475 459.152L337.389 473.727L374.711 434.651L312.475 459.152ZM312.486 459.824L325.267 486.417L336.981 474.152L312.486 459.824ZM311.723 459.56L257.315 505.845L324.782 486.732L311.723 459.56ZM311.247 459.214L246.247 437.622L256.332 505.928L311.247 459.214ZM244.937 436.94L194.171 405.081L134.687 449.054L244.556 437.06L244.247 436.957L244.937 436.94ZM94.2249 441.656L103.957 463.682L81.0232 472.819L133.042 541.056L133.374 449.69L94.2249 441.656ZM80.4688 473.038L24.3259 495.406L132.441 541.214L80.4688 473.038ZM36.5123 463.213L20.0344 459.557L-18.0942 477.43L23.2929 494.966L36.5123 463.213ZM-69.5219 486.343L-87.1129 489.33L-53.0851 498.23L-69.5219 486.343ZM-89.3071 488.79L-134.13 440.019L-116.396 482.726L-89.3071 488.79ZM-116.128 483.374L-108.757 501.126L-89.2391 489.393L-116.128 483.374ZM-135.11 439.152L-165.228 471.795L-117.082 482.573L-135.11 439.152ZM-89.0161 488.257L-93.7013 468.859L-132.885 440.524L-89.0161 488.257ZM-108.536 501.662L-105.908 507.99L-89.9869 490.512L-108.536 501.662ZM-109.032 501.962L-137.461 519.052L-175.963 584.895L-106.334 508.459L-109.032 501.962ZM-137.574 518.449L-109.254 501.425L-116.814 483.22L-164.804 472.478L-163.803 473.408L-164.972 472.748L-137.574 518.449ZM-165.792 471.56L-135.635 438.874L-206.146 434.063L-165.792 471.56ZM-237.75 430.882L-244.445 399.612L-257.79 413.542L-237.75 430.882ZM-258.188 413.957L-265.413 421.498L-238.623 430.881L-258.188 413.957ZM-237.096 431.206L-220.349 421.648L-243.806 399.853L-237.096 431.206ZM-236.33 431.429L-207.725 433.38L-219.911 422.058L-236.33 431.429ZM-206.635 434.394L-207.383 448.183L-167.752 470.523L-206.635 434.394ZM-207.186 433.992L-236.048 432.022L-207.942 447.868L-207.186 433.992ZM-236.955 432.164L-235.019 451.816L-208.786 463.429L-207.976 448.504L-236.955 432.164ZM-237.541 432.068L-258.979 441.21L-235.622 451.549L-237.541 432.068ZM-315.757 404.822L-316.032 404.583L-318.948 439.411L-277.968 433.254L-315.786 404.716L-315.757 404.822ZM-277.425 432.944L-274.048 419.082L-314.629 404.869L-277.425 432.944ZM-276.718 432.466L-266.446 421.745L-273.504 419.273L-276.718 432.466ZM-319.221 440.033L-319.322 440.048L-330.131 433.634L-352.443 480.28L-278.569 433.925L-319.221 440.033ZM-319.512 439.269L-316.686 405.528L-329.88 433.114L-319.512 439.269ZM-316.812 404.462L-356.968 417.036L-330.377 432.82L-316.812 404.462ZM-316.78 403.159L-322.045 382.811L-334.286 387.786L-316.78 403.159ZM-316.188 403.158L-315.853 402.455L-315.965 403.793L-273.913 418.522L-270.257 403.519L-303.101 375.112L-321.509 382.592L-316.188 403.158ZM-273.368 418.712L-266.009 421.289L-258.623 413.581L-269.769 403.94L-273.368 418.712ZM-258.225 413.166L-244.877 399.233L-245.701 399.123L-244.943 398.912L-265.135 384.91L-269.617 403.314L-258.225 413.166ZM-219.828 421.351L-193.207 406.157L-243.421 399.428L-219.828 421.351ZM-219.388 421.759L-206.876 433.386L-165.507 409.869L-192.271 406.282L-219.388 421.759ZM-164.67 410.054L-205.922 433.503L-135.776 438.289L-164.67 410.054ZM-93.9084 468.001L-103.247 429.34L-134.379 438.735L-93.9084 468.001ZM-88.3686 488.487L-82.1182 477.235L-92.9852 469.376L-88.3686 488.487ZM-87.945 488.888L-70.1729 485.872L-81.6553 477.57L-87.945 488.888ZM-69.3825 485.737L-50.7728 482.579L-45.6807 412.83L-81.3752 477.065L-69.3825 485.737ZM-23.3737 439.951L-18.2507 427.816L-44.1883 412.539L-23.3737 439.951ZM-22.8891 440.283L0.35907 438.777L-17.7501 428.109L-22.8891 440.283ZM1.323 438.676L41.5353 419.327L33.5097 406.134L-9.79895 409.27L-17.5256 427.576L1.323 438.676ZM42.0552 419.076L49.0803 415.695L48.8528 405.022L34.1537 406.088L42.0552 419.076ZM48.8397 404.448L48.422 384.928L23.9745 389.354L33.8188 405.536L48.8397 404.448ZM49.0015 385.121L49.4146 404.407L75.8453 402.498L49.0015 385.121ZM77.856 402.1L153.374 381.032L99.7541 382.999L77.856 402.1ZM98.8416 383.032L82.0306 383.65L77.2276 401.887L98.8416 383.032ZM155.235 380.388L134.686 352.528L100.442 382.399L155.235 380.388ZM155.464 379.732L153.702 335.94L135.12 352.149L155.464 379.732ZM153.274 335.551L120.514 332.35L134.777 351.686L153.274 335.551ZM207.435 313.286L186.614 278.463L154.622 334.753L207.435 313.286ZM207.973 313.067L226.608 305.492L187.523 278.863L207.973 313.067ZM227.2 305.872L208.271 313.566L222.691 337.685L239.194 311.836L227.2 305.872ZM223.208 337.942L291.015 337.607L239.711 312.093L223.208 337.942ZM223.423 338.514L273.962 384.471L291.805 338.177L223.423 338.514ZM274.483 384.717L354.917 392.832L292.344 338.373L274.483 384.717ZM418.538 341.126L384.688 331.756L370.108 340.521L356.294 392.417L418.538 341.126ZM438.464 317.844L431.729 303.484L409.729 316.707L419.231 340.446L438.464 317.844ZM431.899 302.71L472.682 277.359L383.476 250.145L431.899 302.71ZM473.468 277.599L444.569 311.557L457.25 320.364L495.574 299.947L495.22 280.082L473.785 277.606L473.818 277.705L473.468 277.599ZM735.52 200.111L721.111 195.719L714.536 213.911L714.744 213.866L714.579 214.101L738.88 218.751L735.52 200.111ZM747.44 263.031L765.969 224.521L739.589 219.472L747.44 263.031ZM724.935 185.138L721.306 195.179L735.407 199.477L732.71 184.512L724.935 185.138ZM732.609 183.944L730.199 170.57L725.149 184.545L732.609 183.944ZM579.71 130.019L548.913 175.168L563.44 188.978L611.67 179.351L610.377 178.906L612.194 179.082L579.71 130.019ZM535.334 195.352L534.149 208.508L595.436 221.5L535.334 195.352ZM534.745 195.499L519.729 205.451L533.583 208.388L534.745 195.499ZM519.059 205.897L503.326 216.325L526.933 282.154L533.532 208.964L519.059 205.897ZM518.271 205.73L497.982 201.429L503.126 215.769L518.271 205.73ZM518.944 205.285L533.809 195.431L499.097 201.079L518.944 205.285ZM534.918 209.259L572.391 244.147L597.526 222.529L534.918 209.259ZM596.778 221.457L563.261 189.598L536.038 195.032L596.778 221.457ZM598.026 221.851L612.334 179.803L563.951 189.461L598.026 221.851ZM626.692 211.674L612.8 180.214L598.619 221.894L626.692 211.674ZM598.835 222.426L642.349 247.132L626.924 212.2L598.835 222.426ZM627.233 211.477L665.031 197.719L613.294 179.91L627.233 211.477ZM665.889 197.406L693.196 187.466L615.155 179.944L665.889 197.406ZM714.004 213.692L720.56 195.552L695.214 187.819L714.004 213.692ZM694.549 187.881L694.094 188.954L694.143 188.144L681.641 202.828L713.323 213.732L694.549 187.881ZM693.561 187.943L666.751 197.704L681.058 202.627L693.561 187.943ZM665.895 198.015L627.466 212.004L643.039 247.276L680.658 203.096L665.895 198.015ZM598.187 222.718L572.813 244.54L592.641 263L642.242 247.731L598.187 222.718ZM572.375 244.918L528.333 282.797L592.008 263.195L572.375 244.918ZM571.953 244.524L534.081 209.263L527.453 282.796L571.953 244.524ZM502.832 216.653L497.163 220.411L495.605 265.774L526.575 282.858L502.832 216.653ZM495.057 265.017L496.574 220.8L476.562 234.064L495.057 265.017ZM496.598 220.096L497.217 202.066L477.168 232.974L496.598 220.096ZM497.186 219.706L502.632 216.096L497.773 202.549L497.186 219.706ZM497.859 200.698L534.653 194.708L504.145 133.852L497.859 200.698ZM535.123 194.365L548.164 175.247L504.946 134.168L535.123 194.365ZM535.718 194.511L562.751 189.115L548.584 175.648L535.718 194.511ZM653.282 151.831L669.679 144.092L658.132 123.706L643.034 142.402L653.282 151.831ZM642.672 142.849L614.189 178.12L652.768 152.137L642.672 142.849ZM653.375 152.422L613.59 179.217L693.967 186.969L669.962 144.593L653.375 152.422ZM720.756 195.01L724.305 185.19L696.009 187.467L720.756 195.01ZM681.241 203.297L644.667 246.249L679.742 221.399L679.792 221.366L713.021 214.234L681.241 203.297ZM643.424 247.835L672.245 273.216L679.531 222.255L643.424 247.835ZM642.969 248.198L610.371 279.164L661.334 289.176L672.075 273.831L642.969 248.198ZM641.877 248.445L593.126 263.451L609.769 278.945L641.877 248.445ZM609.519 279.497L592.493 263.647L527.848 283.547L627.546 336.678L609.519 279.497ZM495.551 266.4L495.784 279.568L525.688 283.023L495.551 266.4ZM494.974 266.292L474.33 277.09L495.209 279.503L494.974 266.292ZM494.812 265.728L476.404 234.915L473.689 276.778L494.812 265.728ZM497.128 200.147L488.988 140.11L456.991 155.002L497.128 200.147ZM497.487 198.524L503.621 133.3L489.535 139.857L497.487 198.524ZM548.491 174.767L579.154 129.817L504.64 133.087L548.491 174.767ZM579.702 129.218L579.863 129.211L612.107 177.909L592.663 97.019L505.598 132.469L579.702 129.218ZM612.909 178.791L642.25 142.459L593.364 97.4768L612.909 178.791ZM642.611 142.012L657.653 123.387L657 123.259L657.32 123.161L594.228 97.4922L642.611 142.012ZM670.2 143.846L697.079 131.16L658.731 123.6L670.2 143.846ZM670.482 144.348L694.258 186.319L697.675 131.515L670.482 144.348ZM694.874 185.65L711.217 147.233L698.234 131.782L694.874 185.65ZM694.935 186.978L724.519 184.596L729.963 169.536L711.632 147.725L694.935 186.978ZM730.013 168.704L731.023 102.137L711.883 147.132L730.013 168.704ZM733.177 183.899L776.035 180.449L730.648 169.857L733.177 183.899ZM777.764 180.886L733.281 184.467L736.02 199.664L777.556 212.324L791.353 198.025L777.764 180.886ZM791.756 197.609L800.931 188.102L778.698 181.14L791.756 197.609ZM801.263 188.585L792.115 198.063L810.818 221.651L801.263 188.585ZM810.7 222.427L791.713 198.479L778.172 212.512L810.7 222.427ZM777.108 212.789L736.136 200.298L739.481 218.867L766.292 223.998L777.108 212.789ZM766.394 224.958L747.689 263.838L801.895 295.328L766.394 224.958ZM801.32 295.66L747.708 264.514L747.842 265.256L747.718 265.072L750.392 291.044L801.32 295.66ZM746.789 262.649L738.989 219.356L714.711 214.711L746.789 262.649ZM680.166 221.872L672.907 272.643L713.436 214.735L680.166 221.872ZM697.588 296.299L672.508 274.213L661.951 289.298L697.588 296.299ZM610.19 279.714L628.131 336.62L660.975 289.691L610.19 279.714ZM526.155 283.655L495.796 280.149L496.143 299.645L526.155 283.655ZM457.78 320.734L473.277 331.497L495.863 316.168L495.585 300.594L457.78 320.734ZM496.005 316.765L473.782 331.848L510.133 357.098L496.005 316.765ZM509.405 357.29L473.276 332.191L452.823 346.073L509.405 357.29ZM451.151 346.364L419.603 341.357L426.656 358.314L451.151 346.364ZM406.499 368.786L391.207 401.586L450.031 415.992L426.36 359.095L406.499 368.786ZM375.563 434.591L337.899 474.025L378.319 497.671L375.563 434.591ZM337.49 474.451L325.109 487.413L325.035 487.256L258.842 506.012L377.679 497.962L337.49 474.451ZM-18.3832 477.931L-0.143738 551.261L23.0713 495.497L-18.3832 477.931ZM-52.1076 499.08L-88.1706 489.646L-84.9418 557.643L-52.1076 499.08ZM-85.5451 557.031L-88.7294 489.974L-105.667 508.569L-85.5451 557.031ZM-106.093 509.037L-176.669 586.521L-85.5677 558.477L-106.093 509.037ZM-177.168 585.816L-138.006 518.846L-165.579 472.853L-177.168 585.816ZM-166.382 471.954L-207.417 448.818L-208.257 464.291L-234.954 452.472L-229.83 504.522L-166.382 471.954ZM-230.473 503.843L-235.558 452.206L-259.702 441.519L-268.969 445.471L-230.473 503.843ZM-269.827 445.213L-277.333 433.828L-349.892 479.357L-269.827 445.213ZM-330.625 433.339L-357.346 417.481L-352.92 479.945L-330.625 433.339ZM-357.786 416.636L-335.506 388.168L-395.013 408.809L-357.786 416.636ZM-334.393 387.208L-322.19 382.249L-329.729 353.108L-334.393 387.208ZM-329.308 352.445L-321.654 382.032L-303.589 374.691L-329.308 352.445ZM-270.105 402.891L-265.64 384.559L-288.071 369.005L-302.503 374.87L-270.105 402.891ZM-287.566 368.658L-265.495 383.962L-255.02 340.959L-287.566 368.658ZM-264.989 384.312L-244.678 398.397L-254.578 341.571L-264.989 384.312ZM-242.855 398.924L-192.386 405.688L-120.893 364.882L-242.855 398.924ZM-191.45 405.814L-164.681 409.4L-164.577 409.343L-135.188 438.061L-119.153 364.551L-191.45 405.814ZM-118.722 365.264L-134.631 438.211L-103.381 428.781L-118.722 365.264ZM-102.695 429.174L-93.1925 468.518L-81.8375 476.73L-45.8928 412.033L-102.695 429.174ZM-44.3592 411.773L-18.025 427.282L-10.4417 409.317L-44.3592 411.773ZM33.1743 405.583L23.3689 389.463L-3.4892 394.325L-9.5481 408.677L33.1743 405.583ZM-3.37836 393.722L23.0484 388.938L0.0482178 351.124L-3.37836 393.722ZM0.793335 351.244L23.6553 388.827L47.9765 384.425L0.793335 351.244ZM49.6226 384.839L76.5344 402.26L81.4311 383.671L49.6226 384.839ZM82.1835 383.069L99.5288 382.433L134.343 352.064L119.617 332.098L117.551 248.789L82.1835 383.069ZM120.181 331.74L153.518 334.999L118.113 248.318L120.181 331.74ZM118.327 247.32L154.007 334.675L186.204 278.024L118.327 247.32ZM187.593 278.216L227.357 305.309L239.506 311.349L258.998 280.815L187.593 278.216ZM240.021 311.606L291.508 337.211L259.495 281.101L240.021 311.606ZM293.006 337.956L293.434 338.169L292.987 338.171L355.424 392.512L347.888 321.716L293.006 337.956ZM348.467 321.732L355.908 391.637L369.613 340.148L383.926 331.546L348.467 321.732ZM385.367 331.349L418.659 340.562L409.232 317.006L385.367 331.349ZM431.404 303.01L383.395 250.905L409.513 316.168L431.404 303.01ZM473.179 275.785L475.88 234.11L453.597 216.931L473.179 275.785ZM405.371 179.025L452.459 215.328L446.182 196.463L496.846 200.696L456.447 155.255L405.371 179.025ZM456.593 154.553L488.908 139.515L487.652 130.251L425.213 119.258L456.593 154.553ZM482.716 93.8342L425.44 118.715L487.572 129.653L482.716 93.8342ZM488.245 130.355L489.452 139.26L502.521 133.179L502.31 133.188L502.923 132.939L488.245 130.355ZM505.385 131.936L592.528 96.4545L592.454 96.15L592.745 96.2683L648.508 4.1698L505.385 131.936ZM593.283 96.4877L657.854 122.759L649.522 3.60296L593.283 96.4877ZM697.725 130.703L697.749 130.313L698.147 130.786L698.903 130.935L698.451 131.149L711.469 146.639L730.828 101.132L659.347 123.137L697.725 130.703ZM801.214 187.589L809.986 152.783L778.466 180.466L801.214 187.589Z" fill="#0BAFCE" fill-opacity="0.4"/>
<path d="M532.524 195.719C532.958 197.132 534.458 197.925 535.872 197.49C537.287 197.055 538.08 195.556 537.644 194.142C537.21 192.727 535.711 191.933 534.296 192.369C532.881 192.804 532.088 194.304 532.524 195.719Z" fill="#0BAFCE" fill-opacity="0.4"/>
<path d="M501.392 133.617C501.828 135.033 503.327 135.826 504.741 135.39C506.156 134.954 506.948 133.456 506.514 132.041C506.078 130.626 504.579 129.833 503.165 130.269C501.75 130.704 500.956 132.203 501.392 133.617V133.617Z" fill="#0BAFCE" fill-opacity="0.4"/>
<path d="M402.26 179.752C402.696 181.167 404.195 181.96 405.609 181.525C407.024 181.089 407.817 179.59 407.382 178.176C406.946 176.761 405.447 175.968 404.032 176.404C402.618 176.839 401.825 178.338 402.26 179.752Z" fill="#0BAFCE" fill-opacity="0.4"/>
<path d="M430.599 305.444C431.907 306.136 433.529 305.635 434.219 304.33C434.913 303.02 434.414 301.398 433.105 300.707C431.797 300.014 430.176 300.515 429.485 301.821C428.791 303.129 429.291 304.751 430.599 305.444Z" fill="#0BAFCE" fill-opacity="0.4"/>
<path d="M481.694 95.7878C483.003 96.4798 484.625 95.9809 485.315 94.6731C486.009 93.3663 485.51 91.7442 484.201 91.0523C482.893 90.3597 481.273 90.8586 480.58 92.167C479.887 93.4749 480.386 95.0953 481.694 95.7878Z" fill="#0BAFCE" fill-opacity="0.4"/>
<path d="M346.883 323.71C348.191 324.404 349.812 323.903 350.505 322.595C351.197 321.288 350.698 319.667 349.39 318.974C348.081 318.282 346.46 318.782 345.768 320.09C345.077 321.396 345.574 323.019 346.883 323.71Z" fill="#0BAFCE" fill-opacity="0.4"/>
<path d="M525.85 285.844C527.158 286.536 528.777 286.036 529.47 284.729C530.162 283.421 529.664 281.798 528.356 281.107C527.047 280.414 525.426 280.915 524.734 282.222C524.042 283.529 524.542 285.151 525.85 285.844H525.85Z" fill="#0BAFCE" fill-opacity="0.4"/>
<path d="M494.9 318.685C496.206 319.378 497.828 318.878 498.519 317.571C499.212 316.264 498.713 314.642 497.404 313.949C496.096 313.257 494.476 313.756 493.785 315.065C493.092 316.372 493.59 317.992 494.9 318.685V318.685Z" fill="#0BAFCE" fill-opacity="0.4"/>
<path d="M474.922 236.344C476.231 237.036 477.852 236.537 478.543 235.229C479.236 233.921 478.737 232.3 477.428 231.608C476.12 230.915 474.501 231.415 473.808 232.723C473.115 234.031 473.614 235.652 474.922 236.344Z" fill="#0BAFCE" fill-opacity="0.4"/>
<path d="M472.475 278.96C473.409 279.454 474.566 279.097 475.061 278.164C475.555 277.229 475.198 276.071 474.264 275.577C473.33 275.083 472.172 275.44 471.678 276.372C471.185 277.307 471.542 278.465 472.475 278.96Z" fill="#0BAFCE" fill-opacity="0.4"/>
<path d="M381.653 251.253C382.587 251.748 383.744 251.391 384.239 250.457C384.734 249.523 384.377 248.365 383.443 247.87C382.508 247.376 381.349 247.733 380.856 248.667C380.362 249.601 380.718 250.759 381.653 251.253Z" fill="#0BAFCE" fill-opacity="0.4"/>
<path d="M496.642 202.733C497.576 203.227 498.735 202.87 499.228 201.937C499.723 201.002 499.367 199.845 498.432 199.35C497.497 198.856 496.341 199.212 495.846 200.146C495.351 201.081 495.708 202.239 496.642 202.733Z" fill="#0BAFCE" fill-opacity="0.4"/>
<path d="M445.697 198.476C446.631 198.971 447.788 198.615 448.283 197.68C448.778 196.747 448.421 195.588 447.487 195.094C446.553 194.6 445.394 194.957 444.9 195.89C444.407 196.824 444.763 197.983 445.697 198.476H445.697Z" fill="#0BAFCE" fill-opacity="0.4"/>
<path d="M452.079 217.63C453.014 218.124 454.173 217.767 454.666 216.833C455.16 215.901 454.804 214.742 453.871 214.247C452.936 213.752 451.777 214.11 451.283 215.044C450.79 215.977 451.147 217.135 452.079 217.63Z" fill="#0BAFCE" fill-opacity="0.4"/>
<path d="M423.554 120.524C424.489 121.018 425.647 120.662 426.14 119.727C426.635 118.795 426.279 117.636 425.344 117.141C424.409 116.647 423.253 117.004 422.758 117.937C422.264 118.872 422.62 120.031 423.554 120.524Z" fill="#0BAFCE" fill-opacity="0.4"/>
<path d="M455.603 156.608C456.538 157.102 457.695 156.746 458.191 155.812C458.685 154.878 458.328 153.72 457.394 153.226C456.459 152.731 455.303 153.088 454.807 154.021C454.313 154.956 454.67 156.114 455.603 156.608H455.603Z" fill="#0BAFCE" fill-opacity="0.4"/>
<path d="M486.968 131.652C487.903 132.146 489.06 131.79 489.554 130.856C490.049 129.922 489.693 128.764 488.759 128.27C487.824 127.775 486.667 128.132 486.172 129.066C485.677 130 486.034 131.159 486.968 131.652V131.652Z" fill="#0BAFCE" fill-opacity="0.4"/>
<path d="M533.158 210.064C533.899 210.456 534.817 210.174 535.208 209.433C535.6 208.693 535.318 207.776 534.578 207.384C533.836 206.992 532.919 207.275 532.527 208.015C532.135 208.755 532.418 209.673 533.158 210.064L533.158 210.064Z" fill="#0BAFCE" fill-opacity="0.4"/>
<path d="M494.423 267.479C495.356 267.974 496.514 267.617 497.008 266.683C497.502 265.75 497.145 264.591 496.211 264.097C495.277 263.601 494.12 263.958 493.626 264.892C493.131 265.826 493.487 266.984 494.423 267.479H494.423Z" fill="#0BAFCE" fill-opacity="0.4"/>
<path d="M408.452 318.305C409.386 318.799 410.543 318.443 411.038 317.508C411.532 316.574 411.176 315.417 410.242 314.922C409.307 314.428 408.148 314.784 407.656 315.719C407.161 316.651 407.517 317.81 408.452 318.305Z" fill="#0BAFCE" fill-opacity="0.4"/>
<path d="M119.294 245.578C118.639 244.746 117.436 244.603 116.604 245.257C115.774 245.911 115.63 247.113 116.285 247.944C116.938 248.775 118.142 248.918 118.972 248.265C119.804 247.611 119.946 246.408 119.294 245.578Z" fill="#0BAFCE" fill-opacity="0.4"/>
<path d="M188.115 276.709C187.46 275.878 186.256 275.735 185.426 276.389C184.595 277.042 184.451 278.245 185.106 279.075C185.759 279.906 186.964 280.049 187.793 279.396C188.625 278.742 188.768 277.54 188.115 276.709V276.709Z" fill="#0BAFCE" fill-opacity="0.4"/>
<path d="M261.015 279.363C260.361 278.532 259.157 278.388 258.327 279.043C257.496 279.696 257.353 280.899 258.006 281.729C258.661 282.56 259.864 282.703 260.695 282.049C261.527 281.396 261.669 280.193 261.015 279.363Z" fill="#0BAFCE" fill-opacity="0.4"/>
<path d="M228.717 304.373C228.063 303.542 226.86 303.398 226.028 304.052C225.199 304.706 225.055 305.909 225.708 306.739C226.361 307.571 227.566 307.714 228.396 307.06C229.227 306.406 229.371 305.203 228.717 304.373Z" fill="#0BAFCE" fill-opacity="0.4"/>
<path d="M241.099 310.544C240.444 309.714 239.241 309.57 238.41 310.224C237.58 310.878 237.435 312.08 238.09 312.911C238.744 313.742 239.948 313.885 240.78 313.231C241.609 312.577 241.752 311.375 241.099 310.544Z" fill="#0BAFCE" fill-opacity="0.4"/>
<path d="M209.301 312.19C208.647 311.359 207.443 311.215 206.612 311.869C205.783 312.523 205.638 313.726 206.293 314.556C206.946 315.387 208.151 315.53 208.981 314.877C209.812 314.222 209.954 313.021 209.301 312.19H209.301Z" fill="#0BAFCE" fill-opacity="0.4"/>
</svg>
