<svg width="783" height="248" viewBox="0 0 783 248" fill="none" xmlns="http://www.w3.org/2000/svg">
<g clip-path="url(#clip0_999_1967)">
<path fill-rule="evenodd" clip-rule="evenodd" d="M1222.74 -27.8176L1232.76 6.83697L1233.29 7.51352L1198.72 -3.02381L1187.74 8.36089L1224.28 80.7966L1223.5 80.3429L1170.87 75.5742L1168.04 48.1281L1167.94 48.0681L1167.99 47.9773L1135.08 -1.19083L1093.84 57.7398L1120.56 81.2714L1082.59 73.812L1049.12 121.635L948.624 68.0794L948.63 68.0949L948.101 67.8017L917.155 84.2894L917.438 100.267L931.938 141.655L932.99 142.388L873.132 130.522L847.877 142.845L871.779 200.296L871.91 200.608L797.117 218.132L799.94 282.698L799.562 282.476L677.144 290.768L676.879 290.787L666.652 221.518L554.947 233.713L554.611 326.335L444.601 279.721L420.885 336.687L369.387 283.374L336.11 342.726L336.185 344.285L335.654 343.009L243.082 371.506L254.883 256.463L190.682 289.418L190.648 289.068L151.495 229.7L68.0038 265.305L67.1849 265.819L67.5787 264.994L63.059 201.19L23.8426 192.945L86.0032 171.383L90.8915 135.642L90.6743 134.806L118.009 158.448L132.816 152.431L166.211 124.009L166.514 122.763L176.95 182.663L302.154 147.716L302.682 147.413L302.558 147.98L318.17 212.615L374.99 195.468L374.763 195.334L375.433 195.286L375.471 194.775L375.81 195.22L376.296 195.074L376.211 195.228L410.809 192.723L417.023 178.002L420.539 134.288L419.873 133.192L469.79 168.295L502.584 167.092L538.487 30.7805L538.25 30.2029L538.596 30.36L539.026 28.735L539.071 30.5748L607.675 61.608L681.023 64.2775L680.845 64.5546L713.361 121.549L768.825 105.136L768.807 104.954L805.604 115.138L830.015 100.467L803.281 33.6689L803.058 33.1135L893.922 60.8321L873.782 0.303311L825.273 -37.0967L877.05 -61.1928L845.301 -96.9004L844.459 -97.0501L904.183 -122.995L909.165 -86.242L924.441 -83.553L923.96 -84.5101L924.959 -83.5616L1070.55 -213.533L1070.99 -213.924L1079.43 -93.1825L1152.63 -115.715L1151.57 -46.749L1198.81 -35.7254L1231.3 -64.2565L1231.36 -64.3057L1270.83 -72.7192L1222.74 -27.8176ZM1222.89 -28.7415L1268.93 -71.7261L1231.72 -63.7972L1222.89 -28.7415ZM874.274 -0.0440569L897.104 17.5589L918.037 -14.7119L868.002 -18.8926L874.274 -0.0440569ZM64.1263 200.405L104.159 187.87L86.246 172.14L64.1263 200.405ZM161.305 224.893L182.915 215.677L155.151 205.954L144.242 217.34L161.305 224.893ZM144.529 218.095L151.711 228.985L160.583 225.201L144.529 218.095ZM402.019 261.905L369.772 282.946L420.25 335.205L402.019 261.905ZM853.561 87.9085L859.873 101.363L864.725 95.662L853.561 87.9085ZM865.094 95.2273L892.958 62.484L853.376 87.0886L865.094 95.2273ZM860.141 101.935L864.674 111.598L877.685 104.667L865.198 95.9917L860.141 101.935ZM859.732 102.414L841.336 124.032L864.167 111.868L859.732 102.414ZM864.918 112.118L873.211 129.797L893.771 115.841L878.215 105.034L864.918 112.118ZM864.41 112.39L841.022 124.843L872.604 129.853L864.41 112.39ZM839.345 126.021L778.842 175.887L827.065 152.36L839.345 126.021ZM827.885 151.959L847.139 142.565L840.125 125.707L827.885 151.959ZM777.626 177.118L811.638 185.447L826.679 153.186L777.626 177.118ZM776.072 177.424L696.676 169.416L760.996 200.356L775.958 177.932L774.73 178.531L776.072 177.424ZM369.722 281.423L377.211 265.977L370.77 267.07L369.722 281.423ZM370.187 267.169L352.273 270.209L369.077 282.361L370.187 267.169ZM401.882 261.207L397.518 225.417L378.215 265.223L401.882 261.207ZM377.906 265.857L370.035 282.09L400.887 261.957L377.906 265.857ZM377.519 265.343L397.323 224.502L375.932 196.333L370.811 266.481L377.519 265.343ZM402.374 260.492L421.818 223.322L398.03 224.862L402.374 260.492ZM402.849 260.822L440.523 243.162L422.374 223.497L402.849 260.822ZM500.86 256.241L470.796 216.802L458.306 246.8L500.86 256.241ZM458.083 247.339L444.922 278.948L500.594 256.77L458.083 247.339ZM501.66 256.345L524.19 247.369L514.536 225.515L471.415 216.667L501.66 256.345ZM470.264 216.587L422.891 223.211L441.15 242.994L457.738 246.673L470.264 216.587ZM470.249 216.01L462.835 203.819L424.091 222.463L470.249 216.01ZM470.411 215.171L470.094 200.326L463.354 203.569L470.411 215.171ZM471.003 215.997L514.252 224.871L497.569 187.106L470.663 200.052L471.003 215.997ZM732.855 242.534L748.273 219.425L721.436 220.105L732.855 242.534ZM796.195 217.287L776.75 177.783L761.52 200.607L796.195 217.287ZM761.198 201.09L749.364 218.822L795.624 217.65L761.198 201.09ZM748.975 219.408L733.568 242.498L795.203 218.234L748.975 219.408ZM720.8 220.123L668.545 221.448L732.247 242.61L720.8 220.123ZM720.512 219.555L695.071 169.585L667.383 220.903L720.512 219.555ZM650.058 150.673L639.063 146.128L632.951 175.846L632.893 176.126L632.738 176.095L615.667 188.715L666.456 220.588L650.058 150.673ZM619.963 137.615L638.639 145.334L643.267 122.836L619.963 137.615ZM642.757 122.481L576.576 119.686L619.314 137.347L642.757 122.481ZM639.18 145.556L649.898 149.985L643.702 123.567L639.18 145.556ZM631.977 175.943L578.263 165.241L615.143 188.387L631.977 175.943ZM576.95 165.094L555.208 232.694L614.649 188.755L576.95 165.094ZM514.94 225.013L553.582 232.942L498.461 187.704L514.94 225.013ZM496.228 187.114L470.425 188.982L470.649 199.421L496.228 187.114ZM498.314 186.842L554.517 232.967L576.352 165.075L498.314 186.842ZM578.023 164.608L632.446 175.452L638.521 145.905L619.37 137.991L577.839 164.329L579.205 164.279L578.023 164.608ZM618.722 137.723L575.27 119.766L577.056 164.147L618.722 137.723ZM643.165 121.923L628.732 97.7848L576.295 119.1L643.165 121.923ZM650.551 150.255L693.671 168.074L644.174 123.066L650.551 150.255ZM650.713 150.942L667.003 220.401L694.675 169.11L650.713 150.942ZM695.72 169.592L721.146 219.539L748.663 218.842L760.675 200.839L695.72 169.592ZM777.317 177.633L796.813 217.243L811.391 185.978L777.317 177.633ZM797.33 217.492L870.282 200.4L811.958 186.117L797.33 217.492ZM733.475 243.153L758.389 257.727L795.711 218.651L733.475 243.153ZM733.486 243.824L746.267 270.418L757.981 258.152L733.486 243.824ZM732.723 243.561L678.315 289.845L745.782 270.732L732.723 243.561ZM732.247 243.214L667.247 221.623L677.332 289.928L732.247 243.214ZM665.937 220.94L615.171 189.082L555.687 233.054L665.556 221.06L665.247 220.958L665.937 220.94ZM515.225 225.657L524.957 247.683L502.023 256.819L554.042 325.057L554.374 233.69L515.225 225.657ZM501.469 257.038L445.326 279.407L553.441 325.214L501.469 257.038ZM457.512 247.213L441.034 243.557L402.906 261.43L444.293 278.967L457.512 247.213ZM351.478 270.343L333.887 273.331L367.915 282.23L351.478 270.343ZM331.693 272.79L286.87 224.02L304.604 266.726L331.693 272.79ZM304.872 267.374L312.242 285.127L331.761 273.393L304.872 267.374ZM285.89 223.153L255.772 255.795L303.918 266.573L285.89 223.153ZM331.984 272.257L327.299 252.859L288.115 224.525L331.984 272.257ZM312.464 285.663L315.092 291.991L331.013 274.512L312.464 285.663ZM311.968 285.962L283.539 303.052L245.037 368.895L314.666 292.46L311.968 285.962ZM283.426 302.449L311.746 285.425L304.187 267.22L256.196 256.478L257.197 257.408L256.028 256.748L283.426 302.449ZM255.208 255.56L285.365 222.874L214.854 218.064L255.208 255.56ZM183.25 214.883L176.555 183.612L163.21 197.542L183.25 214.883ZM162.812 197.957L155.587 205.498L182.377 214.881L162.812 197.957ZM183.904 215.207L200.651 205.649L177.194 183.853L183.904 215.207ZM184.67 215.429L213.275 217.381L201.089 206.058L184.67 215.429ZM214.365 218.394L213.617 232.183L253.248 254.524L214.365 218.394ZM213.814 217.992L184.952 216.023L213.058 231.868L213.814 217.992ZM184.045 216.164L185.981 235.816L212.214 247.429L213.024 232.505L184.045 216.164ZM183.459 216.068L162.021 225.21L185.378 235.549L183.459 216.068ZM105.243 188.823L104.968 188.583L102.052 223.412L143.032 217.254L105.214 188.716L105.243 188.823ZM143.575 216.944L146.952 203.082L106.371 188.87L143.575 216.944ZM144.282 216.466L154.554 205.745L147.496 203.273L144.282 216.466ZM101.779 224.033L101.678 224.048L90.869 217.634L68.5573 264.28L142.431 217.925L101.779 224.033ZM101.488 223.269L104.314 189.528L91.1196 217.114L101.488 223.269ZM104.188 188.462L64.032 201.036L90.6233 216.82L104.188 188.462ZM104.22 187.159L98.9551 166.811L86.7139 171.786L104.22 187.159ZM104.812 187.158L105.147 186.455L105.035 187.794L147.087 202.522L150.743 187.519L117.899 159.112L99.4906 166.593L104.812 187.158ZM147.632 202.712L154.991 205.289L162.376 197.581L151.231 187.94L147.632 202.712ZM162.775 197.166L176.123 183.233L175.299 183.123L176.057 182.912L155.865 168.91L151.383 187.314L162.775 197.166ZM201.172 205.351L227.793 190.157L177.579 183.428L201.172 205.351ZM201.612 205.759L214.124 217.386L255.493 193.87L228.729 190.283L201.612 205.759ZM256.33 194.054L215.078 217.504L285.224 222.289L256.33 194.054ZM327.092 252.001L317.753 213.341L286.621 222.736L327.092 252.001ZM332.631 272.487L338.882 261.235L328.015 253.376L332.631 272.487ZM333.055 272.889L350.827 269.872L339.345 261.57L333.055 272.889ZM351.617 269.738L370.227 266.58L375.319 196.83L339.625 261.065L351.617 269.738ZM397.626 223.951L402.749 211.817L376.811 196.54L397.626 223.951ZM398.111 224.283L421.359 222.777L403.25 212.11L398.111 224.283ZM422.323 222.676L462.535 203.327L454.51 190.135L411.201 193.27L403.474 211.577L422.323 222.676ZM463.055 203.076L470.08 199.695L469.853 189.023L455.153 190.088L463.055 203.076ZM469.84 188.448L469.422 168.929L444.975 173.354L454.819 189.536L469.84 188.448ZM470.002 169.121L470.415 188.407L496.845 186.498L470.002 169.121ZM498.856 186.101L574.374 165.032L520.754 167L498.856 186.101ZM519.842 167.033L503.031 167.65L498.228 185.888L519.842 167.033ZM576.234 164.388L555.686 136.528L521.442 166.399L576.234 164.388ZM576.464 163.732L574.702 119.94L556.12 136.149L576.464 163.732ZM574.274 119.551L541.514 116.35L555.777 135.686L574.274 119.551ZM628.435 97.2866L607.614 62.4629L575.622 118.753L628.435 97.2866ZM628.974 97.0671L647.608 89.4923L608.523 62.8633L628.974 97.0671ZM648.2 89.8723L629.271 97.5659L643.691 121.685L660.194 95.8363L648.2 89.8723ZM644.208 121.943L712.015 121.607L660.711 96.0934L644.208 121.943ZM644.423 122.514L694.962 168.471L712.805 122.177L644.423 122.514ZM695.483 168.718L775.917 176.832L713.344 122.373L695.483 168.718ZM839.538 125.126L805.688 115.756L791.108 124.521L777.294 176.418L839.538 125.126ZM859.464 101.844L852.729 87.4844L830.729 100.707L840.231 124.446L859.464 101.844ZM852.898 86.7099L893.682 61.359L804.475 34.1455L852.898 86.7099ZM894.468 61.5989L865.569 95.5575L878.25 104.365L916.574 83.9471L916.22 64.0827L894.785 61.6063L894.818 61.7057L894.468 61.5989ZM1156.52 -15.8888L1142.11 -20.281L1135.54 -2.08895L1135.74 -2.13408L1135.58 -1.89868L1159.88 2.75178L1156.52 -15.8888ZM1168.44 47.031L1186.97 8.52131L1160.59 3.47211L1168.44 47.031ZM1145.93 -30.862L1142.31 -20.8211L1156.41 -16.5232L1153.71 -31.4876L1145.93 -30.862ZM1153.61 -32.0555L1151.2 -45.4297L1146.15 -31.455L1153.61 -32.0555ZM1000.71 -85.9802L969.913 -40.8318L984.441 -27.0221L1032.67 -36.6487L1031.38 -37.0932L1033.19 -36.9179L1000.71 -85.9802ZM956.334 -20.6479L955.149 -7.49139L1016.44 5.49997L956.334 -20.6479ZM955.745 -20.5005L940.729 -10.5483L954.583 -7.61139L955.745 -20.5005ZM940.059 -10.1033L924.326 0.324912L947.933 66.1538L954.532 -7.03554L940.059 -10.1033ZM939.271 -10.2701L918.983 -14.5708L924.127 -0.230379L939.271 -10.2701ZM939.944 -10.7151L954.809 -20.5691L920.097 -14.921L939.944 -10.7151ZM955.918 -6.74124L993.391 28.147L1018.53 6.52953L955.918 -6.74124ZM1017.78 5.45724L984.261 -26.4016L957.039 -20.9678L1017.78 5.45724ZM1019.03 5.85137L1033.33 -36.1968L984.951 -26.5388L1019.03 5.85137ZM1047.69 -4.32537L1033.8 -35.7854L1019.62 5.89426L1047.69 -4.32537ZM1019.83 6.42604L1063.35 31.1318L1047.92 -3.79932L1019.83 6.42604ZM1048.23 -4.52254L1086.03 -18.2813L1034.29 -36.0894L1048.23 -4.52254ZM1086.89 -18.5938L1114.2 -28.534L1036.16 -36.0557L1086.89 -18.5938ZM1135 -2.30728L1141.56 -20.4479L1116.21 -28.1803L1135 -2.30728ZM1115.55 -28.1187L1115.09 -27.0456L1115.14 -27.8552L1102.64 -13.172L1134.32 -2.26728L1115.55 -28.1187ZM1114.56 -28.0564L1087.75 -18.2961L1102.06 -13.3726L1114.56 -28.0564ZM1086.89 -17.9846L1048.47 -3.99625L1064.04 31.2766L1101.66 -12.9034L1086.89 -17.9846ZM1019.19 6.71819L993.813 28.5401L1013.64 47.0002L1063.24 31.7308L1019.19 6.71819ZM993.375 28.918L949.332 66.7968L1013.01 47.1957L993.375 28.918ZM992.954 28.5242L955.081 -6.73657L948.453 66.7962L992.954 28.5242ZM923.832 0.652893L918.163 4.41085L916.605 49.7742L947.575 66.8578L923.832 0.652893ZM916.057 49.0173L917.574 4.80078L897.562 18.0647L916.057 49.0173ZM917.598 4.09609L918.217 -13.9337L898.168 16.9738L917.598 4.09609ZM918.186 3.70634L923.632 0.0963896L918.773 -13.4509L918.186 3.70634ZM918.859 -15.3016L955.653 -21.2913L925.145 -82.1475L918.859 -15.3016ZM956.122 -21.6353L969.164 -40.7524L925.946 -81.8315L956.122 -21.6353ZM956.717 -21.489L983.751 -26.885L969.584 -40.3518L956.717 -21.489ZM1074.28 -64.1692L1090.68 -71.9079L1079.13 -92.2935L1064.03 -73.598L1074.28 -64.1692ZM1063.67 -73.1512L1035.19 -37.8795L1073.77 -63.8623L1063.67 -73.1512ZM1074.37 -63.5777L1034.59 -36.783L1114.97 -29.0306L1090.96 -71.4068L1074.37 -63.5777ZM1141.76 -20.9896L1145.31 -30.8098L1117.01 -28.5324L1141.76 -20.9896ZM1102.24 -12.7023L1065.67 30.2492L1100.74 5.39938L1100.79 5.36626L1134.02 -1.76563L1102.24 -12.7023ZM1064.42 31.8354L1093.24 57.2159L1100.53 6.25488L1064.42 31.8354ZM1063.97 32.1982L1031.37 63.1645L1082.33 73.1768L1093.07 57.8313L1063.97 32.1982ZM1062.88 32.4448L1014.13 47.4514L1030.77 62.9448L1062.88 32.4448ZM1030.52 63.497L1013.49 47.647L948.848 67.5474L1048.55 120.678L1030.52 63.497ZM916.551 50.3999L916.784 63.5684L946.688 67.023L916.551 50.3999ZM915.975 50.292L895.33 61.0898L916.209 63.5033L915.975 50.292ZM915.812 49.7285L897.404 18.9153L894.689 60.7778L915.812 49.7285ZM918.128 -15.8523L909.989 -75.8896L877.991 -60.9973L918.128 -15.8523ZM918.487 -17.4762L924.621 -82.6995L910.535 -76.1429L918.487 -17.4762ZM969.491 -41.2323L1000.15 -86.1831L925.641 -82.9131L969.491 -41.2323ZM1000.7 -86.7819L1000.86 -86.7888L1033.11 -38.091L1013.66 -118.981L926.597 -83.5308L1000.7 -86.7819ZM1033.91 -37.2087L1063.25 -73.5403L1014.36 -118.523L1033.91 -37.2087ZM1063.61 -73.9876L1078.65 -92.6128L1078 -92.7408L1078.32 -92.8391L1015.23 -118.508L1063.61 -73.9876ZM1091.2 -72.1541L1118.08 -84.8398L1079.73 -92.3997L1091.2 -72.1541ZM1091.48 -71.6518L1115.26 -29.6808L1118.67 -84.485L1091.48 -71.6518ZM1115.87 -30.3494L1132.22 -68.7671L1119.23 -84.2183L1115.87 -30.3494ZM1115.93 -29.0214L1145.52 -31.4036L1150.96 -46.4633L1132.63 -68.2744L1115.93 -29.0214ZM1151.01 -47.2952L1152.02 -113.863L1132.88 -68.8675L1151.01 -47.2952ZM1154.18 -32.1013L1197.04 -35.5507L1151.65 -46.1428L1154.18 -32.1013ZM1198.76 -35.114L1154.28 -31.5326L1157.02 -16.3362L1198.56 -3.67625L1212.35 -17.9744L1198.76 -35.114ZM1212.76 -18.3911L1221.93 -27.8982L1199.7 -34.8599L1212.76 -18.3911ZM1222.26 -27.4147L1213.11 -17.9367L1231.82 5.65083L1222.26 -27.4147ZM1231.7 6.42735L1212.71 -17.5208L1199.17 -3.48777L1231.7 6.42735ZM1198.11 -3.21131L1157.14 -15.7021L1160.48 2.86696L1187.29 7.99798L1198.11 -3.21131ZM1187.39 8.9585L1168.69 47.8384L1222.89 79.3287L1187.39 8.9585ZM1222.32 79.6601L1168.71 48.5138L1168.84 49.256L1168.72 49.0726L1171.39 75.0445L1222.32 79.6601ZM1167.79 46.6493L1159.99 3.35612L1135.71 -1.28862L1167.79 46.6493ZM1101.17 5.87251L1093.91 56.6428L1134.44 -1.26509L1101.17 5.87251ZM1118.59 80.2989L1093.51 58.2129L1082.95 73.2978L1118.59 80.2989ZM1031.19 63.7141L1049.13 120.62L1081.98 73.6909L1031.19 63.7141ZM947.155 67.6554L916.796 64.1489L917.143 83.6449L947.155 67.6554ZM878.78 104.734L894.277 115.498L916.863 100.168L916.585 84.594L878.78 104.734ZM917.005 100.765L894.782 115.848L931.133 141.098L917.005 100.765ZM930.405 141.29L894.276 116.192L873.823 130.073L930.405 141.29ZM872.151 130.364L840.603 125.357L847.656 142.314L872.151 130.364ZM827.499 152.787L812.206 185.586L871.031 199.993L847.36 143.095L827.499 152.787ZM796.563 218.591L758.899 258.025L799.319 281.671L796.563 218.591ZM758.49 258.451L746.109 271.413L746.035 271.256L679.842 290.012L798.679 281.962L758.49 258.451ZM402.617 261.932L420.856 335.261L444.071 279.497L402.617 261.932ZM368.892 283.08L332.829 273.646L336.058 341.644L368.892 283.08ZM335.455 341.031L332.271 273.974L315.333 292.569L335.455 341.031ZM314.907 293.037L244.331 370.521L335.432 342.477L314.907 293.037ZM243.833 369.816L282.994 302.846L255.421 256.853L243.833 369.816ZM254.618 255.954L213.582 232.818L212.743 248.291L186.046 236.473L191.17 288.522L254.618 255.954ZM190.527 287.843L185.442 236.206L161.298 225.519L152.03 229.472L190.527 287.843ZM151.173 229.213L143.667 217.829L71.1081 263.357L151.173 229.213ZM90.3749 217.339L63.6544 201.481L68.0803 263.945L90.3749 217.339ZM63.214 200.637L85.4943 172.168L25.9866 192.809L63.214 200.637ZM86.6072 171.208L98.8101 166.249L91.2708 137.109L86.6072 171.208ZM91.6924 136.445L99.346 166.032L117.411 158.691L91.6924 136.445ZM150.895 186.891L155.36 168.559L132.929 153.005L118.497 158.87L150.895 186.891ZM133.434 152.658L155.505 167.962L165.98 124.959L133.434 152.658ZM156.011 168.312L176.322 182.397L166.422 125.571L156.011 168.312ZM178.145 182.924L228.614 189.688L300.107 148.882L178.145 182.924ZM229.55 189.814L256.319 193.401L256.423 193.343L285.812 222.061L301.847 148.552L229.55 189.814ZM302.278 149.264L286.369 222.212L317.619 212.781L302.278 149.264ZM318.305 213.174L327.807 252.519L339.162 260.73L375.107 196.033L318.305 213.174ZM376.641 195.774L402.975 211.282L410.558 193.317L376.641 195.774ZM454.174 189.583L444.369 173.464L417.511 178.325L411.452 192.677L454.174 189.583ZM417.622 177.723L444.048 172.938L421.048 135.124L417.622 177.723ZM421.793 135.245L444.655 172.828L468.977 168.425L421.793 135.245ZM470.623 168.839L497.534 186.261L502.431 167.672L470.623 168.839ZM503.183 167.069L520.529 166.433L555.343 136.065L540.617 116.098L538.55 32.7888L503.183 167.069ZM541.181 115.74L574.518 118.999L539.113 32.3187L541.181 115.74ZM539.327 31.3199L575.007 118.675L607.204 62.0245L539.327 31.3199ZM608.593 62.2158L648.357 89.3088L660.506 95.3488L679.998 64.8151L608.593 62.2158ZM661.021 95.6067L712.508 121.211L680.495 65.1014L661.021 95.6067ZM714.005 121.956L714.434 122.169L713.987 122.172L776.424 176.513L768.887 105.716L714.005 121.956ZM769.467 105.732L776.908 175.638L790.613 124.149L804.926 115.546L769.467 105.732ZM806.367 115.35L839.659 124.562L830.232 101.007L806.367 115.35ZM852.404 87.0104L804.395 34.9048L830.513 100.168L852.404 87.0104ZM894.179 59.7853L896.879 18.1103L874.597 0.930664L894.179 59.7853ZM826.371 -36.9751L873.459 -0.67207L867.182 -19.5366L917.846 -15.3039L877.447 -60.7449L826.371 -36.9751ZM877.593 -61.4466L909.908 -76.4852L908.652 -85.7489L846.213 -96.7422L877.593 -61.4466ZM903.716 -122.166L846.44 -97.2844L908.572 -86.3465L903.716 -122.166ZM909.245 -85.6449L910.452 -76.7394L923.521 -82.8211L923.31 -82.8114L923.923 -83.0611L909.245 -85.6449ZM926.385 -84.0638L1013.53 -119.545L1013.45 -119.85L1013.75 -119.731L1069.51 -211.83L926.385 -84.0638ZM1014.28 -119.512L1078.85 -93.2408L1070.52 -212.397L1014.28 -119.512ZM1118.72 -85.2969L1118.75 -85.6866L1119.15 -85.2142L1119.9 -85.0644L1119.45 -84.8507L1132.47 -69.3607L1151.83 -114.867L1080.35 -92.8626L1118.72 -85.2969ZM1222.21 -28.4113L1230.99 -63.2173L1199.47 -35.5335L1222.21 -28.4113Z" fill="#00A9C6" fill-opacity="0.35"/>
<path d="M775.175 180.252C776.857 181.142 778.942 180.501 779.832 178.818C780.721 177.137 780.08 175.054 778.399 174.163C776.717 173.273 774.632 173.915 773.742 175.596C772.852 177.278 773.494 179.362 775.175 180.252L775.175 180.252Z" fill="#00A9C6" fill-opacity="0.35"/>
<path d="M767.883 107.71C769.191 108.404 770.812 107.903 771.505 106.595C772.197 105.288 771.698 103.667 770.39 102.974C769.081 102.282 767.46 102.782 766.768 104.09C766.077 105.396 766.574 107.019 767.883 107.71Z" fill="#00A9C6" fill-opacity="0.35"/>
<path d="M711.969 124.256C713.279 124.946 714.899 124.448 715.592 123.14C716.282 121.833 715.785 120.211 714.477 119.519C713.169 118.827 711.547 119.326 710.855 120.634C710.163 121.942 710.661 123.563 711.969 124.256H711.969Z" fill="#00A9C6" fill-opacity="0.35"/>
<path d="M731.568 245.469C732.876 246.161 734.498 245.662 735.189 244.354C735.882 243.047 735.382 241.426 734.075 240.733C732.766 240.04 731.146 240.54 730.454 241.848C729.761 243.156 730.26 244.777 731.568 245.469V245.469Z" fill="#00A9C6" fill-opacity="0.35"/>
<path d="M665.642 223.57C666.951 224.263 668.573 223.762 669.264 222.454C669.956 221.148 669.457 219.527 668.149 218.834C666.841 218.142 665.221 218.642 664.528 219.949C663.836 221.257 664.335 222.877 665.642 223.57Z" fill="#00A9C6" fill-opacity="0.35"/>
<path d="M760.156 202.354C761.092 202.849 762.251 202.492 762.745 201.558C763.239 200.623 762.883 199.465 761.948 198.97C761.014 198.476 759.855 198.833 759.361 199.768C758.868 200.702 759.224 201.859 760.156 202.354Z" fill="#00A9C6" fill-opacity="0.35"/>
<path d="M747.948 220.829C748.882 221.324 750.041 220.966 750.535 220.032C751.03 219.098 750.674 217.94 749.739 217.446C748.805 216.951 747.646 217.308 747.152 218.243C746.659 219.177 747.015 220.334 747.948 220.829Z" fill="#00A9C6" fill-opacity="0.35"/>
<path d="M720.058 221.456C720.993 221.95 722.151 221.593 722.646 220.659C723.141 219.725 722.784 218.567 721.85 218.073C720.915 217.578 719.756 217.934 719.262 218.869C718.769 219.803 719.125 220.96 720.058 221.456Z" fill="#00A9C6" fill-opacity="0.35"/>
<path d="M180.143 183.432C180.369 181.542 179.017 179.829 177.13 179.603C175.24 179.378 173.527 180.727 173.302 182.616C173.077 184.505 174.425 186.22 176.314 186.445C178.202 186.67 179.918 185.321 180.143 183.432H180.143Z" fill="#00A9C6" fill-opacity="0.35"/>
<path d="M146.412 217.755C146.587 216.284 145.537 214.952 144.068 214.777C142.599 214.602 141.266 215.65 141.091 217.12C140.916 218.59 141.966 219.922 143.435 220.097C144.904 220.273 146.237 219.224 146.412 217.755Z" fill="#00A9C6" fill-opacity="0.35"/>
<path d="M93.8434 135.942C94.02 134.472 92.9692 133.139 91.4996 132.964C90.0318 132.789 88.6982 133.837 88.5228 135.307C88.3479 136.777 89.3969 138.11 90.8665 138.285C92.3361 138.46 93.668 137.412 93.8434 135.942V135.942Z" fill="#00A9C6" fill-opacity="0.35"/>
<path d="M135.625 152.998C135.799 151.528 134.751 150.195 133.281 150.021C131.813 149.846 130.48 150.894 130.304 152.363C130.129 153.833 131.179 155.167 132.648 155.342C134.116 155.517 135.45 154.468 135.625 152.998Z" fill="#00A9C6" fill-opacity="0.35"/>
<path d="M65.9902 201.272C66.1651 199.802 65.1155 198.469 63.6465 198.294C62.1769 198.12 60.845 199.168 60.6685 200.638C60.4936 202.107 61.5432 203.44 63.014 203.615C64.4818 203.791 65.8154 202.741 65.9902 201.272L65.9902 201.272Z" fill="#00A9C6" fill-opacity="0.35"/>
<path d="M106.633 188.217C106.757 187.168 106.008 186.215 104.957 186.09C103.909 185.966 102.957 186.715 102.831 187.765C102.707 188.813 103.455 189.766 104.505 189.891C105.554 190.016 106.507 189.267 106.633 188.217H106.633Z" fill="#00A9C6" fill-opacity="0.35"/>
<path d="M152.998 187.596C153.125 186.547 152.374 185.595 151.326 185.469C150.274 185.345 149.323 186.095 149.199 187.144C149.072 188.193 149.823 189.145 150.871 189.27C151.921 189.395 152.874 188.646 152.998 187.596V187.596Z" fill="#00A9C6" fill-opacity="0.35"/>
<path d="M164.174 197.687C164.268 196.906 163.708 196.196 162.926 196.102C162.145 196.01 161.435 196.568 161.342 197.35C161.249 198.132 161.808 198.841 162.59 198.934C163.371 199.028 164.081 198.469 164.174 197.687Z" fill="#00A9C6" fill-opacity="0.35"/>
<path d="M148.738 203.079C148.833 202.298 148.273 201.588 147.491 201.494C146.709 201.402 146 201.961 145.906 202.742C145.814 203.525 146.371 204.234 147.154 204.327C147.936 204.42 148.646 203.862 148.738 203.079L148.738 203.079Z" fill="#00A9C6" fill-opacity="0.35"/>
<path d="M103.152 223.918C103.245 223.136 102.686 222.426 101.904 222.332C101.123 222.24 100.412 222.799 100.32 223.58C100.226 224.363 100.785 225.072 101.567 225.165C102.349 225.258 103.058 224.701 103.152 223.918L103.152 223.918Z" fill="#00A9C6" fill-opacity="0.35"/>
<path d="M153.017 229.495C153.11 228.714 152.551 228.004 151.77 227.91C150.987 227.818 150.279 228.376 150.184 229.157C150.092 229.94 150.649 230.649 151.432 230.743C152.213 230.836 152.924 230.277 153.017 229.495Z" fill="#00A9C6" fill-opacity="0.35"/>
<path d="M92.139 217.325C92.2333 216.543 91.6745 215.833 90.8934 215.739C90.1106 215.647 89.4021 216.206 89.3073 216.987C89.2164 217.769 89.773 218.478 90.5563 218.571C91.3368 218.665 92.0476 218.107 92.139 217.325H92.139Z" fill="#00A9C6" fill-opacity="0.35"/>
<path d="M157.569 168.618C157.695 167.569 156.944 166.616 155.895 166.491C154.844 166.367 153.892 167.116 153.768 168.166C153.642 169.216 154.392 170.167 155.441 170.292C156.492 170.418 157.444 169.668 157.569 168.618H157.569Z" fill="#00A9C6" fill-opacity="0.35"/>
<path d="M26.8156 193.103C26.9402 192.053 26.1899 191.102 25.1409 190.976C24.0924 190.851 23.1399 191.601 23.0137 192.65C22.8902 193.7 23.6388 194.652 24.6889 194.777C25.7374 194.902 26.6905 194.153 26.8156 193.103Z" fill="#00A9C6" fill-opacity="0.35"/>
<path d="M88.0219 171.872C88.1465 170.823 87.3962 169.871 86.3478 169.746C85.2981 169.621 84.3462 170.369 84.2211 171.42C84.096 172.469 84.8456 173.421 85.8953 173.546C86.9437 173.67 87.8956 172.922 88.0219 171.872L88.0219 171.872Z" fill="#00A9C6" fill-opacity="0.35"/>
<path d="M119.828 159.005C119.953 157.955 119.203 157.004 118.153 156.878C117.104 156.753 116.152 157.503 116.026 158.552C115.902 159.602 116.652 160.554 117.702 160.679C118.75 160.804 119.702 160.054 119.828 159.005H119.828Z" fill="#00A9C6" fill-opacity="0.35"/>
<path d="M168.367 124.394C168.493 123.343 167.743 122.392 166.694 122.266C165.645 122.141 164.692 122.892 164.567 123.94C164.441 124.99 165.191 125.942 166.241 126.067C167.289 126.191 168.243 125.443 168.367 124.394Z" fill="#00A9C6" fill-opacity="0.35"/>
<path d="M185.607 215.877C185.731 214.828 184.98 213.876 183.932 213.75C182.883 213.625 181.931 214.374 181.805 215.425C181.681 216.474 182.431 217.426 183.479 217.551C184.528 217.676 185.481 216.926 185.607 215.877Z" fill="#00A9C6" fill-opacity="0.35"/>
<path d="M216.014 217.947C216.139 216.898 215.389 215.946 214.34 215.821C213.29 215.696 212.339 216.445 212.212 217.496C212.089 218.544 212.839 219.496 213.888 219.621C214.937 219.747 215.889 218.998 216.014 217.947L216.014 217.947Z" fill="#00A9C6" fill-opacity="0.35"/>
<path d="M187.601 236.222C187.725 235.173 186.974 234.221 185.926 234.096C184.876 233.971 183.925 234.72 183.799 235.77C183.674 236.819 184.424 237.772 185.473 237.896C186.523 238.021 187.474 237.273 187.601 236.222Z" fill="#00A9C6" fill-opacity="0.35"/>
<path d="M214.379 248.085C214.503 247.037 213.753 246.084 212.704 245.96C211.655 245.835 210.703 246.583 210.577 247.633C210.453 248.682 211.203 249.635 212.253 249.759C213.301 249.885 214.253 249.135 214.379 248.085L214.379 248.085Z" fill="#00A9C6" fill-opacity="0.35"/>
<path d="M214.772 232.429C214.871 231.607 214.283 230.862 213.462 230.764C212.641 230.666 211.894 231.253 211.798 232.075C211.699 232.896 212.285 233.642 213.108 233.739C213.93 233.838 214.675 233.25 214.772 232.429V232.429Z" fill="#00A9C6" fill-opacity="0.35"/>
<path d="M258.277 193.924C258.403 192.875 257.652 191.922 256.603 191.798C255.554 191.673 254.602 192.422 254.476 193.472C254.351 194.521 255.102 195.473 256.151 195.598C257.2 195.723 258.152 194.974 258.277 193.924H258.277Z" fill="#00A9C6" fill-opacity="0.35"/>
<path d="M230.58 190.207C230.706 189.158 229.955 188.205 228.906 188.08C227.858 187.955 226.907 188.704 226.78 189.755C226.656 190.803 227.404 191.757 228.454 191.881C229.503 192.006 230.456 191.257 230.58 190.207H230.58Z" fill="#00A9C6" fill-opacity="0.35"/>
<path d="M287.883 222.854C288.008 221.805 287.259 220.852 286.21 220.728C285.16 220.602 284.208 221.352 284.083 222.402C283.956 223.451 284.706 224.403 285.755 224.528C286.805 224.653 287.758 223.904 287.883 222.854V222.854Z" fill="#00A9C6" fill-opacity="0.35"/>
<path d="M319.873 213.178C319.999 212.129 319.248 211.176 318.2 211.051C317.15 210.927 316.197 211.676 316.072 212.726C315.946 213.775 316.696 214.727 317.746 214.851C318.795 214.977 319.748 214.227 319.873 213.178Z" fill="#00A9C6" fill-opacity="0.35"/>
<path d="M304.164 148.209C304.289 147.159 303.539 146.208 302.489 146.083C301.44 145.958 300.489 146.706 300.365 147.756C300.238 148.806 300.989 149.758 302.038 149.883C303.086 150.008 304.038 149.259 304.164 148.209H304.164Z" fill="#00A9C6" fill-opacity="0.35"/>
<path d="M472.408 166.454C471.232 164.959 469.067 164.701 467.573 165.878C466.076 167.054 465.819 169.221 466.995 170.716C468.172 172.21 470.336 172.469 471.832 171.292C473.327 170.116 473.585 167.949 472.408 166.454V166.454Z" fill="#00A9C6" fill-opacity="0.35"/>
<path d="M579.495 162.525C578.318 161.03 576.153 160.773 574.657 161.948C573.163 163.126 572.905 165.291 574.08 166.786C575.259 168.281 577.425 168.538 578.918 167.361C580.414 166.185 580.671 164.02 579.495 162.525Z" fill="#00A9C6" fill-opacity="0.35"/>
<path d="M472.828 214.575C471.912 213.411 470.227 213.213 469.065 214.127C467.903 215.042 467.702 216.726 468.617 217.89C469.531 219.053 471.217 219.253 472.38 218.338C473.542 217.424 473.744 215.738 472.828 214.575V214.575Z" fill="#00A9C6" fill-opacity="0.35"/>
<path d="M556.767 231.8C555.851 230.636 554.166 230.435 553.005 231.35C551.843 232.266 551.64 233.951 552.556 235.112C553.471 236.277 555.157 236.475 556.32 235.563C557.482 234.645 557.683 232.962 556.767 231.8H556.767Z" fill="#00A9C6" fill-opacity="0.35"/>
<path d="M377.808 193.896C376.892 192.733 375.208 192.533 374.046 193.449C372.882 194.363 372.683 196.048 373.598 197.211C374.512 198.375 376.197 198.575 377.359 197.659C378.522 196.744 378.723 195.06 377.808 193.896H377.808Z" fill="#00A9C6" fill-opacity="0.35"/>
<path d="M419.41 176.413C418.495 175.25 416.81 175.049 415.649 175.965C414.485 176.88 414.284 178.564 415.201 179.727C416.116 180.89 417.799 181.091 418.962 180.175C420.124 179.26 420.327 177.576 419.41 176.413Z" fill="#00A9C6" fill-opacity="0.35"/>
<path d="M645.789 120.574C644.874 119.41 643.189 119.21 642.028 120.125C640.864 121.041 640.663 122.724 641.58 123.887C642.494 125.051 644.179 125.251 645.341 124.336C646.505 123.421 646.705 121.737 645.789 120.574H645.789Z" fill="#00A9C6" fill-opacity="0.35"/>
<path d="M697.185 167.308C696.27 166.144 694.585 165.945 693.422 166.859C692.26 167.775 692.059 169.458 692.974 170.621C693.89 171.785 695.573 171.986 696.736 171.07C697.899 170.156 698.1 168.472 697.185 167.308H697.185Z" fill="#00A9C6" fill-opacity="0.35"/>
<path d="M423.815 221.819C423.16 220.988 421.956 220.846 421.126 221.497C420.296 222.153 420.153 223.355 420.805 224.186C421.46 225.016 422.662 225.159 423.494 224.506C424.324 223.852 424.467 222.648 423.815 221.819V221.819Z" fill="#00A9C6" fill-opacity="0.35"/>
<path d="M399.097 223.421C398.443 222.59 397.238 222.446 396.409 223.1C395.578 223.753 395.434 224.956 396.087 225.787C396.743 226.619 397.946 226.762 398.776 226.109C399.606 225.453 399.751 224.251 399.097 223.421Z" fill="#00A9C6" fill-opacity="0.35"/>
<path d="M422.336 133.035C421.683 132.204 420.48 132.061 419.648 132.714C418.819 133.368 418.674 134.571 419.33 135.402C419.983 136.232 421.187 136.375 422.017 135.722C422.846 135.068 422.991 133.865 422.336 133.035Z" fill="#00A9C6" fill-opacity="0.35"/>
<path d="M412.558 191.762C411.905 190.932 410.701 190.789 409.87 191.442C409.041 192.096 408.897 193.298 409.549 194.13C410.202 194.961 411.408 195.103 412.237 194.45C413.068 193.796 413.211 192.593 412.558 191.762V191.762Z" fill="#00A9C6" fill-opacity="0.35"/>
<path d="M471.336 187.715C470.797 187.026 469.797 186.908 469.109 187.449C468.423 187.991 468.302 188.988 468.845 189.677C469.386 190.366 470.384 190.484 471.071 189.942C471.76 189.401 471.879 188.403 471.336 187.715Z" fill="#00A9C6" fill-opacity="0.35"/>
<path d="M455.905 188.811C455.365 188.122 454.366 188.003 453.678 188.546C452.991 189.087 452.871 190.083 453.414 190.772C453.954 191.461 454.952 191.58 455.64 191.037C456.328 190.496 456.447 189.499 455.905 188.811Z" fill="#00A9C6" fill-opacity="0.35"/>
<path d="M445.724 172.105C445.182 171.418 444.185 171.298 443.497 171.84C442.809 172.381 442.688 173.378 443.231 174.067C443.773 174.756 444.771 174.874 445.459 174.332C446.146 173.791 446.266 172.794 445.724 172.105Z" fill="#00A9C6" fill-opacity="0.35"/>
<path d="M499.215 185.534C498.562 184.703 497.358 184.56 496.528 185.214C495.699 185.867 495.553 187.071 496.208 187.901C496.861 188.732 498.065 188.874 498.896 188.221C499.725 187.569 499.87 186.364 499.215 185.534V185.534Z" fill="#00A9C6" fill-opacity="0.35"/>
<path d="M526.076 246.341C525.424 245.511 524.219 245.368 523.389 246.021C522.559 246.675 522.414 247.878 523.07 248.709C523.722 249.539 524.925 249.683 525.757 249.028C526.587 248.376 526.731 247.173 526.076 246.341L526.076 246.341Z" fill="#00A9C6" fill-opacity="0.35"/>
<path d="M516.241 224.027C515.588 223.197 514.384 223.053 513.553 223.707C512.724 224.36 512.579 225.564 513.234 226.395C513.887 227.224 515.09 227.369 515.922 226.715C516.751 226.06 516.895 224.858 516.241 224.027Z" fill="#00A9C6" fill-opacity="0.35"/>
<path d="M442.505 242.071C441.849 241.241 440.646 241.098 439.817 241.752C438.986 242.404 438.842 243.608 439.496 244.44C440.15 245.269 441.352 245.413 442.183 244.758C443.014 244.105 443.158 242.902 442.505 242.071Z" fill="#00A9C6" fill-opacity="0.35"/>
<path d="M459.145 245.981C458.6 245.289 457.599 245.17 456.909 245.715C456.217 246.258 456.098 247.259 456.642 247.95C457.186 248.641 458.186 248.761 458.879 248.217C459.569 247.675 459.689 246.672 459.145 245.981Z" fill="#00A9C6" fill-opacity="0.35"/>
<path d="M576.47 118.147C575.817 117.316 574.612 117.173 573.781 117.826C572.951 118.481 572.808 119.683 573.46 120.514C574.116 121.345 575.318 121.488 576.15 120.834C576.981 120.18 577.124 118.978 576.47 118.147Z" fill="#00A9C6" fill-opacity="0.35"/>
<path d="M542.406 114.818C541.752 113.987 540.548 113.843 539.718 114.497C538.886 115.151 538.744 116.353 539.397 117.184C540.052 118.014 541.255 118.158 542.087 117.504C542.917 116.85 543.06 115.648 542.406 114.818Z" fill="#00A9C6" fill-opacity="0.35"/>
<path d="M557.209 134.926C556.557 134.095 555.352 133.952 554.521 134.606C553.691 135.26 553.547 136.462 554.2 137.293C554.856 138.123 556.059 138.267 556.89 137.613C557.721 136.959 557.864 135.757 557.209 134.926Z" fill="#00A9C6" fill-opacity="0.35"/>
<path d="M522.134 165.514C521.478 164.684 520.275 164.54 519.444 165.194C518.613 165.848 518.469 167.05 519.124 167.881C519.777 168.712 520.982 168.855 521.812 168.201C522.642 167.547 522.786 166.345 522.134 165.514L522.134 165.514Z" fill="#00A9C6" fill-opacity="0.35"/>
<path d="M504.32 166.192C503.665 165.361 502.462 165.218 501.631 165.872C500.801 166.525 500.657 167.728 501.311 168.558C501.964 169.39 503.169 169.533 503.999 168.88C504.831 168.225 504.973 167.023 504.32 166.192Z" fill="#00A9C6" fill-opacity="0.35"/>
<path d="M540.294 29.5778C539.639 28.7465 538.436 28.6031 537.604 29.2572C536.774 29.9109 536.63 31.1136 537.285 31.9439C537.938 32.7752 539.142 32.918 539.972 32.265C540.804 31.6107 540.946 30.408 540.294 29.5778Z" fill="#00A9C6" fill-opacity="0.35"/>
<path d="M609.114 60.7085C608.459 59.8782 607.256 59.7343 606.425 60.3885C605.595 61.0421 605.451 62.2449 606.106 63.0751C606.759 63.9059 607.964 64.0487 608.793 63.3956C609.624 62.7414 609.768 61.5398 609.114 60.7085V60.7085Z" fill="#00A9C6" fill-opacity="0.35"/>
<path d="M682.015 63.3632C681.36 62.5319 680.156 62.3884 679.326 63.0427C678.495 63.6963 678.353 64.8985 679.005 65.7293C679.661 66.5601 680.863 66.7035 681.695 66.0493C682.526 65.3956 682.669 64.1929 682.015 63.3632Z" fill="#00A9C6" fill-opacity="0.35"/>
<path d="M649.717 88.3728C649.063 87.5421 647.86 87.398 647.028 88.0523C646.199 88.7059 646.055 89.9087 646.708 90.7389C647.361 91.5708 648.566 91.7137 649.396 91.06C650.227 90.4058 650.371 89.203 649.717 88.3728Z" fill="#00A9C6" fill-opacity="0.35"/>
<path d="M662.099 94.5447C661.444 93.7139 660.241 93.5705 659.41 94.2241C658.58 94.8778 658.435 96.0806 659.09 96.9108C659.744 97.7427 660.948 97.8855 661.779 97.2313C662.609 96.5777 662.752 95.3749 662.099 94.5447Z" fill="#00A9C6" fill-opacity="0.35"/>
<path d="M630.302 96.1903C629.647 95.3589 628.443 95.2155 627.613 95.8691C626.783 96.5228 626.638 97.7261 627.293 98.5563C627.946 99.3877 629.151 99.5305 629.982 98.8769C630.812 98.2227 630.954 97.021 630.302 96.1903H630.302Z" fill="#00A9C6" fill-opacity="0.35"/>
<path d="M634.174 174.605C633.521 173.774 632.316 173.63 631.485 174.284C630.655 174.938 630.512 176.141 631.164 176.971C631.82 177.801 633.022 177.946 633.854 177.291C634.685 176.637 634.828 175.434 634.174 174.605H634.174Z" fill="#00A9C6" fill-opacity="0.35"/>
<path d="M651.762 149.261C651.107 148.43 649.905 148.288 649.073 148.94C648.243 149.595 648.099 150.796 648.754 151.628C649.406 152.459 650.611 152.601 651.441 151.949C652.272 151.294 652.416 150.092 651.762 149.261V149.261Z" fill="#00A9C6" fill-opacity="0.35"/>
<path d="M620.849 136.489C620.194 135.658 618.991 135.514 618.16 136.169C617.331 136.823 617.186 138.026 617.84 138.855C618.493 139.687 619.699 139.83 620.529 139.177C621.359 138.522 621.503 137.32 620.849 136.489H620.849Z" fill="#00A9C6" fill-opacity="0.35"/>
<path d="M616.662 187.557C616.009 186.727 614.804 186.583 613.975 187.237C613.143 187.89 613 189.093 613.654 189.923C614.307 190.754 615.512 190.898 616.342 190.244C617.174 189.59 617.317 188.386 616.662 187.557H616.662Z" fill="#00A9C6" fill-opacity="0.35"/>
</g>
<defs>
<clipPath id="clip0_999_1967">
<rect width="783" height="248" fill="white" transform="matrix(-1 0 0 1 783 0)"/>
</clipPath>
</defs>
</svg>
