<svg width="979" height="590" viewBox="0 0 979 590" fill="none" xmlns="http://www.w3.org/2000/svg">
<path fill-rule="evenodd" clip-rule="evenodd" d="M49.0547 188.183L39.0385 222.837L38.5036 223.514L73.0725 212.976L84.0589 224.361L47.5188 296.797L48.2993 296.343L100.929 291.574L103.753 264.128L103.855 264.068L103.811 263.978L136.712 214.809L177.958 273.74L151.237 297.272L189.205 289.812L222.676 337.635L323.173 284.08L323.167 284.095L323.696 283.802L354.642 300.29L354.359 316.268L339.859 357.655L338.807 358.388L398.665 346.523L423.919 358.845L400.018 416.296L399.887 416.608L474.68 434.132L471.857 498.698L472.235 498.477L594.652 506.768L594.918 506.787L605.145 437.518L716.849 449.713L717.186 542.336L827.196 495.721L850.912 552.687L902.41 499.374L935.687 558.726L935.612 560.285L936.143 559.01L1028.71 587.506L1016.91 472.464L1081.12 505.418L1081.15 505.068L1120.3 445.7L1203.79 481.305L1204.61 481.819L1204.22 480.994L1208.74 417.19L1247.95 408.945L1185.79 387.383L1180.91 351.643L1181.12 350.807L1153.79 374.448L1138.98 368.431L1105.59 340.009L1105.28 338.763L1094.85 398.663L969.643 363.716L969.115 363.414L969.238 363.98L953.627 428.616L896.807 411.468L897.034 411.334L896.364 411.286L896.326 410.775L895.987 411.221L895.501 411.074L895.586 411.229L860.988 408.723L854.774 394.002L851.258 350.289L851.924 349.192L802.007 384.295L769.213 383.092L733.31 246.781L733.547 246.203L733.201 246.36L732.771 244.735L732.726 246.575L664.122 277.608L590.774 280.278L590.952 280.555L558.436 337.549L502.972 321.136L502.99 320.955L466.193 331.138L441.782 316.468L468.516 249.669L468.739 249.114L377.874 276.832L398.014 216.304L446.524 178.904L394.747 154.807L426.496 119.1L427.338 118.95L367.614 93.0056L362.632 129.758L347.356 132.447L347.837 131.49L346.838 132.439L201.243 2.46697L200.806 2.07617L192.363 122.818L119.169 100.286L120.224 169.251L72.9822 180.275L40.4972 151.744L40.44 151.695L0.961914 143.281L49.0547 188.183ZM48.9067 187.259L2.86631 144.274L40.0726 152.203L48.9067 187.259ZM397.523 215.956L374.693 233.559L353.76 201.288L403.795 197.108L397.523 215.956ZM1207.67 416.405L1167.64 403.87L1185.55 388.14L1207.67 416.405ZM1110.49 440.893L1088.88 431.678L1116.65 421.954L1127.55 433.34L1110.49 440.893ZM1127.27 434.095L1120.09 444.985L1111.21 441.201L1127.27 434.095ZM869.778 477.905L902.025 498.946L851.546 551.205L869.778 477.905ZM418.236 303.909L411.924 317.363L407.072 311.662L418.236 303.909ZM406.703 311.228L378.838 278.484L418.42 303.089L406.703 311.228ZM411.655 317.935L407.123 327.598L394.112 320.667L406.599 311.992L411.655 317.935ZM412.065 318.414L430.46 340.032L407.63 327.868L412.065 318.414ZM406.879 328.119L398.586 345.797L378.026 331.841L393.582 321.034L406.879 328.119ZM407.387 328.39L430.774 340.844L399.193 345.853L407.387 328.39ZM432.452 342.022L492.955 391.887L444.732 368.36L432.452 342.022ZM443.912 367.96L424.658 358.565L431.672 341.707L443.912 367.96ZM494.171 393.118L460.159 401.447L445.118 369.186L494.171 393.118ZM495.724 393.424L575.121 385.416L510.801 416.356L495.839 393.932L497.067 394.531L495.724 393.424ZM902.075 497.423L894.586 481.977L901.027 483.071L902.075 497.423ZM901.61 483.17L919.524 486.209L902.72 498.361L901.61 483.17ZM869.914 477.207L874.279 441.417L893.581 481.224L869.914 477.207ZM893.89 481.858L901.762 498.09L870.91 477.957L893.89 481.858ZM894.277 481.343L874.473 440.503L895.865 412.333L900.986 482.481L894.277 481.343ZM869.423 476.492L849.979 439.323L873.767 440.863L869.423 476.492ZM868.948 476.822L831.274 459.163L849.423 439.497L868.948 476.822ZM770.937 472.241L801.001 432.803L813.49 462.8L770.937 472.241ZM813.714 463.339L826.875 494.949L771.203 472.771L813.714 463.339ZM770.137 472.345L747.607 463.369L757.261 441.516L800.382 432.667L770.137 472.345ZM801.533 432.587L848.906 439.211L830.647 458.994L814.059 462.673L801.533 432.587ZM801.547 432.01L808.962 419.819L847.706 438.463L801.547 432.01ZM801.386 431.171L801.703 416.326L808.443 419.569L801.386 431.171ZM800.794 431.998L757.545 440.871L774.228 403.106L801.134 416.052L800.794 431.998ZM538.942 458.534L523.524 435.425L550.361 436.105L538.942 458.534ZM475.602 433.287L495.047 393.783L510.277 416.608L475.602 433.287ZM510.599 417.09L522.432 434.823L476.173 433.65L510.599 417.09ZM522.822 435.408L538.229 458.499L476.594 434.235L522.822 435.408ZM550.997 436.124L603.252 437.448L539.55 458.61L550.997 436.124ZM551.285 435.556L576.726 385.585L604.414 436.904L551.285 435.556ZM621.739 366.673L632.734 362.128L638.846 391.846L638.904 392.126L639.059 392.096L656.13 404.716L605.341 436.588L621.739 366.673ZM651.834 353.616L633.158 361.334L628.53 338.836L651.834 353.616ZM629.04 338.481L695.221 335.686L652.483 353.348L629.04 338.481ZM632.617 361.556L621.899 365.985L628.095 339.567L632.617 361.556ZM639.82 391.944L693.534 381.242L656.653 404.387L639.82 391.944ZM694.847 381.094L716.588 448.694L657.148 404.755L694.847 381.094ZM756.857 441.013L718.215 448.942L773.336 403.704L756.857 441.013ZM775.569 403.114L801.372 404.982L801.148 415.421L775.569 403.114ZM773.483 402.842L717.28 448.967L695.445 381.075L773.483 402.842ZM693.774 380.609L639.351 391.452L633.276 361.905L652.427 353.991L693.958 380.329L692.592 380.28L693.774 380.609ZM653.075 353.724L696.527 335.766L694.741 380.147L653.075 353.724ZM628.632 337.923L643.065 313.785L695.502 335.1L628.632 337.923ZM621.245 366.255L578.126 384.074L627.623 339.066L621.245 366.255ZM621.084 366.942L604.794 436.401L577.122 385.11L621.084 366.942ZM576.077 385.593L550.65 435.539L523.133 434.842L511.122 416.839L576.077 385.593ZM494.48 393.633L474.984 433.243L460.406 401.979L494.48 393.633ZM474.467 433.492L401.515 416.4L459.838 402.118L474.467 433.492ZM538.321 459.153L513.408 473.727L476.085 434.651L538.321 459.153ZM538.311 459.824L525.53 486.418L513.816 474.153L538.311 459.824ZM539.074 459.561L593.482 505.846L526.015 486.733L539.074 459.561ZM539.55 459.214L604.549 437.623L594.465 505.929L539.55 459.214ZM605.86 436.941L656.626 405.082L716.11 449.054L606.241 437.06L606.55 436.958L605.86 436.941ZM756.572 441.657L746.84 463.683L769.774 472.819L717.754 541.057L717.422 449.69L756.572 441.657ZM770.328 473.039L826.471 495.407L718.356 541.215L770.328 473.039ZM814.285 463.214L830.763 459.557L868.891 477.43L827.504 494.967L814.285 463.214ZM920.319 486.344L937.91 489.331L903.882 498.23L920.319 486.344ZM940.104 488.79L984.927 440.02L967.193 482.727L940.104 488.79ZM966.924 483.374L959.554 501.127L940.036 489.394L966.924 483.374ZM985.907 439.153L1016.03 471.795L967.879 482.573L985.907 439.153ZM939.813 488.258L944.498 468.859L983.682 440.525L939.813 488.258ZM959.332 501.663L956.705 507.991L940.784 490.512L959.332 501.663ZM959.828 501.963L988.258 519.052L1026.76 584.895L957.13 508.46L959.828 501.963ZM988.371 518.45L960.051 501.426L967.61 483.22L1015.6 472.479L1014.6 473.408L1015.77 472.748L988.371 518.45ZM1016.59 471.56L986.431 438.874L1056.94 434.064L1016.59 471.56ZM1088.55 430.883L1095.24 399.613L1108.59 413.543L1088.55 430.883ZM1108.98 413.958L1116.21 421.499L1089.42 430.881L1108.98 413.958ZM1087.89 431.207L1071.15 421.649L1094.6 399.853L1087.89 431.207ZM1087.13 431.429L1058.52 433.381L1070.71 422.059L1087.13 431.429ZM1057.43 434.394L1058.18 448.183L1018.55 470.524L1057.43 434.394ZM1057.98 433.992L1086.84 432.023L1058.74 447.868L1057.98 433.992ZM1087.75 432.165L1085.82 451.816L1059.58 463.429L1058.77 448.505L1087.75 432.165ZM1088.34 432.069L1109.78 441.211L1086.42 451.55L1088.34 432.069ZM1166.55 404.823L1166.83 404.583L1169.74 439.412L1128.76 433.254L1166.58 404.716L1166.55 404.823ZM1128.22 432.944L1124.85 419.082L1165.43 404.87L1128.22 432.944ZM1127.51 432.467L1117.24 421.745L1124.3 419.273L1127.51 432.467ZM1170.02 440.033L1170.12 440.048L1180.93 433.634L1203.24 480.28L1129.37 433.926L1170.02 440.033ZM1170.31 439.27L1167.48 405.528L1180.68 433.114L1170.31 439.27ZM1167.61 404.462L1207.76 417.036L1181.17 432.82L1167.61 404.462ZM1167.58 403.16L1172.84 382.811L1185.08 387.786L1167.58 403.16ZM1166.99 403.158L1166.65 402.455L1166.76 403.794L1124.71 418.522L1121.05 403.519L1153.9 375.113L1172.31 382.593L1166.99 403.158ZM1124.16 418.713L1116.81 421.289L1109.42 413.582L1120.57 403.941L1124.16 418.713ZM1109.02 413.167L1095.67 399.234L1096.5 399.124L1095.74 398.912L1115.93 384.911L1120.41 403.314L1109.02 413.167ZM1070.62 421.351L1044 406.157L1094.22 399.429L1070.62 421.351ZM1070.19 421.759L1057.67 433.386L1016.3 409.87L1043.07 406.283L1070.19 421.759ZM1015.47 410.055L1056.72 433.504L986.573 438.289L1015.47 410.055ZM944.705 468.001L954.044 429.341L985.176 438.736L944.705 468.001ZM939.165 488.487L932.915 477.235L943.782 469.377L939.165 488.487ZM938.742 488.889L920.97 485.872L932.452 477.571L938.742 488.889ZM920.179 485.738L901.57 482.58L896.478 412.83L932.172 477.066L920.179 485.738ZM874.171 439.951L869.048 427.817L894.985 412.54L874.171 439.951ZM873.686 440.283L850.438 438.777L868.547 428.11L873.686 440.283ZM849.474 438.676L809.262 419.327L817.287 406.135L860.596 409.271L868.323 427.577L849.474 438.676ZM808.742 419.076L801.717 415.695L801.944 405.023L816.643 406.089L808.742 419.076ZM801.957 404.449L802.375 384.929L826.822 389.354L816.978 405.537L801.957 404.449ZM801.795 385.121L801.382 404.408L774.952 402.499L801.795 385.121ZM772.941 402.101L697.423 381.032L751.043 383L772.941 402.101ZM751.955 383.033L768.766 383.65L773.569 401.888L751.955 383.033ZM695.562 380.389L716.111 352.528L750.355 382.399L695.562 380.389ZM695.333 379.733L697.095 335.941L715.677 352.149L695.333 379.733ZM697.523 335.552L730.282 332.35L716.02 351.687L697.523 335.552ZM643.362 313.287L664.183 278.463L696.175 334.753L643.362 313.287ZM642.824 313.067L624.189 305.493L663.274 278.864L642.824 313.067ZM623.597 305.873L642.526 313.566L628.106 337.686L611.602 311.837L623.597 305.873ZM627.589 337.943L559.782 337.607L611.086 312.094L627.589 337.943ZM627.374 338.515L576.834 384.472L558.992 338.178L627.374 338.515ZM576.314 384.718L495.879 392.833L558.453 338.374L576.314 384.718ZM432.259 341.126L466.109 331.757L480.689 340.521L494.503 392.418L432.259 341.126ZM412.332 317.845L419.068 303.485L441.068 316.707L431.566 340.446L412.332 317.845ZM418.898 302.71L378.115 277.359L467.321 250.146L418.898 302.71ZM377.329 277.599L406.228 311.558L393.547 320.365L355.223 299.947L355.577 280.083L377.012 277.607L376.978 277.706L377.329 277.599ZM115.277 200.111L129.686 195.719L136.261 213.911L136.053 213.866L136.218 214.101L111.917 218.752L115.277 200.111ZM103.357 263.031L84.8276 224.522L111.207 219.472L103.357 263.031ZM125.862 185.138L129.491 195.179L115.39 199.477L118.087 184.513L125.862 185.138ZM118.188 183.945L120.598 170.571L125.648 184.545L118.188 183.945ZM271.087 130.02L301.884 175.168L287.357 188.978L239.127 179.351L240.42 178.907L238.603 179.082L271.087 130.02ZM315.463 195.352L316.648 208.509L255.361 221.5L315.463 195.352ZM316.052 195.5L331.067 205.452L317.214 208.389L316.052 195.5ZM331.738 205.897L347.471 216.325L323.863 282.154L317.265 208.965L331.738 205.897ZM332.526 205.73L352.815 201.429L347.67 215.77L332.526 205.73ZM331.853 205.285L316.988 195.431L351.7 201.079L331.853 205.285ZM315.879 209.259L278.406 244.147L253.27 222.53L315.879 209.259ZM254.019 221.457L287.536 189.599L314.758 195.032L254.019 221.457ZM252.771 221.852L238.463 179.804L286.846 189.461L252.771 221.852ZM224.105 211.675L237.997 180.215L252.178 221.895L224.105 211.675ZM251.962 222.426L208.448 247.132L223.873 212.201L251.962 222.426ZM223.564 211.478L185.765 197.719L237.503 179.911L223.564 211.478ZM184.908 197.406L157.601 187.466L235.641 179.945L184.908 197.406ZM136.792 213.693L130.236 195.552L155.583 187.82L136.792 213.693ZM156.248 187.881L156.703 188.955L156.653 188.145L169.156 202.828L137.474 213.733L156.248 187.881ZM157.236 187.944L184.046 197.704L169.739 202.628L157.236 187.944ZM184.902 198.016L223.331 212.004L207.758 247.277L170.139 203.097L184.902 198.016ZM252.61 222.718L277.984 244.54L258.156 263L208.555 247.731L252.61 222.718ZM278.421 244.918L322.464 282.797L258.789 263.196L278.421 244.918ZM278.843 244.524L316.716 209.264L323.344 282.796L278.843 244.524ZM347.965 216.653L353.634 220.411L355.192 265.774L324.222 282.858L347.965 216.653ZM355.74 265.017L354.223 220.801L374.235 234.065L355.74 265.017ZM354.199 220.096L353.58 202.067L373.629 232.974L354.199 220.096ZM353.611 219.707L348.165 216.097L353.024 202.549L353.611 219.707ZM352.938 200.699L316.143 194.709L346.652 133.853L352.938 200.699ZM315.674 194.365L302.633 175.248L345.851 134.169L315.674 194.365ZM315.079 194.511L288.046 189.115L302.212 175.648L315.079 194.511ZM197.515 151.831L181.117 144.092L192.665 123.707L207.763 142.402L197.515 151.831ZM208.124 142.849L236.608 178.121L198.029 152.138L208.124 142.849ZM197.422 152.423L237.207 179.217L156.83 186.97L180.835 144.593L197.422 152.423ZM130.041 195.011L126.492 185.19L154.787 187.468L130.041 195.011ZM169.556 203.298L206.13 246.249L171.054 221.4L171.005 221.366L137.776 214.235L169.556 203.298ZM207.373 247.836L178.552 273.216L171.266 222.255L207.373 247.836ZM207.828 248.198L240.426 279.165L189.463 289.177L178.722 273.831L207.828 248.198ZM208.92 248.445L257.671 263.452L241.028 278.945L208.92 248.445ZM241.278 279.497L258.304 263.647L322.949 283.548L223.251 336.678L241.278 279.497ZM355.246 266.4L355.012 279.569L325.109 283.023L355.246 266.4ZM355.822 266.292L376.467 277.09L355.588 279.504L355.822 266.292ZM355.985 265.729L374.393 234.916L377.108 276.778L355.985 265.729ZM353.669 200.148L361.809 140.111L393.806 155.003L353.669 200.148ZM353.31 198.524L347.176 133.301L361.262 139.857L353.31 198.524ZM302.306 174.768L271.643 129.817L346.156 133.087L302.306 174.768ZM271.095 129.218L270.934 129.211L238.69 177.909L258.134 97.0195L345.199 132.469L271.095 129.218ZM237.888 178.792L208.547 142.46L257.433 97.4772L237.888 178.792ZM208.186 142.013L193.144 123.387L193.797 123.259L193.477 123.161L256.569 97.4927L208.186 142.013ZM180.597 143.846L153.718 131.16L192.065 123.601L180.597 143.846ZM180.314 144.348L156.539 186.319L153.122 131.515L180.314 144.348ZM155.922 185.651L139.58 147.233L152.563 131.782L155.922 185.651ZM155.862 186.979L126.278 184.597L120.834 169.537L139.165 147.726L155.862 186.979ZM120.784 168.705L119.773 102.137L138.914 147.133L120.784 168.705ZM117.619 183.899L74.7616 180.45L120.149 169.858L117.619 183.899ZM73.0334 180.886L117.516 184.468L114.777 199.664L73.2408 212.324L59.4438 198.026L73.0334 180.886ZM59.0411 197.609L49.8659 188.102L72.0993 181.14L59.0411 197.609ZM49.5341 188.586L58.6819 198.064L39.9784 221.651L49.5341 188.586ZM40.0967 222.428L59.0842 198.479L72.6246 212.512L40.0967 222.428ZM73.6891 212.789L114.661 200.298L111.316 218.867L84.5053 223.998L73.6891 212.789ZM84.4025 224.959L103.108 263.839L48.9023 295.329L84.4025 224.959ZM49.4765 295.66L103.089 264.514L102.954 265.256L103.079 265.073L100.405 291.045L49.4765 295.66ZM104.008 262.65L111.808 219.356L136.086 214.712L104.008 262.65ZM170.631 221.873L177.89 272.643L137.361 214.735L170.631 221.873ZM153.209 296.299L178.289 274.213L188.846 289.298L153.209 296.299ZM240.606 279.714L222.666 336.62L189.822 289.691L240.606 279.714ZM324.642 283.656L355.001 280.149L354.654 299.645L324.642 283.656ZM393.017 320.734L377.52 331.498L354.934 316.168L355.212 300.594L393.017 320.734ZM354.792 316.765L377.015 331.849L340.664 357.098L354.792 316.765ZM341.392 357.29L377.521 332.192L397.974 346.073L341.392 357.29ZM399.646 346.364L431.194 341.357L424.14 358.314L399.646 346.364ZM444.297 368.787L459.59 401.586L400.765 415.993L424.436 359.096L444.297 368.787ZM475.234 434.591L512.898 474.025L472.478 497.671L475.234 434.591ZM513.307 474.452L525.688 487.414L525.762 487.257L591.955 506.012L473.118 497.963L513.307 474.452ZM869.18 477.932L850.941 551.262L827.726 495.497L869.18 477.932ZM902.904 499.08L938.967 489.647L935.739 557.644L902.904 499.08ZM936.342 557.031L939.526 489.975L956.464 508.569L936.342 557.031ZM956.89 509.038L1027.47 586.521L936.365 558.477L956.89 509.038ZM1027.96 585.817L988.803 518.846L1016.38 472.853L1027.96 585.817ZM1017.18 471.955L1058.21 448.818L1059.05 464.291L1085.75 452.473L1080.63 504.522L1017.18 471.955ZM1081.27 503.843L1086.36 452.206L1110.5 441.519L1119.77 445.472L1081.27 503.843ZM1120.62 445.214L1128.13 433.829L1200.69 479.357L1120.62 445.214ZM1181.42 433.339L1208.14 417.481L1203.72 479.945L1181.42 433.339ZM1208.58 416.637L1186.3 388.169L1245.81 408.81L1208.58 416.637ZM1185.19 387.209L1172.99 382.25L1180.53 353.109L1185.19 387.209ZM1180.1 352.445L1172.45 382.032L1154.39 374.691L1180.1 352.445ZM1120.9 402.892L1116.44 384.56L1138.87 369.006L1153.3 374.87L1120.9 402.892ZM1138.36 368.658L1116.29 383.963L1105.82 340.96L1138.36 368.658ZM1115.79 384.312L1095.48 398.397L1105.38 341.572L1115.79 384.312ZM1093.65 398.925L1043.18 405.689L971.69 364.883L1093.65 398.925ZM1042.25 405.814L1015.48 409.401L1015.37 409.343L985.985 438.062L969.95 364.552L1042.25 405.814ZM969.519 365.264L985.428 438.212L954.178 428.781L969.519 365.264ZM953.492 429.174L943.989 468.519L932.634 476.73L896.69 412.033L953.492 429.174ZM895.156 411.774L868.822 427.283L861.239 409.317L895.156 411.774ZM817.623 405.583L827.428 389.464L854.286 394.325L860.345 408.677L817.623 405.583ZM854.175 393.723L827.748 388.938L850.749 351.124L854.175 393.723ZM850.004 351.245L827.142 388.828L802.82 384.425L850.004 351.245ZM801.174 384.839L774.262 402.261L769.366 383.672L801.174 384.839ZM768.613 383.07L751.268 382.433L716.453 352.065L731.18 332.099L733.246 248.789L768.613 383.07ZM730.616 331.74L697.279 334.999L732.683 248.319L730.616 331.74ZM732.47 247.32L696.789 334.675L664.593 278.025L732.47 247.32ZM663.204 278.216L623.44 305.309L611.291 311.349L591.799 280.815L663.204 278.216ZM610.776 311.607L559.289 337.211L591.301 281.102L610.776 311.607ZM557.791 337.957L557.363 338.17L557.809 338.172L495.373 392.513L502.909 321.716L557.791 337.957ZM502.33 321.733L494.888 391.638L481.183 340.149L466.87 331.546L502.33 321.733ZM465.43 331.35L432.138 340.563L441.565 317.007L465.43 331.35ZM419.393 303.011L467.402 250.905L441.284 316.168L419.393 303.011ZM377.618 275.786L374.917 234.111L397.2 216.931L377.618 275.786ZM445.426 179.025L398.338 215.328L404.614 196.464L353.95 200.696L394.35 155.255L445.426 179.025ZM394.204 154.554L361.889 139.515L363.145 130.251L425.584 119.258L394.204 154.554ZM368.081 93.8347L425.357 118.716L363.225 129.654L368.081 93.8347ZM362.552 130.355L361.345 139.261L348.276 133.179L348.487 133.189L347.874 132.939L362.552 130.355ZM345.412 131.936L258.269 96.4551L258.343 96.1506L258.052 96.2689L202.289 4.17041L345.412 131.936ZM257.513 96.4881L192.943 122.759L201.275 3.60345L257.513 96.4881ZM153.072 130.703L153.048 130.314L152.651 130.786L151.894 130.936L152.347 131.15L139.328 146.64L119.969 101.133L191.45 123.138L153.072 130.703ZM49.5827 187.589L40.8104 152.783L72.3304 180.467L49.5827 187.589Z" fill="#112150" fill-opacity="0.12"/>
<path d="M140.001 215.313C139.441 217.131 137.513 218.151 135.695 217.592C133.876 217.032 132.856 215.104 133.416 213.286C133.976 211.468 135.903 210.447 137.722 211.007C139.539 211.567 140.561 213.494 140.001 215.313V215.313Z" fill="#112150" fill-opacity="0.12"/>
<path d="M103.96 292.322C103.401 294.14 101.472 295.16 99.6543 294.601C97.8351 294.041 96.8163 292.112 97.3763 290.295C97.9362 288.477 99.8623 287.457 101.682 288.017C103.499 288.576 104.52 290.504 103.96 292.322Z" fill="#112150" fill-opacity="0.12"/>
<path d="M241.324 180.438C240.764 182.257 238.835 183.277 237.018 182.718C235.199 182.157 234.18 180.23 234.739 178.412C235.299 176.593 237.226 175.573 239.045 176.133C240.863 176.692 241.883 178.62 241.324 180.438L241.324 180.438Z" fill="#112150" fill-opacity="0.12"/>
<path d="M123.07 170.267C122.636 171.681 121.136 172.474 119.722 172.039C118.307 171.604 117.514 170.104 117.949 168.691C118.385 167.275 119.884 166.484 121.298 166.918C122.713 167.353 123.507 168.852 123.07 170.267V170.267Z" fill="#112150" fill-opacity="0.12"/>
<path d="M195.186 123.987C194.749 125.401 193.251 126.194 191.836 125.758C190.421 125.323 189.628 123.824 190.064 122.41C190.499 120.995 191.998 120.202 193.413 120.638C194.827 121.073 195.62 122.572 195.186 123.987Z" fill="#112150" fill-opacity="0.12"/>
<path d="M122.024 101.465C121.588 102.878 120.09 103.672 118.675 103.237C117.26 102.801 116.467 101.303 116.903 99.8884C117.338 98.4732 118.837 97.6801 120.252 98.1154C121.666 98.5514 122.459 100.05 122.024 101.465V101.465Z" fill="#112150" fill-opacity="0.12"/>
<path d="M203.613 3.46809C203.177 4.88279 201.677 5.6759 200.264 5.24046C198.849 4.8051 198.056 3.30641 198.491 1.89165C198.927 0.476946 200.426 -0.316719 201.84 0.119835C203.253 0.554087 204.048 2.05395 203.613 3.4681V3.46809Z" fill="#112150" fill-opacity="0.12"/>
<path d="M41.8592 223.758C41.4244 225.173 39.9251 225.966 38.5104 225.53C37.098 225.096 36.3026 223.596 36.7386 222.182C37.1745 220.766 38.6744 219.974 40.0874 220.409C41.5027 220.845 42.2952 222.343 41.8592 223.758V223.758Z" fill="#112150" fill-opacity="0.12"/>
<path d="M86.9681 225.097C86.5328 226.511 85.034 227.306 83.6193 226.87C82.2046 226.434 81.4115 224.935 81.8469 223.52C82.2829 222.105 83.781 221.313 85.1963 221.748C86.6099 222.183 87.4035 223.682 86.9681 225.097Z" fill="#112150" fill-opacity="0.12"/>
<path d="M114.107 219.84C113.672 221.254 112.172 222.047 110.758 221.612C109.345 221.177 108.551 219.677 108.986 218.263C109.421 216.848 110.921 216.055 112.335 216.491C113.749 216.926 114.543 218.424 114.107 219.84Z" fill="#112150" fill-opacity="0.12"/>
<path d="M180.91 274.611C180.474 276.026 178.976 276.818 177.562 276.383C176.147 275.948 175.353 274.45 175.79 273.035C176.225 271.62 177.723 270.827 179.138 271.262C180.553 271.698 181.345 273.197 180.91 274.611V274.611Z" fill="#112150" fill-opacity="0.12"/>
<path d="M318.273 195.718C317.838 197.132 316.339 197.925 314.925 197.49C313.51 197.055 312.717 195.556 313.153 194.141C313.587 192.726 315.086 191.933 316.501 192.368C317.916 192.804 318.709 194.304 318.273 195.718Z" fill="#112150" fill-opacity="0.12"/>
<path d="M349.404 133.617C348.969 135.033 347.47 135.826 346.056 135.39C344.641 134.954 343.848 133.456 344.283 132.041C344.719 130.626 346.218 129.833 347.632 130.269C349.047 130.704 349.84 132.203 349.404 133.617V133.617Z" fill="#112150" fill-opacity="0.12"/>
<path d="M448.537 179.752C448.101 181.167 446.602 181.96 445.187 181.525C443.773 181.089 442.98 179.59 443.415 178.176C443.85 176.761 445.35 175.968 446.764 176.404C448.179 176.839 448.972 178.338 448.537 179.752Z" fill="#112150" fill-opacity="0.12"/>
<path d="M42.8677 152.746C42.4317 154.161 40.933 154.954 39.5188 154.518C38.1052 154.084 37.3105 152.585 37.7464 151.17C38.1812 149.755 39.6817 148.963 41.0947 149.398C42.51 149.833 43.3031 151.332 42.8677 152.746Z" fill="#112150" fill-opacity="0.12"/>
<path d="M74.7332 181.15C74.423 182.16 73.3522 182.727 72.3415 182.416C71.3313 182.106 70.7639 181.034 71.0759 180.024C71.3867 179.013 72.4574 178.448 73.4676 178.758C74.4784 179.069 75.0446 180.14 74.7332 181.15Z" fill="#112150" fill-opacity="0.12"/>
<path d="M74.5018 212.954C74.2806 213.673 73.5184 214.076 72.7979 213.855C72.078 213.634 71.674 212.871 71.8957 212.15C72.1174 211.43 72.8802 211.027 73.6007 211.248C74.3206 211.47 74.7235 212.233 74.5018 212.954Z" fill="#112150" fill-opacity="0.12"/>
<path d="M116.369 200.27C116.147 200.992 115.384 201.394 114.664 201.173C113.944 200.952 113.539 200.188 113.761 199.468C113.983 198.748 114.747 198.345 115.467 198.567C116.186 198.788 116.59 199.551 116.369 200.27Z" fill="#112150" fill-opacity="0.12"/>
<path d="M3.74337 144.34C3.43253 145.35 2.36063 145.917 1.35101 145.606C0.340821 145.295 -0.225985 144.224 0.0854096 143.214C0.396244 142.204 1.46643 141.636 2.47719 141.948C3.48738 142.258 4.05419 143.329 3.74336 144.34L3.74337 144.34Z" fill="#112150" fill-opacity="0.12"/>
<path d="M51.0971 188.551C50.7857 189.561 49.7149 190.128 48.7042 189.817C47.6957 189.507 47.1277 188.434 47.4386 187.424C47.7494 186.414 48.8219 185.848 49.8304 186.158C50.8411 186.47 51.4073 187.54 51.0971 188.551Z" fill="#112150" fill-opacity="0.12"/>
<path d="M105.311 264.517C105 265.527 103.93 266.094 102.919 265.783C101.909 265.472 101.342 264.401 101.654 263.39C101.965 262.38 103.035 261.813 104.046 262.124C105.055 262.436 105.622 263.507 105.311 264.517V264.517Z" fill="#112150" fill-opacity="0.12"/>
<path d="M50.0399 296.626C49.7291 297.637 48.6577 298.202 47.6475 297.892C46.6391 297.581 46.0711 296.51 46.3819 295.5C46.6928 294.49 47.7647 293.923 48.7737 294.234C49.7845 294.545 50.3507 295.616 50.0399 296.626Z" fill="#112150" fill-opacity="0.12"/>
<path d="M158.141 187.865C157.831 188.875 156.76 189.442 155.75 189.131C154.74 188.82 154.173 187.749 154.484 186.739C154.795 185.729 155.865 185.162 156.876 185.473C157.886 185.784 158.453 186.855 158.141 187.865Z" fill="#112150" fill-opacity="0.12"/>
<path d="M154.635 131.611C154.324 132.621 153.253 133.187 152.243 132.876C151.233 132.566 150.666 131.495 150.977 130.485C151.288 129.475 152.358 128.908 153.368 129.219C154.38 129.53 154.946 130.601 154.635 131.611V131.611Z" fill="#112150" fill-opacity="0.12"/>
<path d="M140.734 147.625C140.482 148.446 139.611 148.906 138.79 148.654C137.968 148.401 137.509 147.532 137.762 146.71C138.014 145.889 138.884 145.429 139.705 145.681C140.526 145.935 140.987 146.804 140.734 147.625Z" fill="#112150" fill-opacity="0.12"/>
<path d="M254.474 222.933C254.162 223.943 253.092 224.509 252.082 224.198C251.071 223.887 250.504 222.815 250.816 221.806C251.127 220.796 252.197 220.229 253.208 220.54C254.218 220.852 254.785 221.922 254.474 222.933V222.933Z" fill="#112150" fill-opacity="0.12"/>
<path d="M280.191 245.132C279.881 246.142 278.81 246.709 277.8 246.399C276.789 246.087 276.223 245.017 276.533 244.006C276.845 242.996 277.916 242.429 278.926 242.741C279.935 243.052 280.502 244.121 280.191 245.132H280.191Z" fill="#112150" fill-opacity="0.12"/>
<path d="M260.081 263.893C259.771 264.903 258.7 265.471 257.69 265.159C256.68 264.848 256.113 263.778 256.424 262.767C256.734 261.757 257.806 261.19 258.815 261.501C259.826 261.813 260.392 262.883 260.081 263.893Z" fill="#112150" fill-opacity="0.12"/>
<path d="M225.562 212.385C225.252 213.396 224.18 213.962 223.171 213.652C222.16 213.34 221.593 212.269 221.905 211.259C222.216 210.249 223.286 209.683 224.297 209.993C225.307 210.305 225.873 211.375 225.562 212.385Z" fill="#112150" fill-opacity="0.12"/>
<path d="M186.729 198.227C186.418 199.237 185.347 199.805 184.337 199.493C183.327 199.182 182.759 198.111 183.071 197.101C183.382 196.09 184.452 195.525 185.463 195.835C186.473 196.146 187.04 197.217 186.729 198.227Z" fill="#112150" fill-opacity="0.12"/>
<path d="M172.717 222.197C172.405 223.208 171.335 223.774 170.324 223.462C169.315 223.152 168.748 222.082 169.059 221.071C169.369 220.061 170.441 219.494 171.45 219.805C172.461 220.116 173.028 221.186 172.717 222.197Z" fill="#112150" fill-opacity="0.12"/>
<path d="M199.397 152.736C199.086 153.747 198.015 154.314 197.005 154.003C195.994 153.691 195.428 152.621 195.739 151.611C196.05 150.6 197.12 150.034 198.131 150.345C199.142 150.656 199.708 151.727 199.397 152.736Z" fill="#112150" fill-opacity="0.12"/>
<path d="M182.094 144.689C181.845 145.497 180.989 145.95 180.18 145.702C179.374 145.453 178.919 144.596 179.168 143.788C179.416 142.98 180.273 142.526 181.081 142.775C181.89 143.024 182.342 143.88 182.094 144.689Z" fill="#112150" fill-opacity="0.12"/>
<path d="M209.665 248.373C209.354 249.383 208.281 249.949 207.273 249.638C206.262 249.328 205.696 248.257 206.007 247.247C206.318 246.236 207.388 245.67 208.4 245.981C209.408 246.292 209.976 247.363 209.665 248.373Z" fill="#112150" fill-opacity="0.12"/>
<path d="M154.052 297.347C153.742 298.358 152.671 298.924 151.661 298.614C150.65 298.302 150.084 297.231 150.395 296.222C150.706 295.211 151.777 294.645 152.787 294.955C153.798 295.266 154.364 296.337 154.052 297.347V297.347Z" fill="#112150" fill-opacity="0.12"/>
<path d="M191.189 290.007C190.878 291.017 189.806 291.584 188.797 291.273C187.787 290.961 187.22 289.891 187.532 288.881C187.842 287.87 188.913 287.304 189.923 287.615C190.932 287.925 191.5 288.997 191.189 290.007V290.007Z" fill="#112150" fill-opacity="0.12"/>
<path d="M242.856 279.903C242.546 280.913 241.474 281.479 240.465 281.168C239.455 280.858 238.888 279.787 239.2 278.776C239.51 277.766 240.581 277.199 241.591 277.51C242.6 277.822 243.167 278.892 242.856 279.903V279.903Z" fill="#112150" fill-opacity="0.12"/>
<path d="M224.595 337.825C224.284 338.835 223.212 339.402 222.203 339.091C221.193 338.78 220.626 337.709 220.936 336.699C221.248 335.689 222.319 335.122 223.329 335.433C224.338 335.744 224.906 336.815 224.595 337.825V337.825Z" fill="#112150" fill-opacity="0.12"/>
<path d="M400.315 349.266C398.632 350.156 396.549 349.515 395.659 347.833C394.768 346.153 395.41 344.067 397.092 343.177C398.774 342.288 400.858 342.928 401.749 344.61C402.638 346.293 401.996 348.376 400.315 349.266V349.266Z" fill="#112150" fill-opacity="0.12"/>
<path d="M496.622 396.253C494.94 397.143 492.855 396.501 491.964 394.819C491.076 393.137 491.717 391.054 493.398 390.164C495.08 389.273 497.165 389.915 498.055 391.597C498.945 393.279 498.303 395.362 496.622 396.253L496.622 396.253Z" fill="#112150" fill-opacity="0.12"/>
<path d="M420.198 305.443C418.89 306.135 417.268 305.635 416.577 304.329C415.884 303.02 416.383 301.397 417.692 300.706C418.999 300.014 420.62 300.515 421.312 301.82C422.005 303.129 421.506 304.75 420.198 305.443Z" fill="#112150" fill-opacity="0.12"/>
<path d="M369.103 95.7878C367.794 96.4798 366.172 95.9809 365.482 94.6731C364.788 93.3663 365.287 91.7442 366.596 91.0523C367.904 90.3597 369.524 90.8586 370.217 92.167C370.909 93.4749 370.411 95.0953 369.103 95.7878Z" fill="#112150" fill-opacity="0.12"/>
<path d="M259.186 98.9954C257.879 99.6879 256.257 99.1874 255.566 97.8806C254.872 96.5733 255.371 94.9512 256.681 94.2586C257.989 93.5667 259.609 94.0667 260.302 95.374C260.994 96.6819 260.495 98.3034 259.186 98.9954Z" fill="#112150" fill-opacity="0.12"/>
<path d="M503.914 323.71C502.606 324.403 500.985 323.902 500.292 322.595C499.6 321.288 500.099 319.666 501.406 318.974C502.715 318.281 504.336 318.781 505.029 320.089C505.72 321.396 505.223 323.018 503.914 323.71Z" fill="#112150" fill-opacity="0.12"/>
<path d="M559.829 340.256C558.518 340.946 556.899 340.447 556.205 339.14C555.515 337.833 556.012 336.211 557.32 335.519C558.629 334.826 560.25 335.326 560.943 336.634C561.634 337.941 561.136 339.562 559.829 340.256H559.829Z" fill="#112150" fill-opacity="0.12"/>
<path d="M324.947 285.844C323.639 286.537 322.019 286.037 321.326 284.729C320.634 283.422 321.133 281.799 322.441 281.108C323.75 280.415 325.371 280.915 326.063 282.222C326.755 283.529 326.255 285.152 324.947 285.844H324.947Z" fill="#112150" fill-opacity="0.12"/>
<path d="M355.897 318.685C354.591 319.378 352.969 318.878 352.278 317.571C351.585 316.264 352.084 314.642 353.393 313.949C354.701 313.257 356.321 313.756 357.012 315.065C357.705 316.372 357.207 317.992 355.897 318.685V318.685Z" fill="#112150" fill-opacity="0.12"/>
<path d="M540.229 461.469C538.921 462.161 537.299 461.662 536.608 460.354C535.915 459.047 536.415 457.426 537.722 456.733C539.031 456.04 540.651 456.54 541.343 457.848C542.036 459.156 541.537 460.777 540.229 461.469V461.469Z" fill="#112150" fill-opacity="0.12"/>
<path d="M595.927 508.85C594.618 509.542 592.996 509.042 592.306 507.734C591.612 506.428 592.111 504.807 593.42 504.114C594.728 503.421 596.348 503.92 597.041 505.229C597.733 506.536 597.235 508.157 595.927 508.85L595.927 508.85Z" fill="#112150" fill-opacity="0.12"/>
<path d="M606.154 439.571C604.846 440.263 603.223 439.763 602.533 438.454C601.84 437.148 602.339 435.527 603.647 434.834C604.955 434.142 606.575 434.642 607.269 435.949C607.961 437.257 607.462 438.877 606.154 439.571Z" fill="#112150" fill-opacity="0.12"/>
<path d="M375.874 236.344C374.566 237.036 372.945 236.537 372.254 235.229C371.561 233.921 372.06 232.3 373.368 231.608C374.677 230.915 376.296 231.415 376.989 232.723C377.682 234.031 377.183 235.652 375.874 236.344Z" fill="#112150" fill-opacity="0.12"/>
<path d="M378.322 278.96C377.388 279.454 376.231 279.097 375.736 278.164C375.242 277.229 375.599 276.071 376.533 275.577C377.467 275.083 378.625 275.44 379.119 276.372C379.612 277.307 379.255 278.465 378.322 278.96Z" fill="#112150" fill-opacity="0.12"/>
<path d="M469.144 251.253C468.21 251.747 467.053 251.39 466.557 250.456C466.063 249.523 466.42 248.365 467.354 247.87C468.289 247.376 469.447 247.733 469.941 248.666C470.435 249.6 470.079 250.759 469.144 251.253Z" fill="#112150" fill-opacity="0.12"/>
<path d="M354.155 202.734C353.221 203.227 352.062 202.871 351.569 201.937C351.074 201.003 351.43 199.845 352.365 199.35C353.299 198.856 354.456 199.213 354.951 200.146C355.446 201.081 355.089 202.239 354.155 202.734Z" fill="#112150" fill-opacity="0.12"/>
<path d="M405.1 198.476C404.166 198.971 403.009 198.615 402.514 197.68C402.019 196.746 402.375 195.588 403.31 195.094C404.244 194.599 405.403 194.956 405.897 195.89C406.39 196.824 406.033 197.982 405.1 198.476H405.1Z" fill="#112150" fill-opacity="0.12"/>
<path d="M398.718 217.63C397.783 218.124 396.624 217.767 396.131 216.833C395.637 215.901 395.992 214.742 396.926 214.247C397.861 213.752 399.02 214.11 399.514 215.044C400.007 215.977 399.65 217.135 398.718 217.63Z" fill="#112150" fill-opacity="0.12"/>
<path d="M427.243 120.524C426.308 121.018 425.15 120.662 424.657 119.727C424.162 118.795 424.518 117.636 425.452 117.141C426.388 116.647 427.544 117.004 428.039 117.937C428.533 118.872 428.177 120.031 427.243 120.524Z" fill="#112150" fill-opacity="0.12"/>
<path d="M395.193 156.608C394.259 157.102 393.102 156.746 392.606 155.812C392.112 154.878 392.469 153.72 393.403 153.226C394.338 152.731 395.494 153.088 395.99 154.021C396.484 154.956 396.127 156.114 395.193 156.608H395.193Z" fill="#112150" fill-opacity="0.12"/>
<path d="M363.829 131.652C362.894 132.146 361.737 131.79 361.242 130.856C360.748 129.922 361.104 128.764 362.038 128.27C362.973 127.775 364.13 128.132 364.625 129.066C365.12 130 364.763 131.159 363.829 131.652V131.652Z" fill="#112150" fill-opacity="0.12"/>
<path d="M303.165 176.893C302.23 177.387 301.072 177.031 300.578 176.097C300.084 175.164 300.44 174.005 301.374 173.511C302.309 173.016 303.466 173.373 303.961 174.307C304.455 175.241 304.099 176.4 303.165 176.893V176.893Z" fill="#112150" fill-opacity="0.12"/>
<path d="M288.349 190.954C287.415 191.448 286.255 191.091 285.763 190.158C285.268 189.225 285.624 188.066 286.559 187.572C287.493 187.076 288.65 187.434 289.145 188.368C289.64 189.302 289.283 190.461 288.349 190.954Z" fill="#112150" fill-opacity="0.12"/>
<path d="M317.639 210.064C316.898 210.456 315.98 210.173 315.589 209.433C315.197 208.692 315.479 207.775 316.219 207.383C316.961 206.992 317.878 207.274 318.27 208.015C318.662 208.755 318.379 209.672 317.639 210.064L317.639 210.064Z" fill="#112150" fill-opacity="0.12"/>
<path d="M271.979 131.196C271.045 131.691 269.885 131.333 269.393 130.4C268.898 129.467 269.255 128.308 270.189 127.814C271.124 127.319 272.281 127.676 272.775 128.61C273.27 129.544 272.913 130.702 271.979 131.196Z" fill="#112150" fill-opacity="0.12"/>
<path d="M356.374 267.479C355.441 267.974 354.282 267.618 353.789 266.683C353.295 265.75 353.652 264.592 354.586 264.097C355.52 263.602 356.677 263.959 357.171 264.893C357.666 265.827 357.31 266.984 356.374 267.479H356.374Z" fill="#112150" fill-opacity="0.12"/>
<path d="M340.996 359.529C340.061 360.023 338.902 359.667 338.409 358.733C337.914 357.8 338.27 356.64 339.205 356.147C340.138 355.652 341.297 356.009 341.791 356.942C342.285 357.876 341.93 359.036 340.996 359.529H340.996Z" fill="#112150" fill-opacity="0.12"/>
<path d="M432.551 342.686C431.617 343.18 430.459 342.824 429.965 341.891C429.47 340.956 429.827 339.798 430.761 339.304C431.695 338.809 432.855 339.166 433.348 340.1C433.843 341.034 433.486 342.192 432.551 342.686H432.551Z" fill="#112150" fill-opacity="0.12"/>
<path d="M442.345 318.305C441.411 318.799 440.253 318.443 439.759 317.508C439.264 316.574 439.621 315.417 440.555 314.922C441.49 314.428 442.649 314.784 443.141 315.719C443.636 316.651 443.28 317.81 442.345 318.305Z" fill="#112150" fill-opacity="0.12"/>
<path d="M475.872 435.599C474.937 436.093 473.778 435.736 473.285 434.802C472.791 433.868 473.147 432.71 474.081 432.216C475.014 431.721 476.173 432.078 476.668 433.013C477.162 433.946 476.806 435.104 475.872 435.599H475.872Z" fill="#112150" fill-opacity="0.12"/>
<path d="M460.928 403.431C459.993 403.926 458.834 403.569 458.34 402.635C457.846 401.7 458.201 400.543 459.136 400.048C460.071 399.553 461.229 399.911 461.724 400.844C462.218 401.778 461.863 402.937 460.928 403.431H460.928Z" fill="#112150" fill-opacity="0.12"/>
<path d="M511.641 418.354C510.706 418.849 509.547 418.492 509.053 417.558C508.559 416.623 508.914 415.465 509.849 414.97C510.784 414.476 511.942 414.833 512.436 415.768C512.93 416.702 512.574 417.859 511.641 418.354Z" fill="#112150" fill-opacity="0.12"/>
<path d="M523.848 436.829C522.915 437.324 521.755 436.967 521.261 436.033C520.766 435.098 521.123 433.941 522.057 433.446C522.991 432.952 524.15 433.309 524.645 434.243C525.138 435.177 524.782 436.334 523.848 436.829Z" fill="#112150" fill-opacity="0.12"/>
<path d="M551.739 437.456C550.805 437.95 549.646 437.593 549.152 436.659C548.657 435.725 549.013 434.567 549.948 434.073C550.882 433.578 552.041 433.934 552.535 434.869C553.028 435.803 552.672 436.96 551.739 437.456Z" fill="#112150" fill-opacity="0.12"/>
<path d="M526.504 488.606C525.571 489.101 524.411 488.744 523.917 487.809C523.422 486.875 523.779 485.718 524.714 485.223C525.649 484.728 526.807 485.085 527.302 486.02C527.795 486.953 527.438 488.11 526.504 488.606H526.504Z" fill="#112150" fill-opacity="0.12"/>
<path d="M445.422 370.32C444.488 370.814 443.329 370.458 442.835 369.523C442.34 368.59 442.697 367.432 443.631 366.938C444.565 366.443 445.723 366.799 446.218 367.734C446.713 368.668 446.355 369.826 445.422 370.32Z" fill="#112150" fill-opacity="0.12"/>
<path d="M481.833 342.026C480.898 342.52 479.74 342.163 479.246 341.229C478.751 340.295 479.107 339.137 480.041 338.642C480.976 338.148 482.134 338.505 482.629 339.439C483.123 340.374 482.768 341.531 481.833 342.026Z" fill="#112150" fill-opacity="0.12"/>
<path d="M467.038 333.14C466.105 333.634 464.945 333.277 464.452 332.343C463.956 331.409 464.313 330.252 465.248 329.757C466.181 329.262 467.341 329.619 467.835 330.553C468.329 331.488 467.972 332.645 467.038 333.14Z" fill="#112150" fill-opacity="0.12"/>
<path d="M401.179 418.097C400.244 418.592 399.085 418.235 398.592 417.301C398.097 416.366 398.454 415.209 399.388 414.714C400.321 414.219 401.48 414.576 401.974 415.511C402.469 416.445 402.113 417.602 401.179 418.097Z" fill="#112150" fill-opacity="0.12"/>
<path d="M473.063 499.877C472.129 500.371 470.969 500.015 470.477 499.081C469.982 498.146 470.339 496.989 471.272 496.495C472.206 496 473.364 496.356 473.859 497.29C474.353 498.225 473.997 499.382 473.063 499.877Z" fill="#112150" fill-opacity="0.12"/>
<path d="M936.614 489.586C936.438 488.116 937.487 486.783 938.957 486.609C940.424 486.433 941.757 487.482 941.933 488.952C942.109 490.422 941.058 491.755 939.59 491.928C938.121 492.105 936.788 491.056 936.614 489.586V489.586Z" fill="#112150" fill-opacity="0.12"/>
<path d="M933.317 558.975C933.141 557.505 934.19 556.173 935.66 555.997C937.129 555.823 938.462 556.872 938.637 558.341C938.812 559.811 937.762 561.144 936.294 561.32C934.824 561.495 933.492 560.446 933.317 558.975H933.317Z" fill="#112150" fill-opacity="0.12"/>
<path d="M954.89 508.734C954.764 507.685 955.514 506.733 956.562 506.608C957.612 506.482 958.564 507.231 958.689 508.281C958.814 509.33 958.065 510.283 957.015 510.407C955.967 510.532 955.014 509.784 954.89 508.734Z" fill="#112150" fill-opacity="0.12"/>
<path d="M965.535 483.189C965.411 482.14 966.159 481.188 967.209 481.064C968.258 480.937 969.209 481.687 969.336 482.736C969.461 483.785 968.71 484.739 967.661 484.863C966.613 484.987 965.661 484.239 965.535 483.189L965.535 483.189Z" fill="#112150" fill-opacity="0.12"/>
<path d="M942.695 468.794C942.592 467.925 943.213 467.134 944.084 467.031C944.955 466.926 945.746 467.548 945.849 468.421C945.952 469.29 945.329 470.082 944.46 470.183C943.59 470.288 942.799 469.666 942.695 468.794Z" fill="#112150" fill-opacity="0.12"/>
<path d="M930.982 477.302C930.878 476.432 931.499 475.642 932.371 475.539C933.241 475.434 934.032 476.056 934.135 476.927C934.239 477.799 933.617 478.589 932.746 478.692C931.875 478.797 931.086 478.173 930.982 477.302Z" fill="#112150" fill-opacity="0.12"/>
<path d="M918.66 486.203C918.556 485.333 919.177 484.542 920.048 484.439C920.918 484.335 921.71 484.957 921.813 485.829C921.916 486.699 921.294 487.49 920.424 487.594C919.553 487.697 918.762 487.075 918.66 486.203L918.66 486.203Z" fill="#112150" fill-opacity="0.12"/>
<path d="M899.726 483.029C899.623 482.157 900.244 481.367 901.113 481.264C901.984 481.16 902.775 481.783 902.879 482.654C902.982 483.524 902.361 484.315 901.49 484.418C900.62 484.523 899.829 483.9 899.726 483.029L899.726 483.029Z" fill="#112150" fill-opacity="0.12"/>
<path d="M951.924 429.178C951.798 428.129 952.548 427.176 953.597 427.052C954.647 426.927 955.6 427.677 955.725 428.726C955.85 429.775 955.101 430.727 954.051 430.852C953.002 430.978 952.048 430.228 951.924 429.178Z" fill="#112150" fill-opacity="0.12"/>
<path d="M967.633 364.209C967.508 363.159 968.258 362.208 969.307 362.083C970.357 361.958 971.308 362.706 971.432 363.756C971.559 364.806 970.808 365.758 969.759 365.883C968.711 366.008 967.758 365.259 967.633 364.209H967.633Z" fill="#112150" fill-opacity="0.12"/>
<path d="M799.389 382.454C800.565 380.959 802.729 380.701 804.224 381.878C805.721 383.054 805.978 385.221 804.802 386.716C803.625 388.21 801.46 388.469 799.965 387.292C798.47 386.116 798.212 383.949 799.389 382.454V382.454Z" fill="#112150" fill-opacity="0.12"/>
<path d="M692.303 378.525C693.479 377.03 695.645 376.773 697.14 377.948C698.634 379.126 698.892 381.291 697.717 382.786C696.539 384.281 694.373 384.538 692.879 383.361C691.383 382.185 691.126 380.02 692.303 378.525Z" fill="#112150" fill-opacity="0.12"/>
<path d="M798.969 430.575C799.885 429.411 801.569 429.212 802.732 430.127C803.894 431.041 804.094 432.726 803.18 433.89C802.265 435.053 800.58 435.252 799.417 434.338C798.255 433.423 798.053 431.738 798.969 430.575V430.575Z" fill="#112150" fill-opacity="0.12"/>
<path d="M848.903 550.516C849.818 549.353 851.504 549.153 852.666 550.069C853.828 550.983 854.029 552.667 853.113 553.831C852.198 554.994 850.513 555.193 849.351 554.28C848.189 553.364 847.986 551.68 848.903 550.516V550.516Z" fill="#112150" fill-opacity="0.12"/>
<path d="M715.031 447.8C715.947 446.636 717.631 446.435 718.793 447.35C719.955 448.266 720.157 449.95 719.241 451.112C718.326 452.276 716.641 452.475 715.477 451.563C714.316 450.645 714.115 448.962 715.031 447.8H715.031Z" fill="#112150" fill-opacity="0.12"/>
<path d="M715.364 540.245C716.281 539.083 717.964 538.881 719.128 539.797C720.289 540.712 720.491 542.398 719.577 543.56C718.662 544.723 716.976 544.922 715.812 544.009C714.652 543.093 714.45 541.408 715.364 540.245Z" fill="#112150" fill-opacity="0.12"/>
<path d="M893.989 409.896C894.905 408.733 896.588 408.533 897.751 409.448C898.915 410.363 899.114 412.048 898.199 413.211C897.284 414.374 895.599 414.574 894.437 413.659C893.275 412.744 893.074 411.06 893.989 409.896H893.989Z" fill="#112150" fill-opacity="0.12"/>
<path d="M852.387 392.413C853.302 391.25 854.987 391.049 856.148 391.965C857.312 392.88 857.513 394.564 856.596 395.727C855.681 396.89 853.997 397.091 852.835 396.175C851.673 395.26 851.47 393.576 852.387 392.413Z" fill="#112150" fill-opacity="0.12"/>
<path d="M626.008 336.574C626.923 335.41 628.608 335.21 629.769 336.124C630.933 337.04 631.134 338.723 630.217 339.886C629.303 341.05 627.618 341.251 626.456 340.336C625.293 339.42 625.093 337.736 626.008 336.574H626.008Z" fill="#112150" fill-opacity="0.12"/>
<path d="M574.612 383.308C575.527 382.144 577.212 381.945 578.375 382.859C579.537 383.775 579.738 385.458 578.823 386.621C577.906 387.785 576.224 387.986 575.06 387.07C573.898 386.156 573.697 384.472 574.612 383.308H574.612Z" fill="#112150" fill-opacity="0.12"/>
<path d="M867.49 475.786C868.407 474.624 870.092 474.424 871.253 475.339C872.415 476.254 872.616 477.939 871.701 479.1C870.786 480.265 869.101 480.464 867.939 479.55C866.776 478.635 866.574 476.951 867.49 475.786V475.786Z" fill="#112150" fill-opacity="0.12"/>
<path d="M825.156 493.62C826.073 492.457 827.757 492.257 828.918 493.172C830.081 494.087 830.283 495.771 829.367 496.935C828.452 498.097 826.769 498.298 825.604 497.384C824.442 496.467 824.241 494.783 825.156 493.62V493.62Z" fill="#112150" fill-opacity="0.12"/>
<path d="M847.982 437.819C848.637 436.988 849.841 436.846 850.671 437.497C851.501 438.153 851.644 439.355 850.992 440.186C850.337 441.016 849.135 441.159 848.303 440.506C847.473 439.852 847.33 438.648 847.982 437.819V437.819Z" fill="#112150" fill-opacity="0.12"/>
<path d="M900.967 497.714C901.621 496.882 902.825 496.738 903.655 497.393C904.485 498.045 904.629 499.248 903.976 500.081C903.322 500.91 902.118 501.053 901.287 500.399C900.458 499.746 900.314 498.543 900.967 497.714L900.967 497.714Z" fill="#112150" fill-opacity="0.12"/>
<path d="M872.7 439.42C873.354 438.589 874.559 438.446 875.388 439.099C876.219 439.752 876.363 440.956 875.709 441.787C875.054 442.618 873.851 442.761 873.021 442.108C872.19 441.453 872.046 440.251 872.7 439.42Z" fill="#112150" fill-opacity="0.12"/>
<path d="M849.461 349.035C850.113 348.204 851.317 348.061 852.148 348.715C852.978 349.368 853.122 350.571 852.467 351.402C851.814 352.233 850.609 352.375 849.78 351.722C848.95 351.068 848.805 349.865 849.461 349.035Z" fill="#112150" fill-opacity="0.12"/>
<path d="M859.24 407.762C859.892 406.932 861.097 406.789 861.927 407.442C862.757 408.096 862.901 409.298 862.248 410.13C861.595 410.961 860.389 411.103 859.56 410.45C858.73 409.796 858.587 408.593 859.24 407.762V407.762Z" fill="#112150" fill-opacity="0.12"/>
<path d="M800.461 403.715C801 403.026 802 402.907 802.688 403.449C803.374 403.991 803.494 404.988 802.952 405.677C802.411 406.365 801.413 406.484 800.725 405.942C800.036 405.4 799.918 404.403 800.461 403.715Z" fill="#112150" fill-opacity="0.12"/>
<path d="M815.892 404.81C816.432 404.122 817.431 404.003 818.119 404.545C818.806 405.087 818.926 406.083 818.383 406.772C817.843 407.461 816.845 407.579 816.157 407.037C815.469 406.495 815.349 405.498 815.892 404.81Z" fill="#112150" fill-opacity="0.12"/>
<path d="M826.073 388.105C826.615 387.417 827.612 387.298 828.3 387.839C828.988 388.381 829.109 389.378 828.566 390.067C828.024 390.756 827.026 390.874 826.338 390.332C825.651 389.791 825.531 388.794 826.073 388.105Z" fill="#112150" fill-opacity="0.12"/>
<path d="M772.582 401.534C773.236 400.703 774.439 400.56 775.27 401.214C776.099 401.867 776.244 403.071 775.59 403.901C774.937 404.732 773.733 404.875 772.901 404.222C772.072 403.569 771.928 402.365 772.582 401.534V401.534Z" fill="#112150" fill-opacity="0.12"/>
<path d="M745.721 462.341C746.373 461.511 747.577 461.368 748.407 462.021C749.238 462.675 749.383 463.878 748.727 464.709C748.074 465.539 746.871 465.683 746.04 465.029C745.209 464.376 745.065 463.173 745.721 462.341L745.721 462.341Z" fill="#112150" fill-opacity="0.12"/>
<path d="M755.556 440.027C756.209 439.197 757.413 439.053 758.243 439.707C759.073 440.36 759.218 441.564 758.563 442.395C757.91 443.224 756.707 443.37 755.875 442.715C755.045 442.061 754.901 440.858 755.556 440.027Z" fill="#112150" fill-opacity="0.12"/>
<path d="M768.809 471.453C769.462 470.622 770.666 470.479 771.496 471.133C772.326 471.786 772.471 472.991 771.817 473.819C771.163 474.652 769.96 474.794 769.128 474.14C768.299 473.488 768.154 472.285 768.809 471.453Z" fill="#112150" fill-opacity="0.12"/>
<path d="M829.292 458.07C829.948 457.24 831.15 457.097 831.98 457.751C832.811 458.404 832.955 459.608 832.301 460.439C831.647 461.268 830.445 461.413 829.613 460.758C828.783 460.105 828.639 458.901 829.292 458.07Z" fill="#112150" fill-opacity="0.12"/>
<path d="M812.652 461.981C813.196 461.289 814.197 461.17 814.888 461.715C815.58 462.258 815.699 463.259 815.155 463.95C814.611 464.641 813.611 464.761 812.918 464.217C812.227 463.675 812.107 462.672 812.652 461.981Z" fill="#112150" fill-opacity="0.12"/>
<path d="M695.327 334.148C695.981 333.317 697.186 333.173 698.016 333.827C698.847 334.481 698.989 335.683 698.337 336.515C697.681 337.345 696.479 337.488 695.647 336.835C694.817 336.18 694.673 334.978 695.327 334.148Z" fill="#112150" fill-opacity="0.12"/>
<path d="M729.391 330.817C730.044 329.987 731.249 329.843 732.079 330.497C732.91 331.15 733.053 332.353 732.4 333.183C731.745 334.014 730.542 334.158 729.71 333.503C728.88 332.85 728.737 331.648 729.391 330.817Z" fill="#112150" fill-opacity="0.12"/>
<path d="M714.588 350.926C715.24 350.095 716.445 349.952 717.276 350.605C718.106 351.26 718.25 352.462 717.596 353.293C716.941 354.123 715.738 354.267 714.907 353.613C714.076 352.959 713.933 351.757 714.588 350.926Z" fill="#112150" fill-opacity="0.12"/>
<path d="M749.663 381.514C750.319 380.683 751.521 380.539 752.353 381.193C753.183 381.848 753.327 383.05 752.673 383.881C752.02 384.711 750.814 384.854 749.984 384.201C749.154 383.546 749.01 382.344 749.663 381.514L749.663 381.514Z" fill="#112150" fill-opacity="0.12"/>
<path d="M767.477 382.192C768.131 381.36 769.335 381.217 770.166 381.871C770.995 382.525 771.14 383.727 770.485 384.558C769.832 385.39 768.627 385.532 767.797 384.879C766.965 384.225 766.823 383.022 767.477 382.192Z" fill="#112150" fill-opacity="0.12"/>
<path d="M731.503 245.578C732.158 244.746 733.361 244.603 734.193 245.257C735.023 245.911 735.167 247.113 734.512 247.944C733.859 248.775 732.655 248.918 731.825 248.265C730.993 247.611 730.85 246.408 731.503 245.578Z" fill="#112150" fill-opacity="0.12"/>
<path d="M662.682 276.709C663.337 275.878 664.541 275.735 665.371 276.389C666.202 277.042 666.346 278.245 665.691 279.075C665.038 279.906 663.833 280.049 663.004 279.396C662.172 278.742 662.029 277.54 662.682 276.709V276.709Z" fill="#112150" fill-opacity="0.12"/>
<path d="M589.782 279.364C590.436 278.532 591.64 278.389 592.47 279.043C593.301 279.697 593.444 280.899 592.791 281.73C592.136 282.561 590.933 282.704 590.102 282.05C589.27 281.396 589.127 280.193 589.782 279.364Z" fill="#112150" fill-opacity="0.12"/>
<path d="M622.08 304.373C622.734 303.543 623.937 303.399 624.769 304.053C625.598 304.706 625.742 305.909 625.089 306.739C624.436 307.571 623.231 307.714 622.401 307.06C621.57 306.406 621.426 305.204 622.08 304.373Z" fill="#112150" fill-opacity="0.12"/>
<path d="M609.698 310.545C610.353 309.714 611.556 309.571 612.387 310.224C613.216 310.878 613.362 312.081 612.707 312.911C612.053 313.743 610.849 313.886 610.017 313.232C609.188 312.578 609.045 311.375 609.698 310.545Z" fill="#112150" fill-opacity="0.12"/>
<path d="M641.496 312.19C642.15 311.359 643.354 311.215 644.184 311.869C645.014 312.523 645.159 313.726 644.504 314.556C643.851 315.387 642.646 315.53 641.816 314.877C640.985 314.222 640.843 313.021 641.496 312.19H641.496Z" fill="#112150" fill-opacity="0.12"/>
<path d="M637.622 390.605C638.276 389.774 639.481 389.63 640.311 390.285C641.142 390.938 641.285 392.141 640.632 392.971C639.977 393.801 638.774 393.946 637.943 393.291C637.111 392.638 636.968 391.434 637.622 390.605H637.622Z" fill="#112150" fill-opacity="0.12"/>
<path d="M620.035 365.261C620.69 364.43 621.892 364.288 622.724 364.941C623.554 365.595 623.698 366.797 623.043 367.629C622.391 368.46 621.186 368.602 620.356 367.949C619.525 367.294 619.381 366.092 620.035 365.261V365.261Z" fill="#112150" fill-opacity="0.12"/>
<path d="M650.948 352.489C651.603 351.658 652.806 351.514 653.637 352.168C654.466 352.822 654.612 354.025 653.957 354.854C653.304 355.687 652.099 355.83 651.268 355.176C650.438 354.522 650.294 353.319 650.948 352.489H650.948Z" fill="#112150" fill-opacity="0.12"/>
<path d="M655.135 403.558C655.788 402.727 656.993 402.583 657.822 403.237C658.654 403.89 658.797 405.094 658.143 405.924C657.49 406.754 656.285 406.898 655.455 406.244C654.623 405.591 654.48 404.387 655.135 403.558H655.135Z" fill="#112150" fill-opacity="0.12"/>
</svg>
