<svg width="264" height="47" viewBox="0 0 264 47" fill="none" xmlns="http://www.w3.org/2000/svg">
<path d="M134.095 19.3302C134.829 19.3302 135.482 19.4662 136.053 19.7451C136.617 20.0239 137.093 20.4048 137.474 20.9012C137.855 21.3909 138.14 21.9554 138.331 22.6015C138.521 23.2408 138.616 23.9209 138.616 24.6418C138.616 25.6211 138.446 26.512 138.1 27.3214C137.753 28.1239 137.25 28.7632 136.583 29.2392C135.917 29.7153 135.087 29.9533 134.095 29.9533H130.395C130.185 29.9533 130.001 29.8785 129.851 29.7357C129.702 29.5929 129.627 29.4025 129.627 29.1848V20.1055C129.627 19.8811 129.702 19.6975 129.851 19.5546C130.001 19.405 130.185 19.337 130.395 19.337H134.095V19.3302ZM133.938 28.4911C134.652 28.4911 135.237 28.3143 135.679 27.9607C136.121 27.607 136.447 27.1377 136.658 26.5597C136.862 25.9748 136.971 25.3423 136.971 24.6418C136.971 24.1249 136.91 23.6352 136.794 23.1796C136.678 22.7239 136.495 22.309 136.25 21.9486C136.005 21.5881 135.692 21.3025 135.312 21.0985C134.931 20.8944 134.475 20.7856 133.938 20.7856H131.069L131.205 20.6496V28.6408L131.116 28.4911H133.938Z" fill="white"/>
<path d="M143.587 29.1779C143.574 29.4024 143.492 29.586 143.336 29.7288C143.179 29.8784 142.996 29.9465 142.785 29.9465C142.554 29.9465 142.363 29.8716 142.214 29.7288C142.064 29.586 141.996 29.3956 141.996 29.1779V20.1054C141.996 19.881 142.071 19.6974 142.22 19.5545C142.37 19.4049 142.567 19.3369 142.812 19.3369C143.016 19.3369 143.193 19.4117 143.349 19.5545C143.506 19.6974 143.587 19.8878 143.587 20.1054V29.1779V29.1779Z" fill="white"/>
<path d="M152.488 30.1026C151.72 30.1026 150.999 29.9665 150.333 29.6877C149.666 29.4089 149.082 29.0212 148.578 28.5179C148.075 28.0215 147.688 27.4366 147.402 26.7837C147.116 26.124 146.98 25.4099 146.98 24.6414C146.98 23.8729 147.123 23.1588 147.402 22.4991C147.688 21.8394 148.075 21.2613 148.578 20.7648C149.082 20.2615 149.66 19.8739 150.333 19.595C150.999 19.3162 151.72 19.1802 152.488 19.1802C152.985 19.1802 153.461 19.2346 153.93 19.3502C154.392 19.459 154.814 19.6222 155.188 19.8331C155.317 19.9011 155.412 19.9963 155.474 20.1119C155.535 20.2275 155.562 20.3431 155.562 20.452C155.562 20.6628 155.494 20.8464 155.358 21.0028C155.222 21.1593 155.052 21.2409 154.848 21.2409C154.78 21.2409 154.705 21.2341 154.63 21.2137C154.556 21.1933 154.488 21.1661 154.426 21.1389C154.141 20.996 153.842 20.8872 153.515 20.8124C153.189 20.7376 152.849 20.6968 152.482 20.6968C151.754 20.6968 151.094 20.8736 150.51 21.2205C149.925 21.5673 149.462 22.0434 149.122 22.6419C148.782 23.2404 148.612 23.9069 148.612 24.6414C148.612 25.3691 148.782 26.0356 149.122 26.6341C149.462 27.2325 149.925 27.7086 150.51 28.0623C151.094 28.4091 151.754 28.5859 152.482 28.5859C152.835 28.5859 153.209 28.5451 153.604 28.4567C153.998 28.3683 154.331 28.2595 154.603 28.1167L154.481 28.5247V25.6411L154.726 25.8519H152.74C152.516 25.8519 152.332 25.7839 152.189 25.6411C152.04 25.4983 151.972 25.3147 151.972 25.097C151.972 24.8794 152.046 24.689 152.189 24.553C152.339 24.4101 152.522 24.3421 152.74 24.3421H155.365C155.576 24.3421 155.759 24.4169 155.902 24.5598C156.045 24.7026 156.12 24.893 156.12 25.1106V28.4771C156.12 28.6403 156.079 28.7764 155.997 28.8852C155.916 28.994 155.827 29.0892 155.725 29.1572C155.27 29.4429 154.766 29.6673 154.216 29.8373C153.672 30.0141 153.094 30.1026 152.488 30.1026Z" fill="white"/>
<path d="M161.226 29.1779C161.212 29.4024 161.131 29.586 160.974 29.7288C160.818 29.8784 160.634 29.9465 160.424 29.9465C160.192 29.9465 160.002 29.8716 159.852 29.7288C159.703 29.586 159.635 29.3956 159.635 29.1779V20.1054C159.635 19.881 159.71 19.6974 159.859 19.5545C160.009 19.4049 160.206 19.3369 160.451 19.3369C160.655 19.3369 160.832 19.4117 160.988 19.5545C161.144 19.6974 161.226 19.8878 161.226 20.1054V29.1779V29.1779Z" fill="white"/>
<path d="M165.212 20.7923C165.001 20.7923 164.817 20.7243 164.668 20.5883C164.518 20.4523 164.443 20.2755 164.443 20.051C164.443 19.8402 164.518 19.6702 164.668 19.5341C164.817 19.4049 165.001 19.3369 165.212 19.3369H172.114C172.324 19.3369 172.508 19.4049 172.651 19.5409C172.8 19.677 172.868 19.8538 172.868 20.0646C172.868 20.2891 172.794 20.4659 172.651 20.5951C172.501 20.7243 172.324 20.7923 172.114 20.7923H165.212V20.7923ZM168.652 29.9533C168.408 29.9533 168.217 29.8784 168.068 29.7356C167.918 29.5928 167.85 29.4024 167.85 29.1847V20.0918H169.475V29.1779C169.475 29.4024 169.394 29.586 169.237 29.7288C169.081 29.8784 168.89 29.9533 168.652 29.9533Z" fill="white"/>
<path d="M179.13 21.3024L175.716 29.4908C175.655 29.654 175.567 29.7764 175.444 29.8717C175.322 29.9601 175.186 30.0077 175.036 30.0077C174.812 30.0077 174.649 29.9465 174.533 29.8173C174.424 29.6948 174.363 29.5316 174.35 29.3412C174.35 29.2732 174.363 29.1916 174.397 29.0963L178.246 19.7858C178.314 19.6158 178.423 19.4797 178.559 19.3913C178.695 19.3029 178.844 19.2621 179.008 19.2689C179.157 19.2689 179.3 19.3165 179.429 19.4049C179.558 19.4934 179.654 19.6226 179.715 19.7858L183.523 28.9603C183.564 29.0623 183.584 29.1644 183.584 29.2664C183.584 29.4908 183.509 29.6676 183.366 29.8036C183.217 29.9397 183.054 30.0077 182.87 30.0077C182.72 30.0077 182.578 29.9601 182.455 29.8649C182.326 29.7696 182.238 29.6472 182.176 29.4908L178.736 21.3432L179.13 21.3024ZM176.328 27.3417L177.008 25.8863H181.299L181.558 27.3417H176.328Z" fill="white"/>
<path d="M192.465 28.4638C192.676 28.4638 192.859 28.5318 193.002 28.6747C193.145 28.8175 193.22 28.9943 193.22 29.2051C193.22 29.416 193.145 29.5928 193.002 29.7356C192.853 29.8784 192.676 29.9465 192.465 29.9465H187.372C187.148 29.9465 186.964 29.8716 186.821 29.7288C186.671 29.586 186.604 29.3956 186.604 29.1779V20.1054C186.604 19.881 186.678 19.6974 186.828 19.5545C186.978 19.4049 187.175 19.3369 187.419 19.3369C187.623 19.3369 187.8 19.4117 187.957 19.5545C188.113 19.6974 188.195 19.8878 188.195 20.1054V28.7223L187.875 28.4638H192.465Z" fill="white"/>
<path d="M203.033 19.3301C203.237 19.3301 203.414 19.4049 203.57 19.5477C203.726 19.6905 203.808 19.881 203.808 20.0986V29.1711C203.794 29.3955 203.713 29.5792 203.556 29.722C203.4 29.8716 203.216 29.9396 203.006 29.9396C202.774 29.9396 202.584 29.8648 202.434 29.722C202.285 29.5792 202.217 29.3887 202.217 29.1711V20.1054C202.217 19.881 202.292 19.6973 202.441 19.5545C202.598 19.4049 202.795 19.3301 203.033 19.3301ZM202.972 23.8527H209.887L209.874 25.3081H202.958L202.972 23.8527ZM209.874 19.3301C210.118 19.3301 210.309 19.4049 210.452 19.5477C210.594 19.6905 210.662 19.881 210.662 20.0986V29.1711C210.662 29.3955 210.588 29.5792 210.445 29.722C210.295 29.8716 210.105 29.9396 209.86 29.9396C209.649 29.9396 209.466 29.8648 209.316 29.722C209.166 29.5792 209.092 29.3887 209.092 29.1711V20.1054C209.092 19.881 209.173 19.6973 209.33 19.5545C209.479 19.4049 209.663 19.3301 209.874 19.3301Z" fill="white"/>
<path d="M215.408 19.3301H220.658C220.868 19.3301 221.052 19.3981 221.195 19.5409C221.338 19.6837 221.412 19.8606 221.412 20.0714C221.412 20.2822 221.338 20.4522 221.195 20.5883C221.045 20.7175 220.868 20.7855 220.658 20.7855H216.074L216.224 20.5271V23.9275L216.088 23.7779H219.971C220.182 23.7779 220.365 23.8459 220.508 23.9888C220.658 24.1316 220.726 24.3084 220.726 24.5328C220.726 24.7437 220.651 24.9205 220.508 25.0497C220.358 25.1789 220.182 25.2469 219.971 25.2469H216.122L216.231 25.1109V28.6134L216.122 28.491H220.658C220.868 28.491 221.052 28.5658 221.195 28.7086C221.338 28.8583 221.412 29.0215 221.412 29.2187C221.412 29.4295 221.338 29.6064 221.195 29.7424C221.045 29.8784 220.868 29.9464 220.658 29.9464H215.408C215.197 29.9464 215.014 29.8716 214.864 29.7288C214.714 29.586 214.64 29.3955 214.64 29.1779V20.1054C214.64 19.881 214.714 19.6973 214.864 19.5545C215.014 19.4049 215.197 19.3301 215.408 19.3301Z" fill="white"/>
<path d="M228.601 21.3024L225.187 29.4908C225.126 29.654 225.038 29.7764 224.915 29.8717C224.793 29.9601 224.657 30.0077 224.507 30.0077C224.283 30.0077 224.12 29.9465 224.004 29.8173C223.895 29.6948 223.834 29.5316 223.82 29.3412C223.82 29.2732 223.834 29.1916 223.868 29.0963L227.717 19.7858C227.785 19.6158 227.893 19.4797 228.029 19.3913C228.165 19.3029 228.315 19.2621 228.478 19.2689C228.628 19.2689 228.771 19.3165 228.9 19.4049C229.029 19.4934 229.124 19.6226 229.185 19.7858L232.993 28.9603C233.034 29.0623 233.055 29.1644 233.055 29.2664C233.055 29.4908 232.98 29.6676 232.837 29.8036C232.687 29.9397 232.524 30.0077 232.341 30.0077C232.191 30.0077 232.048 29.9601 231.926 29.8649C231.797 29.7696 231.708 29.6472 231.647 29.4908L228.206 21.3432L228.601 21.3024ZM225.799 27.3417L226.479 25.8863H230.77L231.028 27.3417H225.799Z" fill="white"/>
<path d="M241.935 28.4638C242.146 28.4638 242.329 28.5318 242.472 28.6747C242.615 28.8175 242.69 28.9943 242.69 29.2051C242.69 29.416 242.615 29.5928 242.472 29.7356C242.322 29.8784 242.146 29.9465 241.935 29.9465H236.842C236.617 29.9465 236.434 29.8716 236.291 29.7288C236.141 29.586 236.073 29.3956 236.073 29.1779V20.1054C236.073 19.881 236.148 19.6974 236.298 19.5545C236.447 19.4049 236.644 19.3369 236.889 19.3369C237.093 19.3369 237.27 19.4117 237.426 19.5545C237.583 19.6974 237.664 19.8878 237.664 20.1054V28.7223L237.345 28.4638H241.935Z" fill="white"/>
<path d="M244.661 20.7923C244.45 20.7923 244.267 20.7243 244.117 20.5883C243.967 20.4523 243.893 20.2755 243.893 20.051C243.893 19.8402 243.967 19.6702 244.117 19.5341C244.267 19.4049 244.45 19.3369 244.661 19.3369H251.563C251.774 19.3369 251.957 19.4049 252.1 19.5409C252.25 19.677 252.318 19.8538 252.318 20.0646C252.318 20.2891 252.243 20.4659 252.1 20.5951C251.95 20.7243 251.774 20.7923 251.563 20.7923H244.661V20.7923ZM248.109 29.9533C247.864 29.9533 247.673 29.8784 247.524 29.7356C247.374 29.5928 247.306 29.4024 247.306 29.1847V20.0918H248.931V29.1779C248.931 29.4024 248.85 29.586 248.693 29.7288C248.53 29.8784 248.34 29.9533 248.109 29.9533Z" fill="white"/>
<path d="M256.371 19.3302C256.575 19.3302 256.751 19.405 256.908 19.5478C257.064 19.6907 257.146 19.8811 257.146 20.0987V29.1712C257.132 29.3957 257.051 29.5793 256.894 29.7221C256.738 29.8717 256.554 29.9397 256.343 29.9397C256.112 29.9397 255.922 29.8649 255.772 29.7221C255.623 29.5793 255.555 29.3889 255.555 29.1712V20.1055C255.555 19.8811 255.629 19.6975 255.779 19.5546C255.929 19.405 256.126 19.3302 256.371 19.3302ZM256.309 23.8529H263.225L263.211 25.3083H256.296L256.309 23.8529ZM263.211 19.3302C263.456 19.3302 263.647 19.405 263.789 19.5478C263.932 19.6907 264 19.8811 264 20.0987V29.1712C264 29.3957 263.925 29.5793 263.783 29.7221C263.633 29.8717 263.443 29.9397 263.198 29.9397C262.987 29.9397 262.803 29.8649 262.654 29.7221C262.504 29.5793 262.429 29.3889 262.429 29.1712V20.1055C262.429 19.8811 262.511 19.6975 262.667 19.5546C262.817 19.405 263.001 19.3302 263.211 19.3302Z" fill="white"/>
<path d="M135.488 44.6435C135.699 44.6435 135.883 44.7115 136.026 44.8544C136.168 44.9972 136.243 45.174 136.243 45.3848C136.243 45.5957 136.168 45.7725 136.026 45.9153C135.876 46.0581 135.699 46.1261 135.488 46.1261H130.395C130.171 46.1261 129.987 46.0513 129.845 45.9085C129.695 45.7657 129.627 45.5753 129.627 45.3576V36.2851C129.627 36.0607 129.702 35.8771 129.851 35.7342C130.001 35.5846 130.198 35.5166 130.443 35.5166C130.647 35.5166 130.824 35.5914 130.98 35.7342C131.137 35.8771 131.218 36.0675 131.218 36.2851V44.902L130.899 44.6435H135.488V44.6435Z" fill="white"/>
<path d="M140.282 35.5095H145.532C145.742 35.5095 145.926 35.5775 146.069 35.7204C146.212 35.8632 146.286 36.04 146.286 36.2508C146.286 36.4617 146.212 36.6317 146.069 36.7677C145.919 36.8969 145.742 36.9649 145.532 36.9649H140.948L141.098 36.7065V40.107L140.962 39.9574H144.845C145.056 39.9574 145.239 40.0254 145.382 40.1682C145.532 40.311 145.6 40.4878 145.6 40.7123C145.6 40.9231 145.525 41.0999 145.382 41.2292C145.232 41.3584 145.056 41.4264 144.845 41.4264H140.996L141.105 41.2904V44.7929L140.996 44.6705H145.532C145.742 44.6705 145.926 44.7453 146.069 44.8881C146.212 45.0377 146.286 45.2009 146.286 45.3982C146.286 45.609 146.212 45.7858 146.069 45.9218C145.919 46.0579 145.742 46.1259 145.532 46.1259H140.282C140.071 46.1259 139.888 46.0511 139.738 45.9082C139.588 45.7654 139.514 45.575 139.514 45.3574V36.2848C139.514 36.0604 139.588 35.8768 139.738 35.734C139.888 35.5843 140.064 35.5095 140.282 35.5095Z" fill="white"/>
<path d="M153.475 37.4819L150.061 45.6702C150 45.8335 149.912 45.9559 149.789 46.0511C149.667 46.1395 149.531 46.1871 149.381 46.1871C149.157 46.1871 148.994 46.1259 148.878 45.9967C148.769 45.8743 148.708 45.711 148.694 45.5206C148.694 45.4526 148.708 45.371 148.742 45.2758L152.591 35.9652C152.659 35.7952 152.767 35.6592 152.903 35.5708C153.039 35.4824 153.189 35.4416 153.352 35.4484C153.502 35.4484 153.645 35.496 153.774 35.5844C153.903 35.6728 153.998 35.802 154.059 35.9652L157.867 45.1398C157.908 45.2418 157.929 45.3438 157.929 45.4458C157.929 45.6702 157.854 45.8471 157.711 45.9831C157.561 46.1191 157.398 46.1871 157.215 46.1871C157.065 46.1871 156.922 46.1395 156.8 46.0443C156.671 45.9491 156.582 45.8267 156.521 45.6702L153.08 37.5227L153.475 37.4819ZM150.666 43.5211L151.346 42.0657H155.637L155.895 43.5211H150.666Z" fill="white"/>
<path d="M165.409 35.5095C166.143 35.5095 166.796 35.6455 167.367 35.9244C167.932 36.2032 168.408 36.5841 168.789 37.0806C169.169 37.5702 169.455 38.1347 169.645 38.7808C169.836 39.4201 169.931 40.1002 169.931 40.8211C169.931 41.8004 169.761 42.6914 169.414 43.5007C169.067 44.3032 168.564 44.9425 167.898 45.4186C167.231 45.8946 166.402 46.1327 165.409 46.1327H161.71C161.499 46.1327 161.315 46.0579 161.166 45.915C161.016 45.7722 160.941 45.5818 160.941 45.3642V36.2848C160.941 36.0604 161.016 35.8768 161.166 35.734C161.315 35.5843 161.499 35.5163 161.71 35.5163H165.409V35.5095ZM165.259 44.6705C165.973 44.6705 166.558 44.4936 167 44.14C167.442 43.7863 167.769 43.3171 167.979 42.739C168.183 42.1541 168.292 41.5216 168.292 40.8211C168.292 40.3042 168.231 39.8145 168.115 39.3589C168 38.8964 167.816 38.4884 167.571 38.1279C167.327 37.7675 167.014 37.4818 166.633 37.2778C166.252 37.0738 165.797 36.9649 165.259 36.9649H162.39L162.526 36.8289V44.8269L162.437 44.6773H165.259V44.6705Z" fill="white"/>
<path d="M174.085 35.5096H179.334C179.545 35.5096 179.729 35.5777 179.872 35.7205C180.014 35.8633 180.089 36.0401 180.089 36.251C180.089 36.4618 180.014 36.6318 179.872 36.7678C179.722 36.897 179.545 36.9651 179.334 36.9651H174.751L174.901 36.7066V40.1071L174.765 39.9575H178.648C178.858 39.9575 179.042 40.0255 179.185 40.1683C179.334 40.3111 179.402 40.488 179.402 40.7124C179.402 40.9232 179.328 41.1001 179.185 41.2293C179.035 41.3585 178.858 41.4265 178.648 41.4265H174.799L174.908 41.2905V44.793L174.799 44.6706H179.334C179.545 44.6706 179.729 44.7454 179.872 44.8882C180.014 45.0378 180.089 45.201 180.089 45.3983C180.089 45.6091 180.014 45.7859 179.872 45.922C179.722 46.058 179.545 46.126 179.334 46.126H174.085C173.874 46.126 173.69 46.0512 173.541 45.9084C173.391 45.7655 173.316 45.5751 173.316 45.3575V36.285C173.316 36.0605 173.391 35.8769 173.541 35.7341C173.69 35.5845 173.874 35.5096 174.085 35.5096Z" fill="white"/>
<path d="M184.394 46.1329C184.149 46.1329 183.938 46.0581 183.754 45.9153C183.571 45.7725 183.482 45.5821 183.482 45.3644V36.2851C183.482 36.0607 183.557 35.8771 183.707 35.7342C183.856 35.5846 184.04 35.5166 184.251 35.5166H188.528C189.072 35.5166 189.575 35.6526 190.031 35.9179C190.486 36.1831 190.854 36.5572 191.132 37.0264C191.411 37.4957 191.547 38.033 191.547 38.6451C191.547 39.0531 191.466 39.434 191.302 39.808C191.139 40.1753 190.922 40.5017 190.65 40.7874C190.378 41.073 190.065 41.2838 189.725 41.4267L189.555 41.141C189.868 41.2498 190.14 41.4131 190.371 41.6171C190.602 41.8211 190.786 42.066 190.922 42.3448C191.058 42.6236 191.132 42.9365 191.139 43.2901C191.166 43.603 191.194 43.8682 191.221 44.0722C191.248 44.2763 191.282 44.4463 191.336 44.5823C191.384 44.7115 191.479 44.8135 191.608 44.8884C191.792 44.9904 191.901 45.14 191.948 45.344C191.996 45.5481 191.948 45.7249 191.819 45.8881C191.731 46.0105 191.615 46.0853 191.479 46.1261C191.343 46.1601 191.2 46.1669 191.064 46.1397C190.922 46.1125 190.799 46.0785 190.697 46.0241C190.534 45.9221 190.371 45.7793 190.201 45.5889C190.031 45.4052 189.902 45.14 189.8 44.8068C189.698 44.4735 189.65 44.0314 189.65 43.4874C189.65 43.2357 189.609 43.0181 189.528 42.8345C189.446 42.6508 189.337 42.5012 189.194 42.3856C189.052 42.27 188.888 42.1816 188.691 42.1272C188.501 42.0728 188.283 42.0455 188.052 42.0455H184.836L185.046 41.7395V45.3644C185.046 45.5889 184.985 45.7725 184.863 45.9153C184.774 46.0581 184.611 46.1329 184.394 46.1329ZM184.883 40.7126H188.508C188.739 40.7058 188.963 40.6105 189.181 40.4337C189.398 40.2569 189.575 40.0189 189.711 39.7128C189.847 39.4068 189.915 39.0667 189.915 38.6791C189.915 38.1962 189.772 37.7881 189.48 37.4617C189.194 37.1352 188.848 36.972 188.453 36.972H184.904L185.074 36.5776V41.039L184.883 40.7126Z" fill="white"/>
<path d="M198.592 46.2825C197.864 46.2825 197.218 46.1804 196.654 45.9764C196.089 45.7724 195.545 45.4391 195.029 44.9767C194.92 44.8951 194.831 44.7998 194.777 44.6774C194.723 44.5618 194.695 44.4394 194.695 44.3238C194.695 44.1333 194.763 43.9633 194.906 43.8069C195.049 43.6573 195.226 43.5825 195.437 43.5825C195.6 43.5825 195.749 43.6369 195.892 43.7457C196.273 44.0993 196.681 44.3646 197.096 44.5482C197.517 44.7318 198.007 44.8202 198.571 44.8202C198.972 44.8202 199.346 44.7522 199.686 44.623C200.026 44.4938 200.298 44.317 200.496 44.0925C200.7 43.8681 200.802 43.6097 200.802 43.3172C200.802 42.9568 200.7 42.6507 200.489 42.4127C200.285 42.1747 199.986 41.9774 199.591 41.821C199.204 41.6646 198.734 41.5286 198.19 41.4197C197.687 41.3313 197.232 41.2021 196.83 41.0389C196.429 40.8757 196.089 40.6716 195.804 40.4268C195.518 40.182 195.3 39.8827 195.151 39.5427C195.001 39.1958 194.927 38.8014 194.927 38.3457C194.927 37.7268 195.09 37.1963 195.409 36.7543C195.736 36.3122 196.171 35.9654 196.728 35.7205C197.286 35.4757 197.912 35.3533 198.612 35.3533C199.251 35.3533 199.843 35.4553 200.4 35.6525C200.958 35.8497 201.407 36.115 201.747 36.4482C201.992 36.6591 202.114 36.8903 202.114 37.1283C202.114 37.312 202.039 37.482 201.896 37.6384C201.747 37.7948 201.584 37.8764 201.386 37.8764C201.244 37.8764 201.121 37.8356 201.019 37.754C200.856 37.584 200.638 37.4276 200.366 37.2916C200.094 37.1555 199.802 37.0399 199.496 36.9515C199.19 36.8631 198.891 36.8155 198.612 36.8155C198.156 36.8155 197.769 36.8767 197.442 37.0059C197.116 37.1351 196.871 37.3052 196.701 37.5228C196.531 37.7404 196.443 37.9989 196.443 38.2913C196.443 38.6381 196.538 38.917 196.735 39.1414C196.932 39.3659 197.204 39.5427 197.565 39.6787C197.918 39.8147 198.326 39.9371 198.775 40.0528C199.333 40.1752 199.829 40.3112 200.271 40.4608C200.713 40.6104 201.08 40.8077 201.386 41.0457C201.692 41.2837 201.924 41.5762 202.087 41.9298C202.25 42.2835 202.332 42.7255 202.332 43.2492C202.332 43.8545 202.162 44.385 201.815 44.8406C201.468 45.2963 201.019 45.65 200.455 45.9016C199.904 46.1532 199.278 46.2825 198.592 46.2825Z" fill="white"/>
<path d="M37.1007 26.8585C34.9111 19.0169 44.0774 12.6512 49.9049 9.71997C55.9909 6.65953 66.422 4.12276 72.1271 9.17589C75.5747 12.2363 73.0927 16.6638 70.6175 19.4046C70.9031 19.391 71.1955 19.3774 71.5083 19.3502C71.9503 18.8265 72.3855 18.2824 72.7867 17.6975C74.2827 15.5416 75.0239 12.8076 74.1467 10.2572C73.0587 7.10159 69.1419 6.03384 66.2112 5.57137C58.5001 4.35399 50.2177 7.91771 44.1182 12.386C39.6507 15.6572 35.2579 20.9756 36.1895 26.9061C36.4547 28.5723 37.1279 29.9461 38.0867 31.0819H39.7459C38.5219 29.9937 37.5835 28.6063 37.1007 26.8585Z" fill="url(#paint0_linear_977_6571)"/>
<path d="M59.8799 26.5857C62.3143 25.8445 64.6194 24.8585 66.7138 23.519C66.6934 23.2334 66.6594 22.9818 66.6118 22.7642C64.5378 24.0765 62.2735 24.9945 59.8935 25.6609C59.8867 25.9601 59.8799 26.2729 59.8799 26.5857Z" fill="url(#paint1_linear_977_6571)"/>
<path d="M55.0178 27.7354C55.0246 27.7354 55.0314 27.7354 55.0382 27.7286C54.9974 27.613 54.9498 27.511 54.8886 27.4226C54.841 27.613 54.8682 27.7626 55.0178 27.7354Z" fill="url(#paint2_linear_977_6571)"/>
<path d="M68.9104 16.4127C70.6307 12.1689 68.2916 9.78172 64.1572 8.93839C60.3833 8.16988 55.9157 9.34645 52.5225 11.0399C52.2913 11.1555 52.0329 11.9308 52.3457 11.7676C54.8005 10.5366 57.5681 9.80892 60.2881 9.55048C64.6468 9.13562 70.6987 10.8495 68.448 16.3991C68.2372 16.9296 68.7608 16.7799 68.9104 16.4127Z" fill="url(#paint3_linear_977_6571)"/>
<path d="M41.7645 33.2174H40.6221C41.4449 33.7138 42.3424 34.1218 43.2808 34.455V34.3802C43.2876 33.2582 43.2876 33.2174 41.7645 33.2174Z" fill="url(#paint4_linear_977_6571)"/>
<path d="M59.8663 33.3602C58.3159 33.7682 56.7383 34.1014 55.1676 34.3258C54.2836 34.455 53.4064 34.5434 52.536 34.591C51.244 34.659 49.85 34.6318 48.4492 34.4822V35.5702C49.3536 35.6586 50.2376 35.6994 51.0808 35.6994C52.4408 35.6926 53.8076 35.5566 55.1743 35.339C56.7519 35.0874 58.3295 34.7202 59.8731 34.3054C60.9951 34.0062 62.1035 33.6798 63.1847 33.3466C64.3271 32.9998 65.4218 32.5986 66.4894 32.1294C66.503 31.8167 66.5234 31.4971 66.537 31.1707C65.823 31.4835 65.0886 31.7622 64.3339 32.0206C62.8923 32.4966 61.3895 32.959 59.8663 33.3602Z" fill="url(#paint5_linear_977_6571)"/>
<path d="M69.4141 29.6398C69.1829 29.7894 68.9517 29.9254 68.7137 30.0613C68.7001 30.3741 68.6933 30.6801 68.6797 30.9929C68.9041 30.8637 69.1285 30.7277 69.3529 30.5849C69.6793 30.3809 69.9853 29.2794 69.4141 29.6398Z" fill="url(#paint6_linear_977_6571)"/>
<path d="M80.5784 6.38088C78.6404 3.11641 75.1792 1.38216 71.6024 0.552436C67.0941 -0.494916 62.4157 0.110372 57.9482 1.0149C52.7802 2.05545 47.0751 4.38139 43.1923 8.08793C42.5395 8.70682 42.322 10.8219 43.4915 9.70656C48.1223 5.29272 55.1194 3.33404 61.287 2.51792C67.2165 1.72901 77.1988 2.33429 79.5176 9.20329C81.068 13.794 78.4092 17.9902 74.8324 21.2682C74.5876 21.4927 74.3428 21.7035 74.0912 21.9211C74.0368 21.9687 73.9824 22.0163 73.9212 22.064C73.5132 22.4108 73.0984 22.7372 72.6768 23.0569C71.1265 24.2335 69.5353 25.2468 68.1141 26.0493C67.6721 26.2942 67.1961 26.5458 66.6929 26.7974C66.6861 26.8042 66.6793 26.8042 66.6725 26.811C66.5909 26.8518 66.5161 26.8859 66.4345 26.9267C66.2441 27.0219 66.0469 27.1103 65.8497 27.2055C65.7749 27.2395 65.7069 27.2735 65.6321 27.3075C65.3669 27.4299 65.0949 27.5455 64.8161 27.668C63.2997 28.3141 61.6202 28.9057 59.8726 29.3818C58.3358 29.7967 56.7514 30.1163 55.1738 30.2931C52.8346 30.5516 50.5227 30.4904 48.4555 29.9327V32.3947C50.5771 32.7891 52.8754 32.7347 55.1738 32.4014C56.765 32.1702 58.3494 31.803 59.8726 31.3609C61.7154 30.8236 63.4561 30.1639 64.9997 29.4838C65.0473 29.4634 65.0949 29.4362 65.1425 29.4158C65.3601 29.3206 65.5709 29.2254 65.7749 29.1302C65.8565 29.0894 65.9449 29.0486 66.0265 29.0146C66.2305 28.9193 66.4345 28.8173 66.6317 28.7221C66.6725 28.7017 66.7201 28.6813 66.7609 28.6609C67.4545 28.3141 68.1481 27.9332 68.8349 27.5387C68.9097 27.4979 68.9913 27.4503 69.0661 27.4095C69.1545 27.3551 69.2429 27.3007 69.3381 27.2463C70.6981 26.4302 72.0104 25.5257 73.248 24.5259C73.248 24.5259 73.248 24.5259 73.248 24.5327C73.3024 24.4919 73.35 24.4443 73.3976 24.4035C73.554 24.2743 73.7036 24.1451 73.86 24.0158C74.0368 23.8594 74.2204 23.7098 74.3972 23.5466C74.5536 23.4037 74.71 23.2677 74.8596 23.1249C75.0228 22.9685 75.186 22.8121 75.3492 22.6556C75.4376 22.574 75.526 22.4924 75.6076 22.404L75.6008 22.3972C77.8176 20.1597 79.6264 17.5481 80.7008 14.5557C81.5983 12.0529 81.9995 8.76803 80.5784 6.38088Z" fill="url(#paint7_linear_977_6571)"/>
<path d="M42.7169 21.3901C42.4585 21.1385 42.0777 21.0229 41.5337 20.9141C40.2009 24.1241 40.2689 27.5926 43.2813 30.0886C43.2813 30.0274 43.2813 29.9594 43.2813 29.8914V26.7085C42.0573 25.0831 42.0641 23.1856 42.7169 21.3901Z" fill="url(#paint8_linear_977_6571)"/>
<path d="M47.1228 13.9845C45.2936 15.2767 43.5052 17.2218 42.2812 19.3913C42.764 19.4049 43.24 19.4185 43.7092 19.4253C44.6136 18.0107 45.8308 16.7729 47.0072 15.9432C47.6328 15.4943 48.2516 13.1888 47.1228 13.9845Z" fill="url(#paint9_linear_977_6571)"/>
<path d="M59.8666 31.3472V33.3603C58.3162 33.7683 56.7386 34.1016 55.1678 34.326V32.3945C56.759 32.1565 58.3434 31.796 59.8666 31.3472ZM55.1678 35.6454C55.1678 38.4542 55.025 44.4187 53.835 44.5751L53.1482 44.6567C52.8558 44.9015 52.8558 45.8197 53.1822 46.0645C54.3722 45.9829 55.8886 45.9421 57.5138 45.9421C59.173 45.9421 60.5874 45.9829 61.8521 46.0645C62.1785 45.8197 62.1785 44.9015 61.8862 44.6567L61.1994 44.5751C60.0094 44.4187 59.8598 38.4542 59.8598 35.6454V34.2988C58.3162 34.7137 56.7454 35.0809 55.161 35.3325V35.6454H55.1678ZM57.6158 15.1948C56.1946 15.1948 54.9366 16.3646 54.9366 18.092C54.9366 19.7107 55.8818 20.9145 57.4458 20.9145C58.799 20.9145 60.125 19.9351 60.125 18.0172C60.125 16.4394 59.105 15.1948 57.6158 15.1948ZM115.286 39.4403C113.3 43.9766 112.07 44.099 108.928 44.099C106.29 44.099 105.603 43.7794 105.134 43.0517C104.698 42.3716 104.556 41.0862 104.556 39.2363V34.462C104.556 33.2582 104.59 33.2174 105.569 33.2174H108.064C109.941 33.2174 110.336 33.5371 110.737 35.4686L110.92 36.4683C111.172 36.8288 112.076 36.788 112.253 36.4275C112.178 35.1421 112.144 33.7003 112.144 32.1701C112.144 30.6467 112.178 29.1981 112.253 27.9127C112.07 27.5522 111.165 27.5522 110.92 27.8719L110.737 28.8716C110.336 30.7963 109.941 31.0819 108.064 31.0819H105.569C104.596 31.0819 104.556 31.0003 104.556 29.8782V22.8595C104.556 21.3701 104.556 21.2953 105.746 21.2953H108.642C110.41 21.2953 111.498 21.7782 112.178 22.5399C112.648 23.1044 113.158 24.3081 113.552 25.7091C113.912 26.0696 114.749 25.988 114.892 25.5527C114.708 22.8663 114.456 19.9691 114.422 19.3298C113.953 19.4114 111.893 19.4522 109.581 19.4522H101.917C100.183 19.4522 98.4086 19.4114 96.7154 19.3298C96.355 19.5747 96.321 20.4928 96.6406 20.7308L97.545 20.9349C99.1701 21.2545 99.3877 21.5333 99.3877 25.1923V40.168C99.3877 43.861 99.1701 44.1466 97.545 44.3847L95.845 44.6635C95.5594 44.8675 95.5594 45.8265 95.845 46.0713C98.5582 45.9897 100.326 45.9489 102.06 45.9489H106.759C109.724 45.9489 113.192 45.9897 115.102 46.0713C115.606 44.9899 116.476 41.7323 116.619 39.6444C116.476 39.1615 115.578 38.9983 115.286 39.4403ZM21.6442 38.5154C20.665 41.2426 18.6454 44.7383 14.273 44.7383C9.9347 44.7383 5.78674 40.4401 5.78674 32.4557C5.78674 24.4646 10.0843 20.6492 14.0963 20.6492C17.605 20.6492 19.917 22.6555 20.8894 26.3892C21.141 26.7497 22.1134 26.5865 22.263 26.1104C21.9366 23.7845 21.8278 20.5676 21.8278 19.8467C20.7398 19.7719 18.0674 18.7993 14.3818 18.7993C10.6283 18.7993 6.94273 20.0031 4.37235 22.3767C1.87678 24.6618 0 28.1167 0 33.0134C0 37.9917 1.98558 41.3242 4.58995 43.5345C7.15352 45.6632 10.7643 46.5882 14.307 46.5882C17.1222 46.5882 19.6926 45.704 21.6442 45.1056C22.1474 44.1806 22.7594 41.7731 23.0178 38.801C22.8002 38.3114 21.9298 38.1958 21.6442 38.5154ZM68.3597 19.4454C66.5917 19.4454 65.0413 19.4046 63.8105 19.323C63.4093 19.4454 63.4093 20.4044 63.7017 20.724L64.4973 20.8872C65.6125 21.1661 66.3401 21.5469 66.6121 22.7575C66.6597 22.9819 66.6937 23.2336 66.7141 23.5124C66.7277 23.6825 66.7345 23.8593 66.7345 24.0565C66.7345 24.8454 66.7209 25.784 66.6937 26.7837C67.1969 26.5321 67.6729 26.2872 68.1149 26.0356C69.5361 25.2331 71.1272 24.2197 72.6776 23.0432C72.1948 21.7102 71.9024 20.52 71.9024 19.323C71.7664 19.3366 71.6304 19.3434 71.5012 19.357C71.1953 19.3774 70.9028 19.3978 70.6105 19.4114C69.8489 19.4454 69.1349 19.4454 68.3597 19.4454ZM93.3562 20.9281L94.4034 20.724C94.6958 20.3228 94.6958 19.5611 94.2946 19.323C92.9958 19.4046 91.3298 19.4454 90.1398 19.4454C89.0587 19.4454 87.9367 19.4862 86.2775 19.323C85.4819 22.7779 84.7203 24.6618 82.9523 28.7968L81.1095 33.2174C80.1371 35.5842 79.5524 36.8288 79.09 37.7945C78.5868 36.788 77.4988 34.5028 77.1384 33.7003L74.7516 28.0419C74.194 26.7225 73.684 25.5731 73.2488 24.519C73.2488 24.519 73.2488 24.519 73.2488 24.5122C72.0112 25.5119 70.6989 26.4232 69.3389 27.2326C71.474 32.6121 75.384 41.569 76.71 46.2617C76.9276 46.425 77.322 46.4998 77.6484 46.4998C77.934 46.4998 78.1924 46.3773 78.3692 46.2209C80.7559 39.4335 83.6459 32.7346 86.3183 26.3076H86.3863V30.8847L86.4611 41.3242C86.4611 43.7726 86.4611 44.133 84.8019 44.4935L83.7207 44.6499C83.3603 44.9355 83.3943 45.8537 83.8295 46.0577C85.5635 45.9761 87.5559 45.9353 89.1743 45.9353C90.949 45.9353 92.4994 45.9761 94.1586 46.0577C94.519 45.8945 94.519 44.9763 94.2334 44.6499L93.0774 44.4935C91.6698 44.2486 91.5202 43.3305 91.4522 41.4806C91.2346 36.4207 91.1666 32.0885 91.1666 23.8185C91.153 21.6898 91.8806 21.2477 93.3562 20.9281ZM66.7617 28.6472C66.7209 28.6676 66.6733 28.688 66.6325 28.7084C66.6053 29.5313 66.5713 30.361 66.5305 31.1635C66.5169 31.49 66.4965 31.8096 66.4829 32.1225C66.4829 32.1361 66.4829 32.1565 66.4829 32.1701C66.2653 35.9854 66.0817 39.4811 65.9049 41.4466C65.6873 43.9358 65.5785 44.1398 63.7357 44.5411L63.0829 44.6635C62.7565 44.8675 62.7565 45.9081 63.2257 46.0713C64.6741 45.9897 66.1497 45.9489 67.3125 45.9489C68.6861 45.9489 70.2365 45.9897 71.576 46.0713C71.8684 45.8673 71.9364 44.9491 71.6508 44.6635L70.2433 44.4255C68.8017 44.1466 68.5841 43.6229 68.5841 41.6167C68.5841 39.2091 68.6181 35.1965 68.6589 32.5849C68.6657 32.0341 68.6793 31.5172 68.6929 31.0071C68.6997 30.6943 68.7133 30.3882 68.7269 30.0754C68.7541 29.2933 68.7949 28.4772 68.8425 27.5386C68.1557 27.9195 67.4621 28.2935 66.7617 28.6472ZM48.4495 25.2263C48.4495 21.4925 48.6671 21.2137 50.3263 20.8464L51.0471 20.724C51.3327 20.486 51.3327 19.5611 51.0471 19.323C49.3879 19.4046 47.7219 19.4454 45.9539 19.4454C45.2195 19.4454 44.4715 19.4386 43.7099 19.425C43.2407 19.4182 42.7715 19.4046 42.282 19.391C41.6904 19.3706 41.092 19.357 40.4664 19.3298C40.1808 19.5747 40.1808 20.4928 40.4664 20.7308L41.4388 20.894C41.4728 20.9008 41.5068 20.9077 41.5408 20.9145C42.0848 21.0233 42.4587 21.1389 42.7239 21.3905C43.2135 21.8666 43.2883 22.8391 43.2883 25.2263V29.885C43.2883 29.953 43.2883 30.021 43.2883 30.0822C43.2815 31.0479 43.1999 31.0887 41.7652 31.0887H34.2512C32.7689 31.0887 32.7349 31.0479 32.7349 29.885V25.2263C32.7349 21.4925 32.9525 21.2137 34.5028 20.8464L35.2576 20.724C35.55 20.486 35.55 19.5611 35.2576 19.323C33.6664 19.4046 31.8645 19.4454 30.2325 19.4454C28.4985 19.4454 26.6217 19.4046 24.8469 19.323C24.5613 19.5679 24.5613 20.486 24.8469 20.724L25.7173 20.8464C27.3425 21.2069 27.5601 21.4857 27.5601 25.2263V40.1612C27.5601 43.895 27.3425 44.1738 25.7173 44.5343L24.8469 44.6567C24.5613 44.9015 24.5613 45.8197 24.8469 46.0645C26.6897 45.9829 28.4985 45.9421 30.2325 45.9421C31.8577 45.9421 33.6664 45.9829 35.7268 46.0645C36.0124 45.8197 36.0124 44.9015 35.7268 44.6567L34.5708 44.5003C32.9456 44.1806 32.7281 43.895 32.7281 40.1612V34.3804C32.7281 33.2582 32.7621 33.2174 34.2444 33.2174H41.7584C43.2815 33.2174 43.2815 33.2582 43.2815 34.3804V40.1612C43.2815 43.895 43.0979 44.1738 41.4388 44.5343L40.6432 44.6567C40.3576 44.9015 40.3576 45.8197 40.6432 46.0645C42.3772 45.9829 44.1519 45.9421 45.9539 45.9421C47.6131 45.9421 49.3879 45.9829 51.1967 46.0645C51.4822 45.8197 51.4822 44.9015 51.1967 44.6567L50.3263 44.5003C48.6671 44.1806 48.4495 43.895 48.4495 40.1612V25.2263ZM59.9754 23.4784C59.8326 23.2336 59.615 23.118 59.3226 23.118C58.2414 23.8457 55.6778 24.927 53.9778 25.4507C53.7262 25.6887 53.7262 26.4096 53.9778 26.6545L54.481 27.0149C54.6578 27.151 54.787 27.2802 54.889 27.423C54.9502 27.5182 54.9978 27.6202 55.0386 27.729C55.1678 28.1167 55.1678 28.654 55.1678 29.5789V30.2726C56.7454 30.0958 58.3298 29.7761 59.8666 29.3613V28.2595C59.8666 27.695 59.8734 27.1306 59.8802 26.5865C59.887 26.2668 59.887 25.9608 59.8938 25.6615C59.9142 24.8386 59.9414 24.0837 59.9754 23.4784ZM118.965 21.0369C118.965 22.0502 118.142 22.8731 117.129 22.8731C116.116 22.8731 115.293 22.0502 115.293 21.0369C115.293 20.0235 116.116 19.2006 117.129 19.2006C118.135 19.2006 118.965 20.0235 118.965 21.0369ZM118.55 21.0369C118.55 20.2548 117.911 19.6155 117.129 19.6155C116.347 19.6155 115.708 20.2548 115.708 21.0369C115.708 21.819 116.347 22.4583 117.129 22.4583C117.911 22.4583 118.55 21.819 118.55 21.0369ZM117.571 21.4517C117.632 21.7034 117.673 21.8802 117.714 21.9482H117.469C117.442 21.8938 117.401 21.7442 117.346 21.5197C117.292 21.2681 117.197 21.1797 116.986 21.1661H116.768V21.9482H116.537V20.1663C116.653 20.1391 116.823 20.1255 116.986 20.1255C117.238 20.1255 117.394 20.1731 117.51 20.2752C117.598 20.3568 117.652 20.4792 117.652 20.6152C117.652 20.8532 117.503 21.0097 117.312 21.0777V21.0845C117.448 21.1321 117.53 21.2613 117.571 21.4517ZM117.414 20.6424C117.414 20.4112 117.244 20.3092 117 20.3024C116.884 20.3024 116.809 20.316 116.768 20.3228V20.9825H117.006C117.258 20.9893 117.414 20.8532 117.414 20.6424Z" fill="url(#paint10_radial_977_6571)"/>
<defs>
<linearGradient id="paint0_linear_977_6571" x1="36.2365" y1="28.1844" x2="72.4966" y2="7.2529" gradientUnits="userSpaceOnUse">
<stop stop-color="#83BD43"/>
<stop offset="1" stop-color="#AEBE4A"/>
</linearGradient>
<linearGradient id="paint1_linear_977_6571" x1="59.8747" y1="26.5831" x2="66.5796" y2="22.712" gradientUnits="userSpaceOnUse">
<stop stop-color="#83BD43"/>
<stop offset="1" stop-color="#AEBE4A"/>
</linearGradient>
<linearGradient id="paint2_linear_977_6571" x1="54.8627" y1="27.6338" x2="54.9763" y2="27.5682" gradientUnits="userSpaceOnUse">
<stop stop-color="#83BD43"/>
<stop offset="1" stop-color="#AEBE4A"/>
</linearGradient>
<linearGradient id="paint3_linear_977_6571" x1="55.2216" y1="16.974" x2="67.7845" y2="9.72186" gradientUnits="userSpaceOnUse">
<stop stop-color="#83BD43"/>
<stop offset="1" stop-color="#AEBE4A"/>
</linearGradient>
<linearGradient id="paint4_linear_977_6571" x1="41.2256" y1="34.2556" x2="43.0305" y2="33.2135" gradientUnits="userSpaceOnUse">
<stop stop-color="#83BD43"/>
<stop offset="1" stop-color="#AEBE4A"/>
</linearGradient>
<linearGradient id="paint5_linear_977_6571" x1="49.7217" y1="37.77" x2="65.1907" y2="28.839" gradientUnits="userSpaceOnUse">
<stop stop-color="#83BD43"/>
<stop offset="1" stop-color="#AEBE4A"/>
</linearGradient>
<linearGradient id="paint6_linear_977_6571" x1="68.4833" y1="30.6459" x2="69.8402" y2="29.8624" gradientUnits="userSpaceOnUse">
<stop stop-color="#83BD43"/>
<stop offset="1" stop-color="#AEBE4A"/>
</linearGradient>
<linearGradient id="paint7_linear_977_6571" x1="43.8761" y1="24.4618" x2="79.2364" y2="4.0497" gradientUnits="userSpaceOnUse">
<stop stop-color="#83BD43"/>
<stop offset="1" stop-color="#AEBE4A"/>
</linearGradient>
<linearGradient id="paint8_linear_977_6571" x1="40.6634" y1="26.5068" x2="44.4219" y2="24.3371" gradientUnits="userSpaceOnUse">
<stop stop-color="#83BD43"/>
<stop offset="1" stop-color="#AEBE4A"/>
</linearGradient>
<linearGradient id="paint9_linear_977_6571" x1="41.9027" y1="18.7272" x2="48.3246" y2="15.0201" gradientUnits="userSpaceOnUse">
<stop stop-color="#83BD43"/>
<stop offset="1" stop-color="#AEBE4A"/>
</linearGradient>
<radialGradient id="paint10_radial_977_6571" cx="0" cy="0" r="1" gradientUnits="userSpaceOnUse" gradientTransform="translate(59.4814 30.8912) scale(73.8535 73.865)">
<stop stop-color="#05B5CE"/>
<stop offset="0.6249" stop-color="#2B87C8"/>
</radialGradient>
</defs>
</svg>
