<svg width="1437" height="378" viewBox="0 0 1437 378" fill="none" xmlns="http://www.w3.org/2000/svg">
<g clip-path="url(#clip0_1111_8354)">
<path fill-rule="evenodd" clip-rule="evenodd" d="M1669.95 80.1826L1679.96 114.837L1680.5 115.514L1645.93 104.976L1634.94 116.361L1671.48 188.797L1670.7 188.343L1618.07 183.574L1615.25 156.128L1615.15 156.068L1615.19 155.978L1582.29 106.809L1541.04 165.74L1567.76 189.272L1529.8 181.812L1496.32 229.635L1395.83 176.08L1395.83 176.095L1395.3 175.802L1364.36 192.29L1364.64 208.268L1379.14 249.655L1380.19 250.388L1320.34 238.523L1295.08 250.845L1318.98 308.296L1319.11 308.608L1244.32 326.132L1247.14 390.698L1246.77 390.477L1124.35 398.768L1124.08 398.787L1113.86 329.518L1002.15 341.713L1001.82 434.336L891.805 387.721L868.089 444.687L816.591 391.374L783.314 450.726L783.389 452.285L782.858 451.01L690.286 479.506L702.087 364.464L637.886 397.418L637.852 397.068L598.699 337.7L515.208 373.305L514.389 373.819L514.783 372.994L510.263 309.19L471.047 300.945L533.207 279.383L538.096 243.643L537.878 242.807L565.213 266.448L580.02 260.431L613.415 232.009L613.718 230.763L624.154 290.663L749.358 255.716L749.886 255.414L749.763 255.98L765.374 320.616L822.194 303.468L821.967 303.334L822.637 303.286L822.675 302.775L823.014 303.221L823.5 303.074L823.415 303.229L858.013 300.723L864.227 286.002L867.743 242.289L867.077 241.192L916.994 276.295L949.788 275.092L985.691 138.781L985.454 138.203L985.8 138.36L986.23 136.735L986.275 138.575L1054.88 169.608L1128.23 172.278L1128.05 172.555L1160.56 229.549L1216.03 213.136L1216.01 212.955L1252.81 223.138L1277.22 208.468L1250.48 141.669L1250.26 141.114L1341.13 168.832L1320.99 108.304L1272.48 70.9035L1324.25 46.8074L1292.51 11.0999L1291.66 10.9501L1351.39 -14.9944L1356.37 21.7583L1371.64 24.4472L1371.16 23.4901L1372.16 24.4386L1517.76 -105.533L1518.19 -105.924L1526.64 14.8178L1599.83 -7.71449L1598.78 61.2513L1646.02 72.2748L1678.5 43.7437L1678.56 43.6945L1718.04 35.281L1669.95 80.1826ZM1670.09 79.2591L1716.13 36.2744L1678.93 44.2034L1670.09 79.2591ZM1321.48 107.956L1344.31 125.559L1365.24 93.2881L1315.21 89.1074L1321.48 107.956ZM511.331 308.405L551.363 295.87L533.451 280.14L511.331 308.405ZM608.508 332.893L630.117 323.678L602.354 313.954L591.445 325.34L608.508 332.893ZM591.734 326.095L598.917 336.985L607.789 333.201L591.734 326.095ZM849.222 369.905L816.975 390.947L867.453 443.206L849.222 369.905ZM1300.77 195.909L1307.08 209.363L1311.93 203.662L1300.77 195.909ZM1312.3 203.228L1340.16 170.484L1300.58 195.089L1312.3 203.228ZM1307.35 209.935L1311.88 219.598L1324.89 212.667L1312.4 203.992L1307.35 209.935ZM1306.94 210.414L1288.54 232.032L1311.37 219.868L1306.94 210.414ZM1312.12 220.119L1320.42 237.797L1340.98 223.841L1325.42 213.034L1312.12 220.119ZM1311.62 220.39L1288.23 232.843L1319.81 237.853L1311.62 220.39ZM1286.55 234.021L1226.05 283.887L1274.27 260.36L1286.55 234.021ZM1275.09 259.96L1294.34 250.565L1287.33 233.707L1275.09 259.96ZM1224.83 285.119L1258.84 293.448L1273.88 261.187L1224.83 285.119ZM1223.28 285.424L1143.88 277.416L1208.2 308.356L1223.16 285.932L1221.94 286.531L1223.28 285.424ZM816.926 389.423L824.414 373.977L817.973 375.071L816.926 389.423ZM817.391 375.17L799.476 378.21L816.281 390.362L817.391 375.17ZM849.086 369.207L844.721 333.417L825.419 373.224L849.086 369.207ZM825.109 373.858L817.237 390.09L848.09 369.958L825.109 373.858ZM824.723 373.343L844.527 332.502L823.136 304.333L818.015 374.481L824.723 373.343ZM849.579 368.492L869.023 331.323L845.235 332.863L849.579 368.492ZM850.053 368.822L887.727 351.163L869.577 331.497L850.053 368.822ZM948.062 364.241L917.998 324.803L905.509 354.8L948.062 364.241ZM905.286 355.339L892.125 386.949L947.797 364.77L905.286 355.339ZM948.865 364.345L971.395 355.369L961.74 333.516L918.619 324.667L948.865 364.345ZM917.469 324.587L870.096 331.211L888.355 350.994L904.943 354.673L917.469 324.587ZM917.453 324.01L910.039 311.819L871.294 330.463L917.453 324.01ZM917.613 323.172L917.297 308.326L910.557 311.569L917.613 323.172ZM918.208 323.998L961.457 332.871L944.774 295.106L917.868 308.052L918.208 323.998ZM1180.06 350.534L1195.48 327.425L1168.64 328.105L1180.06 350.534ZM1243.4 325.287L1223.95 285.783L1208.72 308.607L1243.4 325.287ZM1208.4 309.09L1196.57 326.823L1242.83 325.65L1208.4 309.09ZM1196.18 327.408L1180.77 350.498L1242.41 326.234L1196.18 327.408ZM1168.01 328.124L1115.75 329.448L1179.45 350.61L1168.01 328.124ZM1167.71 327.556L1142.27 277.585L1114.59 328.904L1167.71 327.556ZM1097.26 258.673L1086.27 254.128L1080.16 283.846L1080.1 284.126L1079.94 284.096L1062.87 296.716L1113.66 328.588L1097.26 258.673ZM1067.17 245.616L1085.85 253.334L1090.47 230.836L1067.17 245.616ZM1089.96 230.481L1023.78 227.687L1066.52 245.348L1089.96 230.481ZM1086.38 253.556L1097.1 257.985L1090.91 231.567L1086.38 253.556ZM1079.18 283.944L1025.47 273.242L1062.35 296.387L1079.18 283.944ZM1024.15 273.094L1002.41 340.694L1061.85 296.755L1024.15 273.094ZM962.143 333.013L1000.79 340.942L945.664 295.704L962.143 333.013ZM943.434 295.114L917.631 296.983L917.855 307.422L943.434 295.114ZM945.517 294.842L1001.72 340.967L1023.55 273.075L945.517 294.842ZM1025.23 272.609L1079.65 283.452L1085.73 253.905L1066.58 245.991L1025.04 272.329L1026.41 272.28L1025.23 272.609ZM1065.93 245.724L1022.47 227.767L1024.26 272.147L1065.93 245.724ZM1090.37 229.923L1075.93 205.785L1023.5 227.1L1090.37 229.923ZM1097.76 258.255L1140.88 276.074L1091.38 231.066L1097.76 258.255ZM1097.92 258.942L1114.21 328.401L1141.88 277.11L1097.92 258.942ZM1142.92 277.593L1168.35 327.539L1195.87 326.842L1207.88 308.839L1142.92 277.593ZM1224.52 285.633L1244.02 325.243L1258.59 293.978L1224.52 285.633ZM1244.53 325.491L1317.48 308.4L1259.16 294.117L1244.53 325.491ZM1180.68 351.153L1205.59 365.727L1242.91 326.651L1180.68 351.153ZM1180.69 351.824L1193.47 378.418L1205.18 366.153L1180.69 351.824ZM1179.92 351.561L1125.52 397.845L1192.98 378.732L1179.92 351.561ZM1179.45 351.214L1114.45 329.623L1124.54 397.929L1179.45 351.214ZM1113.14 328.941L1062.37 297.082L1002.89 341.055L1112.76 329.06L1112.45 328.958L1113.14 328.941ZM962.429 333.657L972.16 355.683L949.227 364.819L1001.25 433.057L1001.58 341.69L962.429 333.657ZM948.672 365.039L892.529 387.407L1000.64 433.215L948.672 365.039ZM904.715 355.214L888.237 351.558L850.108 369.43L891.495 386.967L904.715 355.214ZM798.68 378.344L781.089 381.331L815.117 390.231L798.68 378.344ZM778.898 380.79L734.076 332.02L751.81 374.727L778.898 380.79ZM752.076 375.374L759.447 393.127L778.965 381.393L752.076 375.374ZM733.092 331.153L702.975 363.796L751.121 374.573L733.092 331.153ZM779.188 380.258L774.502 360.859L735.318 332.525L779.188 380.258ZM759.67 393.663L762.298 399.991L778.219 382.512L759.67 393.663ZM759.173 393.963L730.744 411.052L692.241 476.895L761.871 400.46L759.173 393.963ZM730.629 410.45L758.949 393.426L751.39 375.22L703.399 364.479L704.4 365.408L703.231 364.748L730.629 410.45ZM702.413 363.56L732.57 330.874L662.058 326.063L702.413 363.56ZM630.453 322.883L623.758 291.612L610.413 305.542L630.453 322.883ZM610.017 305.958L602.792 313.499L629.582 322.881L610.017 305.958ZM631.108 323.207L647.855 313.649L624.398 291.854L631.108 323.207ZM631.876 323.429L660.48 325.381L648.295 314.059L631.876 323.429ZM661.57 326.394L660.822 340.183L700.453 362.524L661.57 326.394ZM661.02 325.992L632.158 324.022L660.264 339.868L661.02 325.992ZM631.248 324.165L633.183 343.816L659.416 355.429L660.227 340.505L631.248 324.165ZM630.663 324.068L609.225 333.21L632.582 343.549L630.663 324.068ZM552.448 296.823L552.174 296.583L549.258 331.412L590.238 325.254L552.42 296.716L552.448 296.823ZM590.779 324.945L594.156 311.083L553.576 296.87L590.779 324.945ZM591.486 324.467L601.758 313.745L594.7 311.273L591.486 324.467ZM548.982 332.033L548.88 332.048L538.071 325.634L515.76 372.28L589.633 325.925L548.982 332.033ZM548.693 331.27L551.52 297.528L538.325 325.114L548.693 331.27ZM551.391 296.462L511.235 309.036L537.826 324.82L551.391 296.462ZM551.422 295.16L546.157 274.812L533.916 279.786L551.422 295.16ZM552.015 295.158L552.35 294.455L552.238 295.794L594.29 310.522L597.945 295.519L565.102 267.112L546.693 274.593L552.015 295.158ZM594.838 310.712L602.197 313.289L609.582 305.581L598.436 295.94L594.838 310.712ZM609.98 305.166L623.328 291.233L622.504 291.123L623.262 290.912L603.07 276.91L598.588 295.314L609.98 305.166ZM648.376 313.351L674.996 298.157L624.782 291.429L648.376 313.351ZM648.814 313.759L661.326 325.386L702.695 301.87L675.931 298.283L648.814 313.759ZM703.536 302.055L662.284 325.504L732.43 330.289L703.536 302.055ZM774.297 360.001L764.958 321.341L733.826 330.736L774.297 360.001ZM779.836 380.487L786.086 369.235L775.219 361.377L779.836 380.487ZM780.259 380.889L798.031 377.872L786.549 369.57L780.259 380.889ZM798.822 377.738L817.431 374.58L822.523 304.83L786.829 369.065L798.822 377.738ZM844.83 331.951L849.953 319.817L824.016 304.54L844.83 331.951ZM845.314 332.284L868.562 330.777L850.453 320.11L845.314 332.284ZM869.526 330.676L909.738 311.327L901.713 298.135L858.404 301.271L850.677 319.577L869.526 330.676ZM910.26 311.076L917.285 307.695L917.058 297.023L902.359 298.089L910.26 311.076ZM917.043 296.449L916.625 276.929L892.178 281.354L902.022 297.537L917.043 296.449ZM917.207 277.121L917.62 296.407L944.051 294.498L917.207 277.121ZM946.06 294.101L1021.58 273.032L967.958 275L946.06 294.101ZM967.047 275.033L950.236 275.65L945.433 293.888L967.047 275.033ZM1023.44 272.389L1002.89 244.528L968.645 274.399L1023.44 272.389ZM1023.67 271.733L1021.91 227.941L1003.32 244.15L1023.67 271.733ZM1021.48 227.552L988.717 224.35L1002.98 243.687L1021.48 227.552ZM1075.64 205.287L1054.82 170.463L1022.83 226.753L1075.64 205.287ZM1076.18 205.067L1094.81 197.492L1055.73 170.863L1076.18 205.067ZM1095.4 197.873L1076.48 205.566L1090.9 229.686L1107.4 203.837L1095.4 197.873ZM1091.41 229.943L1159.22 229.607L1107.91 204.094L1091.41 229.943ZM1091.63 230.515L1142.16 276.472L1160.01 230.178L1091.63 230.515ZM1142.69 276.718L1223.12 284.833L1160.55 230.374L1142.69 276.718ZM1286.74 233.127L1252.89 223.757L1238.31 232.522L1224.5 284.418L1286.74 233.127ZM1306.67 209.844L1299.93 195.484L1277.93 208.707L1287.43 232.446L1306.67 209.844ZM1300.1 194.71L1340.89 169.359L1251.68 142.146L1300.1 194.71ZM1341.67 169.599L1312.77 203.558L1325.45 212.365L1363.78 191.947L1363.42 172.083L1341.99 169.607L1342.02 169.706L1341.67 169.599ZM1603.72 92.1114L1589.31 87.7192L1582.74 105.911L1582.95 105.866L1582.78 106.102L1607.08 110.752L1603.72 92.1114ZM1615.64 155.032L1634.17 116.522L1607.79 111.473L1615.64 155.032ZM1593.14 77.1383L1589.51 87.1792L1603.61 91.4771L1600.91 76.5127L1593.14 77.1383ZM1600.81 75.9445L1598.4 62.5703L1593.35 76.545L1600.81 75.9445ZM1447.92 22.02L1417.12 67.1685L1431.65 80.9781L1479.87 71.3515L1478.58 70.907L1480.4 71.0824L1447.92 22.02ZM1403.54 87.3525L1402.35 100.509L1463.64 113.5L1403.54 87.3525ZM1402.95 87.5L1387.93 97.4522L1401.79 100.389L1402.95 87.5ZM1387.26 97.897L1371.53 108.325L1395.14 174.154L1401.73 100.965L1387.26 97.897ZM1386.48 97.7304L1366.19 93.4297L1371.33 107.77L1386.48 97.7304ZM1387.15 97.2851L1402.01 87.4312L1367.3 93.0792L1387.15 97.2851ZM1403.12 101.259L1440.6 136.147L1465.73 114.53L1403.12 101.259ZM1464.98 113.457L1431.46 81.5986L1404.24 87.0324L1464.98 113.457ZM1466.23 113.852L1480.54 71.8037L1432.16 81.4617L1466.23 113.852ZM1494.89 103.675L1481 72.2148L1466.82 113.895L1494.89 103.675ZM1467.04 114.427L1510.55 139.132L1495.13 104.201L1467.04 114.427ZM1495.44 103.478L1533.23 89.7192L1481.5 71.9111L1495.44 103.478ZM1534.09 89.4062L1561.4 79.466L1483.36 71.9443L1534.09 89.4062ZM1582.21 105.693L1588.77 87.5522L1563.42 79.8198L1582.21 105.693ZM1562.75 79.8818L1562.3 80.9549L1562.35 80.1453L1549.85 94.8285L1581.53 105.733L1562.75 79.8818ZM1561.77 79.9438L1534.96 89.7041L1549.26 94.6276L1561.77 79.9438ZM1534.1 90.0156L1495.67 104.004L1511.24 139.277L1548.86 95.0968L1534.1 90.0156ZM1466.39 114.719L1441.02 136.541L1460.84 155.001L1510.45 139.731L1466.39 114.719ZM1440.58 136.918L1396.54 174.797L1460.21 155.196L1440.58 136.918ZM1440.16 136.524L1402.28 101.264L1395.66 174.796L1440.16 136.524ZM1371.04 108.653L1365.37 112.411L1363.81 157.775L1394.78 174.858L1371.04 108.653ZM1363.26 157.017L1364.78 112.801L1344.77 126.065L1363.26 157.017ZM1364.8 112.096L1365.42 94.0664L1345.37 124.974L1364.8 112.096ZM1365.39 111.707L1370.84 108.097L1365.98 94.5493L1365.39 111.707ZM1366.07 92.6984L1402.86 86.7087L1372.35 25.8525L1366.07 92.6984ZM1403.33 86.3652L1416.37 67.2481L1373.15 26.1689L1403.33 86.3652ZM1403.92 86.5113L1430.96 81.1152L1416.79 67.6484L1403.92 86.5113ZM1521.48 43.8313L1537.88 36.0926L1526.34 15.707L1511.24 34.4025L1521.48 43.8313ZM1510.88 34.8491L1482.39 70.1207L1520.97 44.138L1510.88 34.8491ZM1521.58 44.4228L1481.8 71.2175L1562.17 78.9699L1538.17 36.5938L1521.58 44.4228ZM1588.96 87.0107L1592.51 77.1904L1564.21 79.4679L1588.96 87.0107ZM1549.45 95.2979L1512.87 138.249L1547.95 113.4L1548 113.366L1581.23 106.235L1549.45 95.2979ZM1511.63 139.835L1540.45 165.216L1547.73 114.255L1511.63 139.835ZM1511.17 140.198L1478.57 171.165L1529.54 181.177L1540.28 165.831L1511.17 140.198ZM1510.08 140.445L1461.33 155.452L1477.97 170.945L1510.08 140.445ZM1477.72 171.497L1460.7 155.647L1396.05 175.548L1495.75 228.679L1477.72 171.497ZM1363.75 158.4L1363.99 171.569L1393.89 175.023L1363.75 158.4ZM1363.18 158.292L1342.53 169.09L1363.41 171.503L1363.18 158.292ZM1363.02 157.729L1344.61 126.916L1341.89 168.778L1363.02 157.729ZM1365.33 92.1477L1357.19 32.1104L1325.19 47.0027L1365.33 92.1477ZM1365.69 90.524L1371.82 25.3008L1357.74 31.8574L1365.69 90.524ZM1416.7 66.7682L1447.36 21.8174L1372.85 25.0874L1416.7 66.7682ZM1447.91 21.2183L1448.07 21.2114L1480.31 69.9093L1460.87 -10.9805L1373.8 24.4694L1447.91 21.2183ZM1481.11 70.7919L1510.45 34.4603L1461.57 -10.5225L1481.11 70.7919ZM1510.81 34.0126L1525.86 15.3874L1525.2 15.2594L1525.52 15.1612L1462.43 -10.5073L1510.81 34.0126ZM1538.41 35.8462L1565.29 23.1604L1526.94 15.6006L1538.41 35.8462ZM1538.69 36.3483L1562.46 78.3193L1565.88 23.5151L1538.69 36.3483ZM1563.08 77.6511L1579.42 39.2334L1566.44 23.7822L1563.08 77.6511ZM1563.14 78.9786L1592.72 76.5965L1598.17 61.5367L1579.84 39.7256L1563.14 78.9786ZM1598.22 60.7053L1599.23 -5.8623L1580.09 39.133L1598.22 60.7053ZM1601.38 75.899L1644.24 72.4496L1598.85 61.8574L1601.38 75.899ZM1645.97 72.8862L1601.49 76.4676L1604.23 91.664L1645.76 104.324L1659.56 90.0258L1645.97 72.8862ZM1659.96 89.6094L1669.14 80.1022L1646.9 73.1406L1659.96 89.6094ZM1669.47 80.5854L1660.32 90.0634L1679.02 113.651L1669.47 80.5854ZM1678.9 114.428L1659.91 90.4795L1646.37 104.513L1678.9 114.428ZM1645.31 104.789L1604.34 92.2979L1607.69 110.867L1634.5 115.998L1645.31 104.789ZM1634.6 116.959L1615.89 155.839L1670.1 187.329L1634.6 116.959ZM1669.52 187.66L1615.91 156.514L1616.05 157.256L1615.92 157.073L1618.59 183.044L1669.52 187.66ZM1614.99 154.65L1607.19 111.357L1582.91 106.712L1614.99 154.65ZM1548.37 113.873L1541.11 164.643L1581.64 106.735L1548.37 113.873ZM1565.79 188.299L1540.71 166.213L1530.16 181.298L1565.79 188.299ZM1478.4 171.714L1496.34 228.62L1529.18 181.691L1478.4 171.714ZM1394.36 175.656L1364 172.149L1364.35 191.645L1394.36 175.656ZM1325.98 212.734L1341.48 223.498L1364.07 208.168L1363.79 192.594L1325.98 212.734ZM1364.21 208.766L1341.98 223.849L1378.34 249.099L1364.21 208.766ZM1377.61 249.29L1341.48 224.192L1321.03 238.074L1377.61 249.29ZM1319.36 238.364L1287.81 233.357L1294.86 250.314L1319.36 238.364ZM1274.7 260.787L1259.41 293.586L1318.23 307.993L1294.56 251.096L1274.7 260.787ZM1243.77 326.591L1206.1 366.025L1246.52 389.671L1243.77 326.591ZM1205.69 366.451L1193.31 379.413L1193.24 379.256L1127.05 398.012L1245.88 389.962L1205.69 366.451ZM849.819 369.932L868.058 443.261L891.273 387.497L849.819 369.932ZM816.098 391.08L780.035 381.646L783.263 449.644L816.098 391.08ZM782.66 449.031L779.476 381.975L762.538 400.569L782.66 449.031ZM762.112 401.038L691.536 478.521L782.637 450.477L762.112 401.038ZM691.038 477.817L730.199 410.846L702.626 364.854L691.038 477.817ZM701.824 363.954L660.788 340.818L659.949 356.291L633.252 344.473L638.376 396.522L701.824 363.954ZM637.73 395.843L632.645 344.206L608.502 333.519L599.234 337.472L637.73 395.843ZM598.379 337.214L590.872 325.829L518.314 371.358L598.379 337.214ZM537.578 325.339L510.858 309.481L515.284 371.945L537.578 325.339ZM510.419 308.637L532.699 280.168L473.192 300.809L510.419 308.637ZM533.813 279.209L546.016 274.25L538.476 245.109L533.813 279.209ZM538.895 244.445L546.549 274.032L564.613 266.691L538.895 244.445ZM598.097 294.892L602.562 276.56L580.131 261.006L565.699 266.87L598.097 294.892ZM580.638 260.659L602.708 275.963L613.184 232.96L580.638 260.659ZM603.217 276.312L623.527 290.397L613.627 233.571L603.217 276.312ZM625.35 290.925L675.819 297.689L747.312 256.883L625.35 290.925ZM676.754 297.814L703.523 301.401L703.626 301.343L733.016 330.062L749.051 256.552L676.754 297.814ZM749.483 257.265L733.574 330.212L764.824 320.782L749.483 257.265ZM765.51 321.174L775.013 360.519L786.368 368.73L822.312 304.033L765.51 321.174ZM823.844 303.774L850.178 319.283L857.762 301.317L823.844 303.774ZM901.379 297.584L891.573 281.464L864.715 286.325L858.656 300.678L901.379 297.584ZM864.827 285.723L891.254 280.938L868.254 243.125L864.827 285.723ZM868.997 243.245L891.858 280.828L916.18 276.426L868.997 243.245ZM917.828 276.839L944.74 294.261L949.637 275.672L917.828 276.839ZM950.387 275.069L967.732 274.433L1002.55 244.065L987.82 224.099L985.754 140.789L950.387 275.069ZM988.386 223.74L1021.72 226.999L986.318 140.319L988.386 223.74ZM986.53 139.32L1022.21 226.675L1054.41 170.025L986.53 139.32ZM1055.8 170.216L1095.56 197.309L1107.71 203.349L1127.2 172.815L1055.8 170.216ZM1108.22 203.607L1159.71 229.211L1127.7 173.102L1108.22 203.607ZM1161.21 229.957L1161.64 230.17L1161.19 230.172L1223.63 284.513L1216.09 213.716L1161.21 229.957ZM1216.67 213.732L1224.11 283.638L1237.82 232.148L1252.13 223.546L1216.67 213.732ZM1253.57 223.35L1286.86 232.562L1277.44 209.007L1253.57 223.35ZM1299.61 195.011L1251.6 142.905L1277.72 208.169L1299.61 195.011ZM1341.38 167.785L1344.08 126.11L1321.8 108.931L1341.38 167.785ZM1273.58 71.0252L1320.66 107.328L1314.39 88.4636L1365.05 92.6964L1324.65 47.2554L1273.58 71.0252ZM1324.8 46.5534L1357.11 31.5148L1355.86 22.2511L1293.42 11.2578L1324.8 46.5534ZM1350.92 -14.165L1293.65 10.7161L1355.78 21.654L1350.92 -14.165ZM1356.45 22.3555L1357.66 31.2609L1370.73 25.1792L1370.52 25.1889L1371.13 24.9392L1356.45 22.3555ZM1373.59 23.9365L1460.73 -11.5449L1460.66 -11.8494L1460.95 -11.7311L1516.71 -103.83L1373.59 23.9365ZM1461.49 -11.5118L1526.06 14.7595L1517.73 -104.396L1461.49 -11.5118ZM1565.93 22.7033L1565.95 22.3136L1566.35 22.7861L1567.11 22.9358L1566.65 23.1495L1579.67 38.6396L1599.03 -6.86719L1527.55 15.1376L1565.93 22.7033ZM1669.42 79.5892L1678.19 44.7832L1646.67 72.467L1669.42 79.5892Z" fill="white" fill-opacity="0.25"/>
<path d="M1400.72 87.7189C1401.16 89.1324 1402.66 89.9255 1404.07 89.4901C1405.49 89.0553 1406.28 87.556 1405.85 86.1419C1405.41 84.7265 1403.91 83.9335 1402.5 84.3689C1401.08 84.8043 1400.29 86.3042 1400.72 87.7189Z" fill="white" fill-opacity="0.25"/>
<path d="M1369.6 25.6173C1370.03 27.0326 1371.53 27.8257 1372.94 27.3897C1374.36 26.9543 1375.15 25.4562 1374.72 24.0409C1374.28 22.6262 1372.78 21.833 1371.37 22.269C1369.95 22.7044 1369.16 24.2032 1369.6 25.6173V25.6173Z" fill="white" fill-opacity="0.25"/>
<path d="M1270.46 71.7524C1270.9 73.1671 1272.4 73.9602 1273.81 73.5248C1275.23 73.0894 1276.02 71.5901 1275.58 70.176C1275.15 68.7613 1273.65 67.9682 1272.23 68.4035C1270.82 68.839 1270.03 70.3376 1270.46 71.7524Z" fill="white" fill-opacity="0.25"/>
<path d="M1318.68 241.266C1320.37 242.156 1322.45 241.515 1323.34 239.833C1324.23 238.153 1323.59 236.067 1321.91 235.177C1320.23 234.288 1318.14 234.928 1317.25 236.61C1316.36 238.293 1317 240.376 1318.68 241.266V241.266Z" fill="white" fill-opacity="0.25"/>
<path d="M1222.38 288.252C1224.06 289.142 1226.14 288.501 1227.03 286.818C1227.92 285.137 1227.28 283.054 1225.6 282.163C1223.92 281.273 1221.83 281.915 1220.94 283.596C1220.05 285.278 1220.69 287.362 1222.38 288.252L1222.38 288.252Z" fill="white" fill-opacity="0.25"/>
<path d="M1298.8 197.444C1300.11 198.136 1301.73 197.635 1302.42 196.33C1303.12 195.02 1302.62 193.398 1301.31 192.707C1300 192.014 1298.38 192.515 1297.69 193.821C1296.99 195.129 1297.49 196.751 1298.8 197.444Z" fill="white" fill-opacity="0.25"/>
<path d="M1215.09 215.71C1216.39 216.404 1218.02 215.903 1218.71 214.595C1219.4 213.288 1218.9 211.667 1217.59 210.974C1216.28 210.282 1214.66 210.782 1213.97 212.09C1213.28 213.396 1213.78 215.019 1215.09 215.71Z" fill="white" fill-opacity="0.25"/>
<path d="M1159.17 232.256C1160.48 232.946 1162.1 232.447 1162.79 231.14C1163.48 229.833 1162.99 228.211 1161.68 227.519C1160.37 226.826 1158.75 227.326 1158.06 228.634C1157.37 229.941 1157.86 231.562 1159.17 232.256H1159.17Z" fill="white" fill-opacity="0.25"/>
<path d="M1394.05 177.844C1395.36 178.537 1396.98 178.037 1397.67 176.729C1398.36 175.422 1397.87 173.799 1396.56 173.108C1395.25 172.415 1393.63 172.915 1392.94 174.222C1392.24 175.529 1392.74 177.152 1394.05 177.844H1394.05Z" fill="white" fill-opacity="0.25"/>
<path d="M1363.1 210.685C1364.41 211.378 1366.03 210.878 1366.72 209.571C1367.42 208.264 1366.92 206.642 1365.61 205.949C1364.3 205.257 1362.68 205.756 1361.99 207.065C1361.3 208.372 1361.79 209.992 1363.1 210.685V210.685Z" fill="white" fill-opacity="0.25"/>
<path d="M1178.77 353.469C1180.08 354.161 1181.7 353.662 1182.39 352.354C1183.08 351.047 1182.58 349.426 1181.28 348.733C1179.97 348.04 1178.35 348.54 1177.66 349.848C1176.96 351.156 1177.46 352.777 1178.77 353.469V353.469Z" fill="white" fill-opacity="0.25"/>
<path d="M1112.84 331.571C1114.15 332.263 1115.77 331.763 1116.47 330.454C1117.16 329.148 1116.66 327.527 1115.35 326.834C1114.04 326.142 1112.42 326.642 1111.73 327.949C1111.04 329.257 1111.54 330.877 1112.84 331.571Z" fill="white" fill-opacity="0.25"/>
<path d="M1343.13 128.344C1344.43 129.036 1346.05 128.537 1346.75 127.229C1347.44 125.921 1346.94 124.3 1345.63 123.608C1344.32 122.915 1342.7 123.415 1342.01 124.723C1341.32 126.031 1341.82 127.652 1343.13 128.344Z" fill="white" fill-opacity="0.25"/>
<path d="M1340.68 170.96C1341.61 171.454 1342.77 171.097 1343.27 170.164C1343.76 169.229 1343.4 168.071 1342.47 167.577C1341.54 167.083 1340.38 167.44 1339.88 168.372C1339.39 169.307 1339.75 170.465 1340.68 170.96Z" fill="white" fill-opacity="0.25"/>
<path d="M1249.86 143.253C1250.79 143.747 1251.95 143.39 1252.44 142.456C1252.94 141.523 1252.58 140.365 1251.65 139.87C1250.71 139.376 1249.55 139.733 1249.06 140.666C1248.56 141.6 1248.92 142.759 1249.86 143.253Z" fill="white" fill-opacity="0.25"/>
<path d="M1364.85 94.7336C1365.78 95.2273 1366.94 94.8707 1367.43 93.9371C1367.93 93.003 1367.57 91.8454 1366.64 91.3505C1365.7 90.8563 1364.55 91.2128 1364.05 92.1465C1363.56 93.0812 1363.91 94.2394 1364.85 94.7336Z" fill="white" fill-opacity="0.25"/>
<path d="M1313.9 90.4759C1314.83 90.9707 1315.99 90.6147 1316.48 89.6799C1316.98 88.7463 1316.62 87.5876 1315.69 87.0939C1314.75 86.5991 1313.59 86.9562 1313.1 87.8899C1312.61 88.824 1312.96 89.9822 1313.9 90.4759H1313.9Z" fill="white" fill-opacity="0.25"/>
<path d="M1320.28 109.63C1321.21 110.124 1322.37 109.767 1322.87 108.833C1323.36 107.901 1323.01 106.742 1322.07 106.247C1321.14 105.752 1319.98 106.11 1319.48 107.044C1318.99 107.977 1319.35 109.135 1320.28 109.63Z" fill="white" fill-opacity="0.25"/>
<path d="M1291.76 12.5239C1292.69 13.0182 1293.85 12.6616 1294.34 11.7275C1294.84 10.795 1294.48 9.63568 1293.55 9.14144C1292.61 8.64714 1291.46 9.00425 1290.96 9.93733C1290.47 10.8721 1290.82 12.0308 1291.76 12.5239Z" fill="white" fill-opacity="0.25"/>
<path d="M1323.81 48.608C1324.74 49.1022 1325.9 48.7463 1326.39 47.8121C1326.89 46.8785 1326.53 45.7203 1325.6 45.2255C1324.66 44.7313 1323.51 45.0877 1323.01 46.0214C1322.52 46.9562 1322.87 48.1143 1323.81 48.608H1323.81Z" fill="white" fill-opacity="0.25"/>
<path d="M1355.17 23.6516C1356.11 24.1465 1357.26 23.7899 1357.76 22.8563C1358.25 21.9221 1357.9 20.7639 1356.96 20.2697C1356.03 19.7749 1354.87 20.132 1354.37 21.0656C1353.88 21.9998 1354.24 23.1586 1355.17 23.6516V23.6516Z" fill="white" fill-opacity="0.25"/>
<path d="M1415.83 68.8928C1416.77 69.3871 1417.93 69.0305 1418.42 68.0969C1418.92 67.1633 1418.56 66.0045 1417.63 65.5103C1416.69 65.016 1415.53 65.3726 1415.04 66.3068C1414.55 67.241 1414.9 68.3992 1415.83 68.8928V68.8928Z" fill="white" fill-opacity="0.25"/>
<path d="M1430.65 82.9542C1431.59 83.4485 1432.75 83.0914 1433.24 82.1577C1433.73 81.2247 1433.38 80.0665 1432.44 79.5717C1431.51 79.0763 1430.35 79.434 1429.86 80.3682C1429.36 81.3024 1429.72 82.4606 1430.65 82.9542Z" fill="white" fill-opacity="0.25"/>
<path d="M1401.36 102.064C1402.1 102.456 1403.02 102.174 1403.41 101.433C1403.8 100.693 1403.52 99.7757 1402.78 99.3838C1402.04 98.9923 1401.12 99.2746 1400.73 100.015C1400.34 100.755 1400.62 101.673 1401.36 102.064L1401.36 102.064Z" fill="white" fill-opacity="0.25"/>
<path d="M1362.63 159.479C1363.56 159.974 1364.72 159.618 1365.21 158.683C1365.71 157.75 1365.35 156.592 1364.41 156.097C1363.48 155.602 1362.32 155.959 1361.83 156.893C1361.33 157.827 1361.69 158.984 1362.63 159.479H1362.63Z" fill="white" fill-opacity="0.25"/>
<path d="M1378 251.529C1378.94 252.023 1380.1 251.667 1380.59 250.733C1381.08 249.8 1380.73 248.64 1379.79 248.147C1378.86 247.652 1377.7 248.009 1377.21 248.942C1376.71 249.876 1377.07 251.036 1378 251.529H1378Z" fill="white" fill-opacity="0.25"/>
<path d="M1286.45 234.686C1287.38 235.18 1288.54 234.823 1289.03 233.89C1289.53 232.956 1289.17 231.797 1288.24 231.303C1287.3 230.809 1286.15 231.165 1285.65 232.099C1285.16 233.033 1285.51 234.191 1286.45 234.686H1286.45Z" fill="white" fill-opacity="0.25"/>
<path d="M1276.66 210.305C1277.59 210.799 1278.75 210.443 1279.24 209.508C1279.74 208.574 1279.38 207.417 1278.45 206.922C1277.51 206.428 1276.35 206.784 1275.86 207.719C1275.36 208.651 1275.72 209.81 1276.66 210.305Z" fill="white" fill-opacity="0.25"/>
<path d="M1243.13 327.598C1244.06 328.093 1245.22 327.736 1245.72 326.802C1246.21 325.868 1245.85 324.71 1244.92 324.215C1243.99 323.721 1242.83 324.078 1242.33 325.013C1241.84 325.946 1242.19 327.103 1243.13 327.598H1243.13Z" fill="white" fill-opacity="0.25"/>
<path d="M1258.07 295.431C1259.01 295.926 1260.17 295.569 1260.66 294.634C1261.15 293.7 1260.8 292.543 1259.86 292.047C1258.93 291.553 1257.77 291.91 1257.28 292.844C1256.78 293.778 1257.14 294.937 1258.07 295.431H1258.07Z" fill="white" fill-opacity="0.25"/>
<path d="M1207.36 310.354C1208.3 310.849 1209.46 310.492 1209.95 309.558C1210.44 308.623 1210.09 307.465 1209.15 306.97C1208.22 306.476 1207.06 306.833 1206.57 307.768C1206.07 308.702 1206.43 309.859 1207.36 310.354Z" fill="white" fill-opacity="0.25"/>
<path d="M1195.15 328.829C1196.08 329.324 1197.24 328.967 1197.74 328.033C1198.23 327.098 1197.88 325.941 1196.94 325.446C1196.01 324.952 1194.85 325.309 1194.35 326.243C1193.86 327.177 1194.22 328.334 1195.15 328.829Z" fill="white" fill-opacity="0.25"/>
<path d="M1167.26 329.456C1168.19 329.95 1169.35 329.593 1169.85 328.659C1170.34 327.725 1169.99 326.567 1169.05 326.073C1168.12 325.578 1166.96 325.934 1166.46 326.869C1165.97 327.803 1166.33 328.96 1167.26 329.456Z" fill="white" fill-opacity="0.25"/>
<path d="M1192.49 380.606C1193.43 381.101 1194.59 380.745 1195.08 379.81C1195.58 378.876 1195.22 377.718 1194.29 377.223C1193.35 376.728 1192.19 377.086 1191.7 378.02C1191.2 378.954 1191.56 380.111 1192.49 380.606H1192.49Z" fill="white" fill-opacity="0.25"/>
<path d="M1273.58 262.32C1274.51 262.814 1275.67 262.458 1276.16 261.523C1276.66 260.59 1276.3 259.432 1275.37 258.938C1274.43 258.443 1273.28 258.799 1272.78 259.734C1272.29 260.668 1272.64 261.826 1273.58 262.32Z" fill="white" fill-opacity="0.25"/>
<path d="M1237.17 234.026C1238.1 234.52 1239.26 234.163 1239.75 233.229C1240.25 232.295 1239.89 231.136 1238.96 230.642C1238.02 230.148 1236.86 230.505 1236.37 231.439C1235.88 232.373 1236.23 233.53 1237.17 234.026Z" fill="white" fill-opacity="0.25"/>
<path d="M1251.96 225.14C1252.9 225.634 1254.06 225.277 1254.55 224.343C1255.05 223.409 1254.69 222.252 1253.75 221.757C1252.82 221.262 1251.66 221.619 1251.17 222.553C1250.67 223.488 1251.03 224.645 1251.96 225.14Z" fill="white" fill-opacity="0.25"/>
<path d="M1317.82 310.097C1318.75 310.592 1319.91 310.235 1320.41 309.301C1320.9 308.366 1320.54 307.209 1319.61 306.714C1318.68 306.219 1317.52 306.576 1317.02 307.511C1316.53 308.445 1316.89 309.602 1317.82 310.097Z" fill="white" fill-opacity="0.25"/>
<path d="M627.346 291.432C627.572 289.542 626.221 287.829 624.334 287.604C622.444 287.379 620.731 288.728 620.506 290.617C620.281 292.505 621.629 294.22 623.518 294.445C625.406 294.67 627.122 293.321 627.346 291.432H627.346Z" fill="white" fill-opacity="0.25"/>
<path d="M705.846 364.374C706.072 362.484 704.722 360.77 702.834 360.545C700.944 360.32 699.23 361.669 699.004 363.559C698.78 365.448 700.126 367.162 702.017 367.387C703.907 367.612 705.621 366.263 705.846 364.374V364.374Z" fill="white" fill-opacity="0.25"/>
<path d="M593.614 325.754C593.789 324.284 592.739 322.952 591.27 322.777C589.801 322.602 588.468 323.65 588.293 325.12C588.118 326.59 589.168 327.922 590.637 328.097C592.106 328.272 593.439 327.224 593.614 325.754Z" fill="white" fill-opacity="0.25"/>
<path d="M541.047 243.942C541.224 242.472 540.173 241.139 538.703 240.964C537.235 240.789 535.902 241.837 535.726 243.307C535.552 244.777 536.601 246.11 538.07 246.285C539.54 246.46 540.872 245.412 541.047 243.942V243.942Z" fill="white" fill-opacity="0.25"/>
<path d="M582.829 260.998C583.003 259.528 581.955 258.195 580.485 258.021C579.017 257.846 577.684 258.894 577.509 260.363C577.333 261.833 578.383 263.167 579.852 263.342C581.32 263.517 582.654 262.468 582.829 260.998Z" fill="white" fill-opacity="0.25"/>
<path d="M513.192 309.272C513.367 307.802 512.317 306.469 510.848 306.294C509.379 306.12 508.047 307.168 507.87 308.638C507.695 310.107 508.745 311.44 510.216 311.615C511.683 311.791 513.017 310.741 513.192 309.272L513.192 309.272Z" fill="white" fill-opacity="0.25"/>
<path d="M553.834 296.217C553.958 295.168 553.21 294.215 552.159 294.09C551.11 293.966 550.159 294.715 550.033 295.765C549.908 296.813 550.657 297.766 551.707 297.891C552.756 298.016 553.709 297.267 553.834 296.217H553.834Z" fill="white" fill-opacity="0.25"/>
<path d="M600.201 295.596C600.327 294.547 599.577 293.595 598.529 293.469C597.477 293.345 596.525 294.095 596.401 295.144C596.275 296.193 597.025 297.145 598.074 297.27C599.124 297.395 600.076 296.646 600.201 295.596V295.596Z" fill="white" fill-opacity="0.25"/>
<path d="M611.376 305.687C611.47 304.906 610.91 304.196 610.129 304.102C609.347 304.01 608.637 304.568 608.544 305.35C608.451 306.132 609.01 306.841 609.792 306.934C610.573 307.028 611.283 306.469 611.376 305.687Z" fill="white" fill-opacity="0.25"/>
<path d="M595.943 311.079C596.038 310.298 595.478 309.588 594.696 309.494C593.914 309.402 593.205 309.961 593.111 310.742C593.019 311.525 593.576 312.234 594.359 312.327C595.14 312.42 595.851 311.862 595.943 311.079L595.943 311.079Z" fill="white" fill-opacity="0.25"/>
<path d="M550.357 331.918C550.45 331.136 549.892 330.426 549.109 330.332C548.328 330.24 547.617 330.799 547.525 331.58C547.431 332.363 547.991 333.072 548.772 333.164C549.554 333.258 550.263 332.701 550.357 331.918L550.357 331.918Z" fill="white" fill-opacity="0.25"/>
<path d="M600.22 337.495C600.313 336.714 599.755 336.004 598.974 335.91C598.191 335.818 597.482 336.377 597.388 337.158C597.295 337.941 597.853 338.65 598.636 338.743C599.417 338.836 600.128 338.278 600.22 337.495Z" fill="white" fill-opacity="0.25"/>
<path d="M539.341 325.325C539.435 324.543 538.877 323.833 538.096 323.739C537.313 323.647 536.604 324.206 536.509 324.987C536.419 325.769 536.975 326.479 537.758 326.572C538.539 326.665 539.25 326.107 539.341 325.325H539.341Z" fill="white" fill-opacity="0.25"/>
<path d="M604.771 276.618C604.898 275.569 604.147 274.616 603.098 274.491C602.047 274.367 601.095 275.116 600.971 276.166C600.845 277.215 601.595 278.167 602.644 278.292C603.694 278.417 604.647 277.668 604.771 276.618H604.771Z" fill="white" fill-opacity="0.25"/>
<path d="M516.974 373.275C517.101 372.226 516.35 371.273 515.301 371.148C514.251 371.024 513.299 371.773 513.175 372.823C513.049 373.872 513.799 374.824 514.848 374.949C515.898 375.073 516.849 374.325 516.974 373.275H516.974Z" fill="white" fill-opacity="0.25"/>
<path d="M474.018 301.103C474.142 300.053 473.392 299.102 472.343 298.976C471.295 298.851 470.342 299.601 470.216 300.65C470.092 301.7 470.841 302.652 471.891 302.777C472.94 302.902 473.893 302.153 474.018 301.103Z" fill="white" fill-opacity="0.25"/>
<path d="M535.225 279.872C535.349 278.823 534.599 277.871 533.551 277.746C532.501 277.621 531.549 278.369 531.424 279.42C531.299 280.469 532.049 281.421 533.098 281.546C534.147 281.67 535.099 280.922 535.225 279.872L535.225 279.872Z" fill="white" fill-opacity="0.25"/>
<path d="M567.029 267.005C567.154 265.955 566.404 265.004 565.355 264.878C564.306 264.753 563.354 265.502 563.227 266.552C563.104 267.602 563.854 268.554 564.903 268.679C565.951 268.803 566.904 268.054 567.029 267.005H567.029Z" fill="white" fill-opacity="0.25"/>
<path d="M615.568 232.394C615.694 231.344 614.945 230.392 613.895 230.267C612.847 230.141 611.893 230.892 611.768 231.94C611.642 232.99 612.392 233.942 613.442 234.067C614.491 234.191 615.445 233.443 615.568 232.394Z" fill="white" fill-opacity="0.25"/>
<path d="M632.811 323.877C632.935 322.828 632.184 321.876 631.136 321.75C630.088 321.625 629.135 322.374 629.009 323.425C628.885 324.474 629.635 325.426 630.683 325.551C631.732 325.676 632.685 324.926 632.811 323.877Z" fill="white" fill-opacity="0.25"/>
<path d="M663.217 325.947C663.342 324.898 662.592 323.946 661.543 323.821C660.493 323.696 659.542 324.445 659.415 325.496C659.292 326.544 660.041 327.496 661.09 327.621C662.139 327.747 663.091 326.998 663.217 325.947L663.217 325.947Z" fill="white" fill-opacity="0.25"/>
<path d="M634.803 344.222C634.927 343.173 634.177 342.221 633.128 342.096C632.079 341.971 631.127 342.72 631.001 343.77C630.876 344.819 631.626 345.772 632.675 345.896C633.725 346.021 634.676 345.273 634.803 344.222Z" fill="white" fill-opacity="0.25"/>
<path d="M661.58 356.085C661.705 355.037 660.955 354.084 659.905 353.96C658.857 353.835 657.905 354.583 657.779 355.633C657.654 356.683 658.405 357.635 659.454 357.76C660.503 357.885 661.455 357.136 661.58 356.085L661.58 356.085Z" fill="white" fill-opacity="0.25"/>
<path d="M661.973 340.43C662.073 339.607 661.485 338.862 660.663 338.765C659.842 338.666 659.096 339.253 658.999 340.075C658.901 340.896 659.487 341.642 660.31 341.739C661.131 341.838 661.876 341.251 661.973 340.43V340.43Z" fill="white" fill-opacity="0.25"/>
<path d="M753.467 375.189C753.591 374.14 752.843 373.188 751.793 373.064C750.744 372.937 749.793 373.687 749.666 374.736C749.541 375.785 750.292 376.739 751.341 376.863C752.389 376.987 753.341 376.239 753.467 375.189L753.467 375.189Z" fill="white" fill-opacity="0.25"/>
<path d="M776.305 360.794C776.408 359.925 775.787 359.134 774.916 359.031C774.045 358.926 773.254 359.548 773.151 360.421C773.048 361.29 773.671 362.082 774.54 362.183C775.41 362.288 776.201 361.666 776.305 360.794Z" fill="white" fill-opacity="0.25"/>
<path d="M788.016 369.302C788.12 368.432 787.499 367.642 786.627 367.539C785.757 367.434 784.966 368.056 784.863 368.927C784.76 369.799 785.381 370.589 786.252 370.692C787.123 370.797 787.912 370.173 788.016 369.302Z" fill="white" fill-opacity="0.25"/>
<path d="M800.34 378.203C800.444 377.333 799.823 376.542 798.952 376.439C798.082 376.335 797.29 376.957 797.187 377.829C797.084 378.699 797.706 379.49 798.576 379.594C799.447 379.697 800.238 379.075 800.34 378.203L800.34 378.203Z" fill="white" fill-opacity="0.25"/>
<path d="M819.274 375.029C819.377 374.157 818.756 373.367 817.887 373.264C817.016 373.16 816.225 373.783 816.121 374.654C816.018 375.524 816.639 376.315 817.51 376.418C818.38 376.523 819.171 375.9 819.274 375.029L819.274 375.029Z" fill="white" fill-opacity="0.25"/>
<path d="M705.479 301.924C705.604 300.875 704.853 299.922 703.804 299.798C702.755 299.673 701.803 300.422 701.677 301.472C701.553 302.521 702.303 303.473 703.352 303.598C704.401 303.723 705.353 302.974 705.479 301.924H705.479Z" fill="white" fill-opacity="0.25"/>
<path d="M677.783 298.207C677.909 297.158 677.159 296.206 676.11 296.081C675.061 295.955 674.11 296.704 673.983 297.755C673.859 298.804 674.607 299.757 675.657 299.881C676.706 300.006 677.659 299.257 677.783 298.207H677.783Z" fill="white" fill-opacity="0.25"/>
<path d="M735.084 330.854C735.21 329.805 734.46 328.852 733.411 328.728C732.361 328.602 731.409 329.352 731.284 330.402C731.157 331.451 731.907 332.403 732.957 332.528C734.006 332.653 734.959 331.904 735.084 330.854V330.854Z" fill="white" fill-opacity="0.25"/>
<path d="M767.076 321.178C767.202 320.129 766.452 319.176 765.403 319.051C764.353 318.927 763.4 319.676 763.275 320.726C763.15 321.775 763.899 322.727 764.949 322.851C765.998 322.977 766.952 322.227 767.076 321.178Z" fill="white" fill-opacity="0.25"/>
<path d="M751.365 256.209C751.49 255.159 750.74 254.208 749.691 254.083C748.641 253.958 747.69 254.706 747.566 255.756C747.439 256.806 748.19 257.758 749.239 257.883C750.287 258.008 751.24 257.259 751.365 256.209H751.365Z" fill="white" fill-opacity="0.25"/>
<path d="M919.613 274.454C918.437 272.959 916.272 272.701 914.778 273.878C913.281 275.054 913.024 277.221 914.2 278.716C915.377 280.21 917.542 280.469 919.037 279.292C920.532 278.116 920.79 275.949 919.613 274.454V274.454Z" fill="white" fill-opacity="0.25"/>
<path d="M1026.7 270.525C1025.52 269.03 1023.36 268.773 1021.86 269.948C1020.37 271.126 1020.11 273.291 1021.28 274.786C1022.46 276.281 1024.63 276.538 1026.12 275.361C1027.62 274.185 1027.88 272.02 1026.7 270.525Z" fill="white" fill-opacity="0.25"/>
<path d="M920.031 322.575C919.115 321.411 917.431 321.212 916.268 322.127C915.106 323.041 914.906 324.726 915.82 325.89C916.735 327.053 918.42 327.252 919.583 326.338C920.745 325.423 920.947 323.738 920.031 322.575V322.575Z" fill="white" fill-opacity="0.25"/>
<path d="M1003.97 339.8C1003.05 338.636 1001.37 338.435 1000.21 339.35C999.044 340.266 998.842 341.95 999.758 343.112C1000.67 344.276 1002.36 344.475 1003.52 343.563C1004.68 342.645 1004.88 340.962 1003.97 339.8H1003.97Z" fill="white" fill-opacity="0.25"/>
<path d="M825.012 301.896C824.096 300.733 822.413 300.533 821.25 301.448C820.086 302.363 819.887 304.048 820.802 305.211C821.717 306.374 823.402 306.574 824.564 305.659C825.726 304.744 825.927 303.06 825.012 301.896H825.012Z" fill="white" fill-opacity="0.25"/>
<path d="M866.613 284.413C865.698 283.25 864.013 283.049 862.852 283.965C861.688 284.88 861.487 286.564 862.404 287.727C863.319 288.89 865.003 289.091 866.165 288.175C867.327 287.26 867.53 285.576 866.613 284.413Z" fill="white" fill-opacity="0.25"/>
<path d="M1092.99 228.574C1092.08 227.41 1090.39 227.21 1089.23 228.125C1088.07 229.041 1087.87 230.724 1088.78 231.887C1089.7 233.051 1091.38 233.251 1092.54 232.336C1093.71 231.421 1093.91 229.737 1092.99 228.574H1092.99Z" fill="white" fill-opacity="0.25"/>
<path d="M1144.39 275.308C1143.47 274.144 1141.79 273.945 1140.62 274.859C1139.46 275.775 1139.26 277.458 1140.18 278.621C1141.09 279.785 1142.78 279.986 1143.94 279.07C1145.1 278.156 1145.3 276.472 1144.39 275.308H1144.39Z" fill="white" fill-opacity="0.25"/>
<path d="M851.512 367.786C850.595 366.624 848.91 366.423 847.749 367.338C846.587 368.254 846.386 369.938 847.301 371.1C848.216 372.264 849.901 372.463 851.063 371.549C852.226 370.634 852.428 368.95 851.512 367.786V367.786Z" fill="white" fill-opacity="0.25"/>
<path d="M871.017 329.819C870.362 328.988 869.158 328.846 868.328 329.497C867.498 330.153 867.355 331.355 868.007 332.186C868.662 333.016 869.864 333.159 870.696 332.506C871.526 331.852 871.669 330.648 871.017 329.819V329.819Z" fill="white" fill-opacity="0.25"/>
<path d="M846.301 331.421C845.647 330.59 844.442 330.446 843.613 331.1C842.782 331.753 842.638 332.956 843.292 333.787C843.947 334.619 845.15 334.762 845.98 334.109C846.811 333.453 846.955 332.251 846.301 331.421Z" fill="white" fill-opacity="0.25"/>
<path d="M869.538 241.035C868.886 240.204 867.682 240.061 866.851 240.715C866.021 241.368 865.877 242.571 866.532 243.402C867.185 244.233 868.39 244.375 869.219 243.722C870.049 243.068 870.194 241.865 869.538 241.035Z" fill="white" fill-opacity="0.25"/>
<path d="M859.762 299.762C859.11 298.932 857.905 298.789 857.075 299.442C856.245 300.096 856.101 301.298 856.754 302.13C857.407 302.961 858.613 303.103 859.442 302.45C860.272 301.796 860.415 300.593 859.762 299.762V299.762Z" fill="white" fill-opacity="0.25"/>
<path d="M918.538 295.715C917.999 295.026 916.999 294.907 916.311 295.449C915.625 295.991 915.505 296.988 916.047 297.677C916.588 298.365 917.586 298.484 918.274 297.942C918.963 297.4 919.081 296.403 918.538 295.715Z" fill="white" fill-opacity="0.25"/>
<path d="M903.109 296.811C902.569 296.122 901.57 296.003 900.882 296.546C900.195 297.087 900.075 298.083 900.618 298.772C901.158 299.461 902.156 299.58 902.844 299.037C903.532 298.496 903.651 297.499 903.109 296.811Z" fill="white" fill-opacity="0.25"/>
<path d="M892.926 280.105C892.384 279.417 891.387 279.298 890.699 279.839C890.011 280.381 889.89 281.378 890.433 282.067C890.975 282.756 891.973 282.874 892.661 282.332C893.348 281.791 893.468 280.794 892.926 280.105Z" fill="white" fill-opacity="0.25"/>
<path d="M946.418 293.534C945.764 292.703 944.561 292.56 943.73 293.214C942.901 293.867 942.756 295.071 943.41 295.901C944.063 296.732 945.267 296.875 946.099 296.222C946.928 295.569 947.072 294.365 946.418 293.534V293.534Z" fill="white" fill-opacity="0.25"/>
<path d="M973.28 354.341C972.628 353.511 971.424 353.368 970.594 354.021C969.763 354.675 969.618 355.878 970.274 356.709C970.927 357.539 972.129 357.683 972.961 357.029C973.792 356.376 973.936 355.173 973.28 354.341L973.28 354.341Z" fill="white" fill-opacity="0.25"/>
<path d="M963.445 332.027C962.792 331.197 961.588 331.053 960.758 331.707C959.928 332.36 959.783 333.564 960.438 334.395C961.091 335.224 962.294 335.37 963.126 334.715C963.956 334.061 964.1 332.858 963.445 332.027Z" fill="white" fill-opacity="0.25"/>
<path d="M950.191 363.452C949.538 362.621 948.334 362.479 947.504 363.132C946.674 363.786 946.529 364.99 947.183 365.819C947.837 366.651 949.04 366.794 949.872 366.14C950.701 365.487 950.846 364.284 950.191 363.452Z" fill="white" fill-opacity="0.25"/>
<path d="M889.708 350.071C889.052 349.241 887.85 349.098 887.02 349.752C886.189 350.404 886.045 351.608 886.699 352.44C887.353 353.269 888.555 353.413 889.387 352.758C890.217 352.105 890.361 350.902 889.708 350.071Z" fill="white" fill-opacity="0.25"/>
<path d="M906.346 353.981C905.802 353.289 904.801 353.17 904.11 353.715C903.418 354.258 903.3 355.259 903.843 355.95C904.387 356.641 905.387 356.761 906.08 356.217C906.771 355.675 906.891 354.672 906.346 353.981Z" fill="white" fill-opacity="0.25"/>
<path d="M1023.67 226.147C1023.02 225.316 1021.81 225.173 1020.98 225.826C1020.15 226.481 1020.01 227.683 1020.66 228.514C1021.32 229.345 1022.52 229.488 1023.35 228.834C1024.18 228.18 1024.33 226.978 1023.67 226.147Z" fill="white" fill-opacity="0.25"/>
<path d="M989.609 222.817C988.956 221.987 987.751 221.843 986.921 222.497C986.09 223.15 985.947 224.353 986.6 225.183C987.255 226.014 988.458 226.158 989.29 225.503C990.12 224.85 990.263 223.648 989.609 222.817Z" fill="white" fill-opacity="0.25"/>
<path d="M1004.41 242.926C1003.76 242.095 1002.56 241.952 1001.73 242.605C1000.89 243.26 1000.75 244.462 1001.4 245.293C1002.06 246.123 1003.26 246.267 1004.09 245.613C1004.93 244.959 1005.07 243.757 1004.41 242.926Z" fill="white" fill-opacity="0.25"/>
<path d="M969.337 273.514C968.681 272.684 967.479 272.54 966.647 273.194C965.817 273.848 965.673 275.05 966.327 275.881C966.98 276.712 968.186 276.855 969.016 276.201C969.846 275.547 969.99 274.345 969.337 273.514L969.337 273.514Z" fill="white" fill-opacity="0.25"/>
<path d="M951.523 274.192C950.869 273.361 949.665 273.218 948.834 273.872C948.005 274.525 947.86 275.728 948.515 276.558C949.168 277.39 950.373 277.533 951.203 276.88C952.035 276.225 952.177 275.023 951.523 274.192Z" fill="white" fill-opacity="0.25"/>
<path d="M987.497 137.578C986.842 136.746 985.639 136.603 984.807 137.257C983.977 137.911 983.833 139.113 984.488 139.944C985.141 140.775 986.345 140.918 987.175 140.265C988.007 139.611 988.15 138.408 987.497 137.578Z" fill="white" fill-opacity="0.25"/>
<path d="M1056.32 168.709C1055.66 167.878 1054.46 167.735 1053.63 168.389C1052.8 169.042 1052.65 170.245 1053.31 171.075C1053.96 171.906 1055.17 172.049 1056 171.396C1056.83 170.742 1056.97 169.54 1056.32 168.709V168.709Z" fill="white" fill-opacity="0.25"/>
<path d="M1129.22 171.363C1128.56 170.532 1127.36 170.388 1126.53 171.043C1125.7 171.696 1125.56 172.899 1126.21 173.729C1126.86 174.56 1128.07 174.703 1128.9 174.049C1129.73 173.396 1129.87 172.193 1129.22 171.363Z" fill="white" fill-opacity="0.25"/>
<path d="M1096.92 196.373C1096.26 195.542 1095.06 195.398 1094.23 196.052C1093.4 196.706 1093.26 197.909 1093.91 198.739C1094.56 199.571 1095.77 199.714 1096.6 199.06C1097.43 198.406 1097.57 197.203 1096.92 196.373Z" fill="white" fill-opacity="0.25"/>
<path d="M1109.3 202.545C1108.65 201.714 1107.44 201.571 1106.61 202.224C1105.78 202.878 1105.64 204.081 1106.29 204.911C1106.95 205.743 1108.15 205.886 1108.98 205.232C1109.81 204.578 1109.95 203.375 1109.3 202.545Z" fill="white" fill-opacity="0.25"/>
<path d="M1077.5 204.19C1076.85 203.359 1075.65 203.215 1074.82 203.869C1073.99 204.523 1073.84 205.726 1074.5 206.556C1075.15 207.387 1076.35 207.53 1077.18 206.877C1078.02 206.222 1078.16 205.021 1077.5 204.19H1077.5Z" fill="white" fill-opacity="0.25"/>
<path d="M1081.38 282.605C1080.73 281.774 1079.52 281.63 1078.69 282.285C1077.86 282.938 1077.72 284.141 1078.37 284.971C1079.02 285.801 1080.23 285.946 1081.06 285.291C1081.89 284.638 1082.03 283.434 1081.38 282.605H1081.38Z" fill="white" fill-opacity="0.25"/>
<path d="M1098.97 257.261C1098.31 256.43 1097.11 256.288 1096.28 256.94C1095.45 257.595 1095.3 258.796 1095.96 259.628C1096.61 260.459 1097.81 260.601 1098.64 259.949C1099.48 259.294 1099.62 258.092 1098.97 257.261V257.261Z" fill="white" fill-opacity="0.25"/>
<path d="M1068.05 244.489C1067.4 243.658 1066.19 243.514 1065.36 244.169C1064.53 244.823 1064.39 246.026 1065.04 246.855C1065.69 247.687 1066.9 247.83 1067.73 247.177C1068.56 246.522 1068.7 245.32 1068.05 244.489H1068.05Z" fill="white" fill-opacity="0.25"/>
<path d="M1063.87 295.557C1063.21 294.727 1062.01 294.583 1061.18 295.237C1060.35 295.89 1060.2 297.093 1060.86 297.923C1061.51 298.754 1062.72 298.898 1063.55 298.244C1064.38 297.59 1064.52 296.386 1063.87 295.557H1063.87Z" fill="white" fill-opacity="0.25"/>
</g>
<defs>
<clipPath id="clip0_1111_8354">
<rect width="1437" height="378" fill="white" transform="matrix(-1 0 0 1 1437 0)"/>
</clipPath>
</defs>
</svg>
