<svg width="610" height="590" viewBox="0 0 610 590" fill="none" xmlns="http://www.w3.org/2000/svg">
<path fill-rule="evenodd" clip-rule="evenodd" d="M-589.945 188.182L-599.962 222.837L-600.496 223.514L-565.927 212.976L-554.941 224.361L-591.481 296.797L-590.701 296.343L-538.071 291.574L-535.247 264.128L-535.145 264.068L-535.189 263.977L-502.288 214.809L-461.042 273.74L-487.763 297.271L-449.795 289.812L-416.324 337.635L-315.827 284.079L-315.833 284.095L-315.304 283.802L-284.358 300.289L-284.641 316.267L-299.141 357.655L-300.193 358.388L-240.335 346.522L-215.081 358.845L-238.982 416.296L-239.113 416.608L-164.32 434.132L-167.143 498.698L-166.765 498.476L-44.3475 506.768L-44.0818 506.787L-33.8553 437.518L77.8494 449.713L78.186 542.335L188.196 495.721L211.912 552.687L263.41 499.374L296.687 558.726L296.612 560.285L297.143 559.009L389.715 587.506L377.914 472.463L442.115 505.418L442.149 505.068L481.302 445.7L564.793 481.305L565.612 481.819L565.218 480.994L569.738 417.19L608.954 408.945L546.794 387.383L541.905 351.642L542.123 350.806L514.788 374.448L499.981 368.431L466.586 340.009L466.283 338.763L455.847 398.663L330.643 363.716L330.115 363.413L330.238 363.98L314.627 428.615L257.807 411.468L258.034 411.334L257.364 411.286L257.326 410.775L256.987 411.22L256.501 411.074L256.586 411.228L221.988 408.723L215.774 394.002L212.258 350.288L212.924 349.192L163.007 384.295L130.213 383.092L94.3097 246.781L94.5472 246.203L94.2005 246.36L93.7709 244.735L93.7263 246.575L25.1222 277.608L-48.226 280.277L-48.0483 280.555L-80.5636 337.549L-136.028 321.136L-136.01 320.954L-172.807 331.138L-197.218 316.467L-170.484 249.669L-170.261 249.113L-261.126 276.832L-240.986 216.303L-192.476 178.903L-244.253 154.807L-212.504 119.1L-211.662 118.95L-271.386 93.0054L-276.368 129.758L-291.644 132.447L-291.163 131.49L-292.162 132.438L-437.757 2.46673L-438.194 2.07593L-446.637 122.818L-519.831 100.285L-518.776 169.251L-566.018 180.275L-598.503 151.743L-598.56 151.694L-638.038 143.281L-589.945 188.182ZM-590.093 187.259L-636.134 144.274L-598.927 152.203L-590.093 187.259ZM-241.477 215.956L-264.307 233.559L-285.24 201.288L-235.205 197.107L-241.477 215.956ZM568.671 416.405L528.638 403.87L546.551 388.14L568.671 416.405ZM471.491 440.893L449.882 431.677L477.646 421.954L488.554 433.34L471.491 440.893ZM488.268 434.095L481.086 444.985L472.214 441.201L488.268 434.095ZM230.778 477.905L263.025 498.946L212.546 551.205L230.778 477.905ZM-220.764 303.908L-227.076 317.363L-231.928 311.662L-220.764 303.908ZM-232.297 311.227L-260.162 278.484L-220.58 303.089L-232.297 311.227ZM-227.345 317.935L-231.877 327.598L-244.888 320.667L-232.401 311.992L-227.345 317.935ZM-226.935 318.414L-208.54 340.032L-231.37 327.868L-226.935 318.414ZM-232.121 328.118L-240.414 345.797L-260.974 331.841L-245.418 321.034L-232.121 328.118ZM-231.613 328.39L-208.226 340.843L-239.807 345.853L-231.613 328.39ZM-206.548 342.022L-146.045 391.887L-194.268 368.36L-206.548 342.022ZM-195.088 367.959L-214.342 358.565L-207.328 341.707L-195.088 367.959ZM-144.829 393.118L-178.841 401.447L-193.882 369.186L-144.829 393.118ZM-143.276 393.424L-63.8794 385.416L-128.199 416.355L-143.161 393.932L-141.933 394.531L-143.276 393.424ZM263.075 497.423L255.586 481.977L262.027 483.07L263.075 497.423ZM262.61 483.169L280.524 486.209L263.72 498.361L262.61 483.169ZM230.914 477.207L235.279 441.417L254.581 481.223L230.914 477.207ZM254.89 481.857L262.762 498.09L231.91 477.957L254.89 481.857ZM255.277 481.343L235.473 440.502L256.865 412.333L261.986 482.481L255.277 481.343ZM230.423 476.492L210.979 439.322L234.767 440.862L230.423 476.492ZM229.948 476.822L192.274 459.162L210.423 439.497L229.948 476.822ZM131.937 472.241L162.001 432.802L174.49 462.8L131.937 472.241ZM174.714 463.339L187.875 494.948L132.203 472.77L174.714 463.339ZM131.137 472.345L108.607 463.369L118.261 441.515L161.382 432.667L131.137 472.345ZM162.533 432.587L209.906 439.211L191.647 458.994L175.059 462.673L162.533 432.587ZM162.547 432.01L169.962 419.819L208.706 438.463L162.547 432.01ZM162.386 431.171L162.703 416.326L169.443 419.569L162.386 431.171ZM161.794 431.997L118.545 440.871L135.228 403.106L162.134 416.052L161.794 431.997ZM-100.058 458.534L-115.476 435.425L-88.6387 436.105L-100.058 458.534ZM-163.398 433.287L-143.953 393.783L-128.723 416.607L-163.398 433.287ZM-128.401 417.09L-116.568 434.822L-162.827 433.65L-128.401 417.09ZM-116.178 435.408L-100.771 458.498L-162.406 434.234L-116.178 435.408ZM-88.0034 436.123L-35.7481 437.448L-99.4503 458.61L-88.0034 436.123ZM-87.7148 435.555L-62.2742 385.585L-34.5859 436.903L-87.7148 435.555ZM-17.2614 366.673L-6.26636 362.128L-0.154297 391.846L-0.0960693 392.126L0.0587769 392.095L17.1298 404.715L-33.6593 436.588L-17.2614 366.673ZM12.8342 353.615L-5.84247 361.334L-10.47 338.836L12.8342 353.615ZM-9.95972 338.481L56.2211 335.686L13.4833 353.347L-9.95972 338.481ZM-6.38348 361.556L-17.1014 365.985L-10.9054 339.567L-6.38348 361.556ZM0.820129 391.943L54.5341 381.241L17.6534 404.387L0.820129 391.943ZM55.8469 381.094L77.5884 448.694L18.1481 404.755L55.8469 381.094ZM117.857 441.013L79.215 448.942L134.336 403.704L117.857 441.013ZM136.569 403.114L162.372 404.982L162.148 415.421L136.569 403.114ZM134.483 402.842L78.2797 448.967L56.4451 381.075L134.483 402.842ZM54.7737 380.608L0.351196 391.452L-5.72424 361.905L13.4272 353.991L54.9583 380.329L53.592 380.279L54.7737 380.608ZM14.0752 353.723L57.5266 335.766L55.7411 380.147L14.0752 353.723ZM-10.3677 337.923L4.06464 313.785L56.5016 335.1L-10.3677 337.923ZM-17.7545 366.255L-60.874 384.074L-11.3768 339.066L-17.7545 366.255ZM-17.9161 366.942L-34.2061 436.401L-61.8784 385.11L-17.9161 366.942ZM-62.9233 385.592L-88.3496 435.539L-115.867 434.842L-127.878 416.839L-62.9233 385.592ZM-144.52 393.633L-164.016 433.243L-178.594 401.978L-144.52 393.633ZM-164.533 433.492L-237.485 416.4L-179.162 402.117L-164.533 433.492ZM-100.679 459.153L-125.592 473.727L-162.915 434.651L-100.679 459.153ZM-100.689 459.824L-113.47 486.418L-125.184 474.152L-100.689 459.824ZM-99.9258 459.561L-45.5176 505.845L-112.985 486.732L-99.9258 459.561ZM-99.4503 459.214L-34.4505 437.623L-44.5353 505.928L-99.4503 459.214ZM-33.14 436.94L17.6257 405.082L77.11 449.054L-32.7589 437.06L-32.4497 436.958L-33.14 436.94ZM117.572 441.657L107.84 463.683L130.774 472.819L78.7544 541.057L78.4224 449.69L117.572 441.657ZM131.328 473.038L187.471 495.407L79.3557 541.214L131.328 473.038ZM175.285 463.213L191.763 459.557L229.891 477.43L188.504 494.967L175.285 463.213ZM281.319 486.343L298.91 489.331L264.882 498.23L281.319 486.343ZM301.104 488.79L345.927 440.02L328.193 482.726L301.104 488.79ZM327.924 483.374L320.554 501.127L301.036 489.393L327.924 483.374ZM346.907 439.153L377.025 471.795L328.879 482.573L346.907 439.153ZM300.813 488.257L305.498 468.859L344.682 440.525L300.813 488.257ZM320.332 501.663L317.705 507.991L301.784 490.512L320.332 501.663ZM320.828 501.962L349.258 519.052L387.76 584.895L318.13 508.46L320.828 501.962ZM349.371 518.45L321.051 501.425L328.61 483.22L376.601 472.478L375.6 473.408L376.769 472.748L349.371 518.45ZM377.589 471.56L347.431 438.874L417.943 434.064L377.589 471.56ZM449.547 430.883L456.242 399.612L469.587 413.543L449.547 430.883ZM469.985 413.957L477.21 421.498L450.42 430.881L469.985 413.957ZM448.893 431.207L432.146 421.649L455.603 399.853L448.893 431.207ZM448.127 431.429L419.522 433.381L431.708 422.058L448.127 431.429ZM418.432 434.394L419.18 448.183L379.549 470.524L418.432 434.394ZM418.983 433.992L447.845 432.023L419.738 447.868L418.983 433.992ZM448.752 432.164L446.816 451.816L420.583 463.429L419.773 448.505L448.752 432.164ZM449.337 432.068L470.776 441.21L447.419 451.549L449.337 432.068ZM527.554 404.823L527.828 404.583L530.745 439.412L489.765 433.254L527.583 404.716L527.554 404.823ZM489.222 432.944L485.845 419.082L526.426 404.87L489.222 432.944ZM488.515 432.466L478.243 421.745L485.301 419.273L488.515 432.466ZM531.017 440.033L531.119 440.048L541.928 433.634L564.24 480.28L490.366 433.925L531.017 440.033ZM531.309 439.269L528.483 405.528L541.677 433.114L531.309 439.269ZM528.609 404.462L568.765 417.036L542.174 432.82L528.609 404.462ZM528.577 403.159L533.842 382.811L546.083 387.786L528.577 403.159ZM527.985 403.158L527.65 402.455L527.762 403.794L485.71 418.522L482.054 403.519L514.898 375.112L533.306 382.593L527.985 403.158ZM485.165 418.712L477.805 421.289L470.42 413.581L481.566 403.941L485.165 418.712ZM470.022 413.167L456.674 399.234L457.498 399.123L456.739 398.912L476.932 384.91L481.414 403.314L470.022 413.167ZM431.625 421.351L405.004 406.157L455.218 399.428L431.625 421.351ZM431.185 421.759L418.673 433.386L377.304 409.87L404.068 406.283L431.185 421.759ZM376.467 410.054L417.719 433.504L347.573 438.289L376.467 410.054ZM305.705 468.001L315.044 429.341L346.176 438.736L305.705 468.001ZM300.165 488.487L293.915 477.235L304.782 469.376L300.165 488.487ZM299.742 488.889L281.97 485.872L293.452 477.57L299.742 488.889ZM281.179 485.738L262.57 482.58L257.478 412.83L293.172 477.065L281.179 485.738ZM235.171 439.951L230.048 427.817L255.985 412.54L235.171 439.951ZM234.686 440.283L211.438 438.777L229.547 428.11L234.686 440.283ZM210.474 438.676L170.262 419.327L178.287 406.135L221.596 409.27L229.323 427.577L210.474 438.676ZM169.742 419.076L162.717 415.695L162.944 405.023L177.643 406.088L169.742 419.076ZM162.957 404.448L163.375 384.929L187.822 389.354L177.978 405.536L162.957 404.448ZM162.795 385.121L162.382 404.407L135.952 402.498L162.795 385.121ZM133.941 402.101L58.4232 381.032L112.043 383L133.941 402.101ZM112.955 383.033L129.766 383.65L134.569 401.888L112.955 383.033ZM56.5623 380.388L77.1107 352.528L111.355 382.399L56.5623 380.388ZM56.3331 379.732L58.0946 335.94L76.6769 352.149L56.3331 379.732ZM58.5231 335.551L91.2824 332.35L77.0198 351.686L58.5231 335.551ZM4.36237 313.286L25.1828 278.463L57.1747 334.753L4.36237 313.286ZM3.82361 313.067L-14.8113 305.492L24.2743 278.863L3.82361 313.067ZM-15.4033 305.872L3.52594 313.566L-10.8945 337.685L-27.3976 311.836L-15.4033 305.872ZM-11.4114 337.943L-79.2178 337.607L-27.9139 312.093L-11.4114 337.943ZM-11.6262 338.514L-62.1655 384.471L-80.0085 338.177L-11.6262 338.514ZM-62.6857 384.718L-143.121 392.832L-80.5474 338.373L-62.6857 384.718ZM-206.741 341.126L-172.891 331.756L-158.311 340.521L-144.497 392.418L-206.741 341.126ZM-226.668 317.844L-219.932 303.484L-197.932 316.707L-207.434 340.446L-226.668 317.844ZM-220.102 302.71L-260.885 277.359L-171.679 250.145L-220.102 302.71ZM-261.671 277.599L-232.772 311.557L-245.453 320.365L-283.777 299.947L-283.423 280.083L-261.988 277.606L-262.022 277.706L-261.671 277.599ZM-523.723 200.111L-509.314 195.719L-502.739 213.911L-502.947 213.866L-502.782 214.101L-527.083 218.752L-523.723 200.111ZM-535.643 263.031L-554.172 224.521L-527.793 219.472L-535.643 263.031ZM-513.138 185.138L-509.509 195.179L-523.61 199.477L-520.913 184.512L-513.138 185.138ZM-520.812 183.945L-518.402 170.57L-513.352 184.545L-520.812 183.945ZM-367.913 130.02L-337.116 175.168L-351.643 188.978L-399.873 179.351L-398.58 178.907L-400.397 179.082L-367.913 130.02ZM-323.537 195.352L-322.352 208.509L-383.639 221.5L-323.537 195.352ZM-322.948 195.499L-307.933 205.452L-321.786 208.388L-322.948 195.499ZM-307.262 205.897L-291.529 216.325L-315.137 282.154L-321.735 208.965L-307.262 205.897ZM-306.474 205.73L-286.185 201.429L-291.33 215.77L-306.474 205.73ZM-307.147 205.285L-322.012 195.431L-287.3 201.079L-307.147 205.285ZM-323.121 209.259L-360.594 244.147L-385.73 222.53L-323.121 209.259ZM-384.981 221.457L-351.464 189.598L-324.242 195.032L-384.981 221.457ZM-386.229 221.851L-400.537 179.803L-352.154 189.461L-386.229 221.851ZM-414.895 211.675L-401.003 180.215L-386.822 221.894L-414.895 211.675ZM-387.038 222.426L-430.552 247.132L-415.127 212.201L-387.038 222.426ZM-415.436 211.478L-453.235 197.719L-401.497 179.911L-415.436 211.478ZM-454.092 197.406L-481.399 187.466L-403.359 179.944L-454.092 197.406ZM-502.208 213.693L-508.764 195.552L-483.417 187.82L-502.208 213.693ZM-482.752 187.881L-482.297 188.954L-482.347 188.145L-469.844 202.828L-501.526 213.733L-482.752 187.881ZM-481.764 187.944L-454.954 197.704L-469.261 202.627L-481.764 187.944ZM-454.098 198.015L-415.669 212.004L-431.242 247.277L-468.861 203.097L-454.098 198.015ZM-386.39 222.718L-361.016 244.54L-380.844 263L-430.445 247.731L-386.39 222.718ZM-360.579 244.918L-316.536 282.797L-380.211 263.196L-360.579 244.918ZM-360.157 244.524L-322.284 209.263L-315.656 282.796L-360.157 244.524ZM-291.035 216.653L-285.366 220.411L-283.808 265.774L-314.778 282.858L-291.035 216.653ZM-283.26 265.017L-284.777 220.801L-264.765 234.065L-283.26 265.017ZM-284.801 220.096L-285.42 202.066L-265.371 232.974L-284.801 220.096ZM-285.389 219.706L-290.835 216.096L-285.976 202.549L-285.389 219.706ZM-286.062 200.698L-322.857 194.709L-292.348 133.853L-286.062 200.698ZM-323.326 194.365L-336.367 175.248L-293.149 134.168L-323.326 194.365ZM-323.921 194.511L-350.954 189.115L-336.788 175.648L-323.921 194.511ZM-441.485 151.831L-457.883 144.092L-446.335 123.707L-431.237 142.402L-441.485 151.831ZM-430.876 142.849L-402.392 178.12L-440.971 152.138L-430.876 142.849ZM-441.578 152.422L-401.793 179.217L-482.17 186.969L-458.165 144.593L-441.578 152.422ZM-508.959 195.01L-512.508 185.19L-484.213 187.468L-508.959 195.01ZM-469.444 203.298L-432.87 246.249L-467.946 221.399L-467.995 221.366L-501.224 214.234L-469.444 203.298ZM-431.627 247.835L-460.448 273.216L-467.734 222.255L-431.627 247.835ZM-431.172 248.198L-398.574 279.164L-449.537 289.177L-460.278 273.831L-431.172 248.198ZM-430.08 248.445L-381.329 263.452L-397.972 278.945L-430.08 248.445ZM-397.722 279.497L-380.696 263.647L-316.051 283.547L-415.749 336.678L-397.722 279.497ZM-283.754 266.4L-283.988 279.568L-313.891 283.023L-283.754 266.4ZM-283.178 266.292L-262.533 277.09L-283.412 279.503L-283.178 266.292ZM-283.015 265.729L-264.607 234.915L-261.892 276.778L-283.015 265.729ZM-285.331 200.148L-277.191 140.11L-245.194 155.003L-285.331 200.148ZM-285.69 198.524L-291.824 133.301L-277.738 139.857L-285.69 198.524ZM-336.694 174.768L-367.357 129.817L-292.844 133.087L-336.694 174.768ZM-367.905 129.218L-368.066 129.211L-400.31 177.909L-380.866 97.0193L-293.801 132.469L-367.905 129.218ZM-401.112 178.791L-430.453 142.46L-381.567 97.477L-401.112 178.791ZM-430.814 142.012L-445.856 123.387L-445.203 123.259L-445.523 123.161L-382.431 97.4924L-430.814 142.012ZM-458.403 143.846L-485.282 131.16L-446.935 123.6L-458.403 143.846ZM-458.686 144.348L-482.461 186.319L-485.878 131.515L-458.686 144.348ZM-483.078 185.651L-499.42 147.233L-486.437 131.782L-483.078 185.651ZM-483.138 186.979L-512.722 184.596L-518.166 169.537L-499.835 147.726L-483.138 186.979ZM-518.216 168.705L-519.227 102.137L-500.086 147.132L-518.216 168.705ZM-521.381 183.899L-564.238 180.449L-518.851 169.857L-521.381 183.899ZM-565.967 180.886L-521.484 184.467L-524.223 199.664L-565.759 212.324L-579.556 198.026L-565.967 180.886ZM-579.959 197.609L-589.134 188.102L-566.901 181.14L-579.959 197.609ZM-589.466 188.585L-580.318 198.063L-599.022 221.651L-589.466 188.585ZM-598.903 222.427L-579.916 198.479L-566.375 212.512L-598.903 222.427ZM-565.311 212.789L-524.339 200.298L-527.684 218.867L-554.495 223.998L-565.311 212.789ZM-554.597 224.958L-535.892 263.838L-590.098 295.329L-554.597 224.958ZM-589.524 295.66L-535.911 264.514L-536.046 265.256L-535.921 265.073L-538.595 291.044L-589.524 295.66ZM-534.992 262.649L-527.192 219.356L-502.914 214.711L-534.992 262.649ZM-468.369 221.873L-461.11 272.643L-501.639 214.735L-468.369 221.873ZM-485.791 296.299L-460.711 274.213L-450.154 289.298L-485.791 296.299ZM-398.394 279.714L-416.334 336.62L-449.178 289.691L-398.394 279.714ZM-314.358 283.655L-283.999 280.149L-284.346 299.645L-314.358 283.655ZM-245.983 320.734L-261.48 331.497L-284.066 316.168L-283.788 300.594L-245.983 320.734ZM-284.208 316.765L-261.985 331.848L-298.336 357.098L-284.208 316.765ZM-297.608 357.29L-261.479 332.192L-241.026 346.073L-297.608 357.29ZM-239.354 346.364L-207.806 341.357L-214.86 358.314L-239.354 346.364ZM-194.703 368.787L-179.41 401.586L-238.235 415.993L-214.564 359.095L-194.703 368.787ZM-163.766 434.591L-126.102 474.025L-166.522 497.671L-163.766 434.591ZM-125.693 474.451L-113.312 487.414L-113.238 487.256L-47.0452 506.012L-165.882 497.962L-125.693 474.451ZM230.18 477.932L211.941 551.261L188.726 495.497L230.18 477.932ZM263.904 499.08L299.967 489.646L296.739 557.644L263.904 499.08ZM297.342 557.031L300.526 489.974L317.464 508.569L297.342 557.031ZM317.89 509.037L388.465 586.521L297.365 558.477L317.89 509.037ZM388.964 585.817L349.803 518.846L377.376 472.853L388.964 585.817ZM378.179 471.954L419.214 448.818L420.054 464.291L446.751 452.473L441.627 504.522L378.179 471.954ZM442.27 503.843L447.355 452.206L471.499 441.519L480.766 445.472L442.27 503.843ZM481.624 445.213L489.13 433.829L561.689 479.357L481.624 445.213ZM542.422 433.339L569.142 417.481L564.717 479.945L542.422 433.339ZM569.583 416.637L547.303 388.168L606.81 408.809L569.583 416.637ZM546.19 387.208L533.987 382.249L541.526 353.109L546.19 387.208ZM541.104 352.445L533.451 382.032L515.386 374.691L541.104 352.445ZM481.902 402.891L477.437 384.559L499.868 369.005L514.3 374.87L481.902 402.891ZM499.362 368.658L477.292 383.962L466.817 340.959L499.362 368.658ZM476.786 384.312L456.475 398.397L466.375 341.571L476.786 384.312ZM454.652 398.924L404.183 405.688L332.69 364.882L454.652 398.924ZM403.247 405.814L376.478 409.401L376.374 409.343L346.985 438.061L330.95 364.552L403.247 405.814ZM330.519 365.264L346.428 438.212L315.178 428.781L330.519 365.264ZM314.492 429.174L304.989 468.519L293.634 476.73L257.69 412.033L314.492 429.174ZM256.156 411.774L229.822 427.282L222.239 409.317L256.156 411.774ZM178.623 405.583L188.428 389.464L215.286 394.325L221.345 408.677L178.623 405.583ZM215.175 393.723L188.748 388.938L211.749 351.124L215.175 393.723ZM211.004 351.245L188.142 388.828L163.82 384.425L211.004 351.245ZM162.174 384.839L135.262 402.261L130.366 383.672L162.174 384.839ZM129.613 383.069L112.268 382.433L77.4535 352.065L92.1802 332.099L94.2463 248.789L129.613 383.069ZM91.6156 331.74L58.2786 334.999L93.6834 248.319L91.6156 331.74ZM93.4696 247.32L57.7895 334.675L25.593 278.025L93.4696 247.32ZM24.204 278.216L-15.5604 305.309L-27.709 311.349L-47.2009 280.815L24.204 278.216ZM-28.2243 311.607L-79.7111 337.211L-47.6985 281.101L-28.2243 311.607ZM-81.2088 337.956L-81.6373 338.169L-81.1906 338.172L-143.627 392.512L-136.091 321.716L-81.2088 337.956ZM-136.67 321.733L-144.112 391.638L-157.817 340.149L-172.13 331.546L-136.67 321.733ZM-173.57 331.349L-206.862 340.562L-197.435 317.007L-173.57 331.349ZM-219.607 303.01L-171.598 250.905L-197.716 316.168L-219.607 303.01ZM-261.382 275.785L-264.083 234.11L-241.8 216.931L-261.382 275.785ZM-193.574 179.025L-240.662 215.328L-234.386 196.463L-285.05 200.696L-244.65 155.255L-193.574 179.025ZM-244.796 154.553L-277.111 139.515L-275.855 130.251L-213.416 119.258L-244.796 154.553ZM-270.919 93.8345L-213.643 118.716L-275.775 129.653L-270.919 93.8345ZM-276.448 130.355L-277.655 139.261L-290.724 133.179L-290.513 133.189L-291.126 132.939L-276.448 130.355ZM-293.588 131.936L-380.731 96.4548L-380.657 96.1502L-380.948 96.2685L-436.711 4.17004L-293.588 131.936ZM-381.487 96.4879L-446.057 122.759L-437.725 3.60321L-381.487 96.4879ZM-485.928 130.703L-485.952 130.313L-486.349 130.786L-487.106 130.936L-486.653 131.149L-499.672 146.639L-519.031 101.133L-447.55 123.137L-485.928 130.703ZM-589.417 187.589L-598.19 152.783L-566.67 180.467L-589.417 187.589Z" fill="#00A9C6" fill-opacity="0.35"/>
<path d="M452.655 399.432C452.429 397.542 453.78 395.829 455.667 395.603C457.557 395.378 459.27 396.727 459.495 398.616C459.72 400.505 458.372 402.22 456.483 402.445C454.595 402.67 452.879 401.321 452.654 399.432H452.655Z" fill="#00A9C6" fill-opacity="0.35"/>
<path d="M374.154 472.373C373.928 470.484 375.278 468.77 377.166 468.545C379.056 468.32 380.77 469.669 380.996 471.559C381.22 473.448 379.874 475.162 377.983 475.387C376.093 475.611 374.379 474.262 374.154 472.373V472.373Z" fill="#00A9C6" fill-opacity="0.35"/>
<path d="M486.385 433.755C486.21 432.284 487.26 430.952 488.729 430.777C490.198 430.602 491.531 431.65 491.706 433.12C491.881 434.59 490.831 435.922 489.362 436.097C487.893 436.273 486.56 435.224 486.385 433.755Z" fill="#00A9C6" fill-opacity="0.35"/>
<path d="M439.212 505.287C439.038 503.818 440.085 502.485 441.555 502.31C443.023 502.135 444.357 503.184 444.533 504.653C444.708 506.123 443.658 507.455 442.189 507.63C440.719 507.805 439.387 506.757 439.212 505.287L439.212 505.287Z" fill="#00A9C6" fill-opacity="0.35"/>
<path d="M538.953 351.942C538.776 350.472 539.827 349.139 541.297 348.964C542.765 348.789 544.098 349.837 544.274 351.307C544.448 352.777 543.399 354.11 541.93 354.285C540.46 354.46 539.128 353.412 538.953 351.942V351.942Z" fill="#00A9C6" fill-opacity="0.35"/>
<path d="M497.172 368.998C496.998 367.528 498.046 366.195 499.516 366.021C500.984 365.846 502.317 366.894 502.492 368.363C502.668 369.833 501.618 371.167 500.149 371.342C498.681 371.517 497.347 370.468 497.172 368.998Z" fill="#00A9C6" fill-opacity="0.35"/>
<path d="M297.614 489.586C297.438 488.117 298.487 486.784 299.957 486.609C301.424 486.433 302.757 487.482 302.933 488.952C303.109 490.422 302.058 491.756 300.59 491.928C299.121 492.105 297.788 491.056 297.614 489.586V489.586Z" fill="#00A9C6" fill-opacity="0.35"/>
<path d="M294.317 558.974C294.141 557.504 295.19 556.172 296.66 555.997C298.129 555.823 299.462 556.872 299.637 558.341C299.812 559.811 298.762 561.143 297.294 561.319C295.824 561.494 294.492 560.445 294.317 558.974H294.317Z" fill="#00A9C6" fill-opacity="0.35"/>
<path d="M386.724 587.421C386.548 585.951 387.599 584.62 389.068 584.444C390.536 584.269 391.87 585.318 392.044 586.787C392.22 588.257 391.17 589.591 389.701 589.765C388.231 589.94 386.899 588.892 386.724 587.421H386.724Z" fill="#00A9C6" fill-opacity="0.35"/>
<path d="M566.806 417.272C566.631 415.802 567.681 414.469 569.15 414.294C570.619 414.12 571.951 415.168 572.128 416.638C572.303 418.107 571.253 419.44 569.782 419.615C568.315 419.791 566.981 418.741 566.806 417.272L566.806 417.272Z" fill="#00A9C6" fill-opacity="0.35"/>
<path d="M526.164 404.217C526.04 403.168 526.788 402.215 527.839 402.09C528.888 401.966 529.839 402.715 529.965 403.765C530.09 404.813 529.341 405.766 528.291 405.891C527.242 406.016 526.29 405.267 526.164 404.217H526.164Z" fill="#00A9C6" fill-opacity="0.35"/>
<path d="M479.798 403.596C479.672 402.547 480.422 401.595 481.47 401.469C482.522 401.345 483.474 402.095 483.598 403.144C483.724 404.193 482.974 405.145 481.925 405.27C480.875 405.395 479.923 404.646 479.798 403.596V403.596Z" fill="#00A9C6" fill-opacity="0.35"/>
<path d="M468.623 413.687C468.529 412.906 469.089 412.196 469.87 412.102C470.652 412.01 471.362 412.568 471.455 413.35C471.548 414.132 470.989 414.841 470.207 414.934C469.426 415.028 468.716 414.469 468.623 413.687Z" fill="#00A9C6" fill-opacity="0.35"/>
<path d="M484.059 419.079C483.964 418.298 484.524 417.588 485.306 417.494C486.088 417.402 486.797 417.961 486.891 418.742C486.983 419.525 486.426 420.234 485.643 420.327C484.862 420.42 484.151 419.862 484.059 419.079L484.059 419.079Z" fill="#00A9C6" fill-opacity="0.35"/>
<path d="M529.645 439.918C529.552 439.136 530.11 438.426 530.893 438.332C531.674 438.24 532.385 438.799 532.477 439.58C532.571 440.363 532.011 441.072 531.23 441.165C530.448 441.258 529.739 440.701 529.645 439.918L529.645 439.918Z" fill="#00A9C6" fill-opacity="0.35"/>
<path d="M479.78 445.495C479.687 444.714 480.245 444.004 481.026 443.91C481.809 443.818 482.518 444.376 482.612 445.157C482.705 445.94 482.147 446.649 481.364 446.743C480.583 446.836 479.872 446.277 479.78 445.495Z" fill="#00A9C6" fill-opacity="0.35"/>
<path d="M540.658 433.325C540.564 432.543 541.122 431.833 541.903 431.739C542.686 431.647 543.395 432.206 543.49 432.987C543.58 433.769 543.024 434.478 542.241 434.571C541.46 434.665 540.749 434.107 540.658 433.325H540.658Z" fill="#00A9C6" fill-opacity="0.35"/>
<path d="M475.229 384.618C475.102 383.569 475.853 382.616 476.902 382.491C477.953 382.367 478.905 383.116 479.029 384.166C479.155 385.216 478.405 386.167 477.356 386.292C476.306 386.418 475.353 385.668 475.229 384.618H475.229Z" fill="#00A9C6" fill-opacity="0.35"/>
<path d="M563.027 481.275C562.9 480.226 563.651 479.273 564.7 479.148C565.75 479.024 566.702 479.773 566.826 480.823C566.952 481.872 566.202 482.824 565.153 482.949C564.103 483.073 563.152 482.325 563.027 481.275H563.027Z" fill="#00A9C6" fill-opacity="0.35"/>
<path d="M605.981 409.103C605.857 408.053 606.607 407.102 607.656 406.976C608.704 406.851 609.657 407.601 609.783 408.65C609.907 409.7 609.158 410.652 608.108 410.777C607.059 410.902 606.106 410.153 605.981 409.103Z" fill="#00A9C6" fill-opacity="0.35"/>
<path d="M544.775 387.872C544.651 386.823 545.401 385.871 546.449 385.746C547.499 385.621 548.451 386.369 548.576 387.42C548.701 388.469 547.951 389.421 546.902 389.546C545.853 389.67 544.901 388.922 544.775 387.872L544.775 387.872Z" fill="#00A9C6" fill-opacity="0.35"/>
<path d="M512.969 375.005C512.844 373.955 513.594 373.004 514.643 372.878C515.692 372.753 516.644 373.503 516.771 374.552C516.894 375.602 516.144 376.554 515.095 376.679C514.047 376.804 513.094 376.054 512.969 375.005H512.969Z" fill="#00A9C6" fill-opacity="0.35"/>
<path d="M464.43 340.394C464.304 339.343 465.053 338.392 466.103 338.266C467.151 338.141 468.105 338.892 468.23 339.94C468.356 340.99 467.606 341.942 466.556 342.067C465.507 342.191 464.553 341.443 464.43 340.394Z" fill="#00A9C6" fill-opacity="0.35"/>
<path d="M447.19 431.877C447.066 430.828 447.817 429.876 448.865 429.75C449.913 429.625 450.866 430.374 450.992 431.425C451.116 432.474 450.366 433.426 449.318 433.551C448.268 433.676 447.316 432.926 447.19 431.877Z" fill="#00A9C6" fill-opacity="0.35"/>
<path d="M416.783 433.947C416.658 432.898 417.408 431.946 418.457 431.821C419.507 431.696 420.458 432.445 420.585 433.496C420.708 434.544 419.959 435.496 418.91 435.621C417.861 435.747 416.909 434.998 416.783 433.947L416.783 433.947Z" fill="#00A9C6" fill-opacity="0.35"/>
<path d="M445.196 452.222C445.072 451.173 445.822 450.221 446.871 450.096C447.92 449.971 448.872 450.72 448.998 451.77C449.123 452.819 448.373 453.772 447.324 453.896C446.274 454.021 445.323 453.273 445.196 452.222Z" fill="#00A9C6" fill-opacity="0.35"/>
<path d="M418.419 464.085C418.294 463.037 419.044 462.084 420.094 461.96C421.142 461.835 422.094 462.583 422.22 463.633C422.345 464.682 421.595 465.635 420.545 465.759C419.496 465.885 418.544 465.135 418.419 464.085L418.419 464.085Z" fill="#00A9C6" fill-opacity="0.35"/>
<path d="M418.026 448.429C417.926 447.607 418.514 446.862 419.336 446.764C420.157 446.666 420.903 447.253 421 448.075C421.098 448.896 420.512 449.642 419.689 449.739C418.868 449.838 418.123 449.25 418.026 448.429V448.429Z" fill="#00A9C6" fill-opacity="0.35"/>
<path d="M347.568 519.069C347.443 518.021 348.193 517.068 349.242 516.944C350.29 516.818 351.243 517.568 351.369 518.617C351.493 519.667 350.743 520.62 349.695 520.744C348.645 520.868 347.693 520.12 347.568 519.069V519.069Z" fill="#00A9C6" fill-opacity="0.35"/>
<path d="M315.89 508.733C315.764 507.684 316.514 506.732 317.562 506.607C318.612 506.481 319.564 507.23 319.689 508.281C319.814 509.329 319.065 510.282 318.015 510.406C316.967 510.531 316.014 509.783 315.89 508.733Z" fill="#00A9C6" fill-opacity="0.35"/>
<path d="M326.535 483.189C326.411 482.14 327.159 481.188 328.209 481.064C329.258 480.938 330.209 481.687 330.336 482.736C330.461 483.785 329.71 484.74 328.661 484.863C327.613 484.988 326.661 484.24 326.535 483.189L326.535 483.189Z" fill="#00A9C6" fill-opacity="0.35"/>
<path d="M303.695 468.794C303.592 467.924 304.213 467.134 305.084 467.031C305.955 466.926 306.746 467.548 306.849 468.42C306.952 469.289 306.329 470.081 305.46 470.183C304.59 470.288 303.799 469.666 303.695 468.794Z" fill="#00A9C6" fill-opacity="0.35"/>
<path d="M291.982 477.302C291.878 476.432 292.499 475.642 293.371 475.539C294.241 475.435 295.032 476.056 295.135 476.928C295.239 477.799 294.617 478.589 293.746 478.692C292.875 478.797 292.086 478.174 291.982 477.302Z" fill="#00A9C6" fill-opacity="0.35"/>
<path d="M279.66 486.204C279.556 485.334 280.177 484.543 281.048 484.439C281.918 484.335 282.71 484.958 282.813 485.829C282.916 486.7 282.294 487.491 281.424 487.594C280.553 487.697 279.762 487.076 279.66 486.204L279.66 486.204Z" fill="#00A9C6" fill-opacity="0.35"/>
<path d="M260.726 483.029C260.623 482.157 261.244 481.367 262.113 481.264C262.984 481.16 263.775 481.783 263.879 482.654C263.982 483.524 263.361 484.315 262.49 484.418C261.62 484.523 260.829 483.9 260.726 483.029L260.726 483.029Z" fill="#00A9C6" fill-opacity="0.35"/>
<path d="M374.519 409.924C374.394 408.875 375.145 407.922 376.194 407.798C377.243 407.673 378.195 408.422 378.321 409.472C378.445 410.521 377.695 411.473 376.646 411.598C375.597 411.723 374.645 410.974 374.519 409.924H374.519Z" fill="#00A9C6" fill-opacity="0.35"/>
<path d="M402.217 406.207C402.091 405.158 402.841 404.205 403.89 404.08C404.939 403.955 405.89 404.704 406.017 405.755C406.141 406.803 405.393 407.757 404.343 407.881C403.294 408.006 402.341 407.257 402.217 406.207H402.217Z" fill="#00A9C6" fill-opacity="0.35"/>
<path d="M344.914 438.854C344.788 437.805 345.538 436.852 346.587 436.728C347.637 436.602 348.589 437.352 348.714 438.402C348.841 439.451 348.091 440.403 347.041 440.528C345.992 440.653 345.039 439.904 344.914 438.854V438.854Z" fill="#00A9C6" fill-opacity="0.35"/>
<path d="M312.924 429.178C312.798 428.129 313.548 427.176 314.597 427.051C315.647 426.927 316.6 427.676 316.725 428.726C316.85 429.775 316.101 430.727 315.051 430.851C314.002 430.977 313.048 430.227 312.924 429.178Z" fill="#00A9C6" fill-opacity="0.35"/>
<path d="M328.633 364.209C328.508 363.159 329.258 362.208 330.307 362.083C331.357 361.958 332.308 362.706 332.432 363.756C332.559 364.806 331.808 365.758 330.759 365.883C329.711 366.008 328.758 365.259 328.633 364.209H328.633Z" fill="#00A9C6" fill-opacity="0.35"/>
<path d="M160.389 382.454C161.565 380.959 163.729 380.701 165.224 381.878C166.721 383.054 166.978 385.221 165.802 386.716C164.625 388.21 162.46 388.469 160.965 387.292C159.47 386.116 159.212 383.949 160.389 382.454V382.454Z" fill="#00A9C6" fill-opacity="0.35"/>
<path d="M53.3026 378.525C54.4791 377.03 56.6446 376.773 58.1399 377.948C59.634 379.126 59.8923 381.291 58.717 382.786C57.5388 384.281 55.3727 384.538 53.8791 383.361C52.3833 382.185 52.1261 380.02 53.3026 378.525Z" fill="#00A9C6" fill-opacity="0.35"/>
<path d="M159.969 430.575C160.885 429.411 162.569 429.213 163.732 430.127C164.894 431.042 165.094 432.726 164.18 433.89C163.265 435.053 161.58 435.253 160.417 434.338C159.255 433.424 159.053 431.738 159.969 430.575V430.575Z" fill="#00A9C6" fill-opacity="0.35"/>
<path d="M209.903 550.517C210.818 549.353 212.504 549.154 213.666 550.07C214.828 550.983 215.029 552.667 214.113 553.831C213.198 554.995 211.513 555.194 210.351 554.28C209.189 553.365 208.986 551.68 209.903 550.517V550.517Z" fill="#00A9C6" fill-opacity="0.35"/>
<path d="M76.0306 447.8C76.9465 446.636 78.631 446.435 79.7925 447.35C80.9547 448.266 81.157 449.951 80.2411 451.112C79.3263 452.277 77.6407 452.475 76.4774 451.563C75.3158 450.645 75.1147 448.962 76.0306 447.8H76.0306Z" fill="#00A9C6" fill-opacity="0.35"/>
<path d="M76.3638 540.245C77.2815 539.083 78.9642 538.88 80.128 539.797C81.2885 540.712 81.4913 542.397 80.5766 543.559C79.6618 544.723 77.9762 544.922 76.8124 544.008C75.6519 543.093 75.4496 541.408 76.3638 540.245Z" fill="#00A9C6" fill-opacity="0.35"/>
<path d="M254.989 409.896C255.905 408.733 257.588 408.533 258.751 409.449C259.915 410.363 260.114 412.048 259.199 413.211C258.284 414.375 256.599 414.575 255.437 413.659C254.275 412.744 254.074 411.06 254.989 409.896H254.989Z" fill="#00A9C6" fill-opacity="0.35"/>
<path d="M213.387 392.413C214.302 391.25 215.987 391.049 217.148 391.965C218.312 392.88 218.513 394.564 217.596 395.727C216.681 396.89 214.997 397.091 213.835 396.175C212.673 395.26 212.47 393.576 213.387 392.413Z" fill="#00A9C6" fill-opacity="0.35"/>
<path d="M228.49 475.786C229.407 474.624 231.092 474.423 232.253 475.338C233.415 476.254 233.616 477.938 232.701 479.1C231.786 480.264 230.101 480.463 228.939 479.549C227.776 478.634 227.574 476.95 228.49 475.786V475.786Z" fill="#00A9C6" fill-opacity="0.35"/>
<path d="M186.156 493.62C187.073 492.456 188.757 492.256 189.918 493.172C191.081 494.087 191.283 495.771 190.367 496.934C189.452 498.097 187.769 498.298 186.604 497.383C185.442 496.466 185.241 494.783 186.156 493.62V493.62Z" fill="#00A9C6" fill-opacity="0.35"/>
<path d="M208.982 437.819C209.637 436.988 210.841 436.846 211.671 437.497C212.501 438.153 212.644 439.355 211.992 440.186C211.337 441.016 210.135 441.159 209.303 440.506C208.473 439.852 208.33 438.648 208.982 437.819V437.819Z" fill="#00A9C6" fill-opacity="0.35"/>
<path d="M261.967 497.714C262.621 496.882 263.825 496.738 264.655 497.393C265.485 498.045 265.629 499.248 264.976 500.081C264.322 500.91 263.118 501.053 262.287 500.399C261.458 499.746 261.314 498.543 261.967 497.714L261.967 497.714Z" fill="#00A9C6" fill-opacity="0.35"/>
<path d="M233.7 439.421C234.354 438.59 235.559 438.446 236.388 439.1C237.219 439.753 237.363 440.956 236.709 441.787C236.054 442.619 234.851 442.762 234.021 442.109C233.19 441.453 233.046 440.251 233.7 439.421Z" fill="#00A9C6" fill-opacity="0.35"/>
<path d="M210.461 349.035C211.113 348.204 212.317 348.061 213.148 348.714C213.978 349.368 214.122 350.571 213.467 351.402C212.814 352.232 211.609 352.375 210.78 351.722C209.95 351.068 209.805 349.865 210.461 349.035Z" fill="#00A9C6" fill-opacity="0.35"/>
<path d="M220.24 407.762C220.892 406.932 222.097 406.789 222.927 407.442C223.757 408.096 223.901 409.298 223.248 410.13C222.595 410.961 221.389 411.103 220.56 410.45C219.73 409.796 219.587 408.593 220.24 407.762V407.762Z" fill="#00A9C6" fill-opacity="0.35"/>
<path d="M161.461 403.715C162 403.026 163 402.908 163.688 403.449C164.374 403.991 164.494 404.988 163.952 405.677C163.411 406.366 162.413 406.484 161.725 405.942C161.036 405.401 160.918 404.403 161.461 403.715Z" fill="#00A9C6" fill-opacity="0.35"/>
<path d="M176.892 404.811C177.432 404.122 178.431 404.003 179.119 404.546C179.806 405.087 179.926 406.083 179.383 406.772C178.843 407.461 177.845 407.58 177.157 407.037C176.469 406.496 176.349 405.499 176.892 404.811Z" fill="#00A9C6" fill-opacity="0.35"/>
<path d="M187.073 388.105C187.615 387.418 188.612 387.298 189.3 387.84C189.988 388.381 190.109 389.378 189.566 390.067C189.024 390.756 188.026 390.874 187.338 390.332C186.651 389.791 186.531 388.794 187.073 388.105Z" fill="#00A9C6" fill-opacity="0.35"/>
<path d="M133.582 401.534C134.236 400.703 135.439 400.56 136.27 401.214C137.099 401.867 137.244 403.071 136.59 403.901C135.937 404.732 134.733 404.874 133.901 404.221C133.072 403.569 132.928 402.364 133.582 401.534V401.534Z" fill="#00A9C6" fill-opacity="0.35"/>
<path d="M106.721 462.341C107.373 461.511 108.577 461.368 109.407 462.021C110.238 462.675 110.383 463.878 109.727 464.709C109.074 465.539 107.871 465.683 107.04 465.028C106.209 464.376 106.065 463.173 106.721 462.341L106.721 462.341Z" fill="#00A9C6" fill-opacity="0.35"/>
<path d="M116.556 440.027C117.209 439.197 118.413 439.053 119.243 439.707C120.073 440.36 120.218 441.564 119.563 442.395C118.91 443.224 117.707 443.369 116.875 442.715C116.045 442.06 115.901 440.858 116.556 440.027Z" fill="#00A9C6" fill-opacity="0.35"/>
<path d="M129.809 471.453C130.462 470.621 131.666 470.479 132.496 471.133C133.326 471.786 133.471 472.99 132.817 473.819C132.163 474.651 130.96 474.794 130.128 474.14C129.299 473.487 129.154 472.285 129.809 471.453Z" fill="#00A9C6" fill-opacity="0.35"/>
<path d="M190.292 458.071C190.948 457.241 192.15 457.098 192.98 457.752C193.811 458.404 193.955 459.608 193.301 460.44C192.647 461.269 191.445 461.413 190.613 460.758C189.783 460.105 189.639 458.902 190.292 458.071Z" fill="#00A9C6" fill-opacity="0.35"/>
<path d="M173.652 461.981C174.196 461.289 175.197 461.17 175.888 461.715C176.58 462.258 176.699 463.259 176.155 463.95C175.611 464.641 174.611 464.761 173.918 464.217C173.227 463.675 173.107 462.672 173.652 461.981Z" fill="#00A9C6" fill-opacity="0.35"/>
<path d="M56.3274 334.147C56.9805 333.316 58.1855 333.173 59.0157 333.826C59.8465 334.481 59.9894 335.683 59.3368 336.514C58.6814 337.345 57.4787 337.488 56.6474 336.834C55.8166 336.18 55.6731 334.978 56.3274 334.147Z" fill="#00A9C6" fill-opacity="0.35"/>
<path d="M90.3914 330.818C91.0444 329.987 92.2489 329.843 93.0791 330.497C93.9104 331.151 94.0527 332.353 93.4002 333.184C92.7449 334.014 91.5421 334.158 90.7102 333.504C89.88 332.85 89.7366 331.648 90.3914 330.818Z" fill="#00A9C6" fill-opacity="0.35"/>
<path d="M75.5876 350.926C76.2401 350.095 77.4451 349.952 78.2759 350.606C79.1061 351.26 79.2495 352.462 78.5964 353.293C77.9411 354.123 76.7383 354.267 75.907 353.613C75.0756 352.959 74.9333 351.757 75.5876 350.926Z" fill="#00A9C6" fill-opacity="0.35"/>
<path d="M110.663 381.514C111.319 380.684 112.521 380.54 113.353 381.194C114.183 381.848 114.327 383.05 113.673 383.881C113.02 384.712 111.814 384.855 110.984 384.201C110.154 383.547 110.01 382.345 110.663 381.514L110.663 381.514Z" fill="#00A9C6" fill-opacity="0.35"/>
<path d="M128.477 382.192C129.131 381.361 130.335 381.218 131.166 381.872C131.995 382.525 132.14 383.728 131.485 384.558C130.832 385.39 129.627 385.533 128.797 384.88C127.965 384.225 127.823 383.023 128.477 382.192Z" fill="#00A9C6" fill-opacity="0.35"/>
<path d="M92.5029 245.578C93.1582 244.746 94.361 244.603 95.1929 245.257C96.0226 245.911 96.1665 247.114 95.5124 247.944C94.8587 248.775 93.6548 248.918 92.8252 248.265C91.9932 247.611 91.8504 246.408 92.5029 245.578Z" fill="#00A9C6" fill-opacity="0.35"/>
<path d="M23.6819 276.708C24.3373 275.878 25.5406 275.734 26.3714 276.388C27.2016 277.042 27.3455 278.245 26.6908 279.075C26.0377 279.906 24.8327 280.049 24.0036 279.396C23.1722 278.741 23.0288 277.54 23.6819 276.708V276.708Z" fill="#00A9C6" fill-opacity="0.35"/>
<path d="M2.4956 312.19C3.14984 311.359 4.35373 311.215 5.1845 311.869C6.01415 312.523 6.15871 313.726 5.50391 314.556C4.85082 315.388 3.64637 315.531 2.81557 314.877C1.9848 314.223 1.8431 313.021 2.4956 312.19H2.4956Z" fill="#00A9C6" fill-opacity="0.35"/>
<path d="M-1.37798 390.605C-0.724301 389.774 0.480738 389.63 1.31095 390.284C2.14172 390.938 2.28456 392.141 1.63203 392.971C0.976682 393.801 -0.226055 393.946 -1.05742 393.291C-1.88878 392.637 -2.03163 391.434 -1.37798 390.605H-1.37798Z" fill="#00A9C6" fill-opacity="0.35"/>
<path d="M11.9479 352.489C12.6032 351.658 13.8059 351.514 14.6373 352.169C15.4664 352.823 15.6115 354.026 14.9573 354.855C14.3042 355.687 13.0986 355.83 12.2684 355.177C11.4382 354.522 11.2942 353.32 11.9479 352.489H11.9479Z" fill="#00A9C6" fill-opacity="0.35"/>
<path d="M16.1346 403.557C16.7877 402.727 17.9927 402.583 18.8224 403.237C19.6537 403.89 19.7966 405.093 19.1429 405.923C18.4898 406.754 17.2854 406.898 16.4546 406.244C15.6227 405.59 15.4798 404.386 16.1346 403.557H16.1346Z" fill="#00A9C6" fill-opacity="0.35"/>
</svg>
