<svg width="9" height="14" viewBox="0 0 9 14" fill="none" xmlns="http://www.w3.org/2000/svg">
<path d="M6.73193 3.4873C6.73193 4.8801 5.6022 6.00993 4.2093 6.00993C2.8165 6.00993 1.68667 4.88021 1.68667 3.4873C1.68667 2.09451 2.81651 0.949218 4.2093 0.949219C5.60209 0.949219 6.73193 2.07906 6.73193 3.4873Z" fill="white"/>
<path d="M4.20944 6.50586C6.53086 6.50586 8.41895 8.39394 8.41894 10.7154L8.41894 12.0618C7.44392 12.6807 5.88086 13.0522 4.20944 13.0522C2.53802 13.0522 0.974936 12.6808 -5.86598e-05 12.0618L-5.85421e-05 10.7154C-5.83392e-05 8.39394 1.88803 6.50586 4.20944 6.50586Z" fill="white"/>
</svg>
