<svg width="34" height="34" viewBox="0 0 34 34" fill="none" xmlns="http://www.w3.org/2000/svg">
<path d="M33.6663 17.0002C33.6663 7.80016 26.1997 0.333496 16.9997 0.333496C7.79967 0.333496 0.333008 7.80016 0.333008 17.0002C0.333008 26.2002 7.79967 33.6668 16.9997 33.6668C26.1997 33.6668 33.6663 26.2002 33.6663 17.0002ZM3.66634 17.0002C3.66634 9.6335 9.63301 3.66683 16.9997 3.66683C24.3663 3.66683 30.333 9.6335 30.333 17.0002C30.333 24.3668 24.3663 30.3335 16.9997 30.3335C9.63301 30.3335 3.66634 24.3668 3.66634 17.0002ZM23.6663 17.0002L16.9997 23.6668L14.6497 21.3168L17.283 18.6668H10.333V15.3335H17.283L14.633 12.6835L16.9997 10.3335L23.6663 17.0002Z" fill="white"/>
</svg>
