<svg width="20" height="20" viewBox="0 0 20 20" fill="none" xmlns="http://www.w3.org/2000/svg">
<g clip-path="url(#clip0_3_26358)">
<path d="M15.8333 3.33366H15V1.66699H13.3333V3.33366H6.66667V1.66699H5V3.33366H4.16667C3.24167 3.33366 2.50833 4.08366 2.50833 5.00033L2.5 16.667C2.5 17.5837 3.24167 18.3337 4.16667 18.3337H15.8333C16.75 18.3337 17.5 17.5837 17.5 16.667V5.00033C17.5 4.08366 16.75 3.33366 15.8333 3.33366ZM15.8333 16.667H4.16667V8.33366H15.8333V16.667ZM15.8333 6.66699H4.16667V5.00033H15.8333V6.66699ZM10 10.8337H14.1667V15.0003H10V10.8337Z" fill="#121212"/>
</g>
<defs>
<clipPath id="clip0_3_26358">
<rect width="20" height="20" fill="white"/>
</clipPath>
</defs>
</svg>
