<svg width="16" height="15" viewBox="0 0 16 15" fill="none" xmlns="http://www.w3.org/2000/svg">
<path d="M14.9533 6.55995L8.94659 0.553285C8.44659 0.0532854 7.56659 0.0466187 7.05992 0.553285L1.05992 6.55329C0.539922 7.07329 0.539922 7.91329 1.05992 8.43329L7.05992 14.4333C7.31992 14.6933 7.65992 14.82 7.99992 14.82C8.33992 14.82 8.67992 14.6933 8.93992 14.4333L14.9333 8.43995C15.4599 7.93329 15.4666 7.09329 14.9533 6.55995V6.55995ZM8.00659 13.4933L2.00659 7.49329L8.00659 1.49329L14.0066 7.49329L8.00659 13.4933V13.4933ZM5.33326 6.83329V9.49995H6.66659V7.49995H9.33326V9.16662L11.6666 6.83329L9.33326 4.49995V6.16662H5.99992C5.63326 6.16662 5.33326 6.46662 5.33326 6.83329Z" fill="url(#paint0_linear_530_2881)"/>
<defs>
<linearGradient id="paint0_linear_530_2881" x1="0.669922" y1="0.175781" x2="15.3333" y2="0.175781" gradientUnits="userSpaceOnUse">
<stop stop-color="#2B87C8"/>
<stop offset="1" stop-color="#0BAFCE"/>
</linearGradient>
</defs>
</svg>
