<svg width="24" height="24" viewBox="0 0 24 24" fill="none" xmlns="http://www.w3.org/2000/svg">
<path fill-rule="evenodd" clip-rule="evenodd" d="M0 12.0001C0 5.37271 5.37258 0.00012207 12 0.00012207C18.6274 0.00012207 24 5.37271 24 12.0001C24 18.6275 18.6274 24.0001 12 24.0001C5.37258 24.0001 0 18.6275 0 12.0001ZM6.15 9.97513V18.0001H8.7V9.97513H6.15ZM6 7.42512C6 8.25012 6.6 8.85013 7.425 8.85013C8.25 8.85013 8.85 8.25012 8.85 7.42512C8.85 6.60013 8.25 6.00012 7.425 6.00012C6.675 6.00012 6 6.60013 6 7.42512ZM15.45 18.0001H17.85V13.0501C17.85 10.5751 16.35 9.75012 14.925 9.75012C13.65 9.75012 12.75 10.5751 12.525 11.1001V9.97513H10.125V18.0001H12.675V13.7251C12.675 12.6001 13.425 12.0001 14.175 12.0001C14.925 12.0001 15.45 12.3751 15.45 13.6501V18.0001Z" fill="white"/>
</svg>
