<svg width="34" height="18" viewBox="0 0 34 18" fill="none" xmlns="http://www.w3.org/2000/svg">
<path d="M25.3335 0.666748H18.6668V4.00008H25.3335C28.0835 4.00008 30.3335 6.25008 30.3335 9.00008C30.3335 11.7501 28.0835 14.0001 25.3335 14.0001H18.6668V17.3334H25.3335C29.9335 17.3334 33.6668 13.6001 33.6668 9.00008C33.6668 4.40008 29.9335 0.666748 25.3335 0.666748ZM15.3335 14.0001H8.66683C5.91683 14.0001 3.66683 11.7501 3.66683 9.00008C3.66683 6.25008 5.91683 4.00008 8.66683 4.00008H15.3335V0.666748H8.66683C4.06683 0.666748 0.333496 4.40008 0.333496 9.00008C0.333496 13.6001 4.06683 17.3334 8.66683 17.3334H15.3335V14.0001ZM10.3335 7.33341H23.6668V10.6667H10.3335V7.33341Z" fill="white"/>
</svg>
