<svg width="12" height="12" viewBox="0 0 12 12" fill="none" xmlns="http://www.w3.org/2000/svg">
<path d="M8.00017 6H9.3335C9.3335 4.16 7.84017 2.66667 6.00017 2.66667V4C7.10683 4 8.00017 4.89333 8.00017 6ZM10.6668 6H12.0002C12.0002 2.68667 9.3135 0 6.00017 0V1.33333C8.58017 1.33333 10.6668 3.42 10.6668 6ZM11.3335 8.33333C10.5002 8.33333 9.70017 8.2 8.9535 7.95333C8.88683 7.93333 8.8135 7.92 8.74683 7.92C8.5735 7.92 8.40683 7.98667 8.2735 8.11333L6.80683 9.58C4.92017 8.62 3.3735 7.08 2.4135 5.18667L3.88017 3.71333C4.06683 3.54 4.12017 3.28 4.04683 3.04667C3.80017 2.3 3.66683 1.5 3.66683 0.666667C3.66683 0.3 3.36683 0 3.00017 0H0.666834C0.300168 0 0.000167847 0.3 0.000167847 0.666667C0.000167847 6.92667 5.0735 12 11.3335 12C11.7002 12 12.0002 11.7 12.0002 11.3333V9C12.0002 8.63333 11.7002 8.33333 11.3335 8.33333ZM1.3535 1.33333H2.3535C2.40017 1.92 2.50017 2.5 2.6535 3.05333L1.8535 3.86C1.58683 3.05333 1.4135 2.21333 1.3535 1.33333ZM10.6668 10.6467C9.78683 10.5867 8.9335 10.4133 8.1335 10.14L8.9335 9.34C9.50017 9.5 10.0802 9.6 10.6668 9.64V10.6467Z" fill="#121212"/>
</svg>
