<svg width="14" height="15" viewBox="0 0 14 15" fill="none" xmlns="http://www.w3.org/2000/svg">
<path d="M7.66683 4.16634H6.3335V6.83301H3.66683V8.16634H6.3335V10.833H7.66683V8.16634H10.3335V6.83301H7.66683V4.16634ZM7.00016 0.833008C3.32016 0.833008 0.333496 3.81967 0.333496 7.49967C0.333496 11.1797 3.32016 14.1663 7.00016 14.1663C10.6802 14.1663 13.6668 11.1797 13.6668 7.49967C13.6668 3.81967 10.6802 0.833008 7.00016 0.833008ZM7.00016 12.833C4.06016 12.833 1.66683 10.4397 1.66683 7.49967C1.66683 4.55967 4.06016 2.16634 7.00016 2.16634C9.94016 2.16634 12.3335 4.55967 12.3335 7.49967C12.3335 10.4397 9.94016 12.833 7.00016 12.833Z" fill="url(#paint0_linear_530_3032)"/>
<defs>
<linearGradient id="paint0_linear_530_3032" x1="0.333496" y1="0.833008" x2="13.6668" y2="0.833008" gradientUnits="userSpaceOnUse">
<stop stop-color="#2B87C8"/>
<stop offset="1" stop-color="#0BAFCE"/>
</linearGradient>
</defs>
</svg>
