<svg width="26" height="26" viewBox="0 0 26 26" fill="none" xmlns="http://www.w3.org/2000/svg">
<path d="M14.2505 6.75H11.7505V11.75H6.75049V14.25H11.7505V19.25H14.2505V14.25H19.2505V11.75H14.2505V6.75ZM13.0005 0.5C6.10049 0.5 0.500488 6.1 0.500488 13C0.500488 19.9 6.10049 25.5 13.0005 25.5C19.9005 25.5 25.5005 19.9 25.5005 13C25.5005 6.1 19.9005 0.5 13.0005 0.5ZM13.0005 23C7.48799 23 3.00049 18.5125 3.00049 13C3.00049 7.4875 7.48799 3 13.0005 3C18.513 3 23.0005 7.4875 23.0005 13C23.0005 18.5125 18.513 23 13.0005 23Z" fill="#121212"/>
</svg>
