<svg width="19" height="19" viewBox="0 0 19 19" fill="none" xmlns="http://www.w3.org/2000/svg">
<path fill-rule="evenodd" clip-rule="evenodd" d="M18.0861 16.04L13.27 11.224C14.027 10.079 14.468 8.70899 14.468 7.23499C14.468 3.23799 11.23 0 7.23401 0C3.23901 0 0 3.23899 0 7.23499C0 11.23 3.23901 14.47 7.23401 14.47C8.70899 14.47 10.0801 14.027 11.224 13.27L16.04 18.086L18.0861 16.04ZM2.05005 7.23599C2.05005 4.37199 4.37109 2.05199 7.23401 2.05199C10.098 2.05199 12.4191 4.37199 12.4191 7.23599C12.4191 10.099 10.098 12.421 7.23401 12.421C4.37207 12.421 2.05005 10.099 2.05005 7.23599Z" fill="white"/>
</svg>
