<svg width="24" height="24" viewBox="0 0 24 24" fill="none" xmlns="http://www.w3.org/2000/svg">
<path fill-rule="evenodd" clip-rule="evenodd" d="M0 12.0001C0 5.37271 5.37258 0.00012207 12 0.00012207C18.6274 0.00012207 24 5.37271 24 12.0001C24 18.6275 18.6274 24.0001 12 24.0001C5.37258 24.0001 0 18.6275 0 12.0001ZM16.575 8.62512C17.1 8.55012 17.55 8.47512 18 8.25012C17.7 8.77512 17.25 9.22512 16.725 9.52512C16.875 13.0501 14.325 16.8751 9.75 16.8751C8.4 16.8751 7.125 16.4251 6 15.7501C7.275 15.9001 8.625 15.5251 9.525 14.8501C8.4 14.8501 7.5 14.1001 7.2 13.1251C7.575 13.2001 7.95 13.1251 8.325 13.0501C7.2 12.7501 6.375 11.7001 6.375 10.5751C6.75 10.7251 7.125 10.8751 7.5 10.8751C6.45 10.1251 6.075 8.70012 6.75 7.57512C8.025 9.07512 9.825 10.0501 11.85 10.1251C11.475 8.62512 12.675 7.12512 14.25 7.12512C14.925 7.12512 15.6 7.42512 16.05 7.87512C16.65 7.72512 17.175 7.57512 17.625 7.27512C17.475 7.87512 17.1 8.32512 16.575 8.62512Z" fill="white"/>
</svg>
